<?xml version="1.0" encoding="utf-8"?>
<!-- Generator: Adobe Illustrator 16.0.0, SVG Export Plug-In . SVG Version: 6.00 Build 0)  -->
<!DOCTYPE svg PUBLIC "-//W3C//DTD SVG 1.1//EN" "http://www.w3.org/Graphics/SVG/1.1/DTD/svg11.dtd">
<svg version="1.1" xmlns="http://www.w3.org/2000/svg" xmlns:xlink="http://www.w3.org/1999/xlink" x="0px" y="0px"
	 width="1108.373px" height="631.043px" viewBox="0 0 1108.373 631.043" enable-background="new 0 0 1108.373 631.043"
	 xml:space="preserve">
<g id="Calque_1">
	<rect x="2.343" fill="#00269E" width="1106.03" height="631.043"/>
</g>
<g id="Calque_2">
	<g>
		<g>
			<g>
				<linearGradient id="SVGID_1_" gradientUnits="userSpaceOnUse" x1="421.3584" y1="215.1318" x2="532.9282" y2="215.1318">
					<stop  offset="0" style="stop-color:#DA80FF"/>
					<stop  offset="0.211" style="stop-color:#D77FFE"/>
					<stop  offset="0.3683" style="stop-color:#CD7BF9"/>
					<stop  offset="0.5081" style="stop-color:#BD74F2"/>
					<stop  offset="0.6379" style="stop-color:#A76BE8"/>
					<stop  offset="0.7607" style="stop-color:#895FDB"/>
					<stop  offset="0.8783" style="stop-color:#6550CB"/>
					<stop  offset="0.9897" style="stop-color:#3B3FB9"/>
					<stop  offset="1" style="stop-color:#373DB7"/>
				</linearGradient>
				<path fill="url(#SVGID_1_)" d="M529.968,234.242c-1.028,0.002-2.025-0.13-2.994-0.398c-0.975-0.27-1.917-0.676-2.828-1.224
					c-0.915-0.549-1.797-1.236-2.646-2.063c-0.851-0.832-1.666-1.803-2.445-2.913c-0.174-0.248-0.345-0.503-0.514-0.763
					c-0.051-0.079-0.1-0.158-0.15-0.236c-0.126-0.198-0.25-0.4-0.373-0.604c-0.045-0.075-0.089-0.147-0.134-0.223
					c-0.16-0.273-0.318-0.55-0.472-0.832c-0.026-0.047-0.051-0.096-0.076-0.144c-0.131-0.243-0.259-0.488-0.387-0.739
					c-0.044-0.089-0.089-0.179-0.133-0.269c-0.116-0.235-0.23-0.474-0.343-0.716c-0.034-0.071-0.068-0.143-0.101-0.216
					c-0.139-0.303-0.274-0.611-0.407-0.926c-0.174-0.409-0.343-0.828-0.507-1.256c-0.043-0.113-0.084-0.229-0.127-0.344
					c-0.12-0.324-0.24-0.651-0.354-0.986c-0.054-0.153-0.105-0.309-0.157-0.464c-0.104-0.313-0.206-0.628-0.305-0.948
					c-0.049-0.156-0.097-0.311-0.145-0.469c-0.119-0.395-0.233-0.795-0.344-1.202c-0.021-0.079-0.044-0.156-0.066-0.235
					c-0.129-0.484-0.253-0.979-0.373-1.479c-0.036-0.15-0.07-0.305-0.105-0.457c-0.084-0.364-0.165-0.73-0.244-1.104
					c-0.038-0.179-0.075-0.36-0.112-0.541c-0.075-0.37-0.146-0.745-0.217-1.122c-0.031-0.168-0.063-0.336-0.093-0.506
					c-0.097-0.542-0.188-1.091-0.275-1.649l-6.646-43.258l-84.536,48.491l3.342,32.286c0.042,0.415,0.092,0.82,0.146,1.222
					c0.017,0.124,0.035,0.245,0.053,0.369c0.04,0.281,0.083,0.559,0.128,0.833c0.012,0.068,0.021,0.141,0.033,0.209
					c0.011,0.063,0.024,0.122,0.035,0.185c0.049,0.279,0.102,0.556,0.158,0.828c0.021,0.104,0.042,0.211,0.063,0.314
					c0.008,0.038,0.015,0.078,0.023,0.117c0.071,0.33,0.147,0.654,0.227,0.975c0.002,0.008,0.004,0.016,0.006,0.023
					c0.011,0.046,0.024,0.088,0.036,0.134c0.078,0.302,0.159,0.6,0.244,0.891c0.032,0.114,0.068,0.225,0.102,0.337
					c0.071,0.234,0.145,0.464,0.221,0.69c0.021,0.065,0.041,0.133,0.063,0.197c0.016,0.047,0.035,0.093,0.052,0.141
					c0.023,0.068,0.046,0.139,0.07,0.206c0.063,0.174,0.13,0.342,0.197,0.513c0.031,0.08,0.061,0.161,0.092,0.241
					c0.125,0.31,0.254,0.613,0.389,0.91c0.006,0.013,0.011,0.025,0.017,0.038c0.017,0.035,0.035,0.069,0.052,0.104
					c0.135,0.294,0.277,0.577,0.423,0.855c0.024,0.046,0.045,0.095,0.069,0.14c0.019,0.036,0.041,0.068,0.06,0.103
					c0.034,0.064,0.066,0.129,0.102,0.193c0.137,0.245,0.279,0.483,0.424,0.718c0.003,0.006,0.007,0.012,0.01,0.017
					c0.013,0.02,0.027,0.038,0.04,0.06c0.171,0.271,0.348,0.533,0.53,0.789c0.026,0.037,0.049,0.076,0.075,0.112
					c0.024,0.033,0.051,0.063,0.075,0.097c0.201,0.272,0.406,0.541,0.62,0.795c0.651,0.776,1.347,1.447,2.085,2.009
					c0.736,0.562,1.515,1.016,2.335,1.362c0.817,0.348,1.676,0.587,2.574,0.721c0.894,0.134,1.827,0.163,2.8,0.087l2.811-0.218
					l90.792-29.817L529.968,234.242z"/>
				<g>
					<linearGradient id="SVGID_2_" gradientUnits="userSpaceOnUse" x1="505.894" y1="200.0996" x2="532.9282" y2="200.0996">
						<stop  offset="0" style="stop-color:#DA80FF"/>
						<stop  offset="0.211" style="stop-color:#D77FFE"/>
						<stop  offset="0.3683" style="stop-color:#CD7BF9"/>
						<stop  offset="0.5081" style="stop-color:#BD74F2"/>
						<stop  offset="0.6379" style="stop-color:#A76BE8"/>
						<stop  offset="0.7607" style="stop-color:#895FDB"/>
						<stop  offset="0.8783" style="stop-color:#6550CB"/>
						<stop  offset="0.9897" style="stop-color:#3B3FB9"/>
						<stop  offset="1" style="stop-color:#373DB7"/>
					</linearGradient>
					<path fill="url(#SVGID_2_)" d="M505.894,165.957l11.745,2.372l6.175,38.588c0.123,0.77,0.253,1.478,0.391,2.123
						c0.139,0.645,0.286,1.227,0.438,1.746s0.314,0.977,0.482,1.368c0.167,0.394,0.343,0.722,0.526,0.987
						c0.182,0.266,0.395,0.5,0.635,0.706c0.24,0.205,0.509,0.378,0.807,0.522s0.623,0.26,0.977,0.344
						c0.353,0.084,0.734,0.138,1.145,0.162l0.572,0.034l3.141,19.322l-2.96,0.011c-1.028,0.002-2.025-0.13-2.994-0.398
						c-0.975-0.27-1.917-0.676-2.828-1.224c-0.915-0.549-1.797-1.236-2.646-2.063c-0.851-0.832-1.666-1.803-2.445-2.913
						c-0.781-1.112-1.504-2.334-2.168-3.662c-0.665-1.329-1.27-2.766-1.815-4.307c-0.544-1.541-1.029-3.186-1.452-4.931
						c-0.422-1.744-0.782-3.587-1.081-5.529L505.894,165.957z"/>
				</g>
			</g>
			<g>
				<linearGradient id="SVGID_3_" gradientUnits="userSpaceOnUse" x1="259.7622" y1="241.1064" x2="343.0552" y2="241.1064">
					<stop  offset="0" style="stop-color:#00269E"/>
					<stop  offset="0.0995" style="stop-color:#0729A1"/>
					<stop  offset="0.2401" style="stop-color:#1930A9"/>
					<stop  offset="0.4052" style="stop-color:#373DB7"/>
					<stop  offset="0.589" style="stop-color:#624EC9"/>
					<stop  offset="0.7881" style="stop-color:#9865E2"/>
					<stop  offset="0.9972" style="stop-color:#D980FF"/>
					<stop  offset="1" style="stop-color:#DA80FF"/>
				</linearGradient>
				<path fill="url(#SVGID_3_)" d="M325.877,257.107c-0.939,0.188-1.914,0.316-2.923,0.386c-1.013,0.069-2.062,0.081-3.145,0.03
					c-1.935-0.087-3.811-0.376-5.626-0.867c-1.823-0.492-3.583-1.188-5.278-2.089c-1.604-0.852-3.147-1.889-4.629-3.104
					l20.101-14.218c0.15-0.106,0.297-0.219,0.439-0.338c0.143-0.117,0.282-0.241,0.418-0.371c0.135-0.129,0.268-0.267,0.396-0.407
					c0.128-0.142,0.253-0.289,0.375-0.442c0.43-0.545,0.809-1.154,1.135-1.83c0.161-0.332,0.309-0.68,0.444-1.043l15.47-11.217
					l-15.121-0.262c-0.534-1.682-1.153-3.17-1.857-4.461s-1.494-2.387-2.37-3.292c-0.877-0.906-1.843-1.62-2.897-2.145
					c-1.056-0.522-2.205-0.855-3.444-0.996c-0.718-0.081-1.406-0.092-2.064-0.032c-0.658,0.061-1.286,0.192-1.884,0.396
					c-0.149,0.05-0.298,0.105-0.443,0.166c-0.438,0.18-0.858,0.399-1.261,0.66c-0.539,0.349-1.046,0.77-1.523,1.264
					c-6.088,6.304-12.176,12.606-18.264,18.91c-0.247-0.956-0.463-1.927-0.643-2.913c-0.403-2.213-0.638-4.5-0.702-6.858
					c-0.057-2.078,0.022-4.062,0.237-5.953c0.214-1.882,0.562-3.671,1.043-5.367c0.479-1.688,1.09-3.284,1.832-4.786
					c0.737-1.495,1.604-2.896,2.599-4.205c-10.768,14.178-21.536,28.357-32.305,42.536c-0.698,0.919-1.31,1.893-1.836,2.921
					c-0.528,1.033-0.969,2.12-1.322,3.262c-0.355,1.146-0.622,2.348-0.8,3.604c-0.178,1.26-0.268,2.573-0.269,3.942
					c0,1.552,0.114,3.05,0.342,4.492c0.229,1.443,0.571,2.831,1.03,4.159c0.459,1.33,1.032,2.601,1.72,3.81
					c0.688,1.21,1.489,2.358,2.404,3.445c0.914,1.085,1.882,2.037,2.903,2.855c1.02,0.818,2.091,1.501,3.213,2.051
					c1.121,0.549,2.291,0.964,3.511,1.245c1.216,0.28,2.481,0.428,3.792,0.442c0.736,0.009,1.451-0.021,2.143-0.09
					c0.69-0.067,1.359-0.174,2.007-0.317c0.646-0.144,1.27-0.325,1.872-0.544c0.601-0.219,1.181-0.475,1.739-0.77
					c14.876-7.825,29.751-15.65,44.628-23.477c-0.794,0.418-1.622,0.778-2.486,1.081
					C327.714,256.676,326.813,256.92,325.877,257.107z"/>
				<g>
					<path fill="#D87FFD" d="M316.828,193.161c1.805,0.249,3.537,0.667,5.197,1.25c1.654,0.582,3.238,1.332,4.755,2.246
						c1.512,0.912,2.959,1.99,4.342,3.235c1.38,1.242,2.698,2.65,3.955,4.228c0.87,1.088,1.687,2.268,2.453,3.538
						c0.766,1.269,1.48,2.63,2.144,4.082c0.664,1.454,1.277,3,1.841,4.642c0.563,1.644,1.077,3.383,1.542,5.217l-15.121-0.262
						c-0.534-1.682-1.153-3.17-1.857-4.461s-1.494-2.387-2.37-3.292c-0.877-0.906-1.843-1.62-2.897-2.145
						c-1.056-0.522-2.205-0.855-3.444-0.996c-0.792-0.09-1.547-0.093-2.265-0.011c-0.72,0.083-1.403,0.252-2.047,0.509
						c-0.646,0.259-1.256,0.603-1.828,1.034c-0.573,0.435-1.108,0.957-1.606,1.567c-0.499,0.613-0.93,1.28-1.295,2.002
						c-0.365,0.724-0.663,1.502-0.893,2.335c-0.23,0.833-0.392,1.723-0.486,2.667c-0.093,0.946-0.118,1.947-0.074,3.003
						c0.042,1.021,0.15,2.004,0.321,2.95c0.171,0.947,0.408,1.856,0.708,2.729c0.301,0.871,0.666,1.706,1.096,2.501
						c0.431,0.794,0.924,1.55,1.482,2.267c0.558,0.716,1.146,1.35,1.766,1.901c0.619,0.551,1.268,1.021,1.947,1.406
						c0.678,0.386,1.386,0.69,2.123,0.912c0.736,0.222,1.5,0.36,2.293,0.418c0.803,0.059,1.559,0.041,2.271-0.055
						c0.708-0.095,1.371-0.267,1.988-0.513c0.615-0.246,1.185-0.568,1.708-0.966c0.523-0.396,1-0.867,1.432-1.413
						c0.43-0.545,0.809-1.154,1.135-1.83c0.327-0.674,0.601-1.412,0.823-2.217c0.222-0.802,0.394-1.669,0.514-2.6
						c0.12-0.929,0.189-1.922,0.208-2.979l14.943,1.854c-0.063,2.374-0.24,4.613-0.532,6.717c-0.294,2.115-0.704,4.095-1.231,5.938
						c-0.531,1.853-1.179,3.566-1.947,5.144c-0.773,1.584-1.667,3.03-2.683,4.334c-1.022,1.313-2.148,2.454-3.375,3.425
						c-1.235,0.976-2.575,1.778-4.02,2.405c-1.453,0.631-3.012,1.083-4.679,1.359c-1.675,0.275-3.459,0.372-5.352,0.285
						c-1.935-0.087-3.811-0.376-5.626-0.867c-1.823-0.492-3.583-1.188-5.278-2.089c-1.7-0.902-3.332-2.01-4.895-3.321
						c-1.566-1.314-3.061-2.833-4.481-4.553c-1.423-1.721-2.678-3.532-3.766-5.43c-1.087-1.898-2.004-3.881-2.752-5.946
						c-0.745-2.062-1.321-4.204-1.726-6.424c-0.403-2.213-0.638-4.5-0.702-6.858c-0.065-2.364,0.047-4.607,0.334-6.73
						c0.285-2.112,0.745-4.104,1.375-5.975c0.628-1.86,1.426-3.6,2.39-5.219c0.959-1.61,2.084-3.099,3.372-4.469
						c1.279-1.36,2.634-2.513,4.064-3.458c1.421-0.94,2.917-1.675,4.487-2.209c1.561-0.531,3.197-0.863,4.905-0.998
						C313.209,192.844,314.982,192.905,316.828,193.161z"/>
				</g>
			</g>
			<g>
				<g>
					<polygon fill="#8E53A6" points="371.605,260.478 392.95,195.016 394.275,209.955 374.158,279.942 					"/>
				</g>
				<g>
					<polygon fill="#9859B2" points="369.73,246.184 391.993,184.225 395.098,184.081 374.197,246.171 					"/>
				</g>
				<g>
					<polygon fill="#804B96" points="367.051,225.756 369.73,246.184 374.197,246.171 375.979,260.51 371.605,260.478 
						374.158,279.942 359.104,279.621 350.78,226.039 					"/>
				</g>
				
					<linearGradient id="SVGID_4_" gradientUnits="userSpaceOnUse" x1="334.9854" y1="214.7939" x2="394.5957" y2="214.7939" gradientTransform="matrix(0.9985 -0.0551 0.0551 0.9985 3.9404 20.5771)">
					<stop  offset="0" style="stop-color:#DA80FF"/>
					<stop  offset="0.1251" style="stop-color:#D67EFD"/>
					<stop  offset="0.2602" style="stop-color:#C979F7"/>
					<stop  offset="0.4" style="stop-color:#B370EE"/>
					<stop  offset="0.5432" style="stop-color:#9563E0"/>
					<stop  offset="0.6889" style="stop-color:#6E53CF"/>
					<stop  offset="0.8367" style="stop-color:#3E40BA"/>
					<stop  offset="0.9835" style="stop-color:#0729A1"/>
					<stop  offset="1" style="stop-color:#00269E"/>
				</linearGradient>
				<polygon fill="url(#SVGID_4_)" points="407.285,168.107 395.756,168.767 391.605,179.853 390.648,169.059 379.385,169.703 
					350.78,226.039 367.051,225.756 369.73,246.184 377.134,225.579 381.152,225.509 374.197,246.171 375.979,260.51 
					386.694,225.412 391.311,225.332 				"/>
				<g>
					
						<linearGradient id="SVGID_5_" gradientUnits="userSpaceOnUse" x1="375.4922" y1="225.3018" x2="395.0352" y2="225.3018" gradientTransform="matrix(0.9985 -0.0551 0.0551 0.9985 3.9404 20.5771)">
						<stop  offset="0" style="stop-color:#DA80FF"/>
						<stop  offset="0.1251" style="stop-color:#D67EFD"/>
						<stop  offset="0.2602" style="stop-color:#C979F7"/>
						<stop  offset="0.4" style="stop-color:#B370EE"/>
						<stop  offset="0.5432" style="stop-color:#9563E0"/>
						<stop  offset="0.6889" style="stop-color:#6E53CF"/>
						<stop  offset="0.8367" style="stop-color:#3E40BA"/>
						<stop  offset="0.9835" style="stop-color:#0729A1"/>
						<stop  offset="1" style="stop-color:#00269E"/>
					</linearGradient>
					<polygon fill="url(#SVGID_5_)" points="391.311,225.332 407.285,168.107 410.01,209.511 396.549,280.423 					"/>
				</g>
				<g>
					<polygon fill="#804B96" points="374.47,225.625 391.311,225.332 396.549,280.423 381.012,280.089 					"/>
				</g>
			</g>
			<g>
				<linearGradient id="SVGID_6_" gradientUnits="userSpaceOnUse" x1="410.7236" y1="228.5156" x2="477.1431" y2="228.5156">
					<stop  offset="0" style="stop-color:#00269E"/>
					<stop  offset="0.022" style="stop-color:#092AA2"/>
					<stop  offset="0.1668" style="stop-color:#4040BA"/>
					<stop  offset="0.3128" style="stop-color:#6F54CF"/>
					<stop  offset="0.457" style="stop-color:#9664E1"/>
					<stop  offset="0.5991" style="stop-color:#B370EE"/>
					<stop  offset="0.7383" style="stop-color:#C979F7"/>
					<stop  offset="0.8735" style="stop-color:#D67EFD"/>
					<stop  offset="1" style="stop-color:#DA80FF"/>
				</linearGradient>
				<path fill="url(#SVGID_6_)" d="M465.478,239.211c-0.063-0.303-0.144-0.561-0.244-0.773c-0.017-0.035-0.035-0.07-0.053-0.104
					c-0.019-0.035-0.038-0.067-0.057-0.1c-0.02-0.032-0.041-0.064-0.063-0.095c-0.021-0.031-0.042-0.061-0.065-0.089l-11.592-14.723
					c0.228-0.16,0.46-0.314,0.694-0.463c0.016-0.011,0.031-0.021,0.047-0.03c0.224-0.144,0.451-0.281,0.682-0.416
					c0.025-0.014,0.05-0.027,0.075-0.043c0.221-0.128,0.444-0.25,0.669-0.369c0.046-0.025,0.092-0.049,0.138-0.073
					c0.225-0.116,0.451-0.229,0.681-0.338c0.034-0.016,0.067-0.031,0.102-0.047c0.199-0.094,0.401-0.183,0.604-0.271
					c0.065-0.028,0.131-0.058,0.197-0.085c0.243-0.103,0.487-0.2,0.734-0.292c0.029-0.012,0.058-0.021,0.087-0.033
					c0.22-0.081,0.441-0.159,0.665-0.235c0.073-0.023,0.146-0.048,0.22-0.072c0.226-0.074,0.453-0.145,0.684-0.212
					c0.024-0.007,0.048-0.015,0.072-0.022c0.255-0.073,0.512-0.141,0.771-0.205c0.063-0.018,0.126-0.032,0.189-0.048
					c0.263-0.063,0.527-0.125,0.795-0.181c0.279-0.059,0.561-0.111,0.845-0.161c0.024-0.004,0.049-0.009,0.073-0.013
					c0.253-0.044,0.509-0.082,0.766-0.118c0.053-0.008,0.105-0.015,0.157-0.022c0.262-0.035,0.525-0.066,0.792-0.096
					c0.048-0.004,0.099-0.009,0.147-0.015c0.278-0.027,0.557-0.054,0.84-0.073c0.308-0.021,0.609-0.037,0.908-0.049
					c0.089-0.004,0.177-0.005,0.266-0.008c0.216-0.007,0.428-0.012,0.638-0.013c0.092,0,0.183-0.001,0.273,0
					c0.245,0.001,0.486,0.006,0.724,0.015c0.042,0.002,0.084,0.002,0.125,0.003c0.276,0.012,0.546,0.029,0.813,0.051
					c0.076,0.006,0.15,0.014,0.225,0.021c0.194,0.017,0.386,0.038,0.576,0.062c0.083,0.01,0.167,0.021,0.249,0.031
					c0.2,0.027,0.397,0.059,0.592,0.092c0.055,0.009,0.111,0.017,0.166,0.027c0.245,0.044,0.484,0.094,0.719,0.147
					c0.059,0.015,0.116,0.029,0.173,0.042c0.18,0.045,0.356,0.091,0.531,0.141c0.073,0.021,0.145,0.041,0.217,0.063
					c0.168,0.052,0.335,0.105,0.499,0.162c0.056,0.02,0.113,0.037,0.169,0.057c0.214,0.077,0.423,0.159,0.628,0.246
					c0.042,0.017,0.081,0.036,0.122,0.055c0.164,0.071,0.326,0.146,0.485,0.225c0.063,0.03,0.125,0.063,0.188,0.095
					c0.142,0.073,0.281,0.149,0.418,0.228c0.054,0.031,0.109,0.061,0.162,0.093c0.175,0.104,0.347,0.213,0.515,0.326
					c0.033,0.021,0.066,0.046,0.1,0.069c0.147,0.102,0.292,0.208,0.434,0.317c0.031,0.024,0.064,0.049,0.095,0.074
					c0.168,0.133,0.331,0.271,0.49,0.413c0.008,0.007,0.015,0.014,0.022,0.021c0.169,0.153,0.333,0.312,0.49,0.476
					c-14.098-14.663-28.195-29.327-42.293-43.991c-0.036-0.037-0.073-0.075-0.11-0.113c-0.037-0.037-0.075-0.073-0.112-0.11
					c-0.038-0.036-0.076-0.073-0.114-0.108c-0.011-0.01-0.023-0.021-0.033-0.031c-0.005-0.005-0.01-0.009-0.015-0.013
					c-0.022-0.021-0.045-0.042-0.068-0.063c-0.085-0.077-0.171-0.151-0.26-0.224c-0.013-0.011-0.026-0.021-0.039-0.031
					c-0.024-0.021-0.049-0.039-0.073-0.058c-0.052-0.042-0.104-0.083-0.156-0.125c-0.055-0.04-0.111-0.081-0.166-0.121
					c-0.024-0.018-0.049-0.036-0.073-0.053c-0.013-0.01-0.026-0.02-0.039-0.03c-0.094-0.065-0.19-0.129-0.288-0.192
					c-0.011-0.006-0.024-0.012-0.036-0.021c-0.019-0.011-0.036-0.024-0.055-0.036c-0.183-0.114-0.373-0.22-0.566-0.322
					c-0.049-0.025-0.099-0.051-0.148-0.075c-0.192-0.096-0.389-0.188-0.591-0.273c-0.027-0.01-0.051-0.025-0.079-0.036
					c-0.01-0.005-0.021-0.006-0.031-0.011c-0.189-0.078-0.382-0.15-0.58-0.217c-0.044-0.015-0.09-0.027-0.134-0.042
					c-0.059-0.019-0.118-0.036-0.177-0.055c-0.224-0.068-0.452-0.133-0.687-0.188c-0.025-0.007-0.049-0.015-0.075-0.021
					c-0.008-0.002-0.017-0.003-0.025-0.005c-0.262-0.061-0.531-0.113-0.806-0.158c-0.067-0.012-0.137-0.022-0.205-0.033
					c-0.082-0.012-0.162-0.026-0.245-0.038c-0.182-0.025-0.367-0.044-0.554-0.063c-0.02-0.003-0.038-0.005-0.058-0.008
					c-0.005,0-0.011,0-0.016,0c-0.293-0.027-0.595-0.044-0.902-0.057c-0.076-0.003-0.152-0.005-0.228-0.006
					c-0.313-0.009-0.631-0.013-0.958-0.006c-0.133,0.003-0.265,0.007-0.396,0.012c-0.066,0.003-0.131,0.007-0.197,0.01
					c-0.021,0.001-0.042,0.001-0.064,0.003c-0.014,0-0.027,0.001-0.041,0.002c-0.03,0.002-0.059,0.003-0.088,0.004
					c-0.129,0.008-0.258,0.017-0.386,0.028c-0.029,0.002-0.058,0.006-0.086,0.007c-0.014,0.002-0.028,0.002-0.042,0.003
					c-0.021,0.001-0.041,0.004-0.062,0.007c-0.064,0.005-0.128,0.011-0.193,0.017c-0.083,0.009-0.168,0.018-0.251,0.028
					c-0.033,0.003-0.066,0.008-0.099,0.012c-0.009,0.001-0.018,0.002-0.026,0.003c-0.008,0-0.016,0.002-0.025,0.003
					c-0.033,0.004-0.066,0.008-0.1,0.012c-0.083,0.011-0.165,0.022-0.248,0.035c-0.082,0.011-0.164,0.024-0.246,0.037
					c-0.138,0.023-0.275,0.046-0.411,0.071c-0.049,0.01-0.099,0.021-0.148,0.03c-0.043,0.009-0.086,0.017-0.13,0.026
					c-0.042,0.009-0.084,0.016-0.126,0.025c-0.134,0.029-0.267,0.059-0.398,0.091c-0.004,0-0.009,0.001-0.014,0.003
					c-0.019,0.004-0.037,0.01-0.055,0.015c-0.109,0.026-0.216,0.053-0.323,0.082c-0.051,0.013-0.101,0.029-0.151,0.044
					c-0.051,0.014-0.101,0.028-0.152,0.042c-0.042,0.012-0.083,0.024-0.125,0.036c-0.111,0.034-0.221,0.07-0.331,0.106
					c-0.019,0.007-0.039,0.012-0.058,0.019c-0.004,0.001-0.009,0.003-0.014,0.005c-0.006,0.001-0.013,0.004-0.019,0.005
					c-0.138,0.047-0.276,0.096-0.413,0.146c-0.025,0.01-0.049,0.021-0.074,0.03c-0.046,0.017-0.091,0.035-0.137,0.053
					c-0.064,0.026-0.13,0.049-0.193,0.076c-0.077,0.032-0.153,0.064-0.229,0.098c-0.021,0.008-0.043,0.017-0.065,0.027
					c-0.011,0.005-0.022,0.01-0.034,0.014c-0.108,0.048-0.215,0.096-0.321,0.147c-0.041,0.019-0.08,0.039-0.12,0.059
					c-0.03,0.015-0.06,0.029-0.089,0.044c-0.036,0.017-0.072,0.034-0.107,0.052c-0.105,0.053-0.208,0.108-0.312,0.163
					c-0.015,0.009-0.03,0.018-0.045,0.025c-0.005,0.003-0.012,0.007-0.018,0.01c-0.011,0.006-0.022,0.013-0.033,0.019
					c-0.06,0.033-0.119,0.065-0.178,0.099c-0.09,0.052-0.18,0.105-0.27,0.159c-0.006,0.003-0.012,0.008-0.018,0.013
					c-0.012,0.007-0.025,0.016-0.038,0.023c-0.07,0.042-0.141,0.086-0.21,0.13c-0.088,0.057-0.175,0.114-0.261,0.172
					c-0.083,0.055-0.164,0.112-0.245,0.17c-0.078,0.054-0.154,0.11-0.23,0.167c-0.001,0.001-0.003,0.001-0.004,0.003
					c-0.002,0.001-0.004,0.003-0.007,0.005c-0.08,0.059-0.159,0.12-0.237,0.181c-0.07,0.055-0.138,0.11-0.207,0.166
					c-0.005,0.003-0.009,0.007-0.015,0.011c-0.001,0.002-0.003,0.004-0.005,0.004c-0.003,0.003-0.005,0.005-0.008,0.007
					c-0.077,0.063-0.154,0.127-0.23,0.192c-0.065,0.057-0.129,0.113-0.192,0.169c-0.008,0.006-0.015,0.012-0.022,0.019
					c-0.004,0.004-0.009,0.007-0.013,0.011c-0.075,0.067-0.15,0.136-0.223,0.205c-0.059,0.056-0.117,0.113-0.176,0.17
					c-0.009,0.008-0.017,0.016-0.024,0.024c-0.006,0.007-0.012,0.012-0.019,0.018c-0.069,0.068-0.137,0.137-0.205,0.207
					c-0.06,0.062-0.119,0.124-0.178,0.187c-0.005,0.007-0.01,0.012-0.017,0.018c-0.002,0.002-0.004,0.005-0.007,0.007
					c-0.067,0.072-0.133,0.144-0.199,0.218c-0.065,0.073-0.13,0.147-0.194,0.223c-0.007,0.008-0.014,0.016-0.021,0.025
					c-0.007,0.008-0.014,0.016-0.021,0.025c-0.007,0.007-0.014,0.016-0.021,0.023c-0.007,0.008-0.014,0.017-0.021,0.025
					c-0.079,0.093-0.156,0.188-0.233,0.285c-0.044,0.057-0.088,0.113-0.132,0.171c-0.017,0.021-0.032,0.041-0.048,0.063
					c-0.015,0.02-0.031,0.038-0.045,0.058c-0.075,0.099-0.147,0.197-0.219,0.298c-0.048,0.067-0.095,0.136-0.141,0.203
					c-0.013,0.018-0.026,0.036-0.039,0.055c-0.011,0.015-0.022,0.031-0.033,0.046c-0.086,0.127-0.171,0.257-0.254,0.388
					c-0.028,0.042-0.054,0.089-0.081,0.133c-0.025,0.04-0.05,0.08-0.074,0.12c-0.029,0.049-0.06,0.096-0.088,0.144
					c-0.079,0.133-0.157,0.27-0.232,0.407c-0.008,0.013-0.015,0.026-0.022,0.04c-0.004,0.007-0.008,0.013-0.012,0.02
					c-0.009,0.017-0.018,0.035-0.026,0.052c-0.055,0.101-0.109,0.202-0.162,0.305c-0.041,0.078-0.078,0.158-0.117,0.238
					c-0.028,0.057-0.057,0.113-0.084,0.17c-0.101,0.212-0.199,0.427-0.293,0.646c-0.011,0.026-0.022,0.054-0.033,0.081
					c-0.083,0.195-0.161,0.393-0.237,0.594c-0.025,0.066-0.049,0.133-0.074,0.201c-0.023,0.063-0.048,0.126-0.071,0.19
					c-0.043,0.125-0.084,0.25-0.125,0.376c-0.012,0.035-0.026,0.07-0.037,0.107c-0.004,0.011-0.007,0.023-0.011,0.035
					c-0.075,0.233-0.145,0.471-0.212,0.711c-0.018,0.062-0.034,0.125-0.051,0.187c-0.051,0.191-0.1,0.382-0.146,0.576
					c-0.017,0.072-0.035,0.142-0.051,0.214c-0.01,0.044-0.021,0.088-0.031,0.133c-0.046,0.206-0.089,0.417-0.13,0.628
					c-0.003,0.019-0.006,0.038-0.01,0.056c-0.046,0.243-0.087,0.489-0.127,0.738c-0.005,0.033-0.012,0.066-0.017,0.099
					c-0.006,0.042-0.011,0.084-0.017,0.126c-0.032,0.218-0.062,0.438-0.089,0.66c-0.007,0.057-0.015,0.112-0.021,0.168
					c-0.003,0.024-0.006,0.048-0.009,0.074c-0.028,0.25-0.052,0.503-0.073,0.758c-0.005,0.064-0.01,0.129-0.015,0.193
					c-0.018,0.226-0.033,0.453-0.045,0.684c-0.004,0.081-0.009,0.161-0.012,0.241c-0.014,0.29-0.025,0.583-0.03,0.88l-0.504,26.585
					l30.083,61.147l2.068-35.088l19.641,32.11l3.021-34.975c0.05-0.569,0.08-1.095,0.092-1.576s0.006-0.919-0.02-1.311
					C465.584,239.862,465.54,239.515,465.478,239.211z"/>
				<g>
					<path fill="#A15FBC" d="M461.511,219.893c0.291-0.061,0.584-0.116,0.881-0.167c0.296-0.051,0.595-0.098,0.897-0.14
						c0.302-0.041,0.606-0.078,0.913-0.109c0.307-0.032,0.617-0.06,0.93-0.082c1.547-0.109,2.978-0.094,4.293,0.049
						c1.312,0.142,2.507,0.408,3.589,0.801c1.078,0.389,2.042,0.902,2.894,1.539c0.848,0.633,1.584,1.389,2.208,2.266
						c0.622,0.874,1.14,1.876,1.554,3.008c0.413,1.127,0.722,2.381,0.93,3.762c0.207,1.375,0.312,2.875,0.317,4.498
						c0.005,1.617-0.09,3.355-0.284,5.216l-3.722,35.604l-14.396,1.979l3.021-34.975c0.05-0.569,0.08-1.095,0.092-1.576
						s0.006-0.919-0.02-1.311c-0.025-0.392-0.069-0.739-0.131-1.043c-0.063-0.303-0.144-0.561-0.244-0.773
						c-0.101-0.213-0.228-0.395-0.38-0.548c-0.153-0.152-0.333-0.275-0.538-0.367c-0.205-0.093-0.438-0.155-0.695-0.187
						c-0.258-0.032-0.542-0.034-0.853-0.007c-0.044,0.005-0.088,0.01-0.132,0.016c-0.044,0.005-0.088,0.011-0.131,0.018
						s-0.086,0.014-0.129,0.023c-0.042,0.006-0.084,0.016-0.126,0.026c-0.523,0.117-0.991,0.339-1.404,0.666
						c-0.412,0.328-0.768,0.76-1.068,1.296c-0.3,0.535-0.543,1.174-0.73,1.917c-0.187,0.74-0.317,1.583-0.391,2.527l-0.565,7.247
						l4.399-0.466l-1.242,14.871l-4.324,0.531l-1.017,13.02l-15.1,2.071l2.14-36.298c0.108-1.843,0.325-3.6,0.65-5.271
						c0.327-1.677,0.762-3.266,1.306-4.764c0.546-1.503,1.2-2.913,1.964-4.229c0.764-1.319,1.637-2.542,2.618-3.669
						c0.791-0.908,1.636-1.735,2.535-2.48c0.898-0.746,1.851-1.409,2.856-1.991c1.003-0.582,2.06-1.082,3.167-1.498
						C459.149,220.478,460.306,220.144,461.511,219.893z"/>
				</g>
			</g>
			<g>
				<g>
					<path fill="#A963C5" d="M647.219,190.973l-3.494,16.791l-7.787,0.214c-0.536,0.016-1.02,0.089-1.448,0.223
						c-0.43,0.135-0.804,0.326-1.125,0.578c-0.32,0.254-0.585,0.564-0.793,0.937c-0.208,0.371-0.362,0.801-0.458,1.29
						c-0.057,0.287-0.093,0.551-0.109,0.793c-0.016,0.241-0.011,0.461,0.014,0.656c0.025,0.197,0.071,0.37,0.138,0.521
						c0.065,0.15,0.152,0.279,0.26,0.384c0.106,0.105,0.241,0.197,0.403,0.272s0.352,0.136,0.57,0.182
						c0.216,0.046,0.461,0.076,0.733,0.092c0.271,0.017,0.57,0.018,0.895,0.004l6.729-0.28l-2.607,12.57l-7.939,0.568
						c-0.275,0.021-0.534,0.052-0.774,0.097c-0.242,0.045-0.465,0.102-0.672,0.172c-0.207,0.069-0.397,0.152-0.57,0.247
						s-0.327,0.202-0.465,0.321c-0.138,0.12-0.267,0.258-0.381,0.414c-0.117,0.155-0.223,0.331-0.318,0.523s-0.18,0.402-0.253,0.631
						c-0.074,0.229-0.136,0.476-0.189,0.739c-0.059,0.3-0.097,0.571-0.117,0.816c-0.019,0.244-0.018,0.462,0.002,0.652
						c0.021,0.191,0.061,0.354,0.121,0.492c0.06,0.136,0.14,0.246,0.239,0.33c0.1,0.083,0.232,0.153,0.397,0.207
						c0.166,0.055,0.364,0.096,0.595,0.121c0.231,0.026,0.494,0.04,0.789,0.036c0.296-0.001,0.624-0.018,0.983-0.048l8.133-0.693
						l-3.23,15.519l-9.467,1.151c-1.142,0.139-2.203,0.18-3.184,0.123c-0.987-0.059-1.892-0.216-2.715-0.472
						c-0.827-0.26-1.571-0.618-2.231-1.079c-0.663-0.464-1.24-1.029-1.733-1.699c-0.495-0.671-0.895-1.437-1.202-2.297
						c-0.309-0.864-0.522-1.822-0.642-2.878c-0.119-1.058-0.141-2.21-0.067-3.459c0.075-1.254,0.246-2.603,0.514-4.048l4.348-23.357
						c0.271-1.459,0.605-2.842,1.002-4.146c0.399-1.306,0.86-2.533,1.384-3.681c0.525-1.148,1.111-2.214,1.759-3.196
						c0.648-0.982,1.357-1.881,2.126-2.697c0.768-0.813,1.578-1.524,2.43-2.132c0.849-0.605,1.737-1.107,2.666-1.505
						c0.924-0.396,1.887-0.69,2.888-0.882c0.996-0.188,2.027-0.276,3.094-0.261L647.219,190.973z"/>
				</g>
				
					<linearGradient id="SVGID_7_" gradientUnits="userSpaceOnUse" x1="591.269" y1="281.209" x2="681.3516" y2="281.209" gradientTransform="matrix(0.9934 0.1151 -0.1151 0.9934 1.1345 -153.0139)">
					<stop  offset="0" style="stop-color:#00269E"/>
					<stop  offset="0.09" style="stop-color:#2A37B0"/>
					<stop  offset="0.2059" style="stop-color:#584AC5"/>
					<stop  offset="0.326" style="stop-color:#805BD7"/>
					<stop  offset="0.4486" style="stop-color:#A168E5"/>
					<stop  offset="0.5744" style="stop-color:#BA73F1"/>
					<stop  offset="0.7047" style="stop-color:#CC7AF9"/>
					<stop  offset="0.8425" style="stop-color:#D77FFD"/>
					<stop  offset="1" style="stop-color:#DA80FF"/>
				</linearGradient>
				<path fill="url(#SVGID_7_)" d="M619.354,208.116c0.026-0.124,0.055-0.243,0.083-0.365c0.063-0.274,0.125-0.548,0.193-0.815
					c0.036-0.141,0.071-0.28,0.108-0.419c0.066-0.252,0.135-0.501,0.206-0.747c0.038-0.134,0.076-0.268,0.115-0.399
					c0.083-0.274,0.167-0.542,0.255-0.809c0.005-0.017,0.01-0.034,0.016-0.051c4.074,2.988,8.148,5.976,12.223,8.964
					c0.001,0,0.002,0.001,0.003,0.003c0.001,0.001,0.002,0.002,0.004,0.002c0.001,0.001,0.002,0.002,0.003,0.004
					c0.002,0,0.003,0.001,0.005,0.001c0.021,0.016,0.042,0.03,0.065,0.045c0.022,0.013,0.045,0.027,0.068,0.041
					c0.011,0.007,0.023,0.013,0.036,0.019c0.004,0.002,0.008,0.005,0.012,0.006c0.008,0.005,0.017,0.01,0.026,0.015
					c0.024,0.012,0.051,0.024,0.077,0.036c0.028,0.012,0.057,0.021,0.085,0.033c0.01,0.004,0.02,0.009,0.03,0.015
					c0.006,0.001,0.012,0.003,0.018,0.005c0.008,0.003,0.017,0.008,0.025,0.011c0.055,0.019,0.113,0.036,0.174,0.054
					c0.008,0.003,0.017,0.004,0.026,0.006c0.016,0.006,0.034,0.009,0.051,0.013c0.036,0.01,0.071,0.02,0.11,0.027
					c0.035,0.008,0.073,0.014,0.11,0.021c0.013,0.003,0.023,0.005,0.036,0.009c0.007,0,0.015,0.001,0.022,0.003
					c0.011,0.001,0.023,0.004,0.035,0.006c0.048,0.007,0.101,0.013,0.152,0.019c0.047,0.007,0.092,0.014,0.14,0.019
					c0.009,0.001,0.015,0.002,0.023,0.003c0.062,0.006,0.129,0.01,0.192,0.014c0.041,0.003,0.078,0.006,0.12,0.009
					c0.003,0,0.009,0,0.015,0c0.006,0.001,0.012,0.001,0.018,0.001c0.079,0.003,0.164,0.003,0.246,0.006
					c0.042,0,0.079,0.001,0.121,0.001c0.004,0,0.007,0,0.01,0c0.13,0,0.266-0.004,0.406-0.009l6.729-0.28l-19.464-13.696
					c0.005-0.011,0.011-0.021,0.016-0.032c0.025-0.043,0.047-0.085,0.072-0.128c0.128-0.233,0.261-0.462,0.396-0.688
					c0.014-0.024,0.028-0.047,0.042-0.072c0.141-0.23,0.284-0.458,0.431-0.681c0.016-0.026,0.034-0.051,0.052-0.077
					c0.146-0.221,0.294-0.438,0.447-0.649c0.015-0.021,0.03-0.043,0.045-0.063c0.156-0.214,0.313-0.423,0.475-0.628
					c0.015-0.02,0.03-0.039,0.046-0.058c0.161-0.204,0.325-0.402,0.494-0.598c0.012-0.015,0.026-0.031,0.038-0.046
					c0.178-0.206,0.36-0.407,0.545-0.604c0.175-0.187,0.355-0.367,0.536-0.542c0.023-0.022,0.046-0.046,0.07-0.069
					c0.174-0.166,0.348-0.327,0.525-0.483c0.036-0.031,0.07-0.063,0.106-0.093c0.174-0.152,0.351-0.3,0.528-0.442
					c0.046-0.038,0.095-0.074,0.143-0.11c0.144-0.113,0.289-0.222,0.435-0.329c0.065-0.046,0.13-0.092,0.196-0.137
					c0.135-0.096,0.272-0.187,0.409-0.276c0.063-0.041,0.125-0.083,0.189-0.123c0.189-0.119,0.38-0.235,0.572-0.344
					c0.009-0.006,0.017-0.011,0.025-0.015c0.014-0.008,0.026-0.014,0.038-0.021c0.243-0.135,0.487-0.262,0.734-0.381
					c0.084-0.042,0.169-0.078,0.253-0.118c0.182-0.083,0.364-0.164,0.548-0.239c0.093-0.038,0.188-0.076,0.282-0.112
					c0.187-0.071,0.377-0.139,0.567-0.202c0.083-0.029,0.168-0.059,0.255-0.085c0.273-0.086,0.549-0.166,0.829-0.234
					c0.01-0.002,0.022-0.005,0.034-0.007c0.27-0.066,0.542-0.123,0.818-0.173c0.088-0.016,0.178-0.029,0.266-0.042
					c0.203-0.034,0.406-0.063,0.612-0.088c0.101-0.011,0.203-0.023,0.303-0.033c0.206-0.021,0.411-0.036,0.62-0.049
					c0.093-0.006,0.186-0.014,0.281-0.017c0.298-0.012,0.598-0.019,0.902-0.015l10.761,0.146l-65.689-38.537l-8.808-0.821
					c-0.247-0.023-0.49-0.037-0.731-0.048c-0.077-0.003-0.152-0.003-0.226-0.006c-0.168-0.004-0.334-0.006-0.499-0.004
					c-0.041,0-0.083-0.001-0.124-0.001c-0.042,0.001-0.081,0.005-0.122,0.006c-0.165,0.005-0.327,0.013-0.489,0.025
					c-0.07,0.005-0.141,0.009-0.212,0.015c-0.029,0.002-0.06,0.003-0.088,0.007c-0.427,0.039-0.842,0.104-1.247,0.19
					c-0.064,0.014-0.129,0.03-0.193,0.046c-0.152,0.034-0.3,0.072-0.449,0.113c-0.036,0.01-0.074,0.018-0.111,0.028
					c-0.037,0.011-0.073,0.025-0.109,0.037c-0.056,0.016-0.112,0.031-0.168,0.048c-0.088,0.029-0.174,0.062-0.261,0.093
					c-0.064,0.023-0.13,0.044-0.195,0.069c-0.191,0.072-0.382,0.149-0.568,0.234c-0.008,0.003-0.018,0.006-0.025,0.011
					c-0.001,0-0.002,0-0.004,0c-0.006,0.003-0.012,0.007-0.018,0.009c-0.125,0.058-0.251,0.118-0.375,0.182
					c-0.023,0.012-0.045,0.024-0.067,0.036c-0.048,0.025-0.093,0.05-0.14,0.076c-0.061,0.033-0.122,0.065-0.183,0.1
					c-0.046,0.025-0.091,0.053-0.135,0.081c-0.026,0.016-0.055,0.031-0.082,0.047c-0.022,0.013-0.043,0.028-0.064,0.041
					c-0.033,0.02-0.066,0.039-0.099,0.059c-0.079,0.05-0.156,0.104-0.234,0.156c-0.035,0.023-0.07,0.045-0.105,0.07
					c-0.011,0.008-0.022,0.013-0.033,0.021c-0.092,0.064-0.183,0.13-0.274,0.197c-0.031,0.024-0.063,0.049-0.094,0.073
					c-0.025,0.021-0.052,0.041-0.078,0.06c-0.033,0.025-0.064,0.05-0.097,0.076c-0.088,0.071-0.176,0.144-0.264,0.219
					c-0.011,0.009-0.021,0.019-0.033,0.029c-0.017,0.016-0.036,0.032-0.053,0.048c-0.058,0.05-0.115,0.1-0.172,0.152
					c-0.019,0.018-0.038,0.035-0.057,0.053c-0.019,0.018-0.038,0.035-0.057,0.053c-0.019,0.018-0.038,0.035-0.056,0.053
					c-0.019,0.018-0.038,0.036-0.056,0.054c-0.057,0.054-0.112,0.108-0.167,0.165c-0.055,0.056-0.109,0.111-0.164,0.167
					c-0.023,0.026-0.047,0.052-0.071,0.078c-0.009,0.01-0.02,0.02-0.028,0.03c-0.02,0.022-0.041,0.042-0.061,0.065
					c-0.053,0.058-0.105,0.117-0.156,0.176c-0.05,0.056-0.1,0.114-0.147,0.173c-0.009,0.011-0.019,0.022-0.029,0.033
					c-0.007,0.008-0.012,0.016-0.019,0.023c-0.064,0.078-0.128,0.156-0.19,0.235c-0.048,0.061-0.095,0.123-0.142,0.184
					c-0.007,0.011-0.016,0.022-0.025,0.032c-0.005,0.009-0.011,0.017-0.019,0.025c-0.061,0.082-0.121,0.165-0.18,0.247
					c-0.043,0.063-0.086,0.127-0.13,0.19c-0.006,0.009-0.014,0.018-0.02,0.027c-0.003,0.004-0.005,0.008-0.009,0.014
					c-0.008,0.011-0.015,0.021-0.022,0.032c-0.06,0.089-0.119,0.179-0.175,0.269c-0.037,0.059-0.073,0.117-0.108,0.176
					c-0.012,0.018-0.021,0.036-0.033,0.053c-0.009,0.016-0.02,0.031-0.028,0.048c-0.057,0.092-0.111,0.187-0.165,0.282
					c-0.028,0.047-0.054,0.099-0.082,0.147c-0.017,0.03-0.034,0.061-0.05,0.091c-0.016,0.03-0.033,0.059-0.049,0.09
					c-0.06,0.111-0.117,0.224-0.174,0.338c-0.012,0.023-0.022,0.047-0.034,0.071c-0.016,0.031-0.031,0.062-0.046,0.094
					c-0.029,0.06-0.059,0.119-0.087,0.181c-0.054,0.116-0.107,0.234-0.159,0.353c-0.001,0.002-0.001,0.003-0.001,0.005
					c0,0-0.001,0,0,0c-0.001,0.002-0.003,0.006-0.003,0.008c-0.067,0.155-0.133,0.311-0.196,0.47
					c-0.011,0.027-0.02,0.055-0.031,0.082c-0.024,0.063-0.048,0.126-0.071,0.188c-0.029,0.076-0.058,0.15-0.086,0.227
					c-0.021,0.059-0.041,0.118-0.062,0.178c-0.024,0.069-0.047,0.137-0.071,0.208c-0.015,0.042-0.03,0.083-0.044,0.127
					c-0.036,0.109-0.069,0.22-0.103,0.331c-0.016,0.05-0.033,0.101-0.047,0.152c-0.004,0.014-0.009,0.029-0.014,0.043
					c-0.015,0.051-0.027,0.104-0.041,0.155c-0.043,0.153-0.089,0.304-0.129,0.461c-0.012,0.046-0.023,0.094-0.034,0.141
					c-0.009,0.032-0.019,0.063-0.027,0.096c-0.015,0.058-0.025,0.118-0.04,0.175c-0.043,0.183-0.085,0.368-0.125,0.554
					c-0.011,0.054-0.025,0.105-0.036,0.159c-0.01,0.045-0.017,0.093-0.026,0.139c-0.039,0.191-0.074,0.386-0.108,0.583
					c-0.012,0.067-0.026,0.132-0.037,0.201c-0.004,0.026-0.008,0.053-0.011,0.079c-0.047,0.289-0.089,0.581-0.128,0.878
					l-2.184,17.162c-0.135,1.068-0.199,2.075-0.188,3.017c0.009,0.94,0.091,1.817,0.245,2.632c0.154,0.812,0.378,1.561,0.676,2.248
					c0.296,0.684,0.663,1.306,1.1,1.866c0.058,0.074,0.117,0.147,0.177,0.219c0.06,0.072,0.122,0.143,0.184,0.212
					c0.063,0.069,0.127,0.137,0.191,0.205c0.065,0.067,0.13,0.132,0.198,0.196c18.929,18.149,37.856,36.297,56.784,54.446
					c-0.078-0.075-0.155-0.15-0.229-0.229c-0.075-0.078-0.148-0.158-0.22-0.239c-0.072-0.083-0.142-0.166-0.211-0.252
					c-0.069-0.086-0.135-0.174-0.201-0.263c-0.495-0.671-0.895-1.437-1.202-2.297c-0.309-0.864-0.522-1.822-0.642-2.878
					c-0.119-1.058-0.141-2.21-0.067-3.459c0.075-1.254,0.246-2.603,0.514-4.048l1.845-9.912l11.216,9.428
					c0.007,0.006,0.015,0.012,0.022,0.019c0.008,0.005,0.015,0.011,0.023,0.016c0.007,0.006,0.015,0.012,0.024,0.018
					c0.007,0.005,0.015,0.01,0.023,0.016c0.018,0.011,0.034,0.021,0.052,0.031c0.008,0.004,0.018,0.01,0.026,0.014
					c0.002,0.001,0.005,0.003,0.007,0.005c0.008,0.003,0.014,0.007,0.022,0.011c0.02,0.01,0.04,0.019,0.06,0.027
					c0.021,0.009,0.042,0.017,0.063,0.025c0.017,0.007,0.037,0.012,0.055,0.019c0.007,0.003,0.011,0.006,0.018,0.008
					c0.007,0.003,0.016,0.004,0.022,0.006c0.017,0.006,0.033,0.012,0.051,0.017c0.051,0.015,0.105,0.029,0.161,0.041
					c0.01,0.003,0.019,0.004,0.028,0.005c0.012,0.004,0.025,0.005,0.039,0.008c0.037,0.007,0.075,0.016,0.115,0.021
					c0.053,0.008,0.108,0.016,0.166,0.022c0.005,0,0.008,0.001,0.013,0.001c0.001,0,0.003,0,0.005,0.002
					c0.003,0,0.007,0,0.012,0.001c0.065,0.006,0.141,0.012,0.211,0.016c0.051,0.004,0.098,0.009,0.15,0.012c0.003,0,0.004,0,0.007,0
					c0.068,0.003,0.145,0.002,0.218,0.003c0.063,0.002,0.12,0.004,0.186,0.003c0.003,0,0.006,0,0.007,0c0.001,0,0.002,0,0.003,0
					c0.092-0.001,0.191-0.004,0.289-0.009c0.057-0.001,0.111-0.002,0.171-0.004c0.001,0,0.001,0,0.003,0
					c0.162-0.009,0.332-0.021,0.509-0.035l8.133-0.693l-20.723-16.513l1.114-5.983C619.185,208.919,619.268,208.515,619.354,208.116
					z"/>
			</g>
			<g>
				<linearGradient id="SVGID_8_" gradientUnits="userSpaceOnUse" x1="543.0684" y1="212.1338" x2="574.2471" y2="212.1338">
					<stop  offset="0" style="stop-color:#DA80FF"/>
					<stop  offset="0.1251" style="stop-color:#D67EFD"/>
					<stop  offset="0.2602" style="stop-color:#C979F7"/>
					<stop  offset="0.4" style="stop-color:#B370EE"/>
					<stop  offset="0.5432" style="stop-color:#9563E0"/>
					<stop  offset="0.6889" style="stop-color:#6E53CF"/>
					<stop  offset="0.8367" style="stop-color:#3E40BA"/>
					<stop  offset="0.9835" style="stop-color:#0729A1"/>
					<stop  offset="1" style="stop-color:#00269E"/>
				</linearGradient>
				<path fill="url(#SVGID_8_)" d="M573.682,206.05c-0.193-0.036-0.377-0.077-0.554-0.121c-0.014-0.003-0.028-0.006-0.042-0.011
					c-0.171-0.044-0.335-0.091-0.491-0.143c-0.012-0.003-0.022-0.008-0.034-0.012c-0.158-0.052-0.31-0.109-0.451-0.171
					c-0.001-0.001-0.002-0.001-0.003-0.001c-0.147-0.064-0.286-0.133-0.417-0.206c0-0.001-0.001-0.002-0.003-0.002
					c-0.127-0.072-0.245-0.148-0.356-0.228c-0.005-0.003-0.009-0.007-0.014-0.011c-0.099-0.073-0.189-0.149-0.273-0.229
					c-0.015-0.013-0.03-0.027-0.044-0.041c-0.082-0.08-0.157-0.164-0.225-0.25c-0.014-0.018-0.027-0.036-0.041-0.054
					c-0.068-0.091-0.13-0.185-0.184-0.283c-0.059-0.107-0.113-0.228-0.162-0.359c-0.001-0.003-0.002-0.007-0.003-0.011
					c-0.049-0.13-0.091-0.271-0.129-0.424c0,0,0,0,0,0c-0.076-0.309-0.131-0.664-0.166-1.063c0-0.004,0-0.008,0-0.012
					c-0.017-0.199-0.028-0.41-0.035-0.632c0,0,0,0,0-0.001c-0.005-0.213-0.006-0.438-0.002-0.672c0-0.021,0-0.041,0-0.063
					c0.005-0.231,0.014-0.472,0.027-0.723c0.001-0.013,0.001-0.024,0.001-0.038c0.015-0.267,0.036-0.544,0.061-0.834l2.663-30.412
					l-10.994-1.879l-18.744,8.827l16.724,2.937l-3.83,46.141c-0.005,0.059-0.01,0.116-0.015,0.174
					c-0.004,0.057-0.01,0.114-0.013,0.172c-0.003,0.056-0.008,0.114-0.012,0.171c-0.004,0.056-0.008,0.111-0.012,0.167
					c-0.012,0.188-0.023,0.373-0.033,0.553c0,0.005,0,0.011,0,0.015c-0.003,0.063-0.005,0.121-0.008,0.183
					c-0.006,0.113-0.011,0.227-0.016,0.337c0,0.02,0,0.037-0.001,0.057c-0.002,0.063-0.003,0.122-0.006,0.184
					c-0.002,0.091-0.005,0.183-0.007,0.271c-0.001,0.034-0.001,0.066-0.001,0.099c0,0.021,0,0.045-0.001,0.067
					c0,0.041,0,0.08,0,0.122c0,0.068-0.002,0.138-0.002,0.204c0,0.052,0.001,0.103,0.002,0.153c0,0.039,0,0.077,0,0.114
					c0,0.03,0,0.063,0.001,0.092c0.002,0.117,0.004,0.233,0.008,0.348c0,0.006,0,0.01,0,0.015c0,0.027,0.003,0.053,0.003,0.08
					c0.003,0.08,0.006,0.162,0.009,0.241c0.002,0.041,0.004,0.079,0.007,0.118c0.002,0.043,0.004,0.084,0.007,0.125
					c0.001,0.027,0.003,0.054,0.005,0.081c0.006,0.087,0.012,0.172,0.02,0.258c0.002,0.018,0.002,0.036,0.004,0.055
					c0,0.008,0.001,0.017,0.002,0.024c0,0.011,0.001,0.022,0.003,0.034c0.004,0.045,0.008,0.091,0.013,0.136
					c0.008,0.082,0.017,0.163,0.026,0.242c0,0.007,0.002,0.014,0.002,0.02c0.002,0.012,0.004,0.023,0.005,0.036
					c0.008,0.06,0.015,0.12,0.024,0.179c0.009,0.068,0.019,0.136,0.03,0.202c0,0.002,0.001,0.005,0.001,0.006
					c0,0.005,0.001,0.011,0.001,0.016c0.01,0.06,0.02,0.118,0.03,0.176c0.011,0.063,0.023,0.129,0.036,0.19
					c0.001,0.002,0.001,0.004,0.001,0.008c0.001,0.008,0.004,0.016,0.006,0.024c0.01,0.051,0.021,0.103,0.032,0.152
					c0.014,0.061,0.028,0.12,0.042,0.179c0.001,0.004,0.001,0.007,0.003,0.009c0,0.002,0,0.006,0.001,0.008
					c0.002,0.005,0.003,0.01,0.005,0.016c0.012,0.048,0.023,0.095,0.037,0.141c0.016,0.057,0.031,0.112,0.048,0.168
					c0,0.002,0.001,0.005,0.002,0.007c0.004,0.01,0.007,0.02,0.01,0.028c0.013,0.042,0.026,0.083,0.04,0.124
					c0.015,0.046,0.032,0.088,0.047,0.132c0.006,0.018,0.011,0.034,0.018,0.051c0.001,0.004,0.003,0.009,0.004,0.014
					c0.025,0.063,0.049,0.125,0.075,0.185c0.007,0.018,0.015,0.034,0.023,0.05c0.008,0.019,0.017,0.037,0.024,0.057
					c0.011,0.022,0.021,0.047,0.032,0.068c0.027,0.057,0.056,0.112,0.084,0.165c0.052,0.094,0.108,0.185,0.168,0.273
					c0.006,0.009,0.009,0.019,0.015,0.024c0.014,0.021,0.031,0.04,0.045,0.061c0.043,0.062,0.088,0.122,0.136,0.181
					c0.011,0.015,0.021,0.03,0.033,0.044c0.013,0.017,0.029,0.031,0.043,0.048c0.047,0.056,0.097,0.11,0.148,0.165
					c0.018,0.018,0.033,0.037,0.051,0.055c0.011,0.011,0.021,0.02,0.032,0.03c0.012,0.012,0.023,0.025,0.035,0.036
					c0.05,0.05,0.104,0.096,0.159,0.144c0.017,0.014,0.031,0.029,0.048,0.045c0.005,0.004,0.01,0.007,0.015,0.012
					c0.007,0.006,0.015,0.013,0.022,0.019c0.038,0.031,0.075,0.063,0.114,0.093c0.028,0.021,0.059,0.044,0.087,0.065
					c0.016,0.012,0.03,0.023,0.045,0.034c0.008,0.006,0.016,0.012,0.024,0.019c0.054,0.039,0.109,0.076,0.165,0.114
					c0.014,0.009,0.028,0.019,0.042,0.027c0.015,0.01,0.031,0.02,0.046,0.03c0.028,0.019,0.055,0.036,0.084,0.054
					c0.055,0.033,0.112,0.067,0.169,0.101c0.002,0,0.004,0.002,0.005,0.003c0,0.001,0.001,0.001,0.002,0.001
					c0.003,0.002,0.007,0.005,0.01,0.006c0.064,0.037,0.129,0.073,0.195,0.106c0.023,0.013,0.048,0.024,0.071,0.036
					c0.02,0.011,0.04,0.02,0.059,0.029c0.025,0.013,0.049,0.026,0.074,0.037c0.069,0.035,0.139,0.067,0.212,0.099
					c0.001,0.001,0.003,0.002,0.005,0.003c0.01,0.005,0.02,0.008,0.029,0.013c0.074,0.031,0.147,0.063,0.224,0.095
					c0.02,0.008,0.04,0.015,0.059,0.022c0.033,0.013,0.067,0.026,0.102,0.04c0.037,0.015,0.073,0.028,0.109,0.042
					c0.044,0.017,0.089,0.031,0.133,0.046c0.021,0.01,0.041,0.017,0.062,0.024c0.012,0.004,0.023,0.007,0.035,0.012
					c0.018,0.005,0.034,0.012,0.052,0.017c0.096,0.033,0.193,0.064,0.293,0.094c0.002,0,0.003,0,0.005,0.001
					c0.008,0.003,0.015,0.005,0.021,0.008c0.091,0.026,0.184,0.053,0.279,0.079c0.022,0.006,0.045,0.012,0.068,0.018
					c0.036,0.01,0.072,0.018,0.109,0.029c0.047,0.012,0.093,0.024,0.141,0.035c0.051,0.013,0.104,0.024,0.156,0.037
					c0.035,0.009,0.071,0.016,0.105,0.024c0.023,0.006,0.045,0.011,0.067,0.016c0.112,0.024,0.226,0.048,0.341,0.07l0.856,0.17
					l-1.874,21.854l12.6-36.394l1.301-14.557L573.682,206.05z"/>
				<g>
					<path fill="#A461C0" d="M559.792,178.927l-3.83,46.141c-0.074,0.886-0.115,1.701-0.125,2.448
						c-0.01,0.744,0.012,1.422,0.067,2.03c0.054,0.607,0.14,1.146,0.258,1.616c0.118,0.471,0.268,0.871,0.45,1.204
						c0.182,0.332,0.417,0.638,0.706,0.917c0.289,0.28,0.63,0.532,1.026,0.759c0.396,0.226,0.846,0.426,1.348,0.6
						c0.504,0.173,1.06,0.319,1.672,0.439l0.856,0.17l-1.874,21.854l-4.352-0.896c-1.488-0.307-2.881-0.742-4.178-1.309
						c-1.296-0.567-2.497-1.262-3.604-2.088c-1.106-0.826-2.119-1.782-3.037-2.868c-0.918-1.088-1.743-2.304-2.474-3.653
						c-0.733-1.349-1.354-2.791-1.863-4.328c-0.51-1.538-0.908-3.173-1.193-4.901c-0.286-1.731-0.459-3.56-0.522-5.484
						c-0.061-1.928-0.011-3.954,0.151-6.079l3.793-49.507L559.792,178.927z"/>
				</g>
			</g>
			<g>
				<linearGradient id="SVGID_9_" gradientUnits="userSpaceOnUse" x1="664.5361" y1="219.7344" x2="739.8345" y2="219.7344">
					<stop  offset="0" style="stop-color:#DA80FF"/>
					<stop  offset="0.0983" style="stop-color:#D37DFC"/>
					<stop  offset="0.2405" style="stop-color:#C075F3"/>
					<stop  offset="0.4093" style="stop-color:#A068E5"/>
					<stop  offset="0.5987" style="stop-color:#7456D2"/>
					<stop  offset="0.8023" style="stop-color:#3D3FB9"/>
					<stop  offset="1" style="stop-color:#00269E"/>
				</linearGradient>
				<path fill="url(#SVGID_9_)" d="M739.834,201.475c0-0.07,0-0.139,0-0.208c0-0.047-0.002-0.093-0.002-0.14
					c-0.001-0.044-0.001-0.087-0.001-0.131c-0.002-0.088-0.002-0.177-0.005-0.264c-0.003-0.177-0.009-0.352-0.015-0.526
					c-0.001-0.034-0.003-0.065-0.003-0.099c-0.002-0.041-0.004-0.082-0.006-0.123c-0.004-0.099-0.008-0.2-0.013-0.297
					c-0.009-0.172-0.018-0.342-0.03-0.51c-0.001-0.022-0.002-0.044-0.004-0.065c-0.002-0.033-0.005-0.068-0.007-0.102
					c-0.009-0.115-0.016-0.231-0.025-0.345c-0.014-0.168-0.029-0.336-0.045-0.502c0-0.006-0.002-0.013-0.002-0.021
					c-0.001-0.005-0.001-0.011-0.001-0.016c-0.001-0.014-0.002-0.026-0.004-0.041c-0.015-0.14-0.028-0.279-0.044-0.417
					c-0.017-0.147-0.035-0.295-0.054-0.44c-0.001-0.011-0.002-0.021-0.004-0.031c-0.001-0.005-0.001-0.01-0.001-0.014
					c-0.024-0.178-0.049-0.356-0.075-0.531c-0.013-0.087-0.027-0.172-0.042-0.258c-0.007-0.044-0.015-0.089-0.022-0.135
					c-0.006-0.042-0.012-0.085-0.021-0.126c-0.03-0.173-0.06-0.342-0.093-0.511c-0.006-0.04-0.016-0.077-0.023-0.116
					c-0.008-0.044-0.018-0.087-0.026-0.132c-0.017-0.084-0.033-0.168-0.051-0.252c-0.02-0.083-0.04-0.165-0.059-0.248
					c-0.019-0.085-0.036-0.171-0.055-0.254c-0.013-0.055-0.029-0.106-0.043-0.16c-0.013-0.056-0.023-0.113-0.039-0.168
					c-0.02-0.078-0.042-0.153-0.063-0.231c-0.037-0.136-0.074-0.272-0.113-0.405c-0.016-0.054-0.029-0.109-0.044-0.162
					c-0.022-0.073-0.047-0.144-0.071-0.216c-0.04-0.131-0.082-0.262-0.125-0.391c-0.018-0.053-0.034-0.108-0.052-0.162
					c-0.023-0.069-0.051-0.134-0.076-0.202c-0.046-0.127-0.092-0.252-0.14-0.376c-0.021-0.052-0.039-0.106-0.059-0.158
					c-0.036-0.092-0.073-0.181-0.11-0.27c-0.014-0.031-0.028-0.064-0.041-0.095c-0.003-0.008-0.006-0.018-0.01-0.025
					c-0.004-0.009-0.007-0.017-0.012-0.026c-0.017-0.039-0.033-0.079-0.051-0.119c-0.039-0.087-0.078-0.173-0.118-0.261
					c-0.04-0.085-0.08-0.171-0.121-0.255c-0.001-0.003-0.003-0.005-0.005-0.007c-0.01-0.024-0.021-0.046-0.034-0.068
					c-0.069-0.142-0.14-0.282-0.213-0.419c-0.018-0.034-0.038-0.066-0.055-0.099c-0.033-0.061-0.067-0.121-0.101-0.181
					c-0.037-0.065-0.073-0.132-0.111-0.198c-0.04-0.07-0.083-0.137-0.125-0.206c-0.033-0.055-0.067-0.11-0.102-0.164
					c-0.018-0.03-0.033-0.06-0.053-0.089c-0.095-0.151-0.194-0.297-0.295-0.441c-0.015-0.021-0.029-0.043-0.043-0.063
					c-0.014-0.021-0.029-0.041-0.043-0.062c-0.015-0.02-0.03-0.041-0.044-0.061c-0.016-0.021-0.03-0.042-0.045-0.061
					c-0.058-0.079-0.115-0.156-0.175-0.232c-0.014-0.02-0.03-0.038-0.046-0.058c-0.01-0.014-0.021-0.028-0.031-0.041
					c-0.034-0.042-0.067-0.085-0.102-0.127c-0.06-0.073-0.122-0.147-0.182-0.22c-0.037-0.042-0.075-0.084-0.113-0.126
					c-0.01-0.013-0.021-0.024-0.031-0.036c-0.015-0.017-0.029-0.033-0.043-0.049c-0.05-0.055-0.101-0.109-0.151-0.164
					c-0.05-0.054-0.102-0.108-0.153-0.161c-0.027-0.027-0.054-0.054-0.082-0.082c-0.008-0.009-0.016-0.016-0.024-0.024
					c-0.017-0.017-0.033-0.033-0.048-0.049c-0.053-0.052-0.105-0.102-0.159-0.152c-0.047-0.044-0.094-0.087-0.141-0.13
					c-0.037-0.035-0.075-0.067-0.112-0.1c-0.002-0.002-0.004-0.004-0.008-0.007c-0.001-0.001-0.003-0.002-0.003-0.003
					c-0.007-0.005-0.014-0.011-0.02-0.017c-0.047-0.042-0.096-0.084-0.145-0.124c-0.049-0.041-0.098-0.082-0.147-0.12
					c-0.045-0.038-0.091-0.074-0.136-0.11c-0.012-0.01-0.026-0.021-0.04-0.03c-0.007-0.004-0.012-0.01-0.017-0.013
					c-0.028-0.021-0.056-0.042-0.083-0.064c-0.046-0.035-0.093-0.07-0.14-0.104c-0.047-0.036-0.095-0.069-0.143-0.102
					c-0.045-0.032-0.092-0.064-0.138-0.095c-0.001-0.001-0.003-0.002-0.006-0.004c-0.001-0.001-0.002-0.001-0.004-0.002
					c-0.042-0.029-0.084-0.058-0.128-0.086c-0.047-0.029-0.094-0.06-0.141-0.089c-0.048-0.03-0.096-0.059-0.143-0.088
					c-0.042-0.025-0.083-0.049-0.125-0.074c-0.001-0.001-0.005-0.002-0.007-0.003c-0.003-0.002-0.006-0.005-0.011-0.006
					c-0.046-0.028-0.096-0.056-0.143-0.083c-0.049-0.026-0.098-0.054-0.146-0.08c-0.048-0.025-0.097-0.052-0.147-0.077
					c-0.036-0.019-0.073-0.036-0.109-0.055c-0.002-0.001-0.003-0.002-0.006-0.003c-0.002-0.001-0.003-0.003-0.006-0.003
					c-0.009-0.005-0.017-0.009-0.028-0.014c-0.049-0.025-0.101-0.049-0.15-0.073c-0.051-0.024-0.101-0.048-0.151-0.071
					c-0.051-0.024-0.102-0.046-0.155-0.069c-0.025-0.012-0.053-0.023-0.082-0.035c-0.009-0.004-0.018-0.008-0.027-0.012
					c-0.017-0.007-0.033-0.014-0.051-0.021c-0.052-0.021-0.106-0.043-0.16-0.065c-0.054-0.022-0.109-0.043-0.164-0.063
					s-0.108-0.041-0.165-0.061c-0.014-0.005-0.029-0.01-0.043-0.015c-0.008-0.002-0.017-0.006-0.024-0.008
					c-0.035-0.013-0.071-0.025-0.105-0.037c-0.058-0.02-0.117-0.04-0.175-0.059c-0.06-0.019-0.118-0.037-0.177-0.055
					c-0.05-0.015-0.1-0.03-0.15-0.044c-0.004-0.001-0.009-0.001-0.013-0.003c-0.006-0.002-0.011-0.003-0.015-0.005
					c-0.065-0.017-0.129-0.035-0.194-0.052c-0.064-0.019-0.13-0.034-0.195-0.05c-0.066-0.017-0.132-0.031-0.197-0.047
					c-0.011-0.001-0.021-0.004-0.031-0.007c-0.004,0-0.008-0.002-0.013-0.003c-0.006-0.001-0.011-0.002-0.017-0.004
					c-0.046-0.009-0.092-0.02-0.138-0.029c-0.072-0.016-0.146-0.03-0.219-0.044c-0.074-0.014-0.147-0.027-0.222-0.04
					c-0.019-0.003-0.037-0.007-0.058-0.01c-0.011-0.002-0.024-0.004-0.036-0.006c-0.043-0.007-0.087-0.015-0.129-0.021
					c-0.075-0.012-0.151-0.022-0.227-0.032c-0.085-0.011-0.171-0.023-0.258-0.033c-0.013-0.001-0.027-0.002-0.042-0.004
					c-0.011-0.001-0.023-0.003-0.035-0.003c-0.061-0.008-0.123-0.014-0.184-0.021c-0.088-0.008-0.177-0.016-0.265-0.022
					c-0.074-0.006-0.149-0.011-0.222-0.016c-0.011,0-0.02,0-0.028-0.002c-0.006,0-0.011,0-0.016,0
					c-0.058-0.003-0.117-0.006-0.175-0.009c-0.059-0.002-0.118-0.006-0.176-0.007c-0.058-0.003-0.117-0.003-0.177-0.005
					c-0.06-0.002-0.119-0.003-0.178-0.003c-0.044-0.001-0.089-0.001-0.132-0.001c-0.026,0-0.053,0-0.079,0c-0.007,0-0.013,0-0.02,0
					c-0.003,0-0.008,0-0.012,0c-0.007,0-0.015,0-0.021,0c-0.044,0-0.088,0.001-0.132,0.001c-0.012,0-0.025,0-0.038,0
					c-0.008,0-0.018,0-0.026,0c-0.009,0-0.019,0.001-0.027,0.001c-0.014,0.001-0.026,0.001-0.039,0.001
					c-0.032,0.001-0.065,0.002-0.097,0.002c-0.021,0-0.04,0-0.059,0.002c-0.002,0-0.004,0-0.005,0c-0.003,0-0.004,0-0.007,0
					c-0.009,0.001-0.019,0.001-0.027,0.001c-0.032,0-0.064,0.002-0.097,0.004c-0.031,0.001-0.064,0.002-0.097,0.005
					c-20.034,0.998-40.067,1.997-60.102,2.993c0.092-0.004,0.185-0.008,0.278-0.011c0.011,0,0.021-0.001,0.031-0.001
					c0.083-0.002,0.167-0.003,0.252-0.005c0.016-0.001,0.032-0.001,0.049-0.001c0.083,0,0.167-0.002,0.25-0.002
					c0.018,0,0.036,0.002,0.054,0.002c0.088,0,0.176,0,0.266,0.003c0.318,0.005,0.631,0.021,0.942,0.042
					c0.008,0.002,0.016,0.002,0.024,0.003c0.297,0.022,0.591,0.052,0.88,0.089c0.016,0.002,0.031,0.004,0.046,0.006
					c0.29,0.038,0.573,0.085,0.855,0.138c0.015,0.002,0.03,0.005,0.046,0.009c0.282,0.054,0.561,0.116,0.836,0.187
					c0.009,0.002,0.019,0.004,0.028,0.007c0.284,0.073,0.563,0.153,0.836,0.242c0.003,0.001,0.008,0.002,0.01,0.003
					c0.272,0.089,0.539,0.186,0.802,0.291c0.01,0.004,0.02,0.008,0.031,0.012c0.261,0.104,0.517,0.215,0.77,0.336
					c0.009,0.005,0.02,0.01,0.03,0.015c0.253,0.122,0.502,0.251,0.747,0.387c0.006,0.005,0.013,0.008,0.019,0.012
					c0.249,0.14,0.493,0.288,0.732,0.444c0.003,0.002,0.006,0.005,0.011,0.007c0.242,0.158,0.479,0.325,0.711,0.5
					c0.001,0,0.001,0,0.002,0c0.231,0.173,0.457,0.356,0.678,0.546c0.007,0.006,0.015,0.013,0.023,0.02
					c0.219,0.189,0.434,0.385,0.646,0.591c0.007,0.005,0.014,0.012,0.019,0.018c0.209,0.203,0.413,0.414,0.611,0.632
					c0.012,0.013,0.024,0.026,0.034,0.039c0.195,0.215,0.386,0.438,0.571,0.667c0.017,0.02,0.033,0.041,0.049,0.06
					c0.179,0.224,0.354,0.454,0.525,0.69c0.017,0.023,0.033,0.047,0.05,0.069c0.183,0.254,0.36,0.515,0.532,0.786
					c0.164,0.252,0.319,0.513,0.472,0.778c0.047,0.082,0.093,0.165,0.139,0.248c0.108,0.194,0.216,0.392,0.319,0.592
					c0.046,0.087,0.092,0.174,0.136,0.263c0.127,0.253,0.252,0.512,0.373,0.776c0.014,0.029,0.028,0.058,0.042,0.086
					c0.139,0.309,0.273,0.625,0.403,0.947c0.01,0.026,0.021,0.051,0.03,0.078c0.101,0.25,0.196,0.507,0.291,0.766
					c0.065,0.186,0.131,0.373,0.196,0.561c0.059,0.174,0.118,0.351,0.173,0.529c0.061,0.189,0.12,0.381,0.177,0.574
					c0.055,0.186,0.11,0.374,0.163,0.563c0.054,0.194,0.104,0.391,0.155,0.588c0.05,0.194,0.1,0.389,0.146,0.586
					c0.048,0.203,0.095,0.41,0.14,0.617c0.054,0.242,0.107,0.484,0.156,0.731c0.013,0.064,0.026,0.129,0.039,0.193
					c0.012,0.06,0.021,0.122,0.032,0.181c-5.53,0.823-11.06,1.645-16.589,2.467c-0.086,0.012-0.169,0.032-0.251,0.056
					c-0.02,0.005-0.04,0.012-0.06,0.018c-0.019,0.005-0.039,0.011-0.058,0.017c-0.06,0.022-0.118,0.046-0.174,0.072
					c-0.002,0.002-0.005,0.004-0.007,0.005c-0.054,0.025-0.104,0.052-0.155,0.083c-0.02,0.011-0.038,0.026-0.057,0.038
					c-0.017,0.012-0.033,0.022-0.05,0.035c-0.066,0.047-0.132,0.097-0.195,0.153c-0.002,0.001-0.002,0.003-0.003,0.003
					c-0.001,0.003-0.003,0.003-0.004,0.004c-0.004,0.003-0.008,0.009-0.012,0.013c-0.059,0.055-0.115,0.114-0.169,0.178
					c-0.015,0.019-0.03,0.034-0.044,0.053c-0.012,0.015-0.026,0.028-0.037,0.044c-0.016,0.019-0.029,0.037-0.042,0.057
					c-0.015,0.019-0.029,0.038-0.042,0.058c-0.014,0.02-0.027,0.038-0.04,0.06c-0.002,0.003-0.003,0.006-0.006,0.009
					c-0.002,0.003-0.003,0.005-0.005,0.007c-0.01,0.017-0.019,0.029-0.028,0.045c-0.01,0.018-0.021,0.035-0.032,0.053
					c-0.01,0.018-0.02,0.035-0.03,0.052c-0.009,0.019-0.021,0.036-0.03,0.056c-0.01,0.018-0.02,0.037-0.029,0.055
					c-0.005,0.01-0.01,0.02-0.015,0.028c0,0.001-0.001,0.005-0.003,0.007c-0.003,0.006-0.006,0.012-0.009,0.019
					c-0.009,0.019-0.018,0.034-0.027,0.054c-0.009,0.018-0.017,0.037-0.026,0.055c-0.008,0.019-0.017,0.037-0.024,0.055
					c-0.009,0.02-0.017,0.037-0.025,0.056c-0.008,0.019-0.016,0.038-0.023,0.056c-0.004,0.011-0.009,0.022-0.014,0.033
					c0,0.002,0,0.002,0,0.003c-0.001,0.001-0.001,0.002-0.001,0.003c-0.002,0.006-0.005,0.012-0.008,0.018
					c-0.008,0.02-0.015,0.039-0.023,0.059c-0.007,0.019-0.013,0.038-0.021,0.059c-0.007,0.02-0.015,0.039-0.021,0.06
					c-0.007,0.021-0.014,0.04-0.02,0.061c-0.008,0.021-0.014,0.041-0.021,0.062c-0.005,0.017-0.01,0.033-0.016,0.049
					c-0.001,0.003-0.001,0.003-0.001,0.006c-0.001,0.003-0.003,0.006-0.003,0.01c-0.008,0.022-0.014,0.044-0.021,0.065
					c-0.006,0.023-0.012,0.045-0.019,0.066c-0.007,0.023-0.013,0.046-0.02,0.069c-0.006,0.023-0.012,0.048-0.019,0.072
					c-0.006,0.023-0.012,0.05-0.019,0.073c-0.004,0.017-0.009,0.033-0.013,0.049c0,0.001,0,0.003,0,0.004
					c0,0.007-0.003,0.015-0.005,0.022c-0.007,0.024-0.012,0.051-0.018,0.075c-0.006,0.027-0.012,0.055-0.018,0.082
					c-0.006,0.028-0.012,0.056-0.018,0.084c-0.005,0.028-0.011,0.056-0.017,0.085c-0.005,0.028-0.011,0.058-0.016,0.087
					c0,0.002,0,0.004-0.002,0.007c0,0.003,0,0.007,0,0.011c-0.005,0.025-0.01,0.053-0.015,0.079
					c-0.005,0.031-0.011,0.064-0.016,0.097c-0.005,0.033-0.011,0.066-0.016,0.1c-0.004,0.034-0.01,0.067-0.015,0.101
					c-0.005,0.039-0.01,0.078-0.016,0.117c-0.004,0.039-0.009,0.078-0.015,0.117c-0.004,0.04-0.009,0.079-0.013,0.12
					c-0.005,0.041-0.009,0.082-0.013,0.122c-0.005,0.048-0.01,0.097-0.014,0.145c0,0.003,0,0.004,0,0.007c0,0.002,0,0.003,0,0.003
					c-0.004,0.046-0.007,0.091-0.012,0.137c-0.003,0.05-0.007,0.1-0.01,0.15c-0.005,0.051-0.007,0.102-0.01,0.152
					c-0.001,0.034-0.004,0.07-0.005,0.107c0,0.01-0.001,0.02-0.002,0.031c0,0.015-0.002,0.03-0.002,0.046
					c-0.003,0.062-0.005,0.125-0.007,0.188c-0.002,0.063-0.004,0.127-0.006,0.192c-0.001,0.048-0.002,0.099-0.003,0.147
					c0,0.008,0,0.015,0,0.021c0,0.01-0.001,0.019-0.001,0.026c0,0.05,0,0.1-0.001,0.149c0,0.049,0,0.1,0,0.149
					c0,0.051,0,0.102,0,0.153c0,0.051,0.001,0.103,0.001,0.154l0.485,39.992l19.384-7.42l0.061,10.417l55.03-24.36l0.334-28.562
					c0.002-0.071,0.002-0.141,0.002-0.212c0-0.071,0-0.142,0-0.211C739.834,201.614,739.834,201.545,739.834,201.475z"/>
				<g>
					<path fill="#7F4B95" d="M667.704,187.435c1.284,0.025,2.5,0.184,3.647,0.478c1.152,0.296,2.234,0.727,3.246,1.295
						c1.012,0.57,1.954,1.277,2.821,2.122c0.871,0.847,1.665,1.832,2.384,2.954c0.721,1.124,1.355,2.368,1.9,3.729
						c0.546,1.365,1.004,2.848,1.374,4.448c0.37,1.6,0.651,3.315,0.842,5.148c0.192,1.83,0.292,3.774,0.305,5.83l0.246,41.591
						l-13.747-2.119l-0.419-40.462c-0.01-0.979-0.081-1.841-0.213-2.583c-0.132-0.744-0.322-1.369-0.574-1.874
						c-0.253-0.506-0.565-0.893-0.937-1.16c-0.371-0.267-0.801-0.414-1.291-0.442c-0.473-0.028-0.884,0.069-1.233,0.292
						c-0.35,0.223-0.64,0.569-0.867,1.042c-0.229,0.472-0.398,1.065-0.505,1.786c-0.108,0.72-0.156,1.563-0.144,2.531l0.485,39.992
						l-12.713-1.959l-0.644-39.583c-0.028-1.755,0.034-3.422,0.188-4.998c0.155-1.578,0.401-3.065,0.738-4.465
						c0.339-1.401,0.771-2.714,1.295-3.938c0.527-1.228,1.148-2.368,1.864-3.418c0.72-1.053,1.505-1.976,2.357-2.763
						c0.855-0.792,1.777-1.448,2.769-1.971c0.994-0.523,2.058-0.913,3.192-1.163C665.209,187.522,666.421,187.408,667.704,187.435z"
						/>
				</g>
			</g>
			<g>
				<linearGradient id="SVGID_10_" gradientUnits="userSpaceOnUse" x1="695.7476" y1="247.4746" x2="785.627" y2="247.4746">
					<stop  offset="0" style="stop-color:#00269E"/>
					<stop  offset="0.1912" style="stop-color:#03279F"/>
					<stop  offset="0.3319" style="stop-color:#0C2BA4"/>
					<stop  offset="0.4565" style="stop-color:#1C32AB"/>
					<stop  offset="0.5717" style="stop-color:#333BB5"/>
					<stop  offset="0.6804" style="stop-color:#5047C2"/>
					<stop  offset="0.7844" style="stop-color:#7456D2"/>
					<stop  offset="0.8846" style="stop-color:#9E67E5"/>
					<stop  offset="0.9794" style="stop-color:#CE7BFA"/>
					<stop  offset="1" style="stop-color:#DA80FF"/>
				</linearGradient>
				<path fill="url(#SVGID_10_)" d="M785,261.584c-0.213,0.075-0.428,0.144-0.645,0.204c-0.219,0.06-0.44,0.113-0.664,0.156
					c-0.225,0.047-0.452,0.083-0.683,0.112c-0.364,0.046-0.736,0.073-1.117,0.079c-0.38,0.008-0.767-0.005-1.163-0.039
					c-0.396-0.032-0.801-0.085-1.212-0.157c-0.411-0.073-0.831-0.166-1.257-0.278c-1.475-0.39-2.905-0.965-4.292-1.729
					c-1.395-0.768-2.741-1.723-4.041-2.867c-1.304-1.149-2.558-2.487-3.76-4.013c-0.009-0.013-0.018-0.023-0.026-0.036
					c5.223-2.733,10.447-5.468,15.671-8.201c0.113-0.06,0.212-0.136,0.296-0.227c0.084-0.092,0.152-0.2,0.207-0.325
					c0.055-0.124,0.094-0.265,0.117-0.422c0.025-0.156,0.035-0.329,0.029-0.519c-0.007-0.284-0.053-0.545-0.136-0.782
					c-0.083-0.238-0.201-0.451-0.357-0.641c-0.157-0.189-0.351-0.355-0.582-0.498s-0.499-0.262-0.806-0.356l-2.99-0.931
					l-0.314-13.136l-18.75,11.516c-0.04-0.122-0.078-0.245-0.117-0.367l26.271-16.189c-0.479-0.473-0.948-0.902-1.406-1.292
					c-0.46-0.39-0.908-0.738-1.346-1.047s-0.864-0.576-1.279-0.8c-0.417-0.226-0.822-0.41-1.216-0.552
					c-0.271-0.098-0.536-0.183-0.797-0.256c-0.261-0.072-0.519-0.133-0.77-0.181c-0.253-0.048-0.5-0.084-0.743-0.106
					c-0.243-0.023-0.482-0.034-0.716-0.031c-0.284,0.002-0.561,0.023-0.831,0.062c-0.27,0.04-0.533,0.098-0.789,0.175
					c-0.256,0.077-0.506,0.172-0.749,0.286s-0.479,0.247-0.708,0.399c-5.596,3.713-11.192,7.426-16.789,11.139
					c-0.009-0.062-0.021-0.123-0.027-0.186c-0.276-2.149-0.414-4.331-0.416-6.542c-0.001-2.208,0.135-4.266,0.408-6.175
					c0.272-1.897,0.679-3.645,1.219-5.245c0.537-1.59,1.204-3.03,2.001-4.323c0.793-1.284,1.712-2.423,2.758-3.416
					c0.097-0.091,0.196-0.183,0.294-0.271c0.097-0.089,0.197-0.176,0.297-0.261c0.099-0.085,0.199-0.168,0.298-0.25
					c0.101-0.082,0.203-0.161,0.303-0.239l-60.743,46.745c-0.086,0.067-0.174,0.136-0.259,0.205
					c-0.087,0.069-0.173,0.141-0.258,0.212c-0.086,0.072-0.171,0.145-0.256,0.221c-0.085,0.074-0.169,0.15-0.253,0.228
					c-0.904,0.827-1.709,1.751-2.417,2.771c-0.71,1.025-1.32,2.146-1.831,3.365c-0.512,1.226-0.923,2.548-1.23,3.966
					c-0.31,1.426-0.515,2.947-0.616,4.566c-0.102,1.621-0.092,3.206,0.031,4.758c0.122,1.556,0.355,3.074,0.703,4.554
					c0.346,1.481,0.806,2.925,1.376,4.326c0.571,1.401,1.253,2.761,2.047,4.076c0.792,1.314,1.638,2.492,2.536,3.532
					c0.897,1.038,1.847,1.936,2.847,2.696c0.998,0.76,2.044,1.38,3.141,1.861c1.092,0.479,2.23,0.82,3.417,1.025
					c0.344,0.06,0.684,0.105,1.019,0.137c0.333,0.031,0.663,0.048,0.985,0.051c0.324,0.003,0.643-0.008,0.957-0.034
					c0.313-0.025,0.621-0.063,0.924-0.117c0.191-0.033,0.382-0.072,0.57-0.117s0.373-0.094,0.557-0.15
					c0.184-0.056,0.366-0.117,0.544-0.183c0.18-0.067,0.356-0.14,0.532-0.218c22.543-9.99,45.082-19.98,67.625-29.97
					C785.42,261.425,785.211,261.508,785,261.584z"/>
				<g>
					<path fill="#D27BF5" d="M771.663,200.254c0.465,0.017,0.938,0.058,1.416,0.123c0.477,0.063,0.963,0.152,1.455,0.264
						c0.491,0.112,0.989,0.247,1.494,0.405c0.503,0.158,1.014,0.339,1.532,0.544c0.499,0.197,1.011,0.434,1.536,0.708
						c0.525,0.274,1.063,0.586,1.613,0.936c0.549,0.35,1.113,0.737,1.689,1.163c0.576,0.424,1.164,0.887,1.765,1.387l0.519,16.155
						c-0.479-0.473-0.948-0.902-1.406-1.292c-0.46-0.39-0.908-0.738-1.346-1.047s-0.864-0.576-1.279-0.8
						c-0.417-0.226-0.822-0.41-1.216-0.552c-0.271-0.098-0.536-0.183-0.797-0.256c-0.261-0.072-0.519-0.133-0.77-0.181
						c-0.253-0.048-0.5-0.084-0.743-0.106c-0.243-0.023-0.482-0.034-0.716-0.031c-0.385,0.002-0.758,0.04-1.118,0.111
						c-0.361,0.072-0.709,0.179-1.042,0.32c-0.337,0.141-0.66,0.315-0.97,0.526s-0.607,0.457-0.891,0.737
						c-0.458,0.452-0.857,0.974-1.199,1.563c-0.342,0.592-0.625,1.251-0.851,1.98c-0.225,0.73-0.389,1.529-0.493,2.398
						c-0.106,0.872-0.151,1.812-0.136,2.821c0.016,1.034,0.086,2.034,0.212,3c0.126,0.967,0.308,1.901,0.545,2.799
						c0.236,0.899,0.529,1.764,0.875,2.591s0.748,1.617,1.205,2.37c0.455,0.753,0.947,1.44,1.476,2.062
						c0.53,0.621,1.094,1.176,1.696,1.666c0.6,0.486,1.235,0.909,1.905,1.265c0.67,0.354,1.373,0.644,2.111,0.866
						c0.149,0.045,0.293,0.083,0.429,0.115c0.137,0.031,0.268,0.058,0.392,0.075c0.125,0.019,0.244,0.03,0.355,0.035
						c0.113,0.006,0.219,0.004,0.319-0.004c0.212-0.018,0.399-0.064,0.557-0.142c0.158-0.078,0.288-0.186,0.39-0.323
						c0.103-0.137,0.178-0.304,0.225-0.502c0.048-0.197,0.068-0.424,0.06-0.682c-0.007-0.284-0.053-0.545-0.136-0.782
						c-0.083-0.238-0.201-0.451-0.357-0.641c-0.157-0.189-0.351-0.355-0.582-0.498s-0.499-0.262-0.806-0.356l-2.99-0.931
						l-0.314-13.136l11.551,3.924c0.645,1.261,1.215,2.512,1.708,3.752c0.494,1.241,0.914,2.472,1.258,3.693
						c0.345,1.225,0.618,2.438,0.814,3.646c0.197,1.21,0.319,2.413,0.368,3.609c0.055,1.396,0.02,2.713-0.107,3.951
						c-0.126,1.243-0.345,2.407-0.656,3.492c-0.313,1.09-0.719,2.104-1.219,3.036c-0.504,0.937-1.101,1.796-1.797,2.576
						c-0.434,0.487-0.888,0.924-1.361,1.309c-0.476,0.387-0.97,0.722-1.484,1.005c-0.516,0.285-1.051,0.519-1.607,0.699
						c-0.559,0.181-1.135,0.309-1.734,0.385c-0.364,0.046-0.736,0.073-1.117,0.079c-0.38,0.008-0.767-0.005-1.163-0.039
						c-0.396-0.032-0.801-0.085-1.212-0.157c-0.411-0.073-0.831-0.166-1.257-0.278c-1.475-0.39-2.905-0.965-4.292-1.729
						c-1.395-0.768-2.741-1.723-4.041-2.867c-1.304-1.149-2.558-2.487-3.76-4.013c-1.205-1.531-2.355-3.247-3.452-5.15
						c-1.098-1.905-2.061-3.86-2.888-5.861s-1.518-4.045-2.07-6.132c-0.553-2.083-0.966-4.204-1.242-6.36
						c-0.276-2.149-0.414-4.331-0.416-6.542c-0.001-2.208,0.135-4.266,0.408-6.175c0.272-1.897,0.679-3.645,1.219-5.245
						c0.537-1.59,1.204-3.03,2.001-4.323c0.793-1.284,1.712-2.423,2.758-3.416c0.672-0.637,1.369-1.191,2.092-1.658
						c0.717-0.466,1.46-0.847,2.228-1.145c0.762-0.297,1.551-0.511,2.362-0.643C769.977,200.272,770.808,200.223,771.663,200.254z"
						/>
				</g>
			</g>
			<g>
				<linearGradient id="SVGID_11_" gradientUnits="userSpaceOnUse" x1="804.9966" y1="209.4072" x2="825.2148" y2="209.4072">
					<stop  offset="0" style="stop-color:#DA80FF"/>
					<stop  offset="0.0983" style="stop-color:#D37DFC"/>
					<stop  offset="0.2405" style="stop-color:#C075F3"/>
					<stop  offset="0.4093" style="stop-color:#A068E5"/>
					<stop  offset="0.5987" style="stop-color:#7456D2"/>
					<stop  offset="0.8023" style="stop-color:#3D3FB9"/>
					<stop  offset="1" style="stop-color:#00269E"/>
				</linearGradient>
				<path fill="url(#SVGID_11_)" d="M825.215,204.195c0-0.063,0-0.125,0-0.188c0-0.007-0.001-0.013-0.001-0.02
					c0-0.015,0-0.03,0-0.047c-0.001-0.058-0.002-0.115-0.004-0.172c-0.001-0.044-0.003-0.088-0.006-0.132
					c0-0.023-0.001-0.045-0.003-0.068c0-0.012,0-0.023,0-0.036c-0.006-0.078-0.011-0.156-0.018-0.233
					c0-0.018-0.003-0.035-0.004-0.054c-0.002-0.011-0.002-0.021-0.002-0.031c-0.001-0.014-0.003-0.027-0.005-0.041
					c-0.003-0.035-0.007-0.07-0.01-0.105c-0.007-0.07-0.016-0.138-0.023-0.208c-0.001-0.006-0.002-0.015-0.002-0.021
					c0-0.001-0.001-0.002-0.001-0.003c-0.011-0.077-0.021-0.153-0.033-0.229c-0.006-0.031-0.012-0.061-0.016-0.092
					c-0.004-0.022-0.008-0.043-0.013-0.066c-0.003-0.023-0.007-0.045-0.011-0.067c-0.014-0.075-0.03-0.15-0.044-0.224
					c-0.001-0.007-0.003-0.015-0.006-0.021c-0.003-0.018-0.007-0.035-0.012-0.052c-0.013-0.06-0.027-0.121-0.042-0.181
					c-0.006-0.03-0.014-0.059-0.023-0.089c-0.003-0.014-0.005-0.028-0.009-0.042c-0.004-0.013-0.008-0.024-0.012-0.039
					c-0.006-0.027-0.013-0.053-0.021-0.08c-0.02-0.068-0.04-0.135-0.06-0.203c-0.003-0.009-0.006-0.018-0.008-0.026
					c-0.001-0.006-0.003-0.012-0.005-0.017c-0.026-0.081-0.052-0.162-0.081-0.243c-0.004-0.01-0.009-0.021-0.013-0.033
					c-0.04-0.115-0.084-0.229-0.129-0.341c-0.003-0.007-0.005-0.013-0.009-0.021c0-0.001,0-0.001,0-0.001
					c-0.046-0.11-0.094-0.22-0.143-0.328c-0.007-0.01-0.013-0.022-0.018-0.033c-0.004-0.007-0.007-0.015-0.011-0.022
					c-0.011-0.025-0.025-0.049-0.037-0.073c-0.043-0.087-0.086-0.171-0.131-0.257c-0.009-0.015-0.016-0.03-0.024-0.045
					c-0.012-0.022-0.028-0.046-0.041-0.069c-0.043-0.078-0.088-0.155-0.134-0.232c-0.013-0.021-0.025-0.042-0.038-0.063
					c-0.022-0.037-0.045-0.072-0.067-0.107c-0.005-0.006-0.007-0.011-0.01-0.016c-0.004-0.006-0.008-0.012-0.013-0.018
					c-0.016-0.025-0.031-0.05-0.047-0.074c-0.024-0.036-0.048-0.072-0.071-0.106c-0.025-0.035-0.049-0.07-0.074-0.104
					c-0.063-0.09-0.128-0.176-0.193-0.261c-0.065-0.084-0.131-0.165-0.2-0.245c-0.009-0.011-0.018-0.021-0.028-0.031
					c-0.008-0.01-0.018-0.021-0.028-0.032c-0.049-0.056-0.1-0.114-0.151-0.168c-0.069-0.075-0.141-0.147-0.212-0.219
					c-0.018-0.018-0.037-0.033-0.055-0.051c-0.008-0.007-0.015-0.017-0.024-0.025c-0.012-0.012-0.027-0.022-0.041-0.034
					c-0.049-0.047-0.099-0.095-0.15-0.139c-0.09-0.079-0.184-0.155-0.279-0.228c-0.006-0.003-0.01-0.006-0.013-0.01
					c-0.011-0.006-0.019-0.013-0.029-0.021c-0.082-0.061-0.164-0.121-0.248-0.177c-0.071-0.048-0.146-0.093-0.22-0.138
					c-0.01-0.006-0.022-0.015-0.033-0.021c-0.005-0.003-0.01-0.005-0.016-0.008c-0.01-0.006-0.021-0.013-0.03-0.019
					c-0.063-0.036-0.124-0.07-0.187-0.104c-0.063-0.033-0.126-0.064-0.189-0.095c-0.039-0.018-0.076-0.035-0.114-0.052
					c-0.01-0.005-0.018-0.009-0.029-0.013c-0.017-0.007-0.034-0.016-0.051-0.023c-0.064-0.028-0.13-0.055-0.197-0.08
					c-0.058-0.022-0.117-0.043-0.176-0.063c-0.043-0.017-0.09-0.03-0.133-0.044c-0.004-0.001-0.008-0.003-0.012-0.004
					c-0.002-0.001-0.005-0.001-0.008-0.002c-0.009-0.003-0.018-0.006-0.026-0.009c-0.06-0.017-0.12-0.035-0.181-0.051
					c-0.061-0.016-0.123-0.032-0.184-0.046c-0.061-0.014-0.123-0.027-0.185-0.041c-0.007-0.001-0.015-0.001-0.024-0.003
					c-0.002-0.001-0.006-0.002-0.011-0.003c-0.052-0.01-0.102-0.019-0.153-0.028c-0.063-0.01-0.127-0.019-0.191-0.027
					c-0.065-0.008-0.129-0.016-0.194-0.022c-0.008-0.001-0.016-0.001-0.025-0.002c-0.007-0.001-0.016-0.001-0.023-0.002
					c-0.008,0-0.015-0.002-0.024-0.002c-0.008,0-0.017-0.001-0.025-0.001c-0.06-0.005-0.122-0.008-0.182-0.013
					c-0.044-0.003-0.088-0.004-0.132-0.005c-0.01-0.001-0.021-0.001-0.03-0.001c-0.006,0-0.012-0.001-0.017-0.001
					c-0.06-0.001-0.119-0.003-0.178-0.003c-0.036,0.001-0.069,0.002-0.104,0.003c-0.012,0-0.024,0-0.037,0c-0.012,0-0.024,0-0.037,0
					c-0.063,0.002-0.126,0.006-0.19,0.009c-0.02,0-0.039,0.003-0.058,0.004c-0.018,0.002-0.036,0.003-0.055,0.005
					c-0.025,0.002-0.05,0.003-0.074,0.006c-0.063,0.007-0.125,0.012-0.187,0.021c-0.006,0.001-0.012,0.002-0.017,0.002
					c-0.003,0.001-0.006,0.002-0.011,0.002c-0.008,0.001-0.017,0.003-0.025,0.003c-0.043,0.007-0.088,0.012-0.132,0.019
					c-0.042,0.007-0.084,0.017-0.128,0.023c-0.012,0.003-0.025,0.005-0.038,0.007c-0.007,0.002-0.014,0.003-0.023,0.004
					c-0.062,0.012-0.124,0.026-0.185,0.041c-0.02,0.004-0.04,0.01-0.059,0.014c-0.018,0.005-0.038,0.01-0.057,0.015
					c-0.023,0.006-0.046,0.011-0.069,0.017c-0.061,0.017-0.122,0.036-0.183,0.054c-0.004,0.001-0.008,0.003-0.013,0.004
					c-0.011,0.004-0.023,0.008-0.035,0.013c-0.055,0.017-0.109,0.035-0.163,0.054c-0.023,0.008-0.044,0.017-0.067,0.025
					c-0.012,0.005-0.024,0.008-0.037,0.013c-0.013,0.004-0.024,0.01-0.038,0.016c-0.023,0.008-0.045,0.017-0.068,0.026
					c-0.05,0.02-0.099,0.042-0.148,0.063c-0.014,0.006-0.03,0.013-0.044,0.019c-0.005,0.002-0.009,0.005-0.014,0.006
					c-0.067,0.031-0.135,0.064-0.202,0.098c-0.007,0.004-0.015,0.009-0.021,0.013c-0.127,0.065-0.25,0.137-0.374,0.213
					c-0.011,0.006-0.021,0.012-0.032,0.018c-0.016,0.009-0.03,0.021-0.047,0.032c-0.042,0.027-0.085,0.052-0.127,0.082
					c-0.071,0.048-0.139,0.098-0.208,0.149c-0.01,0.007-0.021,0.014-0.031,0.021c-0.002,0.002-0.006,0.005-0.009,0.007
					c-0.119,0.089-0.234,0.186-0.351,0.286c-0.012,0.012-0.026,0.021-0.039,0.033c-0.015,0.013-0.029,0.028-0.043,0.041
					c-0.116,0.104-0.23,0.211-0.341,0.327c-0.007,0.007-0.015,0.014-0.021,0.021c-0.007,0.007-0.014,0.014-0.021,0.022
					c-0.007,0.007-0.015,0.015-0.021,0.021c-0.006,0.007-0.014,0.015-0.021,0.021c-3.234,3.44-6.467,6.88-9.701,10.321
					c0.01-0.012,0.021-0.022,0.03-0.033c0.011-0.012,0.021-0.023,0.032-0.034c0.01-0.011,0.021-0.021,0.031-0.032
					c0.011-0.012,0.021-0.021,0.032-0.033c0.171-0.175,0.345-0.339,0.521-0.497c0.042-0.037,0.083-0.075,0.125-0.112
					c0.176-0.153,0.354-0.3,0.536-0.436c0.021-0.016,0.042-0.03,0.063-0.045c0.165-0.124,0.334-0.238,0.505-0.348
					c0.044-0.028,0.086-0.057,0.131-0.084c0.187-0.114,0.375-0.222,0.567-0.32c0.12-0.063,0.24-0.122,0.362-0.177
					c0.023-0.011,0.046-0.02,0.068-0.029c0.109-0.048,0.219-0.094,0.33-0.137c0.039-0.016,0.078-0.031,0.117-0.045
					c0.113-0.042,0.229-0.083,0.344-0.12c0.02-0.007,0.039-0.014,0.059-0.02c0.134-0.042,0.269-0.079,0.404-0.114
					c0.028-0.007,0.056-0.014,0.083-0.021c0.136-0.034,0.273-0.064,0.411-0.091c0.018-0.004,0.039-0.006,0.057-0.011
					c0.131-0.024,0.265-0.045,0.398-0.063c0.019-0.003,0.037-0.006,0.056-0.009c0.141-0.018,0.283-0.031,0.427-0.043
					c0.026-0.002,0.054-0.005,0.081-0.006c0.145-0.01,0.29-0.018,0.436-0.021c0.019,0,0.039,0,0.058,0
					c0.152-0.004,0.304-0.003,0.458,0.002c0.012,0.001,0.024,0.001,0.037,0.003c0.162,0.006,0.325,0.014,0.487,0.028
					c0.161,0.013,0.318,0.03,0.477,0.053c0.021,0.004,0.043,0.006,0.064,0.009c0.137,0.02,0.27,0.042,0.404,0.067
					c0.018,0.003,0.035,0.006,0.053,0.009c0.139,0.028,0.277,0.06,0.415,0.093c0.028,0.007,0.057,0.015,0.086,0.021
					c0.135,0.035,0.27,0.072,0.402,0.113c0.02,0.007,0.039,0.014,0.059,0.02c0.125,0.04,0.248,0.082,0.372,0.128
					c0.019,0.007,0.037,0.014,0.057,0.021c0.13,0.049,0.259,0.104,0.386,0.159c0.033,0.015,0.064,0.029,0.097,0.044
					c0.105,0.049,0.208,0.098,0.313,0.151c0.026,0.012,0.052,0.024,0.078,0.038c0.121,0.063,0.239,0.129,0.356,0.197
					c0.114,0.068,0.226,0.139,0.337,0.211c0.033,0.021,0.066,0.039,0.099,0.061c0.142,0.097,0.281,0.197,0.419,0.302
					c0.037,0.029,0.073,0.06,0.108,0.088c0.101,0.079,0.2,0.158,0.298,0.242c0.051,0.044,0.1,0.09,0.15,0.135
					c0.082,0.073,0.165,0.148,0.245,0.227c0.063,0.062,0.125,0.124,0.188,0.188c0.05,0.05,0.099,0.099,0.147,0.149
					c0.067,0.071,0.132,0.144,0.197,0.217c0.045,0.051,0.091,0.102,0.137,0.153c0.073,0.086,0.146,0.176,0.218,0.266
					c0.034,0.042,0.067,0.081,0.101,0.124c0.107,0.135,0.209,0.273,0.313,0.417c0.104,0.146,0.204,0.294,0.302,0.443
					c0.002,0.004,0.005,0.008,0.008,0.011c0.064,0.1,0.124,0.201,0.185,0.301c0.068,0.112,0.134,0.226,0.197,0.339
					c0.036,0.063,0.072,0.126,0.105,0.189c0.065,0.12,0.127,0.242,0.188,0.364c0.029,0.058,0.06,0.116,0.088,0.175
					c0.085,0.179,0.167,0.36,0.243,0.544c0.004,0.011,0.008,0.021,0.013,0.032c0.071,0.174,0.137,0.349,0.202,0.525
					c0.051,0.146,0.101,0.293,0.148,0.44c0.006,0.019,0.012,0.039,0.018,0.058c0.041,0.135,0.08,0.271,0.119,0.41
					c0.012,0.047,0.024,0.094,0.037,0.142c0.034,0.13,0.065,0.261,0.095,0.394c0.006,0.029,0.014,0.059,0.021,0.086
					c0.033,0.158,0.064,0.316,0.092,0.475c0.008,0.037,0.013,0.074,0.019,0.111c0.028,0.161,0.054,0.324,0.076,0.489
					c0.001,0.01,0.002,0.022,0.004,0.032c0.02,0.157,0.038,0.316,0.053,0.476c0.003,0.037,0.007,0.075,0.012,0.112
					c0.014,0.164,0.025,0.329,0.034,0.495c0.002,0.032,0.003,0.065,0.005,0.098c0.006,0.154,0.011,0.312,0.014,0.468
					c0.001,0.024,0.002,0.049,0.002,0.075c0.002,0.188,0.001,0.376-0.003,0.567c0,0.004,0,0.008,0,0.013
					c-0.006,0.199-0.012,0.4-0.025,0.603c-0.019,0.326-0.047,0.646-0.083,0.965c-0.001,0.018-0.004,0.034-0.006,0.051
					c-0.034,0.298-0.076,0.592-0.124,0.882c-0.006,0.03-0.011,0.06-0.016,0.09c-0.048,0.28-0.103,0.558-0.166,0.832
					c-0.005,0.026-0.011,0.052-0.017,0.078c-0.068,0.294-0.142,0.583-0.225,0.868c1.448-4.976,2.896-9.95,4.344-14.925
					c0.025-0.083,0.048-0.168,0.071-0.253c0.022-0.084,0.042-0.169,0.064-0.256c0.005-0.021,0.008-0.04,0.014-0.062
					c0.001-0.007,0.003-0.014,0.004-0.021c0.002-0.009,0.004-0.019,0.007-0.027c0.011-0.05,0.021-0.099,0.032-0.147
					c0.018-0.087,0.036-0.174,0.053-0.262c0.009-0.047,0.016-0.095,0.024-0.143c0-0.01,0.004-0.02,0.006-0.029
					c0-0.008,0.002-0.016,0.004-0.024c0.003-0.027,0.009-0.054,0.014-0.081c0.015-0.094,0.028-0.188,0.042-0.28
					c0.01-0.075,0.017-0.15,0.028-0.226c0-0.005,0.001-0.01,0.001-0.014c0-0.004,0-0.006,0.001-0.01
					c0.001-0.012,0.002-0.023,0.004-0.036c0.01-0.095,0.019-0.19,0.027-0.288c0.003-0.026,0.006-0.052,0.006-0.077
					c0.003-0.026,0.005-0.052,0.006-0.078c0.003-0.026,0.005-0.052,0.007-0.078c0.001-0.026,0.003-0.052,0.005-0.078
					c0.004-0.065,0.006-0.129,0.009-0.192c0.003-0.063,0.006-0.126,0.008-0.19c0-0.003,0-0.007,0-0.01c0-0.005,0-0.011,0-0.018
					C825.213,204.301,825.213,204.247,825.215,204.195z"/>
				<g>
					<path fill="#AF67CC" d="M812.243,206.025c0.67,0.057,1.31,0.18,1.919,0.37s1.188,0.449,1.737,0.774s1.065,0.719,1.551,1.177
						c0.486,0.461,0.941,0.987,1.366,1.581c0.424,0.594,0.789,1.216,1.095,1.865c0.306,0.65,0.553,1.328,0.74,2.035
						c0.188,0.705,0.315,1.439,0.385,2.2c0.068,0.762,0.08,1.55,0.031,2.366c-0.051,0.85-0.156,1.669-0.315,2.459
						c-0.161,0.789-0.373,1.55-0.641,2.281c-0.268,0.73-0.589,1.432-0.964,2.104s-0.804,1.314-1.289,1.928
						c-0.483,0.613-1,1.173-1.553,1.68c-0.553,0.506-1.139,0.958-1.762,1.357c-0.622,0.4-1.28,0.745-1.971,1.039
						c-0.692,0.293-1.418,0.531-2.18,0.719l0.197-3.474c-0.683-0.108-1.332-0.271-1.945-0.49c-0.614-0.219-1.192-0.493-1.736-0.821
						c-0.542-0.33-1.051-0.715-1.524-1.154c-0.473-0.44-0.912-0.937-1.315-1.487c-0.404-0.55-0.751-1.128-1.044-1.73
						c-0.292-0.604-0.528-1.235-0.71-1.894c-0.181-0.657-0.307-1.341-0.375-2.054c-0.07-0.712-0.085-1.45-0.044-2.217
						c0.044-0.807,0.144-1.575,0.3-2.307c0.156-0.733,0.368-1.428,0.636-2.087c0.269-0.659,0.595-1.281,0.976-1.865
						c0.382-0.584,0.821-1.131,1.316-1.642c0.495-0.51,1.015-0.948,1.56-1.316c0.543-0.369,1.113-0.666,1.706-0.893
						c0.595-0.227,1.213-0.382,1.854-0.466C810.884,205.979,811.551,205.967,812.243,206.025z"/>
				</g>
			</g>
		</g>
		<g>
			<linearGradient id="SVGID_12_" gradientUnits="userSpaceOnUse" x1="801.1553" y1="260.9316" x2="825.7642" y2="260.9316">
				<stop  offset="0" style="stop-color:#00D7A9"/>
				<stop  offset="0.2157" style="stop-color:#01D4A9"/>
				<stop  offset="0.3765" style="stop-color:#04CAAA"/>
				<stop  offset="0.5195" style="stop-color:#0ABAAC"/>
				<stop  offset="0.6522" style="stop-color:#12A4AE"/>
				<stop  offset="0.7777" style="stop-color:#1D86B0"/>
				<stop  offset="0.8962" style="stop-color:#2963B4"/>
				<stop  offset="1" style="stop-color:#373DB7"/>
			</linearGradient>
			<path fill="url(#SVGID_12_)" d="M825.535,271.056c0.279,0.63,0.303,1.233,0.074,1.811c-0.229,0.576-0.66,1.004-1.288,1.281
				l-8.438,3.723c-0.629,0.276-1.231,0.305-1.804,0.082c-0.575-0.223-1-0.648-1.278-1.278l-11.414-25.875
				c-0.277-0.628-0.306-1.23-0.083-1.804c0.222-0.574,0.648-1,1.278-1.277l8.438-3.723c0.629-0.278,1.235-0.306,1.815-0.087
				c0.581,0.22,1.01,0.645,1.287,1.273L825.535,271.056z M822.756,272.007l-11.209-25.413l-7.38,3.256l11.21,25.412L822.756,272.007
				z"/>
			<linearGradient id="SVGID_13_" gradientUnits="userSpaceOnUse" x1="762.6738" y1="324.748" x2="790.8857" y2="324.748">
				<stop  offset="0" style="stop-color:#00D7A9"/>
				<stop  offset="0.2157" style="stop-color:#01D4A9"/>
				<stop  offset="0.3765" style="stop-color:#04CAAA"/>
				<stop  offset="0.5195" style="stop-color:#0ABAAC"/>
				<stop  offset="0.6522" style="stop-color:#12A4AE"/>
				<stop  offset="0.7777" style="stop-color:#1D86B0"/>
				<stop  offset="0.8962" style="stop-color:#2963B4"/>
				<stop  offset="1" style="stop-color:#373DB7"/>
			</linearGradient>
			<path fill="url(#SVGID_13_)" d="M790.886,336.535l-2.523,1.113l-8.423-19.093c-0.12-0.27-0.377-1.099-0.776-2.488l3.287,20.806
				l-0.54,0.238l-13.15-16.456c0.763,1.244,1.202,1.994,1.316,2.252L778.498,342l-2.524,1.113l-13.3-30.152l2.485-1.097
				l13.546,17.455c0.07,0.092,0.223,0.369,0.459,0.832c-0.085-0.192-0.187-0.491-0.306-0.9l-3.757-21.771l2.485-1.097
				L790.886,336.535z"/>
			<linearGradient id="SVGID_14_" gradientUnits="userSpaceOnUse" x1="788.8774" y1="317.0283" x2="810.188" y2="317.0283">
				<stop  offset="0" style="stop-color:#00D7A9"/>
				<stop  offset="0.2157" style="stop-color:#01D4A9"/>
				<stop  offset="0.3765" style="stop-color:#04CAAA"/>
				<stop  offset="0.5195" style="stop-color:#0ABAAC"/>
				<stop  offset="0.6522" style="stop-color:#12A4AE"/>
				<stop  offset="0.7777" style="stop-color:#1D86B0"/>
				<stop  offset="0.8962" style="stop-color:#2963B4"/>
				<stop  offset="1" style="stop-color:#373DB7"/>
			</linearGradient>
			<path fill="url(#SVGID_14_)" d="M810.188,328.021l-2.66,1.172l-4.017-6.237l-5.992,2.645l1.898,7.171l-2.582,1.139l-0.034-0.076
				l-7.925-32.524l2.64-1.163L810.188,328.021z M802.12,320.739l-9.847-15.173l4.548,17.51L802.12,320.739z"/>
			<linearGradient id="SVGID_15_" gradientUnits="userSpaceOnUse" x1="801.1802" y1="307.3594" x2="821.8589" y2="307.3594">
				<stop  offset="0" style="stop-color:#00D7A9"/>
				<stop  offset="0.2157" style="stop-color:#01D4A9"/>
				<stop  offset="0.3765" style="stop-color:#04CAAA"/>
				<stop  offset="0.5195" style="stop-color:#0ABAAC"/>
				<stop  offset="0.6522" style="stop-color:#12A4AE"/>
				<stop  offset="0.7777" style="stop-color:#1D86B0"/>
				<stop  offset="0.8962" style="stop-color:#2963B4"/>
				<stop  offset="1" style="stop-color:#373DB7"/>
			</linearGradient>
			<path fill="url(#SVGID_15_)" d="M814.268,293.033l-4.663,2.057l12.254,27.782l-2.677,1.182l-12.255-27.782l-4.701,2.074
				l-1.046-2.37l12.041-5.312L814.268,293.033z"/>
			<linearGradient id="SVGID_16_" gradientUnits="userSpaceOnUse" x1="818.8442" y1="302.6689" x2="834.8218" y2="302.6689">
				<stop  offset="0" style="stop-color:#00D7A9"/>
				<stop  offset="0.2157" style="stop-color:#01D4A9"/>
				<stop  offset="0.3765" style="stop-color:#04CAAA"/>
				<stop  offset="0.5195" style="stop-color:#0ABAAC"/>
				<stop  offset="0.6522" style="stop-color:#12A4AE"/>
				<stop  offset="0.7777" style="stop-color:#1D86B0"/>
				<stop  offset="0.8962" style="stop-color:#2963B4"/>
				<stop  offset="1" style="stop-color:#373DB7"/>
			</linearGradient>
			<path fill="url(#SVGID_16_)" d="M834.822,317.154l-2.677,1.182l-13.3-30.152l2.678-1.182L834.822,317.154z"/>
			<linearGradient id="SVGID_17_" gradientUnits="userSpaceOnUse" x1="829.5908" y1="296.1758" x2="853.541" y2="296.1758">
				<stop  offset="0" style="stop-color:#00D7A9"/>
				<stop  offset="0.2157" style="stop-color:#01D4A9"/>
				<stop  offset="0.3765" style="stop-color:#04CAAA"/>
				<stop  offset="0.5195" style="stop-color:#0ABAAC"/>
				<stop  offset="0.6522" style="stop-color:#12A4AE"/>
				<stop  offset="0.7777" style="stop-color:#1D86B0"/>
				<stop  offset="0.8962" style="stop-color:#2963B4"/>
				<stop  offset="1" style="stop-color:#373DB7"/>
			</linearGradient>
			<path fill="url(#SVGID_17_)" d="M853.315,306.441c0.277,0.63,0.299,1.234,0.063,1.813c-0.235,0.58-0.668,1.009-1.297,1.286
				l-7.764,3.424c-0.63,0.278-1.231,0.307-1.806,0.084c-0.573-0.223-0.999-0.648-1.276-1.278l-11.415-25.875
				c-0.277-0.629-0.305-1.231-0.081-1.805c0.221-0.573,0.648-0.999,1.277-1.277l7.764-3.424c0.629-0.278,1.238-0.308,1.824-0.093
				c0.587,0.218,1.019,0.641,1.296,1.27l3.094,7.014l-2.697,1.189l-2.992-6.781l-6.705,2.957l11.21,25.412l6.705-2.957l-3.271-7.417
				l2.696-1.19L853.315,306.441z"/>
		</g>
	</g>
</g>
<g id="Calque_3">
	<rect x="358.991" y="311.471" opacity="0.1" fill="#FFFFFF" width="368.154" height="58.925"/>
	<linearGradient id="SVGID_18_" gradientUnits="userSpaceOnUse" x1="410.8071" y1="426.5088" x2="675.3301" y2="426.5088">
		<stop  offset="0" style="stop-color:#DA80FF"/>
		<stop  offset="0.211" style="stop-color:#D77FFE"/>
		<stop  offset="0.3683" style="stop-color:#CD7BF9"/>
		<stop  offset="0.5081" style="stop-color:#BD74F2"/>
		<stop  offset="0.6379" style="stop-color:#A76BE8"/>
		<stop  offset="0.7607" style="stop-color:#895FDB"/>
		<stop  offset="0.8783" style="stop-color:#6550CB"/>
		<stop  offset="0.9897" style="stop-color:#3B3FB9"/>
		<stop  offset="1" style="stop-color:#373DB7"/>
	</linearGradient>
	<rect x="410.807" y="408.006" fill="url(#SVGID_18_)" width="264.523" height="37.006"/>
	<g>
		<path fill="#00164C" d="M468.307,433.259c0,0.293-0.093,0.532-0.278,0.718s-0.425,0.278-0.718,0.278h-3.689
			c-0.293,0-0.533-0.093-0.718-0.278s-0.278-0.425-0.278-0.718v-12.057c0-0.293,0.093-0.532,0.278-0.718s0.425-0.278,0.718-0.278
			h3.689c0.293,0,0.533,0.093,0.718,0.278s0.278,0.425,0.278,0.718v3.268h-1.257v-3.16h-3.178v11.841h3.178v-4.856h-1.499v-1.077
			h2.756V433.259z"/>
		<path fill="#00164C" d="M476.232,434.255h-4.614v-14.049h4.561v1.104h-3.313v5.243h3.016v1.122h-3.016v5.476h3.366V434.255z"/>
		<path fill="#00164C" d="M485.054,434.255h-0.862l-3.752-10.333v10.333h-1.176v-14.049h0.934l3.681,10.152v-10.152h1.176V434.255z"
			/>
		<path fill="#00164C" d="M492.998,434.255h-4.614v-14.049h4.561v1.104h-3.313v5.243h3.016v1.122h-3.016v5.476h3.366V434.255z"/>
		<path fill="#00164C" d="M502.009,434.255h-1.311l-2.612-7.522l0.171-0.252h2.226v-5.171h-3.205v12.945h-1.248v-14.049h4.704
			c0.293,0,0.533,0.093,0.718,0.278c0.185,0.186,0.278,0.425,0.278,0.718v5.332c0,0.677-0.455,1.015-1.365,1.015
			c-0.09,0-0.222-0.004-0.395-0.014c-0.174-0.009-0.299-0.013-0.377-0.013C500.402,429.761,501.207,432.005,502.009,434.255z"/>
		<path fill="#00164C" d="M509.575,434.255h-4.614v-14.049h4.561v1.104h-3.313v5.243h3.016v1.122h-3.016v5.476h3.366V434.255z"/>
		<path fill="#00164C" d="M518.586,434.255h-1.311l-2.612-7.522l0.171-0.252h2.226v-5.171h-3.205v12.945h-1.248v-14.049h4.704
			c0.293,0,0.533,0.093,0.718,0.278c0.185,0.186,0.278,0.425,0.278,0.718v5.332c0,0.677-0.455,1.015-1.365,1.015
			c-0.09,0-0.222-0.004-0.395-0.014c-0.174-0.009-0.299-0.013-0.377-0.013C516.98,429.761,517.785,432.005,518.586,434.255z"/>
		<path fill="#00164C" d="M532.049,433.259c0,0.293-0.094,0.532-0.283,0.718s-0.43,0.278-0.723,0.278h-3.824
			c-0.293,0-0.533-0.093-0.718-0.278s-0.278-0.425-0.278-0.718v-13.053h1.248v12.944h3.33v-12.944h1.248V433.259z"/>
		<path fill="#00164C" d="M541.168,434.255h-0.862l-3.752-10.333v10.333h-1.176v-14.049h0.934l3.681,10.152v-10.152h1.176V434.255z"
			/>
		<path fill="#00164C" d="M554.81,433.259c0,0.293-0.096,0.532-0.287,0.718s-0.434,0.278-0.727,0.278h-3.618
			c-0.293,0-0.533-0.093-0.718-0.278s-0.278-0.425-0.278-0.718v-12.057c0-0.293,0.093-0.532,0.278-0.718s0.425-0.278,0.718-0.278
			h3.618c0.293,0,0.536,0.093,0.727,0.278s0.287,0.425,0.287,0.718v3.268h-1.256v-3.16h-3.124v11.841h3.124v-3.456h1.256V433.259z"
			/>
		<path fill="#00164C" d="M563.957,434.255h-1.248v-6.751h-3.384v6.751h-1.248v-14.049h1.248v6.176h3.384v-6.176h1.248V434.255z"/>
		<path fill="#00164C" d="M572.95,434.255h-1.239l-0.494-3.124h-2.792l-0.494,3.124h-1.203v-0.036l2.505-14.049h1.229
			L572.95,434.255z M571.056,430.026l-1.23-7.612l-1.239,7.612H571.056z"/>
		<path fill="#00164C" d="M580.211,434.255h-4.489v-14.049h1.248v12.944h3.241V434.255z"/>
		<path fill="#00164C" d="M587.49,434.255h-4.489v-14.049h1.248v12.944h3.241V434.255z"/>
		<path fill="#00164C" d="M594.894,434.255h-4.614v-14.049h4.561v1.104h-3.313v5.243h3.016v1.122h-3.016v5.476h3.366V434.255z"/>
		<path fill="#00164C" d="M603.717,434.255h-0.862l-3.752-10.333v10.333h-1.176v-14.049h0.934l3.681,10.152v-10.152h1.176V434.255z"
			/>
		<path fill="#00164C" d="M612.729,433.259c0,0.293-0.093,0.532-0.278,0.718s-0.425,0.278-0.718,0.278h-3.689
			c-0.293,0-0.533-0.093-0.718-0.278s-0.278-0.425-0.278-0.718v-12.057c0-0.293,0.093-0.532,0.278-0.718s0.425-0.278,0.718-0.278
			h3.689c0.293,0,0.533,0.093,0.718,0.278s0.278,0.425,0.278,0.718v3.268h-1.257v-3.16h-3.178v11.841h3.178v-4.856h-1.499v-1.077
			h2.756V433.259z"/>
		<path fill="#00164C" d="M620.654,434.255h-4.614v-14.049h4.561v1.104h-3.313v5.243h3.016v1.122h-3.016v5.476h3.366V434.255z"/>
	</g>
	<g opacity="0.6">
		<path fill="#FFFFFF" d="M388.136,344.014c0,0.293-0.096,0.532-0.287,0.718s-0.434,0.278-0.727,0.278h-3.618
			c-0.293,0-0.533-0.093-0.718-0.278s-0.278-0.425-0.278-0.718v-12.057c0-0.293,0.093-0.532,0.278-0.718s0.425-0.278,0.718-0.278
			h3.618c0.293,0,0.536,0.093,0.727,0.278s0.287,0.425,0.287,0.718v3.268h-1.256v-3.16h-3.124v11.841h3.124v-3.456h1.256V344.014z"
			/>
		<path fill="#FFFFFF" d="M396.277,343.995c0,0.677-0.338,1.015-1.014,1.015h-2.999c-0.67,0-1.005-0.338-1.005-1.015v-6.706
			c0-0.676,0.335-1.014,1.005-1.014h2.999c0.676,0,1.014,0.338,1.014,1.014V343.995z M395.083,343.959v-6.634h-2.63v6.634H395.083z"
			/>
		<path fill="#FFFFFF" d="M404.328,345.01h-1.194v-7.666l-2.63,0.071v7.595h-1.194v-8.734h1.194v0.242
			c0.467-0.06,0.937-0.123,1.41-0.188c0.574-0.072,1.047-0.107,1.418-0.107c0.665,0,0.997,0.326,0.997,0.979V345.01z"/>
		<path fill="#FFFFFF" d="M412.19,343.995c0,0.677-0.335,1.015-1.005,1.015h-2.837c-0.67,0-1.005-0.338-1.005-1.015v-6.706
			c0-0.676,0.335-1.014,1.005-1.014h2.837c0.67,0,1.005,0.338,1.005,1.014v1.742h-1.176v-1.706h-2.478v6.634h2.478v-1.947h1.176
			V343.995z"/>
		<path fill="#FFFFFF" d="M420.097,343.995c0,0.677-0.335,1.015-1.005,1.015h-2.873c-0.67,0-1.005-0.338-1.005-1.015v-6.706
			c0-0.676,0.335-1.014,1.005-1.014h2.873c0.67,0,1.005,0.338,1.005,1.014v3.143l-0.404,0.422h-3.321v3.16h2.567v-1.599h1.158
			V343.995z M418.939,339.901v-2.63h-2.567v2.63H418.939z"/>
		<path fill="#FFFFFF" d="M428.077,336.275l-2.164,8.752h-1.086l-2.173-8.752h1.23l1.49,6.876l1.508-6.876H428.077z"/>
		<path fill="#FFFFFF" d="M435.643,343.995c0,0.677-0.338,1.015-1.014,1.015h-2.999c-0.67,0-1.005-0.338-1.005-1.015v-6.706
			c0-0.676,0.335-1.014,1.005-1.014h2.999c0.676,0,1.014,0.338,1.014,1.014V343.995z M434.449,343.959v-6.634h-2.63v6.634H434.449z"
			/>
		<path fill="#FFFFFF" d="M439.941,334.363h-1.212v-1.509h1.212V334.363z M439.923,345.01h-1.176v-8.734h1.176V345.01z"/>
		<path fill="#FFFFFF" d="M447.606,339.147h-1.176v-1.804l-2.199,0.071v7.595h-1.194v-8.734h1.194v0.242
			c0.395-0.06,0.793-0.123,1.194-0.188c0.479-0.072,0.877-0.107,1.194-0.107c0.658,0,0.987,0.326,0.987,0.979V339.147z"/>
		<path fill="#FFFFFF" d="M459.893,345.01h-1.176v-0.242c-0.479,0.065-0.955,0.129-1.427,0.188c-0.575,0.071-1.05,0.107-1.427,0.107
			c-0.646,0-0.97-0.323-0.97-0.97v-7.818h1.176v7.666l2.648-0.071v-7.595h1.176V345.01z"/>
		<path fill="#FFFFFF" d="M467.943,345.01h-1.194v-7.666l-2.63,0.071v7.595h-1.194v-8.734h1.194v0.242
			c0.467-0.06,0.937-0.123,1.41-0.188c0.574-0.072,1.047-0.107,1.418-0.107c0.665,0,0.997,0.326,0.997,0.979V345.01z"/>
		<path fill="#FFFFFF" d="M475.841,343.995c0,0.677-0.335,1.015-1.005,1.015h-2.873c-0.67,0-1.005-0.338-1.005-1.015v-6.706
			c0-0.676,0.335-1.014,1.005-1.014h2.873c0.67,0,1.005,0.338,1.005,1.014v3.143l-0.404,0.422h-3.321v3.16h2.567v-1.599h1.158
			V343.995z M474.684,339.901v-2.63h-2.567v2.63H474.684z"/>
		<path fill="#FFFFFF" d="M484.852,334.363h-1.212v-1.509h1.212V334.363z M484.833,345.01h-1.176v-8.734h1.176V345.01z"/>
		<path fill="#FFFFFF" d="M489.195,345.01h-1.176v-14.049h1.176V345.01z"/>
		<path fill="#FFFFFF" d="M493.556,345.01h-1.176v-14.049h1.176V345.01z"/>
		<path fill="#FFFFFF" d="M501.67,345.01h-1.176v-0.242c-0.479,0.065-0.955,0.129-1.427,0.188c-0.575,0.071-1.05,0.107-1.427,0.107
			c-0.646,0-0.97-0.323-0.97-0.97v-7.818h1.176v7.666l2.648-0.071v-7.595h1.176V345.01z"/>
		<path fill="#FFFFFF" d="M509.407,343.995c0,0.677-0.338,1.015-1.015,1.015h-2.738c-0.676,0-1.015-0.338-1.015-1.015v-1.983h1.176
			v1.966h2.415v-1.741l-3.124-2.559c-0.299-0.239-0.449-0.551-0.449-0.934v-1.455c0-0.676,0.338-1.014,1.015-1.014h2.702
			c0.676,0,1.015,0.338,1.015,1.014v1.742h-1.158v-1.724h-2.415v1.526l3.151,2.558c0.293,0.233,0.44,0.551,0.44,0.952V343.995z"/>
		<path fill="#FFFFFF" d="M515.528,345.01h-1.697c-0.67,0-1.005-0.338-1.005-1.015v-6.67h-1.05v-1.05h1.05v-2.721h1.176v2.721h1.526
			v1.05h-1.526v6.634h1.526V345.01z"/>
		<path fill="#FFFFFF" d="M522.708,339.147h-1.176v-1.804l-2.199,0.071v7.595h-1.194v-8.734h1.194v0.242
			c0.395-0.06,0.793-0.123,1.194-0.188c0.479-0.072,0.877-0.107,1.194-0.107c0.658,0,0.987,0.326,0.987,0.979V339.147z"/>
		<path fill="#FFFFFF" d="M530.247,345.01h-1.176v-0.242c-0.473,0.065-0.945,0.129-1.418,0.188
			c-0.586,0.071-1.056,0.107-1.409,0.107c-0.652,0-0.979-0.323-0.979-0.97v-3.187c0-0.67,0.338-1.006,1.015-1.006h2.81v-2.63h-2.567
			v1.49h-1.158v-1.473c0-0.676,0.335-1.014,1.005-1.014h2.873c0.67,0,1.005,0.338,1.005,1.014V345.01z M529.089,343.924v-3.088
			h-2.666v3.142L529.089,343.924z"/>
		<path fill="#FFFFFF" d="M536.431,345.01h-1.697c-0.67,0-1.005-0.338-1.005-1.015v-6.67h-1.05v-1.05h1.05v-2.721h1.176v2.721h1.526
			v1.05h-1.526v6.634h1.526V345.01z"/>
		<path fill="#FFFFFF" d="M540.307,334.363h-1.212v-1.509h1.212V334.363z M540.289,345.01h-1.176v-8.734h1.176V345.01z"/>
		<path fill="#FFFFFF" d="M548.42,343.995c0,0.677-0.338,1.015-1.014,1.015h-2.999c-0.67,0-1.005-0.338-1.005-1.015v-6.706
			c0-0.676,0.335-1.014,1.005-1.014h2.999c0.676,0,1.014,0.338,1.014,1.014V343.995z M547.227,343.959v-6.634h-2.63v6.634H547.227z"
			/>
		<path fill="#FFFFFF" d="M556.472,345.01h-1.194v-7.666l-2.63,0.071v7.595h-1.194v-8.734h1.194v0.242
			c0.467-0.06,0.937-0.123,1.41-0.188c0.574-0.072,1.047-0.107,1.418-0.107c0.665,0,0.997,0.326,0.997,0.979V345.01z"/>
		<path fill="#FFFFFF" d="M560.896,343.43l-0.79,2.576h-0.862l0.26-2.576H560.896z"/>
		<path fill="#FFFFFF" d="M573.245,345.01h-1.176v-0.242c-0.473,0.065-0.945,0.129-1.418,0.188
			c-0.586,0.071-1.056,0.107-1.409,0.107c-0.652,0-0.979-0.323-0.979-0.97v-3.187c0-0.67,0.338-1.006,1.015-1.006h2.81v-2.63h-2.567
			v1.49h-1.158v-1.473c0-0.676,0.335-1.014,1.005-1.014h2.873c0.67,0,1.005,0.338,1.005,1.014V345.01z M571.88,335.503h-0.826
			l-2.208-2.073v-0.036h1.688l1.347,2.056V335.503z M572.087,343.924v-3.088h-2.666v3.142L572.087,343.924z"/>
		<path fill="#FFFFFF" d="M584.113,345.01h-1.697c-0.67,0-1.005-0.338-1.005-1.015v-6.67h-1.05v-1.05h1.05v-2.721h1.176v2.721h1.526
			v1.05h-1.526v6.634h1.526V345.01z"/>
		<path fill="#FFFFFF" d="M591.607,343.995c0,0.677-0.335,1.015-1.005,1.015h-2.873c-0.67,0-1.005-0.338-1.005-1.015v-6.706
			c0-0.676,0.335-1.014,1.005-1.014h2.873c0.67,0,1.005,0.338,1.005,1.014v3.143l-0.404,0.422h-3.321v3.16h2.567v-1.599h1.158
			V343.995z M590.45,339.901v-2.63h-2.567v2.63H590.45z"/>
		<path fill="#FFFFFF" d="M599.236,339.147h-1.176v-1.804l-2.199,0.071v7.595h-1.194v-8.734h1.194v0.242
			c0.395-0.06,0.793-0.123,1.194-0.188c0.479-0.072,0.877-0.107,1.194-0.107c0.658,0,0.987,0.326,0.987,0.979V339.147z"/>
		<path fill="#FFFFFF" d="M610.618,345.01h-1.194v-7.666l-2.603,0.071v7.595h-1.185v-7.666l-2.604,0.071v7.595h-1.194v-8.734h1.194
			v0.242c0.467-0.06,0.934-0.123,1.4-0.188c0.568-0.072,1.039-0.107,1.41-0.107c0.365,0,0.634,0.11,0.808,0.332
			c0.503-0.066,1.002-0.135,1.5-0.207c0.652-0.083,1.146-0.125,1.481-0.125c0.658,0,0.987,0.326,0.987,0.979V345.01z"/>
		<path fill="#FFFFFF" d="M614.907,334.363h-1.212v-1.509h1.212V334.363z M614.889,345.01h-1.176v-8.734h1.176V345.01z"/>
		<path fill="#FFFFFF" d="M623.021,345.01h-1.194v-7.666l-2.63,0.071v7.595h-1.194v-8.734h1.194v0.242
			c0.467-0.06,0.937-0.123,1.41-0.188c0.574-0.072,1.047-0.107,1.418-0.107c0.665,0,0.997,0.326,0.997,0.979V345.01z"/>
		<path fill="#FFFFFF" d="M630.919,343.995c0,0.677-0.335,1.015-1.005,1.015h-2.873c-0.67,0-1.005-0.338-1.005-1.015v-6.706
			c0-0.676,0.335-1.014,1.005-1.014h2.873c0.67,0,1.005,0.338,1.005,1.014v3.143l-0.404,0.422h-3.321v3.16h2.567v-1.599h1.158
			V343.995z M629.761,339.901v-2.63h-2.567v2.63H629.761z"/>
		<path fill="#FFFFFF" d="M638.548,339.147h-1.176v-1.804l-2.199,0.071v7.595h-1.194v-8.734h1.194v0.242
			c0.395-0.06,0.793-0.123,1.194-0.188c0.479-0.072,0.877-0.107,1.194-0.107c0.658,0,0.987,0.326,0.987,0.979V339.147z"/>
		<path fill="#FFFFFF" d="M650.853,343.134c0,0.538-0.177,0.986-0.53,1.342c-0.353,0.356-0.796,0.534-1.329,0.534h-1.966v3.313
			h-1.194v-12.047h1.194v0.242c0.473-0.06,0.946-0.12,1.418-0.18c0.598-0.077,1.068-0.116,1.409-0.116
			c0.665,0,0.997,0.326,0.997,0.979V343.134z M649.659,342.954v-5.61l-2.63,0.071v6.544h1.652
			C649.333,343.959,649.659,343.624,649.659,342.954z"/>
		<path fill="#FFFFFF" d="M658.868,343.995c0,0.677-0.338,1.015-1.014,1.015h-2.999c-0.67,0-1.005-0.338-1.005-1.015v-6.706
			c0-0.676,0.335-1.014,1.005-1.014h2.999c0.676,0,1.014,0.338,1.014,1.014V343.995z M657.674,343.959v-6.634h-2.63v6.634H657.674z"
			/>
		<path fill="#FFFFFF" d="M666.9,345.01h-1.176v-0.242c-0.479,0.065-0.955,0.129-1.427,0.188c-0.575,0.071-1.05,0.107-1.427,0.107
			c-0.646,0-0.97-0.323-0.97-0.97v-7.818h1.176v7.666l2.648-0.071v-7.595h1.176V345.01z"/>
		<path fill="#FFFFFF" d="M674.503,339.147h-1.176v-1.804l-2.199,0.071v7.595h-1.194v-8.734h1.194v0.242
			c0.395-0.06,0.793-0.123,1.194-0.188c0.479-0.072,0.877-0.107,1.194-0.107c0.658,0,0.987,0.326,0.987,0.979V339.147z"/>
		<path fill="#FFFFFF" d="M686.807,345.01h-1.194v-7.666l-2.63,0.071v7.595h-1.194v-14.049h1.194v5.557
			c0.473-0.06,0.946-0.12,1.418-0.18c0.598-0.077,1.068-0.116,1.409-0.116c0.665,0,0.997,0.326,0.997,0.979V345.01z"/>
		<path fill="#FFFFFF" d="M691.087,334.363h-1.212v-1.509h1.212V334.363z M691.069,345.01h-1.176v-8.734h1.176V345.01z"/>
		<path fill="#FFFFFF" d="M699.066,343.995c0,0.677-0.335,1.015-1.005,1.015h-2.873c-0.67,0-1.005-0.338-1.005-1.015v-6.706
			c0-0.676,0.335-1.014,1.005-1.014h2.873c0.67,0,1.005,0.338,1.005,1.014v3.143l-0.404,0.422h-3.321v3.16h2.567v-1.599h1.158
			V343.995z M697.909,339.901v-2.63h-2.567v2.63H697.909z"/>
		<path fill="#FFFFFF" d="M706.696,339.147h-1.176v-1.804l-2.199,0.071v7.595h-1.194v-8.734h1.194v0.242
			c0.395-0.06,0.793-0.123,1.194-0.188c0.479-0.072,0.877-0.107,1.194-0.107c0.658,0,0.987,0.326,0.987,0.979V339.147z"/>
	</g>
</g>
</svg>
