<?xml version="1.0" encoding="utf-8"?>
<!-- Generator: Adobe Illustrator 16.0.0, SVG Export Plug-In . SVG Version: 6.00 Build 0)  -->
<!DOCTYPE svg PUBLIC "-//W3C//DTD SVG 1.1//EN" "http://www.w3.org/Graphics/SVG/1.1/DTD/svg11.dtd">
<svg version="1.1" id="Calque_1" xmlns="http://www.w3.org/2000/svg" xmlns:xlink="http://www.w3.org/1999/xlink" x="0px" y="0px"
	 width="200px" height="126.83px" viewBox="0 0 200 126.83" enable-background="new 0 0 200 126.83" xml:space="preserve">
<g>
	<g opacity="0.3">
		
			<image overflow="visible" width="1061" height="767" xlink:href="61AA45F5.png"  transform="matrix(0.24 0 0 0.24 -29.1055 -27.4063)">
		</image>
	</g>
	<circle fill="#E9D6E9" cx="104.42" cy="79.906" r="26.845"/>
	<g>
		<path fill="#F5D79B" d="M185.18,74.473c-27.518-34.582-56.09-51.271-84.958-49.556c-44.442,2.618-75.296,48.438-75.604,48.9
			l-11.404-12.53c1.413-2.144,35.167-52.563,86.16-55.674c33.212-1.983,65.597,16.483,96.254,55.009L185.18,74.473z"/>
		<path fill="#F5D79B" d="M104.285,117.549c-1.636,0-3.271-0.051-4.911-0.149c-50.993-3.111-84.747-53.53-86.16-55.674
			l11.414-12.518l-5.706,6.259l5.696-6.271c0.308,0.462,31.161,46.282,75.604,48.9c28.808,1.703,57.438-14.972,84.958-49.556
			l10.448,13.851C166.484,99.016,135.779,117.549,104.285,117.549z"/>
	</g>
</g>
</svg>
