<?xml version="1.0" encoding="utf-8"?>
<!-- Generator: Adobe Illustrator 16.0.0, SVG Export Plug-In . SVG Version: 6.00 Build 0)  -->
<!DOCTYPE svg PUBLIC "-//W3C//DTD SVG 1.1//EN" "http://www.w3.org/Graphics/SVG/1.1/DTD/svg11.dtd">
<svg version="1.1" id="Calque_1" xmlns="http://www.w3.org/2000/svg" xmlns:xlink="http://www.w3.org/1999/xlink" x="0px" y="0px"
	 width="98.667px" height="96.333px" viewBox="0 0 98.667 96.333" enable-background="new 0 0 98.667 96.333" xml:space="preserve">
<path fill="#EE8274" d="M50.029,2.929C24.061,2.929,3,24.072,3,50.153c0,20.86,13.476,38.557,32.172,44.807
	c2.353,0.436,3.21-1.022,3.21-2.274c0-1.123-0.041-4.093-0.064-8.031c-13.082,2.853-15.845-6.331-15.845-6.331
	c-2.135-5.457-5.222-6.908-5.222-6.908c-4.273-2.93,0.318-2.869,0.318-2.869c4.722,0.334,7.202,4.867,7.202,4.867
	c4.198,7.215,11.012,5.133,13.692,3.922c0.424-3.051,1.642-5.133,2.987-6.314c-10.441-1.193-21.424-5.244-21.424-23.336
	c0-5.156,1.834-9.371,4.844-12.676c-0.487-1.193-2.099-5.997,0.459-12.493c0,0,3.951-1.271,12.935,4.839
	c3.751-1.047,7.772-1.57,11.776-1.588c3.992,0.023,8.02,0.541,11.775,1.594c8.979-6.11,12.924-4.84,12.924-4.84
	c2.564,6.503,0.952,11.3,0.471,12.493c3.017,3.305,4.832,7.521,4.832,12.677c0,18.139-10.992,22.13-21.471,23.301
	c1.688,1.457,3.192,4.338,3.192,8.741c0,6.315-0.06,11.406-0.06,12.953c0,1.265,0.848,2.733,3.233,2.271
	C83.606,88.7,97.07,71.006,97.07,50.153C97.07,24.072,76.011,2.929,50.029,2.929z"/>
</svg>
