<?xml version="1.0" encoding="utf-8"?>
<!-- Generator: Adobe Illustrator 16.0.0, SVG Export Plug-In . SVG Version: 6.00 Build 0)  -->
<!DOCTYPE svg PUBLIC "-//W3C//DTD SVG 1.1//EN" "http://www.w3.org/Graphics/SVG/1.1/DTD/svg11.dtd">
<svg version="1.1" id="Calque_1" xmlns="http://www.w3.org/2000/svg" xmlns:xlink="http://www.w3.org/1999/xlink" x="0px" y="0px"
	 width="1108.373px" height="631.043px" viewBox="0 0 1108.373 631.043" enable-background="new 0 0 1108.373 631.043"
	 xml:space="preserve">
<g>
	<rect x="0" y="1.611" fill="#320056" width="1114.749" height="635.983"/>
	<g>
		<g>
			<g>
				<path fill="#FF7B4D" d="M274.003,171.364c-2.458-1.357-4.334-3.334-5.626-5.933c-1.293-2.598-1.938-5.729-1.938-9.391v-6.49
					c0-3.61,0.646-6.703,1.938-9.276c1.292-2.572,3.168-4.531,5.626-5.875c2.458-1.345,5.416-2.017,8.872-2.017
					s6.414,0.672,8.872,2.017c2.458,1.344,4.333,3.303,5.626,5.875c1.293,2.573,1.939,5.666,1.939,9.276v6.605
					c0,3.636-0.646,6.74-1.939,9.313c-1.293,2.573-3.168,4.538-5.626,5.895c-2.458,1.358-5.416,2.036-8.872,2.036
					S276.461,172.722,274.003,171.364z M289.231,163.376c1.498-1.715,2.247-4.122,2.247-7.221v-6.605
					c0-3.098-0.749-5.492-2.247-7.182s-3.617-2.534-6.356-2.534s-4.857,0.844-6.355,2.534s-2.247,4.084-2.247,7.182v6.605
					c0,3.099,0.749,5.505,2.247,7.221s3.616,2.573,6.355,2.573S287.733,165.092,289.231,163.376z"/>
				<path fill="#FF7B4D" d="M316.863,171.364c-2.458-1.357-4.333-3.334-5.625-5.933c-1.293-2.598-1.94-5.729-1.94-9.391v-6.49
					c0-3.61,0.647-6.703,1.94-9.276c1.293-2.572,3.168-4.531,5.625-5.875c2.458-1.345,5.416-2.017,8.872-2.017
					c3.456,0,6.414,0.672,8.872,2.017c2.458,1.344,4.333,3.303,5.626,5.875c1.292,2.573,1.939,5.666,1.939,9.276v6.605
					c0,3.636-0.647,6.74-1.939,9.313c-1.293,2.573-3.169,4.538-5.626,5.895c-2.458,1.358-5.416,2.036-8.872,2.036
					C322.278,173.4,319.321,172.722,316.863,171.364z M332.09,163.376c1.499-1.715,2.247-4.122,2.247-7.221v-6.605
					c0-3.098-0.748-5.492-2.247-7.182c-1.497-1.69-3.616-2.534-6.355-2.534c-2.74,0-4.858,0.844-6.356,2.534
					c-1.497,1.69-2.246,4.084-2.246,7.182v6.605c0,3.099,0.749,5.505,2.246,7.221c1.499,1.715,3.617,2.573,6.356,2.573
					C328.474,165.95,330.593,165.092,332.09,163.376z"/>
			</g>
			<g>
				<path fill="#20EFC8" d="M213.046,111.658h11.914v84.917h-11.914V111.658z M222.391,159.314l37.495-47.656h14.658l-53.905,65.528
					L222.391,159.314z M236.524,151.255l9.403-8.702l32.18,54.022h-14.601L236.524,151.255z"/>
			</g>
			<g>
				<g>
					<path fill="#20EFC8" d="M356.081,196.575H307.49v-11.33h48.592V196.575z M362.038,196.575h-11.914v-84.917h11.914V196.575z"/>
				</g>
			</g>
			<path fill="#B650FF" d="M381.487,151.399c0,0-1.23-0.656-3.692-1.971c-2.46-1.314-4.34-3.224-5.638-5.728
				s-1.947-5.528-1.947-9.074v-6.359c0-3.495,0.648-6.482,1.947-8.961c1.298-2.479,3.178-4.371,5.638-5.672
				c2.462-1.301,5.432-1.952,8.909-1.952c1.984,0,3.851,0.241,5.601,0.725c1.751,0.483,3.325,1.184,4.722,2.1
				c1.396,0.917,2.558,2.034,3.489,3.348l-5.4,4.909c-1.078-1.24-2.338-2.195-3.783-2.863c-1.446-0.669-2.951-1.004-4.519-1.004
				c-2.889,0-5.13,0.818-6.721,2.454c-1.593,1.637-2.389,3.942-2.389,6.917v6.359c0,3.05,0.791,5.405,2.37,7.065
				c1.579,1.662,3.826,2.492,6.74,2.492c1.593,0,3.11-0.358,4.555-1.078c1.445-0.719,2.694-1.735,3.747-3.05l5.4,5.281
				c-0.954,1.289-2.13,2.386-3.526,3.291c-1.396,0.905-2.969,1.593-4.72,2.064c-1.751,0.47-3.607,0.707-5.565,0.707
				C383.226,151.399,381.487,151.399,381.487,151.399z"/>
			<path fill="#B650FF" d="M410.555,148.442c-2.355-1.971-3.533-4.964-3.533-8.98c0-3.817,1.078-6.682,3.235-8.591
				c2.157-1.908,5.417-2.863,9.781-2.863h10.971l0.52,6.099h-11.453c-1.984,0-3.465,0.44-4.444,1.32
				c-0.98,0.88-1.47,2.226-1.47,4.035c0,1.958,0.651,3.409,1.953,4.351c1.302,0.943,3.279,1.414,5.932,1.414
				c2.901,0,5.064-0.311,6.489-0.931c1.426-0.62,2.139-1.586,2.139-2.9l0.781,5.429c-0.669,1.042-1.494,1.897-2.473,2.566
				c-0.98,0.67-2.114,1.172-3.403,1.507c-1.289,0.334-2.739,0.502-4.351,0.502C416.469,151.399,412.91,150.413,410.555,148.442z
				 M430.675,126.372c0-2.529-0.675-4.494-2.027-5.895c-1.352-1.4-3.267-2.101-5.746-2.101c-1.537,0-3.043,0.236-4.519,0.707
				c-1.475,0.472-2.783,1.129-3.923,1.972l-5.54-3.793c1.463-1.761,3.389-3.13,5.782-4.11c2.393-0.979,5.052-1.468,7.977-1.468
				c3.197,0,5.938,0.563,8.219,1.691c2.281,1.129,4.016,2.765,5.207,4.909c1.189,2.145,1.784,4.73,1.784,7.754v24.804h-7.214
				V126.372z"/>
			<path fill="#B650FF" d="M370.21,137.706h7.586v58.728h-7.586V137.706z M373.482,181.781l19.859-23.949h8.926l-29.268,32.948
				L373.482,181.781z M382.445,174.158l4.871-5.057l16.847,27.333h-8.256L382.445,174.158z"/>
			<path fill="#B650FF" d="M420.934,196.991c0,0-1.265-0.669-3.792-2.008c-2.53-1.339-4.458-3.303-5.784-5.894
				c-1.327-2.59-1.989-5.721-1.989-9.39v-4.351c0-3.818,0.638-7.078,1.915-9.781c1.278-2.703,3.13-4.76,5.561-6.174
				c2.429-1.413,5.355-2.119,8.776-2.119c3.223,0,5.975,0.806,8.255,2.417s4.022,3.942,5.226,6.991
				c1.202,3.049,1.803,6.707,1.803,10.971v2.529h-26.031v-6.099h18.817c-0.223-3.148-1.036-5.596-2.435-7.345
				c-1.401-1.748-3.279-2.621-5.635-2.621c-2.876,0-5.102,0.942-6.675,2.826c-1.575,1.885-2.361,4.549-2.361,7.995v4.909
				c0,3.198,0.843,5.653,2.529,7.364c1.686,1.71,4.078,2.566,7.177,2.566c1.537,0,3.062-0.31,4.575-0.93
				c1.511-0.619,2.863-1.488,4.052-2.604l4.984,4.983c-1.909,1.835-4.054,3.253-6.433,4.258c-2.381,1.004-4.773,1.506-7.178,1.506
				C422.72,196.991,420.934,196.991,420.934,196.991z"/>
		</g>
		<g>
			<rect x="213.046" y="258.958" fill="#FF7B4D" width="227.858" height="19.052"/>
			<rect x="211.805" y="303.99" fill="#B650FF" width="173.557" height="19.052"/>
			<rect x="211.805" y="349.311" fill="#20EFC8" width="322.211" height="19.053"/>
		</g>
		<rect x="213.177" y="396.086" fill="#FF7B4D" width="219.341" height="56.427"/>
		<g>
			<path fill="#FFFFFF" d="M253.831,408.931v2.772c0,1.181-0.229,2.22-0.688,3.118c-0.459,0.899-1.108,1.594-1.949,2.085
				c-0.84,0.491-1.813,0.737-2.92,0.737c-1.122,0-2.106-0.231-2.953-0.694c-0.848-0.462-1.505-1.114-1.971-1.959
				c-0.466-0.845-0.699-1.823-0.699-2.937v-4.685c0-1.179,0.229-2.215,0.688-3.11c0.458-0.895,1.108-1.589,1.949-2.08
				s1.814-0.737,2.92-0.737c0.91,0,1.75,0.195,2.517,0.584c0.768,0.391,1.411,0.941,1.928,1.654c0.516,0.713,0.865,1.54,1.047,2.478
				h-2.413c-0.13-0.53-0.353-0.987-0.666-1.369c-0.313-0.383-0.681-0.673-1.103-0.873c-0.423-0.2-0.86-0.302-1.311-0.302
				c-0.654,0-1.229,0.157-1.725,0.472c-0.495,0.312-0.876,0.75-1.146,1.314s-0.404,1.221-0.404,1.97v4.685
				c0,0.685,0.138,1.283,0.415,1.795c0.276,0.514,0.667,0.913,1.172,1.195c0.507,0.285,1.09,0.427,1.753,0.427
				c0.654,0,1.229-0.147,1.725-0.441c0.495-0.296,0.877-0.724,1.146-1.283c0.269-0.561,0.403-1.228,0.403-1.998v-0.688h-3.221v-2.13
				H253.831z"/>
			<path fill="#FFFFFF" d="M260.283,417.644c0,0-0.372-0.196-1.114-0.59c-0.743-0.393-1.309-0.97-1.697-1.73
				c-0.39-0.761-0.584-1.68-0.584-2.757v-1.277c0-1.121,0.187-2.078,0.563-2.871c0.375-0.793,0.918-1.398,1.632-1.813
				c0.713-0.415,1.571-0.623,2.576-0.623c0.947,0,1.754,0.237,2.424,0.711c0.67,0.473,1.18,1.156,1.534,2.052
				c0.353,0.895,0.529,1.97,0.529,3.221v0.743h-7.643v-1.791h5.524c-0.065-0.924-0.304-1.643-0.715-2.155
				c-0.411-0.514-0.962-0.771-1.655-0.771c-0.844,0-1.497,0.277-1.959,0.83s-0.693,1.336-0.693,2.347v1.441
				c0,0.938,0.248,1.659,0.742,2.161c0.496,0.504,1.197,0.753,2.107,0.753c0.451,0,0.899-0.09,1.343-0.272
				c0.444-0.182,0.841-0.437,1.19-0.764l1.463,1.463c-0.561,0.539-1.189,0.955-1.888,1.25c-0.699,0.294-1.402,0.442-2.108,0.442
				C260.807,417.644,260.283,417.644,260.283,417.644z M260.316,402.839l3.124-3.876l1.604,1.333l-3.331,3.668L260.316,402.839z"/>
			<path fill="#FFFFFF" d="M269.202,406.147h2.228v11.333h-2.228V406.147z M276.081,410.612c0-0.8-0.207-1.42-0.622-1.855
				c-0.415-0.437-0.998-0.655-1.747-0.655c-0.728,0-1.291,0.193-1.687,0.579c-0.397,0.385-0.595,0.927-0.595,1.626l-0.23-2.184
				c0.35-0.684,0.807-1.211,1.371-1.583c0.564-0.371,1.188-0.558,1.872-0.558c1.23,0,2.182,0.402,2.855,1.207
				c0.673,0.806,1.01,1.942,1.01,3.411v6.88h-2.227V410.612z"/>
			<path fill="#FFFFFF" d="M284.761,417.644c0,0-0.372-0.196-1.114-0.59c-0.742-0.393-1.309-0.97-1.698-1.73
				c-0.389-0.761-0.583-1.68-0.583-2.757v-1.277c0-1.121,0.188-2.078,0.562-2.871c0.375-0.793,0.919-1.398,1.632-1.813
				c0.714-0.415,1.573-0.623,2.577-0.623c0.946,0,1.754,0.237,2.423,0.711c0.669,0.473,1.181,1.156,1.535,2.052
				c0.353,0.895,0.529,1.97,0.529,3.221v0.743h-7.642v-1.791h5.524c-0.066-0.924-0.305-1.643-0.716-2.155
				c-0.412-0.514-0.963-0.771-1.654-0.771c-0.845,0-1.497,0.277-1.959,0.83s-0.693,1.336-0.693,2.347v1.441
				c0,0.938,0.247,1.659,0.743,2.161c0.494,0.504,1.197,0.753,2.106,0.753c0.451,0,0.899-0.09,1.343-0.272
				c0.445-0.182,0.841-0.437,1.191-0.764l1.462,1.463c-0.561,0.539-1.19,0.955-1.889,1.25c-0.699,0.294-1.4,0.442-2.107,0.442
				C285.285,417.644,284.761,417.644,284.761,417.644z M284.793,402.839l3.123-3.876l1.605,1.333l-3.33,3.668L284.793,402.839z"/>
			<path fill="#FFFFFF" d="M293.68,406.147h2.228v11.333h-2.228V406.147z M299.172,408.288c-0.299-0.125-0.645-0.187-1.038-0.187
				c-0.706,0-1.254,0.194-1.644,0.584c-0.389,0.389-0.583,0.93-0.583,1.621l-0.23-2.184c0.35-0.677,0.8-1.201,1.354-1.578
				c0.552-0.373,1.164-0.563,1.833-0.563c0.518,0,0.984,0.075,1.403,0.225c0.419,0.148,0.784,0.37,1.097,0.66l-1.452,1.966
				C299.718,408.594,299.47,408.411,299.172,408.288z"/>
			<path fill="#FFFFFF" d="M306.072,417.644c0,0-0.372-0.196-1.114-0.59c-0.742-0.393-1.309-0.97-1.698-1.73
				c-0.389-0.761-0.583-1.68-0.583-2.757v-1.277c0-1.121,0.187-2.078,0.562-2.871c0.375-0.793,0.919-1.398,1.632-1.813
				c0.714-0.415,1.573-0.623,2.577-0.623c0.947,0,1.754,0.237,2.424,0.711c0.669,0.473,1.181,1.156,1.535,2.052
				c0.353,0.895,0.529,1.97,0.529,3.221v0.743h-7.642v-1.791h5.524c-0.066-0.924-0.304-1.643-0.716-2.155
				c-0.411-0.514-0.962-0.771-1.654-0.771c-0.844,0-1.498,0.277-1.959,0.83c-0.462,0.553-0.693,1.336-0.693,2.347v1.441
				c0,0.938,0.247,1.659,0.742,2.161c0.495,0.504,1.197,0.753,2.107,0.753c0.451,0,0.899-0.09,1.343-0.272
				c0.444-0.182,0.841-0.437,1.189-0.764l1.464,1.463c-0.561,0.539-1.19,0.955-1.889,1.25c-0.699,0.294-1.4,0.442-2.107,0.442
				C306.596,417.644,306.072,417.644,306.072,417.644z"/>
			<path fill="#FFFFFF" d="M314.991,406.147h2.228v11.333h-2.228V406.147z M320.484,408.288c-0.299-0.125-0.645-0.187-1.038-0.187
				c-0.707,0-1.254,0.194-1.644,0.584c-0.39,0.389-0.583,0.93-0.583,1.621l-0.229-2.184c0.35-0.677,0.8-1.201,1.354-1.578
				c0.552-0.373,1.164-0.563,1.833-0.563c0.517,0,0.984,0.075,1.403,0.225c0.418,0.148,0.784,0.37,1.097,0.66l-1.452,1.966
				C321.029,408.594,320.781,408.411,320.484,408.288z"/>
			<path fill="#FFFFFF" d="M332.198,417.48v2.117h-9.083v-2.117H332.198z"/>
			<path fill="#FFFFFF" d="M250.425,444.188v2.117h-9.083v-2.117H250.425z"/>
			<path fill="#FFFFFF" d="M255.059,443.657c-0.833-0.463-1.468-1.135-1.905-2.02c-0.436-0.885-0.654-1.949-0.654-3.194v-10.13
				h2.227v10.207c0,1.157,0.291,2.053,0.874,2.686c0.582,0.633,1.404,0.95,2.467,0.95c1.069,0,1.897-0.317,2.483-0.95
				c0.586-0.633,0.879-1.528,0.879-2.686v-10.207h2.227v10.13c0,1.245-0.218,2.31-0.654,3.194c-0.438,0.885-1.074,1.557-1.911,2.02
				c-0.837,0.462-1.845,0.693-3.024,0.693C256.895,444.351,255.892,444.119,255.059,443.657z"/>
			<path fill="#FFFFFF" d="M267.151,432.854h2.227v11.333h-2.227V432.854z M274.029,437.319c0-0.8-0.208-1.42-0.623-1.855
				c-0.415-0.437-0.997-0.655-1.747-0.655c-0.729,0-1.29,0.193-1.687,0.578c-0.396,0.386-0.595,0.929-0.595,1.627l-0.229-2.185
				c0.349-0.683,0.806-1.21,1.37-1.583c0.563-0.37,1.188-0.557,1.873-0.557c1.229,0,2.181,0.403,2.854,1.207
				c0.673,0.806,1.01,1.943,1.01,3.411v6.88h-2.227V437.319z"/>
			<path fill="#FFFFFF" d="M282.708,444.351c0,0-0.371-0.196-1.114-0.59c-0.742-0.393-1.308-0.969-1.697-1.73
				c-0.39-0.761-0.583-1.68-0.583-2.758v-1.276c0-1.121,0.187-2.078,0.562-2.871c0.375-0.794,0.919-1.398,1.632-1.813
				c0.713-0.415,1.572-0.623,2.577-0.623c0.947,0,1.754,0.237,2.424,0.711c0.669,0.473,1.181,1.156,1.534,2.052
				c0.353,0.895,0.529,1.97,0.529,3.222v0.742h-7.642v-1.791h5.524c-0.065-0.924-0.303-1.643-0.715-2.156
				c-0.411-0.513-0.962-0.77-1.654-0.77c-0.844,0-1.498,0.276-1.959,0.83c-0.462,0.553-0.694,1.336-0.694,2.347v1.441
				c0,0.938,0.248,1.659,0.742,2.161c0.496,0.503,1.197,0.753,2.108,0.753c0.451,0,0.898-0.09,1.343-0.272
				c0.443-0.182,0.841-0.437,1.189-0.764l1.463,1.463c-0.56,0.539-1.189,0.955-1.888,1.25c-0.699,0.294-1.401,0.442-2.107,0.442
				C283.232,444.351,282.708,444.351,282.708,444.351z"/>
			<path fill="#FFFFFF" d="M297.633,428.313h2.227v2.227h-2.227V428.313z M297.633,432.854h2.227v11.333h-2.227V432.854z"/>
			<path fill="#FFFFFF" d="M305.472,441.262c0,0.276,0.06,0.488,0.18,0.637c0.12,0.15,0.289,0.226,0.508,0.226h1.047v2.117h-1.31
				c-0.844,0-1.498-0.262-1.96-0.786c-0.461-0.524-0.693-1.263-0.693-2.216v-12.926h2.228V441.262z"/>
			<path fill="#FFFFFF" d="M311.946,441.262c0,0.276,0.06,0.488,0.18,0.637c0.12,0.15,0.289,0.226,0.508,0.226h1.048v2.117h-1.311
				c-0.844,0-1.498-0.262-1.959-0.786c-0.462-0.524-0.693-1.263-0.693-2.216v-12.926h2.227V441.262z"/>
			<path fill="#FFFFFF" d="M318.31,439.744c0,0.792,0.202,1.405,0.606,1.838c0.404,0.434,0.973,0.649,1.708,0.649
				c0.727,0,1.292-0.191,1.692-0.578c0.4-0.385,0.6-0.935,0.6-1.648l0.153,2.369c-0.233,0.562-0.612,1.03-1.136,1.408
				c-0.524,0.379-1.167,0.568-1.933,0.568c-1.251,0-2.218-0.402-2.898-1.206s-1.021-1.938-1.021-3.4v-6.89h2.227V439.744z
				 M322.917,432.854h2.217v11.333h-2.217V432.854z"/>
			<path fill="#FFFFFF" d="M331.521,444.351c0,0-0.293-0.065-0.878-0.196c-0.586-0.131-1.135-0.328-1.644-0.59
				c-0.51-0.263-0.979-0.59-1.408-0.982l1.321-1.627c0.611,0.466,1.219,0.815,1.823,1.048c0.604,0.233,1.201,0.35,1.79,0.35
				c0.88,0,1.541-0.137,1.982-0.409c0.439-0.273,0.66-0.682,0.66-1.229c0-0.364-0.12-0.637-0.36-0.818s-0.538-0.304-0.896-0.366
				c-0.356-0.062-0.859-0.118-1.506-0.17c-0.059,0-0.12-0.001-0.186-0.005c-0.065-0.003-0.127-0.009-0.186-0.017
				c-0.029,0-0.059-0.002-0.088-0.005c-0.029-0.004-0.059-0.005-0.087-0.005c-0.736-0.059-1.358-0.166-1.867-0.323
				c-0.51-0.156-0.934-0.449-1.271-0.878c-0.339-0.43-0.508-1.045-0.508-1.846s0.164-1.467,0.491-1.998
				c0.328-0.531,0.815-0.929,1.463-1.195c0.647-0.266,1.46-0.399,2.435-0.399c0.589,0,1.152,0.056,1.687,0.165
				c0.535,0.109,1.046,0.271,1.534,0.485c0.487,0.215,0.957,0.486,1.408,0.813l-1.343,1.627c-0.567-0.364-1.126-0.637-1.676-0.818
				c-0.549-0.183-1.086-0.274-1.61-0.274c-0.757,0-1.325,0.13-1.703,0.388c-0.378,0.258-0.567,0.646-0.567,1.163
				c0,0.307,0.106,0.535,0.321,0.688c0.215,0.152,0.486,0.255,0.813,0.306c0.328,0.051,0.793,0.095,1.397,0.131
				c0.043,0.007,0.089,0.012,0.136,0.012s0.096,0.003,0.147,0.01c0.021,0,0.043,0,0.065,0c0.023,0,0.045,0.005,0.066,0.011
				c0.793,0.052,1.469,0.157,2.024,0.317c0.557,0.16,1.025,0.478,1.403,0.949c0.378,0.474,0.567,1.158,0.567,2.053
				c0,0.815-0.174,1.49-0.524,2.025c-0.349,0.534-0.875,0.938-1.577,1.207c-0.703,0.268-1.585,0.403-2.647,0.403
				C331.855,444.351,331.521,444.351,331.521,444.351z"/>
			<path fill="#FFFFFF" d="M339.24,432.854h5.109v2.008h-5.109V432.854z M341.047,443.481c-0.426-0.505-0.639-1.253-0.639-2.242
				v-11.683h2.227v11.705c0,0.276,0.055,0.488,0.164,0.637c0.11,0.15,0.27,0.226,0.481,0.226h1.069v2.117h-1.288
				C342.144,444.241,341.472,443.988,341.047,443.481z"/>
			<path fill="#FFFFFF" d="M347.406,432.854h2.227v11.333h-2.227V432.854z M352.897,434.995c-0.299-0.125-0.644-0.187-1.037-0.187
				c-0.706,0-1.254,0.195-1.643,0.583c-0.39,0.39-0.584,0.931-0.584,1.622l-0.23-2.185c0.35-0.676,0.801-1.201,1.354-1.577
				c0.553-0.374,1.164-0.563,1.834-0.563c0.516,0,0.984,0.076,1.402,0.225c0.419,0.149,0.785,0.37,1.098,0.66l-1.453,1.967
				C353.443,435.301,353.196,435.117,352.897,434.995z"/>
			<path fill="#FFFFFF" d="M357.439,443.481c-0.691-0.577-1.038-1.456-1.038-2.635c0-1.121,0.317-1.963,0.95-2.523
				c0.633-0.56,1.59-0.841,2.872-0.841h3.221l0.153,1.79h-3.362c-0.583,0-1.018,0.131-1.305,0.389
				c-0.288,0.259-0.431,0.653-0.431,1.186c0,0.574,0.191,0.999,0.573,1.277c0.382,0.276,0.963,0.414,1.741,0.414
				c0.852,0,1.486-0.091,1.905-0.272c0.419-0.183,0.628-0.467,0.628-0.853l0.23,1.594c-0.197,0.307-0.439,0.558-0.727,0.754
				c-0.287,0.195-0.621,0.345-1,0.441c-0.378,0.099-0.804,0.148-1.277,0.148C359.175,444.351,358.13,444.061,357.439,443.481z
				 M363.345,437.002c0-0.741-0.199-1.318-0.595-1.729c-0.397-0.411-0.959-0.617-1.687-0.617c-0.451,0-0.894,0.07-1.327,0.207
				c-0.433,0.14-0.817,0.332-1.152,0.58l-1.626-1.114c0.429-0.517,0.996-0.919,1.697-1.206c0.703-0.288,1.484-0.433,2.342-0.433
				c0.939,0,1.743,0.166,2.413,0.497c0.669,0.332,1.179,0.813,1.529,1.441c0.349,0.631,0.524,1.39,0.524,2.276v7.283h-2.118V437.002
				z"/>
			<path fill="#FFFFFF" d="M367.974,432.854h5.109v2.008h-5.109V432.854z M369.781,443.481c-0.426-0.505-0.639-1.253-0.639-2.242
				v-11.683h2.227v11.705c0,0.276,0.055,0.488,0.164,0.637c0.11,0.15,0.27,0.226,0.48,0.226h1.069v2.117h-1.288
				C370.878,444.241,370.207,443.988,369.781,443.481z"/>
			<path fill="#FFFFFF" d="M376.14,428.313h2.228v2.227h-2.228V428.313z M376.14,432.854h2.228v11.333h-2.228V432.854z"/>
			<path fill="#FFFFFF" d="M383.576,443.772c-0.699-0.386-1.232-0.949-1.6-1.688c-0.367-0.738-0.551-1.629-0.551-2.669v-1.846
				c0-1.025,0.185-1.905,0.551-2.637c0.368-0.731,0.901-1.288,1.6-1.67s1.54-0.574,2.522-0.574s1.823,0.192,2.522,0.574
				s1.232,0.938,1.599,1.67c0.368,0.731,0.551,1.611,0.551,2.637v1.878c0,1.034-0.184,1.916-0.551,2.647
				c-0.367,0.731-0.9,1.291-1.599,1.677s-1.54,0.578-2.522,0.578S384.275,444.158,383.576,443.772z M387.905,441.501
				c0.426-0.488,0.638-1.173,0.638-2.053v-1.878c0-0.88-0.212-1.561-0.638-2.041c-0.426-0.48-1.029-0.721-1.807-0.721
				c-0.779,0-1.381,0.24-1.807,0.721c-0.425,0.48-0.638,1.161-0.638,2.041v1.878c0,0.88,0.213,1.564,0.638,2.053
				c0.426,0.487,1.028,0.73,1.807,0.73C386.876,442.231,387.479,441.988,387.905,441.501z"/>
			<path fill="#FFFFFF" d="M393.936,432.854h2.228v11.333h-2.228V432.854z M400.815,437.319c0-0.8-0.207-1.42-0.622-1.855
				c-0.416-0.437-0.998-0.655-1.747-0.655c-0.729,0-1.29,0.193-1.687,0.578c-0.397,0.386-0.595,0.929-0.595,1.627l-0.23-2.185
				c0.35-0.683,0.807-1.21,1.37-1.583c0.564-0.37,1.188-0.557,1.873-0.557c1.23,0,2.181,0.403,2.854,1.207
				c0.673,0.806,1.01,1.943,1.01,3.411v6.88h-2.227V437.319z"/>
		</g>
	</g>
	<g opacity="0.4">
		<path fill="#FFFFFF" d="M890.882,568.344h1.796v12.8h-1.796V568.344z M892.29,575.528l5.65-7.185h2.21l-8.124,9.877
			L892.29,575.528z M894.42,574.313l1.417-1.313l4.851,8.144h-2.2L894.42,574.313z"/>
		<path fill="#FFFFFF" d="M903.567,580.81c-0.563-0.312-0.993-0.765-1.29-1.36c-0.296-0.596-0.444-1.313-0.444-2.152v-1.488
			c0-0.826,0.148-1.535,0.444-2.126c0.297-0.589,0.727-1.039,1.29-1.346c0.563-0.309,1.241-0.464,2.034-0.464
			c0.791,0,1.47,0.155,2.033,0.464c0.563,0.307,0.993,0.757,1.289,1.346c0.297,0.591,0.445,1.3,0.445,2.126v1.515
			c0,0.833-0.148,1.546-0.445,2.135c-0.296,0.59-0.726,1.04-1.289,1.352c-0.563,0.311-1.242,0.466-2.033,0.466
			C904.808,581.275,904.13,581.12,903.567,580.81z M907.058,578.979c0.342-0.394,0.515-0.945,0.515-1.655v-1.515
			c0-0.71-0.173-1.259-0.515-1.646c-0.344-0.388-0.83-0.58-1.457-0.58c-0.628,0-1.113,0.192-1.457,0.58s-0.515,0.937-0.515,1.646
			v1.515c0,0.71,0.171,1.262,0.515,1.655c0.344,0.393,0.829,0.589,1.457,0.589C906.228,579.567,906.714,579.371,907.058,578.979z"/>
		<path fill="#FFFFFF" d="M913.391,580.81c-0.563-0.312-0.993-0.765-1.29-1.36c-0.296-0.596-0.443-1.313-0.443-2.152v-1.488
			c0-0.826,0.147-1.535,0.443-2.126c0.297-0.589,0.728-1.039,1.29-1.346c0.564-0.309,1.241-0.464,2.034-0.464
			c0.792,0,1.469,0.155,2.033,0.464c0.563,0.307,0.992,0.757,1.29,1.346c0.296,0.591,0.443,1.3,0.443,2.126v1.515
			c0,0.833-0.147,1.546-0.443,2.135c-0.298,0.59-0.727,1.04-1.29,1.352c-0.564,0.311-1.241,0.466-2.033,0.466
			C914.632,581.275,913.955,581.12,913.391,580.81z M916.882,578.979c0.342-0.394,0.515-0.945,0.515-1.655v-1.515
			c0-0.71-0.173-1.259-0.515-1.646c-0.345-0.388-0.829-0.58-1.457-0.58s-1.114,0.192-1.458,0.58
			c-0.343,0.388-0.514,0.937-0.514,1.646v1.515c0,0.71,0.171,1.262,0.514,1.655c0.344,0.393,0.83,0.589,1.458,0.589
			S916.537,579.371,916.882,578.979z"/>
		<path fill="#FFFFFF" d="M923.541,578.784c0,0.223,0.049,0.395,0.146,0.515c0.098,0.121,0.233,0.181,0.409,0.181h0.846v1.708
			h-1.058c-0.681,0-1.206-0.211-1.58-0.634c-0.372-0.423-0.559-1.019-0.559-1.787v-10.423h1.796V578.784z"/>
		<path fill="#FFFFFF" d="M930.002,581.275c0,0-0.336-0.196-1.007-0.589c-0.673-0.394-1.193-0.95-1.563-1.673
			c-0.369-0.722-0.554-1.559-0.554-2.51v-3.511c0-0.952,0.185-1.789,0.554-2.51c0.37-0.722,0.891-1.28,1.563-1.677
			c0.671-0.396,1.45-0.595,2.337-0.595c0.733,0,1.408,0.157,2.024,0.471s1.132,0.759,1.545,1.334
			c0.414,0.575,0.694,1.241,0.841,1.997h-1.841c-0.111-0.397-0.297-0.754-0.558-1.068c-0.262-0.314-0.568-0.556-0.921-0.727
			c-0.352-0.17-0.716-0.255-1.091-0.255c-0.523,0-0.981,0.127-1.373,0.378c-0.394,0.253-0.699,0.606-0.917,1.062
			c-0.216,0.455-0.325,0.984-0.325,1.59v3.511c0,0.6,0.109,1.127,0.325,1.585c0.218,0.457,0.523,0.813,0.917,1.062
			c0.392,0.249,0.85,0.374,1.373,0.374c0.382,0,0.747-0.08,1.096-0.238s0.654-0.393,0.916-0.705c0.261-0.31,0.446-0.68,0.558-1.108
			h1.841c-0.146,0.757-0.43,1.423-0.846,1.998s-0.934,1.02-1.549,1.335c-0.616,0.313-1.288,0.47-2.016,0.47
			C930.446,581.275,930.002,581.275,930.002,581.275z"/>
		<path fill="#FFFFFF" d="M938.515,580.576c-0.557-0.467-0.836-1.176-0.836-2.126c0-0.904,0.255-1.581,0.766-2.034
			c0.511-0.451,1.282-0.677,2.315-0.677h2.598l0.122,1.443h-2.711c-0.47,0-0.82,0.104-1.052,0.313
			c-0.232,0.209-0.348,0.526-0.348,0.955c0,0.463,0.154,0.807,0.462,1.029c0.308,0.225,0.776,0.335,1.404,0.335
			c0.688,0,1.198-0.074,1.535-0.22c0.338-0.147,0.507-0.376,0.507-0.688l0.185,1.286c-0.158,0.246-0.354,0.448-0.585,0.606
			c-0.231,0.159-0.501,0.278-0.805,0.357c-0.306,0.079-0.65,0.118-1.031,0.118C939.914,581.275,939.073,581.043,938.515,580.576z
			 M943.278,575.352c0-0.598-0.16-1.063-0.479-1.396c-0.32-0.332-0.774-0.498-1.36-0.498c-0.364,0-0.72,0.056-1.069,0.168
			c-0.35,0.111-0.659,0.268-0.929,0.467l-1.312-0.898c0.346-0.416,0.802-0.74,1.368-0.973s1.196-0.349,1.889-0.349
			c0.757,0,1.406,0.135,1.946,0.401c0.538,0.268,0.95,0.654,1.231,1.163c0.282,0.507,0.423,1.119,0.423,1.834v5.872h-1.708V575.352z
			"/>
		<path fill="#FFFFFF" d="M947.714,568.344h1.796v12.8h-1.796V568.344z M948.49,577.676l4.7-5.669h2.113l-6.929,7.799
			L948.49,577.676z M950.612,575.87l1.152-1.197l3.987,6.471h-1.954L950.612,575.87z"/>
		<path fill="#FFFFFF" d="M959.722,581.275c0,0-0.3-0.158-0.898-0.476c-0.599-0.316-1.055-0.782-1.369-1.395
			c-0.313-0.613-0.471-1.354-0.471-2.223v-1.03c0-0.903,0.15-1.676,0.454-2.315c0.302-0.64,0.74-1.126,1.316-1.461
			c0.574-0.335,1.267-0.503,2.077-0.503c0.763,0,1.414,0.191,1.954,0.573c0.54,0.381,0.952,0.934,1.236,1.654
			c0.285,0.723,0.428,1.588,0.428,2.597v0.6h-6.163v-1.443h4.455c-0.053-0.745-0.245-1.325-0.577-1.738
			c-0.331-0.414-0.777-0.621-1.333-0.621c-0.682,0-1.208,0.223-1.581,0.668c-0.372,0.446-0.559,1.077-0.559,1.894v1.162
			c0,0.758,0.199,1.338,0.599,1.743c0.398,0.405,0.965,0.606,1.699,0.606c0.364,0,0.725-0.073,1.082-0.219
			c0.359-0.147,0.679-0.354,0.96-0.617l1.18,1.181c-0.451,0.434-0.959,0.771-1.522,1.008s-1.13,0.355-1.699,0.355
			C960.145,581.275,959.722,581.275,959.722,581.275z"/>
		<path fill="#FFFFFF" d="M973.199,576.196c0.141-0.487,0.311-0.897,0.511-1.232c0.199-0.334,0.46-0.718,0.783-1.153
			c0.234-0.322,0.419-0.589,0.555-0.797c0.135-0.207,0.246-0.439,0.334-0.695c0.088-0.255,0.132-0.529,0.132-0.822v-0.01
			c0-0.511-0.13-0.906-0.391-1.188c-0.262-0.282-0.627-0.423-1.097-0.423c-0.475,0-0.844,0.174-1.104,0.523
			s-0.396,0.844-0.401,1.484v0.008h-1.821v-0.008c0.023-0.775,0.171-1.437,0.439-1.986c0.271-0.548,0.648-0.967,1.137-1.254
			c0.485-0.288,1.064-0.432,1.733-0.432c0.698,0,1.297,0.129,1.796,0.388s0.879,0.633,1.14,1.122
			c0.261,0.49,0.393,1.081,0.393,1.774v0.008c0,0.417-0.055,0.793-0.164,1.127c-0.107,0.334-0.24,0.626-0.395,0.871
			c-0.156,0.247-0.369,0.546-0.64,0.898c-0.293,0.376-0.53,0.709-0.713,1c-0.182,0.29-0.334,0.639-0.458,1.047
			c-0.123,0.408-0.184,0.879-0.184,1.412h-1.796C972.989,577.238,973.058,576.684,973.199,576.196z M972.945,579.261h1.883v1.883
			h-1.883V579.261z"/>
		<path fill="#FFFFFF" d="M987.416,581.275c0,0-0.337-0.196-1.008-0.589c-0.671-0.394-1.193-0.95-1.563-1.673
			c-0.369-0.722-0.555-1.559-0.555-2.51v-3.511c0-0.952,0.186-1.789,0.555-2.51c0.369-0.722,0.892-1.28,1.563-1.677
			s1.451-0.595,2.338-0.595c0.733,0,1.407,0.157,2.024,0.471c0.615,0.313,1.131,0.759,1.544,1.334
			c0.414,0.575,0.694,1.241,0.841,1.997h-1.839c-0.112-0.397-0.298-0.754-0.56-1.068s-0.568-0.556-0.92-0.727
			c-0.352-0.17-0.717-0.255-1.091-0.255c-0.523,0-0.981,0.127-1.374,0.378c-0.393,0.253-0.699,0.606-0.916,1.062
			c-0.216,0.455-0.326,0.984-0.326,1.59v3.511c0,0.6,0.11,1.127,0.326,1.585c0.217,0.457,0.523,0.813,0.916,1.062
			s0.851,0.374,1.374,0.374c0.381,0,0.746-0.08,1.096-0.238c0.349-0.158,0.653-0.393,0.915-0.705c0.262-0.31,0.447-0.68,0.56-1.108
			h1.839c-0.146,0.757-0.429,1.423-0.845,1.998c-0.417,0.575-0.933,1.02-1.55,1.335c-0.615,0.313-1.288,0.47-2.015,0.47
			C987.86,581.275,987.416,581.275,987.416,581.275z"/>
		<path fill="#FFFFFF" d="M994.784,568.344h1.884v2.853l-1.884,1.954V568.344z"/>
		<path fill="#FFFFFF" d="M999.802,581.275c0,0-0.299-0.158-0.898-0.476c-0.599-0.316-1.054-0.782-1.367-1.395
			c-0.314-0.613-0.472-1.354-0.472-2.223v-1.03c0-0.903,0.151-1.676,0.453-2.315c0.303-0.64,0.741-1.126,1.316-1.461
			c0.574-0.335,1.268-0.503,2.077-0.503c0.762,0,1.414,0.191,1.955,0.573c0.539,0.381,0.952,0.934,1.236,1.654
			c0.285,0.723,0.427,1.588,0.427,2.597v0.6h-6.162v-1.443h4.454c-0.053-0.745-0.245-1.325-0.577-1.738
			c-0.331-0.414-0.775-0.621-1.333-0.621c-0.681,0-1.207,0.223-1.58,0.668c-0.373,0.446-0.559,1.077-0.559,1.894v1.162
			c0,0.758,0.198,1.338,0.599,1.743c0.398,0.405,0.965,0.606,1.698,0.606c0.363,0,0.725-0.073,1.083-0.219
			c0.357-0.147,0.679-0.354,0.959-0.617l1.181,1.181c-0.452,0.434-0.96,0.771-1.523,1.008c-0.563,0.237-1.13,0.355-1.699,0.355
			C1000.225,581.275,999.802,581.275,999.802,581.275z"/>
		<path fill="#FFFFFF" d="M1009.415,581.275c0,0-0.236-0.053-0.709-0.158c-0.472-0.105-0.914-0.265-1.324-0.476
			c-0.412-0.211-0.789-0.476-1.137-0.792l1.066-1.312c0.492,0.375,0.982,0.657,1.47,0.845c0.487,0.188,0.969,0.282,1.443,0.282
			c0.71,0,1.242-0.109,1.598-0.33c0.354-0.221,0.533-0.551,0.533-0.99c0-0.294-0.097-0.515-0.291-0.661
			c-0.193-0.146-0.435-0.244-0.722-0.294c-0.288-0.051-0.692-0.097-1.215-0.137c-0.047,0-0.097-0.002-0.149-0.004
			c-0.053-0.003-0.104-0.009-0.149-0.014c-0.024,0-0.047-0.003-0.07-0.004c-0.024-0.003-0.048-0.005-0.071-0.005
			c-0.593-0.047-1.094-0.134-1.505-0.26s-0.752-0.362-1.025-0.709c-0.272-0.346-0.41-0.843-0.41-1.487
			c0-0.646,0.133-1.183,0.396-1.611c0.265-0.428,0.657-0.75,1.181-0.964c0.521-0.214,1.175-0.322,1.963-0.322
			c0.475,0,0.929,0.046,1.359,0.134c0.432,0.088,0.844,0.218,1.237,0.391c0.393,0.174,0.771,0.392,1.136,0.656l-1.083,1.313
			c-0.458-0.295-0.908-0.515-1.352-0.661s-0.876-0.22-1.298-0.22c-0.611,0-1.068,0.104-1.374,0.313
			c-0.306,0.208-0.458,0.519-0.458,0.937c0,0.247,0.086,0.432,0.261,0.555c0.173,0.122,0.391,0.206,0.656,0.245
			c0.263,0.042,0.639,0.077,1.126,0.106c0.035,0.007,0.07,0.009,0.109,0.009c0.038,0,0.077,0.003,0.119,0.009
			c0.019,0,0.035,0,0.053,0s0.035,0.003,0.054,0.01c0.639,0.04,1.184,0.126,1.633,0.254c0.448,0.13,0.825,0.384,1.131,0.767
			c0.305,0.382,0.458,0.933,0.458,1.655c0,0.656-0.142,1.201-0.423,1.633c-0.282,0.431-0.706,0.755-1.272,0.973
			c-0.566,0.217-1.277,0.325-2.135,0.325C1009.685,581.275,1009.415,581.275,1009.415,581.275z"/>
		<path fill="#FFFFFF" d="M1015.64,572.007h4.118v1.619h-4.118V572.007z M1017.097,580.576c-0.345-0.408-0.516-1.012-0.516-1.81
			v-9.418h1.796v9.436c0,0.223,0.043,0.395,0.131,0.515c0.089,0.121,0.218,0.181,0.388,0.181h0.862v1.708h-1.038
			C1017.981,581.188,1017.439,580.984,1017.097,580.576z"/>
		<path fill="#FFFFFF" d="M1028.249,580.867c-0.473-0.291-0.832-0.715-1.078-1.272c-0.247-0.559-0.37-1.228-0.37-2.007v-2.017
			c0-0.786,0.12-1.459,0.36-2.016c0.241-0.559,0.592-0.981,1.053-1.272c0.461-0.29,1.014-0.435,1.66-0.435
			c0.539,0,1.033,0.14,1.483,0.422c0.448,0.281,0.811,0.678,1.086,1.188l-0.184,1.866c0-0.387-0.071-0.719-0.212-0.993
			c-0.142-0.277-0.345-0.486-0.612-0.63s-0.591-0.216-0.973-0.216c-0.593,0-1.052,0.185-1.377,0.554
			c-0.326,0.37-0.489,0.891-0.489,1.559v1.99c0,0.662,0.163,1.175,0.489,1.535c0.325,0.361,0.784,0.542,1.377,0.542
			c0.382,0,0.705-0.075,0.973-0.225s0.471-0.365,0.612-0.647c0.141-0.281,0.212-0.619,0.212-1.012l0.122,1.928
			c-0.182,0.452-0.479,0.83-0.894,1.135c-0.413,0.306-0.923,0.458-1.526,0.458C1029.292,581.302,1028.721,581.157,1028.249,580.867z
			 M1032.26,572.007h1.795v12.853h-1.795V572.007z"/>
		<path fill="#FFFFFF" d="M1038.58,577.561c0,0.64,0.162,1.134,0.487,1.484c0.326,0.349,0.785,0.522,1.379,0.522
			c0.587,0,1.041-0.155,1.363-0.465c0.323-0.313,0.484-0.755,0.484-1.331l0.124,1.911c-0.188,0.451-0.493,0.831-0.915,1.135
			c-0.423,0.306-0.943,0.458-1.559,0.458c-1.01,0-1.789-0.323-2.338-0.972c-0.548-0.649-0.822-1.563-0.822-2.743v-5.554h1.796
			V577.561z M1042.294,572.007h1.787v9.137h-1.787V572.007z"/>
		<path fill="#FFFFFF" d="M1048.281,580.81c-0.563-0.312-0.993-0.765-1.289-1.36c-0.297-0.596-0.444-1.313-0.444-2.152v-1.488
			c0-0.826,0.147-1.535,0.444-2.126c0.296-0.589,0.727-1.039,1.289-1.346c0.563-0.309,1.241-0.464,2.034-0.464
			c0.792,0,1.47,0.155,2.033,0.464c0.563,0.307,0.993,0.757,1.289,1.346c0.296,0.591,0.445,1.3,0.445,2.126v1.515
			c0,0.833-0.149,1.546-0.445,2.135c-0.296,0.59-0.726,1.04-1.289,1.352c-0.563,0.311-1.241,0.466-2.033,0.466
			C1049.522,581.275,1048.844,581.12,1048.281,580.81z M1051.771,578.979c0.344-0.394,0.516-0.945,0.516-1.655v-1.515
			c0-0.71-0.172-1.259-0.516-1.646c-0.343-0.388-0.828-0.58-1.456-0.58s-1.114,0.192-1.457,0.58
			c-0.344,0.388-0.515,0.937-0.515,1.646v1.515c0,0.71,0.171,1.262,0.515,1.655c0.343,0.393,0.829,0.589,1.457,0.589
			S1051.428,579.371,1051.771,578.979z"/>
		<path fill="#FFFFFF" d="M1056.635,568.344h1.796v1.796h-1.796V568.344z M1056.635,572.007h1.796v9.137h-1.796V572.007z"/>
		<path fill="#FFFFFF" d="M1067.445,576.196c0.142-0.487,0.312-0.897,0.511-1.232c0.2-0.334,0.461-0.718,0.783-1.153
			c0.234-0.322,0.42-0.589,0.556-0.797c0.135-0.207,0.245-0.439,0.334-0.695c0.087-0.255,0.133-0.529,0.133-0.822v-0.01
			c0-0.511-0.132-0.906-0.393-1.188c-0.261-0.282-0.626-0.423-1.096-0.423c-0.476,0-0.844,0.174-1.104,0.523
			c-0.262,0.35-0.396,0.844-0.401,1.484v0.008h-1.822v-0.008c0.023-0.775,0.171-1.437,0.441-1.986
			c0.27-0.548,0.647-0.967,1.135-1.254c0.486-0.288,1.065-0.432,1.733-0.432c0.699,0,1.298,0.129,1.797,0.388
			s0.879,0.633,1.14,1.122c0.261,0.49,0.392,1.081,0.392,1.774v0.008c0,0.417-0.054,0.793-0.163,1.127
			c-0.108,0.334-0.24,0.626-0.395,0.871c-0.157,0.247-0.369,0.546-0.64,0.898c-0.293,0.376-0.531,0.709-0.713,1
			c-0.182,0.29-0.335,0.639-0.458,1.047s-0.186,0.879-0.186,1.412h-1.794C1067.235,577.238,1067.304,576.684,1067.445,576.196z
			 M1067.19,579.261h1.885v1.883h-1.885V579.261z"/>
	</g>
</g>
</svg>
