<?xml version="1.0" encoding="utf-8"?>
<!-- Generator: Adobe Illustrator 16.0.0, SVG Export Plug-In . SVG Version: 6.00 Build 0)  -->
<!DOCTYPE svg PUBLIC "-//W3C//DTD SVG 1.1//EN" "http://www.w3.org/Graphics/SVG/1.1/DTD/svg11.dtd">
<svg version="1.1" id="Calque_1" xmlns="http://www.w3.org/2000/svg" xmlns:xlink="http://www.w3.org/1999/xlink" x="0px" y="0px"
	 width="607.774px" height="631.043px" viewBox="0 0 607.774 631.043" enable-background="new 0 0 607.774 631.043"
	 xml:space="preserve">
<g>
	<path opacity="0.68" fill="#FFCAA6" enable-background="new    " d="M186.611,69.742c-15.311,8.506-32.788,13.165-49.769,18.526
		c-42.22,13.338-84.564,33.169-108.478,67.238c-22.068,31.443-25.18,72.389-10.844,107.268
		c14.342,34.885,45.113,63.478,82.102,80.022c18.023,8.061,37.441,13.429,55.249,21.876c18.417,8.739,34.804,20.627,53.132,29.513
		c20.45,9.917,42.918,15.896,65.193,21.806c26.681,7.081,53.828,14.225,81.639,14.077c25.866-0.139,51.213-6.618,75.359-14.98
		c32.881-11.392,64.667-26.682,89.805-48.915c65.082-57.566,73.039-154.45,35.146-229.187
		c-8.764-17.281-19.807-33.865-34.844-47.193c-20.184-17.889-46.412-28.98-72.142-39.631C396.766,28.889,342.74,7.586,286.234,9.847
		c-19.609,0.783-47.337,4.491-61.987,17.726C209.407,40.982,206.816,58.511,186.611,69.742z"/>
	<path opacity="0.63" fill="#D1514E" enable-background="new    " d="M433.697,374.568c6.357-13.774,16.464-25.66,25.798-37.839
		c23.228-30.295,42.896-65.583,41.138-102.906c-1.622-34.45-22.391-67.088-52.455-86.784
		c-30.063-19.697-68.547-26.772-104.775-21.713c-17.659,2.462-34.805,7.649-52.519,9.712c-18.324,2.138-36.938,0.909-55.278,2.891
		c-20.461,2.214-40.176,8.379-59.722,14.511c-23.399,7.342-47.182,14.858-67.335,28.239c-18.747,12.446-33.56,29.466-46.43,47.349
		c-17.524,24.355-32.056,51.151-37.846,80.056C9.281,382.931,57.992,460.438,127.618,499.223
		c16.098,8.964,33.471,16.315,51.91,19.279c24.755,3.979,50.085-0.093,74.807-4.266c49.379-8.332,100.678-17.899,140.544-46.572
		c13.83-9.949,31.928-26,35.143-43.063C433.277,407.326,425.307,392.753,433.697,374.568z"/>
	<path fill="#3A3A3A" d="M210.015,362.532c-15.443,6.236-30.69,12.923-44.899,21.06c-27.102,15.514-50.171,36.271-67.023,60.307
		c-9.382,13.383-16.96,28.113-18.381,43.713c-2.022,22.252,9.092,44.618,27.218,60.511c18.126,15.888,42.702,25.605,68.084,29.656
		c18.7,2.988,37.834,3.058,56.853,3.124c40.547,0.132,81.093,0.268,121.641,0.396c15.786,0.058,31.691,0.097,47.181-2.54
		c12.495-2.126,24.521-5.975,36.248-10.269c63.285-23.188,122.887-64.116,141.555-121.317c5.754-17.62,7.389-36.026,9-54.282
		c0.715-8.088,1.396-16.413-1.436-24.146c-7.535-20.558-35.639-28.776-60.163-32.692C422.24,319.482,306.285,323.65,210.015,362.532
		z"/>
	<g>
		<path fill="#724419" d="M460.708,291.337c-13.59-23.793-19.786-51.208-21.923-78.526c-20.718-0.77-41.491-0.08-62.116,2.069
			c-3.181,0.33-6.496,0.742-9.165,2.498c-3.554,2.329-5.305,6.537-6.817,10.507c-11.596,30.381-21.553,62.103-41.184,88.03
			c-7.527,9.937-16.351,18.836-23.927,28.736c-1.638,2.145-3.261,4.426-3.765,7.078c-0.662,3.491,0.722,7.054,2.571,10.088
			c6.382,10.434,18.208,16.586,30.22,18.864c12.012,2.288,24.385,1.193,36.565,0.097c32.812-2.968,65.622-5.936,98.431-8.903
			c19.941-1.801,41.677-4.42,55.662-18.747c2.732-2.802,4.879-5.782,5.963-9.515c-11.019-7.312-23.665-11.15-34.195-20.147
			C476.463,314.418,467.598,303.396,460.708,291.337z"/>
		<path fill="#A00000" d="M449.215,226.887c-0.916,2.462-2.323,4.694-3.205,7.168c-3.848,10.79,3.404,23.046,12.709,29.664
			c4.353,3.094,9.753,6.276,10.339,11.67c0.385,3.588-1.587,6.873-2.788,10.228c-4.295,12.019,2.971,27.283,14.889,31.27
			c5.011,1.674,11.443,2.314,13.478,7.366c1.824,4.528-1.901,9.774-6.468,10.782c-4.565,1.006-9.329-1.143-13.194-3.985
			c-11.293-8.316-17.488-22.444-20.032-36.485c-0.396-2.173-0.75-4.438-1.965-6.269c-1.218-1.832-3.61-3.054-5.511-2.127
			c-2.7,1.315-2.355,5.552-0.772,8.246c1.583,2.695,4.022,5.071,4.395,8.177c0.356,3.02-1.529,5.992-4.167,7.243
			c-2.637,1.252-5.824,0.945-8.489-0.359c-5.632-2.748-8.768-9.377-9.371-15.762c-0.603-6.392,0.857-12.72,2.007-18.99
			c1.58-8.605,2.6-17.489,1.229-26.199c-0.686-4.311-2.116-8.802-5.403-11.589c-3.282-2.782-8.825-2.962-11.17,0.591
			c-1.228,1.854-1.328,4.502-0.13,6.432c0.864,1.385,2.276,2.329,3.153,3.709c1.995,3.135,0.209,7.799-3.116,9.109
			c-3.321,1.311-7.365-0.422-9.447-3.494c-2.079-3.072-2.382-7.151-1.431-10.715c-1.508-1.338-3.911-1.009-5.4,0.29
			c-1.483,1.299-2.209,3.314-2.599,5.309c-1.176,6.032,0.192,12.302,1.532,18.351c1.342,6.049,2.671,12.337,1.426,18.353
			c-1.247,6.015-5.843,11.671-11.789,11.886c-4.31,0.15-8.441-2.607-10.97-6.31c-2.521-3.697-3.649-8.218-4.224-12.674
			c-0.723-5.627-0.631-11.438,1.107-16.765c2.648-8.125,8.972-14.771,10.157-23.294c0.205-1.439,0.112-3.194-1.086-3.982
			c-0.617-0.407-1.389-0.435-2.106-0.412c-4.896,0.186-9.828,2.846-11.884,7.418c-1.651,3.674-1.31,7.963-1.542,12.042
			c-0.232,4.079-1.39,8.577-4.815,10.529c-3.428,1.953-9.011-1.159-7.965-5.077c-4.663-0.094-7.207,5.354-8.737,9.892
			c-5.782,17.13-13.05,33.686-21.684,49.413c-2.19,3.993-5.064,8.343-9.492,8.849c-5.408,0.613-9.951-5.34-10.187-11.004
			c-0.242-5.662,2.5-10.877,5.151-15.762c2.189-4.033,4.387-8.072,6.578-12.105c0.642-1.177,1.291-2.387,1.483-3.739
			c0.231-1.645-0.244-3.32-0.71-4.931c-2.978-10.297-5.602-21.87-0.814-31.223c5.871-11.45,20.293-14.73,28.847-24.159
			c5.035-5.546,7.773-12.958,12.439-18.839c7.534-9.502,20.189-14.29,32.036-12.128c5.393,0.986,10.499,3.274,15.744,4.979
			c11.054,3.598,23.029,2.121,33.795,5.325C448.085,205.486,452.322,218.508,449.215,226.887z"/>
	</g>
	<g>
		<path fill="#A86726" d="M99.414,397.985c16.696-37.811,21.737-79.916,20.7-121.234c30.968-4.38,62.249-6.564,93.528-6.541
			c4.828,0.006,9.859,0.109,14.151,2.322c5.692,2.945,8.971,8.988,11.856,14.703c22.125,43.786,41.986,89.85,75.473,125.696
			c12.836,13.744,27.461,25.723,40.369,39.407c2.793,2.962,5.584,6.14,6.748,10.043c1.537,5.126,0.013,10.694-2.298,15.521
			c-7.952,16.651-24.746,27.713-42.42,33.008c-17.674,5.298-36.403,5.574-54.855,5.813c-49.696,0.644-99.386,1.29-149.083,1.934
			c-30.197,0.396-63.223-0.16-86.437-19.479c-4.543-3.779-8.218-7.923-10.426-13.354c15.398-12.686,33.786-20.403,48.186-35.551
			C79.364,435.076,90.954,417.152,99.414,397.985z"/>
		<path fill="#BC0000" d="M106.646,299.49c1.75,3.553,4.213,6.688,5.923,10.264c7.447,15.594-1.524,35.116-14.464,46.483
			c-6.05,5.324-13.659,10.932-13.705,19.118c-0.03,5.446,3.447,10.067,5.765,14.914c8.311,17.364-0.226,41.395-17.482,49.224
			c-7.261,3.29-16.818,5.244-19.083,13.146c-2.034,7.082,4.369,14.372,11.38,15.179c7.012,0.797,13.821-3.163,19.182-8.037
			c15.656-14.236,22.755-36.392,24.396-57.854c0.256-3.322,0.428-6.774,1.969-9.706c1.542-2.934,4.938-5.146,7.94-4.054
			c4.259,1.562,4.392,7.972,2.441,12.256c-1.962,4.292-5.253,8.232-5.321,12.96c-0.07,4.586,3.227,8.753,7.377,10.223
			c4.148,1.47,8.883,0.511,12.678-1.855c8.025-4.994,11.695-15.428,11.606-25.106c-0.085-9.688-3.256-18.96-5.963-28.182
			c-3.714-12.671-6.622-25.833-5.911-39.128c0.355-6.579,1.81-13.543,6.304-18.225c4.498-4.688,12.784-5.812,16.859-0.847
			c2.126,2.597,2.688,6.55,1.188,9.63c-1.079,2.217-3.061,3.85-4.156,6.057c-2.497,5.012,0.905,11.738,6.091,13.189
			c5.188,1.453,10.994-1.773,13.635-6.709c2.643-4.94,2.458-11.105,0.481-16.295c2.051-2.25,5.72-2.129,8.148-0.406
			c2.427,1.721,3.824,4.636,4.716,7.556c2.701,8.868,1.628,18.492,0.551,27.781c-1.078,9.287-2.091,18.933,0.712,27.758
			c2.806,8.825,10.575,16.605,19.528,15.998c6.497-0.438,12.27-5.225,15.479-11.173c3.211-5.938,4.202-12.89,4.37-19.672
			c0.215-8.553-0.83-17.269-4.258-24.987c-5.232-11.784-15.757-20.774-18.862-33.373c-0.521-2.127-0.661-4.775,1.013-6.143
			c0.863-0.7,2.006-0.869,3.096-0.938c7.376-0.487,15.187,2.741,18.99,9.277c3.054,5.257,3.204,11.747,4.179,17.825
			c0.978,6.085,3.424,12.655,8.859,15.055c5.437,2.402,13.347-3.132,11.155-8.85c6.989-0.861,11.649,6.914,14.65,13.493
			c11.342,24.801,24.814,48.528,40.217,70.784c3.903,5.65,8.895,11.735,15.624,11.798c8.21,0.079,14.095-9.562,13.583-18.098
			c-0.518-8.536-5.438-15.935-10.177-22.854c-3.918-5.714-7.837-11.427-11.754-17.146c-1.14-1.669-2.312-3.383-2.805-5.376
			c-0.607-2.435-0.15-5.02,0.296-7.508c2.87-15.921,5.014-33.692-3.628-46.975c-10.586-16.272-32.74-18.956-47.037-31.767
			c-8.414-7.54-13.682-18.231-21.597-26.338c-12.783-13.083-32.508-18.312-49.952-13.229c-7.943,2.318-15.252,6.543-22.854,9.915
			c-16.035,7.117-34.225,6.763-49.888,13.237C105.018,267.208,100.69,287.402,106.646,299.49z"/>
		<path fill="#BC0000" d="M18.1,469.222c-6.9,2.648-11.067,11.935-8.593,19.138c2.561,7.457,10.442,11.194,13.728,18.281
			c1.849,3.993,2.121,8.828,4.485,12.48c2.835,4.387,8.003,6.11,12.813,7.572c7.423,2.248,16.173,4.252,22.501-0.957
			c2.972-2.443,4.999-6.244,8.356-7.991c7.864-4.102,15.135,5.289,22.971,8.743c12.528,5.515,26.371-4.777,39.851-8.31
			c7.242-1.901,14.719-1.814,22.097-1.712c14.729,0.205,29.459,0.4,44.191,0.605c9.475,0.126,19.11,0.282,28.012,3.424
			c6.803,2.4,12.928,6.455,19.379,9.739c6.309,3.217,13.129,5.743,20.229,5.623c7.099-0.12,14.546-3.215,18.943-9.43
			c2.717-3.83,4.537-8.979,8.693-10.674c2.434-0.996,5.088-0.497,7.627-0.199c5.813,0.692,12.034,0.217,17.192-3.063
			c5.157-3.28,8.883-9.89,7.685-16.041c-0.593-3.031-2.275-5.656-4.232-7.865c-10.935-12.4-30.288-12.785-45.007-4.787
			c-4.869,2.64-9.44,6.089-14.621,7.809c-12.661,4.209-25.955-2.896-34.984-12.71c-8.534-9.27-14.655-21.1-17.57-33.922
			c-1.414-6.222-2.11-12.753-4.681-18.482c-2.573-5.731-7.638-10.681-13.647-10.443c-8.444,0.331-14.31,11.005-13.329,19.991
			c0.509,4.677,2.334,9.237,1.599,13.935c-1.239,7.937-9.544,12.938-16.95,12.844c-7.407-0.093-14.126-3.859-20.756-7.144
			c-6.624-3.286-13.939-6.217-21.25-4.549c-10.402,2.375-17.339,13.043-26.084,19.816c-12.552,9.722-28.262,10.877-42.829,10.025
			c-6.716-0.395-13.109-0.412-18.589-4.387C29.697,472.487,26.393,466.044,18.1,469.222z"/>
	</g>
	<path fill="#BC4A4A" d="M224.109,555.952c22.329-2.92,44.969,0.456,67.422-0.944c22.454-1.4,46.283-8.771,60.028-27.9
		c12.361-17.204,14.483-40.979,26.756-58.249c19.275-27.131,55.515-29.442,86.929-34.504c22.455-3.617,44.875-9.97,64.347-22.508
		c19.477-12.538,35.858-31.836,42.233-55.247c1.67-6.125,3.152-13.218,8.35-16.306c7.014-4.161,16.18,2.772,17.889,11.188
		c1.709,8.409-1.721,16.985-5.568,24.535c-18.59,36.518-49.262,65.767-85.22,81.246c-31.976,13.759-69.084,17.758-94.461,42.793
		c-15.188,14.985-24.188,35.792-37.522,52.69c-15.501,19.652-36.999,33.751-60.354,39.587c-28.717,7.174-62.282,3.337-83.931,24.842
		c-3.344,3.323-6.507,7.313-10.922,8.503c-4.838,1.303-9.795-1.125-14.269-3.49c-16.752-8.85-48.769-16.525-32.861-39.456
		C184.356,566.292,205.988,558.325,224.109,555.952z"/>
	<path fill="#FFFFFF" d="M373.129,428.853c-1.558,0-2.913-1.058-3.812-2.468c-1.703,0.67-3.67,0.77-5.423,0.261l-0.703-0.204
		l-0.378-0.629c-3.473-5.771-3.612-13.585-0.377-20.906c2.495-5.649,6.609-10.824,10.588-15.824
		c0.906-1.143,1.798-2.264,2.652-3.371c5.706-7.363,14.708-11.57,23.737-10.929c10.943,0.769,20.851,8.623,24.091,19.099
		c1.444,4.69,1.26,9.146-0.517,12.556c-2.093,4.021-6.514,6.929-12.449,8.186c-2.222,0.469-4.473,0.709-6.647,0.946
		c-2.407,0.259-4.68,0.505-6.912,1.028c-5.185,1.23-10.034,4.063-13.653,7.978c-1.152,1.244-3.085,3.335-5.549,3.335
		c-0.466,0-0.928-0.076-1.373-0.221l-0.531-0.178c-0.198,0.244-0.434,0.47-0.72,0.675
		C374.55,428.621,373.846,428.853,373.129,428.853z M380.065,397.477l-6.897,15.883c-1.301,2.996-1.74,6.422-1.23,9.645
		c0.142,0.884,0.703,1.712,1.077,2.009c0.073-0.409-0.063-1.35-0.133-1.833c-0.479-3.375,0.149-6.703,1.75-9.53l3.285,1.781
		c-1.384,2.673-1.302,6.061,0.156,8.689c0.824-0.262,1.938-1.467,2.509-2.084c4.115-4.453,9.636-7.679,15.537-9.077
		c2.462-0.58,4.958-0.848,7.372-1.106c2.178-0.234,4.237-0.457,6.275-0.89c2.792-0.59,7.792-2.187,9.907-6.254
		c1.779-3.414,0.928-7.56,0.258-9.726c-2.75-8.891-11.488-15.821-20.781-16.473c-7.703-0.533-15.641,3.189-20.517,9.488
		c-0.862,1.119-1.765,2.255-2.685,3.407c-3.83,4.817-7.792,9.8-10.091,15.011c-2.573,5.82-2.644,12.165-0.229,16.78
		c0.436,0.054,0.886,0.045,1.319-0.025c-0.484-4.07,0.588-8.319,2.988-11.65L380.065,397.477z"/>
	<path fill="#FFFFFF" d="M401.786,399.299c-3.043,0-6.896-0.418-9.881-3.584l1.157-1.089l-1.038-0.441
		c1.163-2.718,3.235-6.296,6.511-7.926s7.007-0.655,9.291,2.421c1.105,1.47,2.085,3.927,1.496,6.393
		c-0.439,1.848-1.817,4.076-5.872,4.199C402.933,399.283,402.376,399.299,401.786,399.299z M396.079,394.338
		c1.998,1.221,4.424,1.274,7.263,1.193c1.886-0.055,2.193-0.686,2.346-1.325c0.267-1.126-0.255-2.493-0.855-3.29
		c-1.227-1.648-2.957-2.138-4.632-1.312C398.73,390.336,397.266,392.028,396.079,394.338z"/>
	<path fill="#FFFFFF" d="M372.75,405.273l-0.618-0.748l-2.867,0.474c-0.48-2.907,0.335-6.006,2.188-8.289
		c1.514-1.867,4.165-3.052,6.303-1.699c1.047,0.659,1.668,1.741,1.738,3.046c0.091,1.654-0.757,3.488-2.107,4.562
		c-0.858,0.683-1.816,1.134-2.658,1.534C373.979,404.504,373.276,404.837,372.75,405.273z M375.718,398.145
		c-0.188,0-0.828,0.265-1.366,0.923c-0.386,0.476-0.7,1.005-0.939,1.572c0.618-0.298,1.194-0.589,1.647-0.946
		c0.582-0.464,0.781-1.336,0.683-1.546C375.736,398.147,375.726,398.145,375.718,398.145z"/>
	<path fill="#FFFFFF" d="M382.169,408.957c-1.769,0-3.455-0.461-4.805-0.83l0.42-1.536l-1.63-1.197
		c1.145-1.563,2.446-3.331,4.313-4.573c2.347-1.545,5.126-1.819,7.258-0.719l0.522,0.268l0.273,0.521
		c0.65,1.229,0.7,2.673,0.139,4.062c-0.676,1.669-2.157,3.052-3.867,3.611C383.919,408.849,383.033,408.957,382.169,408.957z
		 M381.134,405.145c0.906,0.12,1.747,0.11,2.498-0.139c0.66-0.214,1.302-0.812,1.563-1.459c0.048-0.12,0.081-0.236,0.099-0.349
		c-0.832-0.123-1.851,0.136-2.762,0.739C382.032,404.27,381.568,404.684,381.134,405.145z"/>
	<path fill="#FFFFFF" d="M435.249,396.569c-0.743,0-1.46-0.118-2.142-0.346c-1.487-0.493-2.835-1.552-3.89-3.055
		c-2.027-2.87-2.358-6.52-0.841-9.298c0.952-1.743,2.725-3.03,4.671-3.481c-0.131-0.641-0.17-1.32-0.109-2.015
		c0.216-2.466,1.634-4.492,3.7-5.289c0.748-0.288,1.439-0.427,2.114-0.427c2.298,0,3.551,1.596,4.468,2.763
		c0.352,0.445,0.683,0.869,1.021,1.158c1.037,0.887,1.481,1.645,1.718,2.152c0.288,0.03,0.777,0.058,1.611,0.075h0.004
		c4.97,0,10.89-3.891,14.259-7.733c0.841-0.959,1.599-1.976,2.402-3.055c0.161-0.214,0.321-0.43,0.481-0.644l0,0l0.288-0.385
		c0.677-0.891,1.381-1.785,2.155-2.632c2.601-2.838,5.515-4.482,8.432-4.758c3.945-0.399,7.82,2.199,8.568,5.681
		c0.322,1.505-0.022,3.14-0.951,4.529c0.989,0.343,1.975,0.791,2.913,1.398c3.193,2.063,4.901,5.73,4.15,8.921
		c-0.864,3.641-4.824,6.233-8.946,5.74c-3.188-0.377-6.279-2.436-8.476-5.653l-0.293-0.436c-0.516-0.772-1.051-1.566-1.592-1.741
		c-0.549-0.172-1.507,0.226-2.396,0.649l-17.028,8.019c-1.895,0.891-3.847,1.808-5.456,3.085c-0.762,0.607-1.467,1.309-2.217,2.052
		c-0.854,0.85-1.743,1.731-2.769,2.513C439.241,395.78,437.164,396.569,435.249,396.569z M434.556,383.952
		c-1.14,0-2.358,0.722-2.899,1.711c-0.823,1.512-0.576,3.662,0.617,5.353c0.587,0.836,1.303,1.425,2.019,1.662
		c1.265,0.424,2.974-0.087,4.54-1.286c0.832-0.638,1.596-1.396,2.402-2.199c0.786-0.781,1.601-1.587,2.523-2.323
		c1.947-1.549,4.202-2.607,6.191-3.542l17.024-8.02c1.12-0.528,2.33-1.05,3.681-1.05c0.504,0,0.992,0.076,1.455,0.224
		c1.775,0.57,2.761,2.038,3.551,3.217l0.273,0.406c1.591,2.33,3.714,3.807,5.831,4.053c1.954,0.226,4.394-0.881,4.868-2.884
		c0.441-1.873-0.944-3.894-2.539-4.925c-1.641-1.058-3.649-1.504-5.433-1.786c-0.703,0.039-1.402-0.081-2.057-0.349l-8.304-3.38
		c-0.354,0.46-0.708,0.933-1.068,1.42c-0.813,1.088-1.652,2.216-2.59,3.283c-3.803,4.338-10.716,9.011-16.903,9.011
		c-0.002,0,0,0,0,0h-0.25c-2.638-0.06-4.052-0.178-4.842-2.06c-0.118-0.282-0.233-0.55-0.838-1.07
		c-0.619-0.529-1.103-1.143-1.528-1.687c-1.173-1.491-1.385-1.51-2.296-1.157c-0.868,0.337-1.256,1.353-1.322,2.125
		c-0.068,0.775,0.136,1.847,0.936,2.331l-1.909,3.214C435.361,384.052,434.981,383.952,434.556,383.952z M469.327,367.557
		l8.226,1.073c0.391,0.051,0.781,0.104,1.174,0.162c0.465-0.117,0.952-0.472,1.31-0.965c0.409-0.565,0.585-1.224,0.469-1.759
		c-0.401-1.867-2.678-2.924-4.563-2.746c-2.5,0.235-4.656,2.066-6.024,3.558C469.718,367.103,469.52,367.328,469.327,367.557z"/>
	<path fill="#FFFFFF" d="M490.379,411.272c-3.955,0-7.324-2.731-9.513-4.784l-0.687-0.644c-2.111-1.996-4.297-4.063-6.834-4.544
		c-1.938-0.366-4.353,0.221-6.816,0.882c-1.997,0.54-4.065,1.095-6.126,1.097c-1.677,0-3.138-0.359-4.475-1.105
		c-2.426-1.354-3.955-3.942-3.894-6.595c0.067-2.886,2.161-5.547,4.873-6.191c0.482-0.114,0.987-0.17,1.502-0.17
		c1.495,0,2.844,0.468,4.145,0.974c-0.607-1.695-0.324-3.049,0.179-4.029c0.82-1.614,2.523-2.58,4.553-2.58
		c1.293,0,2.555,0.403,3.547,1.137c1.436,1.062,2.029,2.547,2.506,3.744c0.326,0.824,0.608,1.536,1.026,1.777
		c0.142,0.08,0.721,0.345,2.322,0.345c2.045,0,4.652-0.424,6.554-0.729c0.767-0.127,1.442-0.235,1.975-0.304l1.145-0.151
		c1.734-0.231,3.525-0.472,5.333-0.472c1.835,0,3.432,0.256,4.883,0.772c2.479,0.894,4.602,2.953,5.537,5.385
		c0.738,1.919,0.653,3.897-0.237,5.563c-1.173,2.191-3.694,3.638-6.416,3.687c-0.003,0-0.004,0-0.006,0
		c-0.29,0-0.573-0.016-0.859-0.039c1.017,1.905,1.159,4.275-0.479,5.778c-0.678,0.626-1.594,1.008-2.721,1.137
		C491.06,411.253,490.719,411.272,490.379,411.272z M471.973,397.44c0.716,0,1.411,0.063,2.068,0.187
		c3.613,0.689,6.319,3.248,8.708,5.502l0.668,0.632c1.857,1.741,4.706,4.09,7.54,3.741c0.493-0.058,0.625-0.176,0.627-0.176
		c0.108-0.099,0.024-0.925-0.573-1.716c-0.203-0.269-0.427-0.529-0.647-0.795c-0.852-1.01-1.909-2.269-2.142-3.977l-0.581-4.285
		l3.52,2.514c0.976,0.697,2.489,1.531,4.139,1.531c1.464-0.027,2.743-0.714,3.279-1.714c0.477-0.892,0.288-1.826,0.047-2.457
		c-0.542-1.401-1.873-2.688-3.313-3.206c-2.195-0.787-5.399-0.526-8.453-0.114l-1.174,0.154c-0.497,0.063-1.13,0.168-1.846,0.282
		c-2.029,0.327-4.809,0.778-7.153,0.778l0,0c-1.84,0-3.213-0.279-4.198-0.85c-1.537-0.892-2.142-2.412-2.626-3.63
		c-0.361-0.905-0.671-1.689-1.248-2.113c-0.346-0.257-0.844-0.409-1.329-0.409c-0.459,0-1.02,0.145-1.222,0.541
		c-0.408,0.797,0.356,2.213,2.102,3.885l2.854,2.732l-3.926,0.473c-1.998,0.237-3.868-0.484-5.473-1.112
		c-1.439-0.562-2.779-1.064-3.853-0.815c-1.072,0.256-1.969,1.441-1.996,2.641c-0.032,1.266,0.765,2.567,1.977,3.244
		c1.95,1.085,4.746,0.493,7.808-0.334C467.628,398.019,469.767,397.44,471.973,397.44z"/>
	<path fill="#FFFFFF" d="M199.38,558.444c-2.281,0-4.332-1.28-5.22-3.259c-0.423-0.941-0.521-2.015-0.294-3.058
		c-0.558-0.118-1.081-0.274-1.586-0.485c-2.12-0.877-4.29-3.066-4.351-5.983c-0.057-2.949,2.313-5.586,5.284-5.878
		c2.312-0.219,4.715,0.809,6.738,2.851l0.243,0.246c0.268,0.28,0.717,0.743,0.91,0.803c0.047-0.032,0.335-0.236,0.768-0.609
		l9.292-8.02c1.004-0.866,2.042-1.762,2.78-2.803c0.373-0.526,0.688-1.101,1.006-1.675c0.407-0.729,0.828-1.491,1.364-2.213
		c1.444-1.956,3.392-2.994,5.372-2.745c1.16,0.15,2.296,0.746,3.295,1.72c1.833,1.789,2.679,4.42,2.154,6.706
		c-0.306,1.341-1.134,2.486-2.208,3.213c0.13,0.367,0.225,0.762,0.281,1.17c0.257,1.883-0.401,3.654-1.717,4.622
		c-0.741,0.545-1.517,0.823-2.302,0.823c-1.408,0-2.382-0.859-3.091-1.491c-0.235-0.207-0.465-0.426-0.727-0.58
		c-0.635-0.373-1.043-0.737-1.343-1.085c-0.144,0.024-0.326,0.06-0.559,0.107c-2.755,0.581-5.722,4.061-7.115,7.036
		c-0.372,0.788-0.678,1.608-0.987,2.427c0,0,0,0,0,0.004l4.117,0.82l-4.583,0.391c-0.235,0.596-0.488,1.191-0.778,1.777
		c-1.234,2.498-2.92,4.179-4.881,4.858C200.652,558.343,200.026,558.444,199.38,558.444z M197.829,552.274
		c-0.073,0.078-0.166,0.213-0.239,0.403c-0.13,0.34-0.138,0.713-0.021,0.974c0.439,0.978,1.678,1.221,2.443,0.954
		c1.191-0.412,2.075-1.673,2.635-2.743l-4.276,0.367C198.191,552.248,198.01,552.263,197.829,552.274z M197.87,548.466
		c0.23,0,0.467,0.023,0.707,0.068l5.072,1.014c0.074-0.192,0.146-0.388,0.22-0.583c0.343-0.909,0.689-1.822,1.101-2.694
		c0.267-0.572,0.58-1.158,0.933-1.744l-1.585,1.367c-0.61,0.533-1.751,1.519-3.271,1.519l-0.377-0.018
		c-1.462-0.162-2.443-1.173-3.159-1.913l-0.216-0.222c-1.205-1.215-2.535-1.885-3.716-1.759c-0.921,0.091-1.933,0.969-1.912,2.087
		c0.024,1.148,1.071,2.197,2.043,2.6c0.85,0.353,1.978,0.464,3.25,0.395C197.257,548.505,197.561,548.466,197.87,548.466z
		 M216.522,536.907c1.41,0,2.003,0.884,2.226,1.215c0.102,0.15,0.168,0.249,0.513,0.45c0.523,0.31,0.943,0.681,1.314,1.008
		c0.187,0.168,0.449,0.4,0.618,0.515c0.024-0.016,0.05-0.033,0.08-0.058c0.172-0.126,0.304-0.575,0.232-1.104
		c-0.083-0.61-0.381-1.037-0.62-1.128l1.301-3.506c0.576,0.054,1.153-0.433,1.305-1.098c0.233-1.007-0.229-2.32-1.122-3.193
		c-0.402-0.391-0.822-0.64-1.152-0.683c-0.673-0.023-1.323,0.479-1.899,1.258c-0.391,0.529-0.735,1.148-1.1,1.804
		c-0.371,0.668-0.753,1.358-1.226,2.027c-0.79,1.112-1.746,2.025-2.663,2.838c0.124-0.033,0.247-0.063,0.372-0.087
		C215.588,536.979,216.098,536.907,216.522,536.907z"/>
	<g>
		<g>
			<path fill="#D3D3D3" d="M195.316,562.02c0,5.335-0.044,10.713-0.044,16.051c0,0.799,0,1.646,0.311,2.402
				c0.356,0.844,1.067,1.467,1.823,1.999c2.846,2.09,6.27,3.425,9.783,3.779c0.756,0.091,1.6,0.091,2.268-0.354
				c0.934-0.71,0.978-2.178,0.4-3.203c-0.578-1.021-1.556-1.776-2.401-2.579c-5.247-4.892-5.914-13.918-1.467-19.564"/>
			<path fill="#2D2D2D" d="M207.889,586.922c-0.281,0-0.543-0.021-0.773-0.049c-3.619-0.367-7.107-1.714-10.08-3.896
				c-0.708-0.499-1.589-1.216-2.029-2.265c-0.361-0.872-0.361-1.813-0.361-2.643c0-2.671,0.011-5.35,0.022-8.029
				c0.012-2.679,0.023-5.354,0.023-8.021h1.249c0,2.667-0.01,5.347-0.022,8.027c-0.011,2.677-0.022,5.356-0.022,8.023
				c0,0.748,0,1.521,0.265,2.161c0.315,0.752,1.023,1.32,1.605,1.729c2.763,2.029,6.128,3.333,9.486,3.668
				c0.544,0.067,1.318,0.108,1.858-0.252c0.633-0.483,0.626-1.626,0.203-2.373c-0.408-0.72-1.053-1.308-1.736-1.927
				c-0.186-0.168-0.371-0.336-0.551-0.508c-5.5-5.127-6.201-14.472-1.528-20.404l0.981,0.772
				c-4.287,5.443-3.644,14.018,1.403,18.721c0.176,0.168,0.356,0.33,0.534,0.493c0.727,0.659,1.477,1.342,1.984,2.237
				c0.695,1.227,0.673,3.061-0.564,4.008C209.208,586.813,208.505,586.922,207.889,586.922z"/>
		</g>
		<g>
			<path fill="#D3D3D3" d="M257.171,564.687c0,5.334-0.043,10.713-0.043,16.054c0,0.799,0,1.644,0.311,2.398
				c0.355,0.845,1.066,1.468,1.824,2.003c2.844,2.09,6.269,3.425,9.781,3.78c0.757,0.087,1.603,0.087,2.27-0.355
				c0.932-0.713,0.977-2.181,0.399-3.202c-0.579-1.025-1.557-1.779-2.402-2.58c-5.247-4.892-5.914-13.919-1.467-19.565"/>
			<path fill="#2D2D2D" d="M269.745,589.592c-0.281,0-0.544-0.024-0.774-0.051c-3.619-0.367-7.108-1.714-10.079-3.895
				c-0.709-0.502-1.59-1.218-2.03-2.264c-0.361-0.875-0.361-1.816-0.361-2.643c0-2.67,0.011-5.353,0.023-8.031
				c0.011-2.676,0.022-5.354,0.022-8.022h1.25c0,2.668-0.011,5.349-0.023,8.028c-0.012,2.679-0.022,5.357-0.022,8.025
				c0,0.746,0,1.521,0.265,2.162c0.315,0.748,1.023,1.315,1.606,1.728c2.76,2.03,6.125,3.329,9.484,3.669
				c0.547,0.063,1.32,0.104,1.86-0.255c0.631-0.481,0.625-1.625,0.203-2.373c-0.409-0.722-1.056-1.308-1.739-1.928
				c-0.185-0.168-0.37-0.336-0.549-0.505c-5.499-5.127-6.2-14.476-1.528-20.406l0.982,0.771c-4.287,5.443-3.645,14.019,1.402,18.724
				c0.174,0.165,0.352,0.328,0.532,0.49c0.728,0.659,1.479,1.341,1.987,2.237c0.693,1.229,0.672,3.064-0.565,4.008
				C271.064,589.48,270.36,589.592,269.745,589.592z"/>
		</g>
		<g>
			<path fill="#FFFFFF" d="M199.185,447.513c19.965-5.872,41.844-3.779,61.231,3.824c17.256,6.759,34.196,20.053,36.288,38.462
				c13.43,3.693,26.858,7.428,40.331,11.12c2.27,0.623,4.536,1.244,6.625,2.357c7.473,3.912,10.896,13.296,9.917,21.699
				c-0.978,8.404-5.468,15.964-10.539,22.723c-8.049,10.716-18.63,20.723-31.884,22.767c-13.251,2.049-28.68-7.203-28.857-20.589
				c-16.632,24.949-49.672,37.665-78.71,30.283c-32.46-8.227-55.763-39.711-54.917-72.971
				C149.425,477.304,170.636,455.962,199.185,447.513z"/>
			<path fill="#2D2D2D" d="M220.498,582.869c-5.831,0-11.573-0.707-17.065-2.103c-32.434-8.221-56.246-39.86-55.389-73.597
				c0.363-14.369,5.548-27.602,14.993-38.273c8.899-10.052,21.338-17.652,35.971-21.985c7.688-2.259,15.863-3.403,24.296-3.403
				c12.339,0,25.25,2.504,37.341,7.246c20.953,8.208,34.608,22.6,36.628,38.556c5.767,1.584,11.534,3.178,17.304,4.775
				c7.532,2.077,15.07,4.161,22.624,6.23c2.262,0.621,4.602,1.262,6.754,2.408c7.125,3.731,11.339,12.91,10.244,22.324
				c-1.077,9.246-6.263,17.163-10.66,23.026c-10.163,13.531-21.026,21.272-32.288,23.008c-1.249,0.191-2.545,0.292-3.848,0.292
				c-6.221,0-12.589-2.192-17.47-6.018c-4.699-3.68-7.543-8.467-8.145-13.639c-6.532,9.243-15.521,16.989-26.102,22.467
				C244.719,579.867,232.552,582.869,220.498,582.869z M223.304,444.755c-8.314,0-16.37,1.131-23.943,3.356
				c-30.643,9.067-49.36,31.159-50.067,59.092c-0.842,33.168,22.565,64.27,54.447,72.353c5.391,1.368,11.03,2.064,16.757,2.064
				c24.229,0,48.282-12.595,61.277-32.091l1.119-1.675l0.025,2.015c0.162,12.117,12.79,20.254,24.484,20.254
				c1.239,0,2.469-0.09,3.656-0.273c10.93-1.687,21.521-9.264,31.479-22.527c4.303-5.736,9.375-13.47,10.419-22.418
				c1.035-8.909-2.904-17.575-9.588-21.074c-2.032-1.083-4.304-1.706-6.5-2.31c-7.554-2.069-15.091-4.152-22.626-6.233
				c-5.905-1.63-11.805-3.262-17.707-4.883l-0.408-0.11l-0.047-0.422c-1.777-15.656-15.195-29.846-35.893-37.954
				C248.242,447.232,235.489,444.755,223.304,444.755z"/>
		</g>
		<path fill="#2D2D2D" d="M305.17,541.874c-3.174,0-6.375-0.615-9.41-1.822c-1.412-0.556-3.137-1.412-3.936-3.114
			c-0.577-1.197-0.529-2.584,0.14-3.903c0.866-1.71,2.631-3.037,4.492-3.383c3.024-0.556,6.041,0.687,8.871,2.006l-0.527,1.134
			c-2.646-1.236-5.456-2.399-8.117-1.909c-1.468,0.271-2.918,1.361-3.604,2.718c-0.345,0.683-0.648,1.72-0.126,2.799
			c0.613,1.312,2.069,2.021,3.268,2.493c3.897,1.549,8.078,2.071,12.092,1.519l0.173,1.235
			C307.388,541.799,306.281,541.874,305.17,541.874z"/>
		<path fill="#2D2D2D" d="M253.749,524.022c-1.486,0-2.945-0.243-4.374-0.826c-3.746-1.53-6.649-5.473-7.581-10.286
			c-0.832-4.294-0.203-8.831,0.35-12.833c0.202-1.456,0.621-3.208,2.099-3.866c0.86-0.344,1.77-0.227,2.467-0.085
			c3.285,0.694,6.09,2.655,8.802,4.553c3.057,2.132,5.943,4.149,9.408,4.465l-0.113,1.244c-3.796-0.345-6.956-2.552-10.011-4.688
			c-2.61-1.821-5.308-3.71-8.338-4.35c-0.556-0.112-1.203-0.199-1.729,0.012c-0.893,0.399-1.192,1.752-1.347,2.886
			c-0.541,3.905-1.153,8.335-0.361,12.424c0.667,3.452,2.812,7.726,6.825,9.366c4.207,1.718,8.932,0.117,13.808-1.824l0.463,1.163
			C260.571,522.788,257.093,524.022,253.749,524.022z"/>
		<g>
			<path fill="#D3D3D3" d="M294.79,482.286c3.515-6.582,9.071-12.051,15.698-15.519c3.248,8.137,2.535,17.74-1.779,25.347"/>
			<path fill="#2D2D2D" d="M309.253,492.422l-1.087-0.617c4.098-7.225,4.844-16.413,1.993-24.153
				c-6.252,3.432-11.496,8.708-14.817,14.929l-1.103-0.589c3.546-6.646,9.214-12.247,15.96-15.779l0.612-0.319l0.256,0.645
				C314.346,474.75,313.65,484.671,309.253,492.422z"/>
		</g>
		<g>
			<path fill="#8B00E5" d="M291.233,474.327c6.895-1.958,14.764-0.045,19.612,6.892c3.069,4.357,4.668,10.539,4.358,16.497
				c-0.225,4.225-1.69,8.714-4.582,10.494c-6.403-6.358-14.583-9.293-22.5-8.136c-5.337,0.8-14.631-0.4-13.741-10.938
				C275.136,480.683,286.164,475.75,291.233,474.327z"/>
			<path fill="#2D2D2D" d="M310.53,509.001l-0.349-0.345c-5.326-5.29-11.952-8.203-18.654-8.203c-1.109,0-2.225,0.081-3.316,0.24
				c-0.914,0.135-1.864,0.204-2.814,0.204c-2.299,0-6.561-0.438-9.276-3.395c-1.869-2.029-2.664-4.864-2.363-8.422
				c0.76-8.501,11.236-13.654,17.306-15.354c1.748-0.5,3.542-0.75,5.331-0.75c6.007,0,11.46,2.874,14.962,7.884
				c3.118,4.43,4.79,10.743,4.47,16.889c-0.212,3.994-1.601,8.979-4.879,10.994L310.53,509.001z M291.528,499.202
				c6.881,0,13.669,2.91,19.167,8.205c2.578-1.925,3.7-6.224,3.883-9.724c0.307-5.873-1.278-11.895-4.245-16.104
				c-3.312-4.743-8.261-7.353-13.937-7.353c-1.674,0-3.354,0.234-4.991,0.7c-5.367,1.507-15.702,6.426-16.402,14.262
				c-0.27,3.19,0.416,5.704,2.038,7.469c2.391,2.602,6.262,2.992,8.356,2.992c0.89,0,1.774-0.066,2.631-0.195
				C289.182,499.286,290.358,499.202,291.528,499.202z"/>
		</g>
		<path fill="#3D3D3D" d="M289.255,510.898c0.485-0.072,0.992,0.638,1.13,1.584c0.139,0.951-0.14,1.775-0.626,1.847
			c-0.486,0.072-0.993-0.64-1.132-1.588C288.486,511.794,288.767,510.968,289.255,510.898z"/>
		<circle fill="#FF78E6" cx="281.006" cy="524.354" r="2.667"/>
		<g>
			<path fill="#8B00E5" d="M167.39,443.998c-3.023-9.159-10.539-16.453-20.811-16.631c-6.537-0.133-13.74,2.712-19.433,7.604
				c-4.002,3.47-7.426,8.403-7.115,12.94c10.85,2.313,19.61,9.204,24.102,18.855c3.023,6.491,10.85,15.919,20.633,7.024
				C172.594,466.678,169.57,450.67,167.39,443.998z"/>
			<path fill="#2D2D2D" d="M156.761,478.052C156.761,478.052,156.761,478.052,156.761,478.052
				c-5.944-0.002-10.713-5.694-13.194-11.021c-4.421-9.499-13.047-16.244-23.666-18.508l-0.461-0.096l-0.032-0.473
				c-0.288-4.197,2.453-9.227,7.33-13.455c5.871-5.045,13.124-7.899,19.855-7.754c9.776,0.168,17.973,6.704,21.391,17.058
				c2.611,7.995,4.96,23.401-2.796,30.452C162.417,476.774,159.581,478.052,156.761,478.052z M120.637,447.404
				c10.788,2.445,19.541,9.384,24.063,19.1c2.318,4.979,6.704,10.298,12.061,10.298h0c2.5,0,5.051-1.17,7.584-3.474
				c7.3-6.635,4.794-21.958,2.45-29.135c-3.246-9.832-10.997-16.038-20.228-16.201c-0.144-0.002-0.288-0.002-0.431-0.002
				c-6.202,0-13.15,2.787-18.584,7.456C124.14,438.405,120.599,443.051,120.637,447.404z"/>
		</g>
		<g>
			<path fill="#FC27B5" d="M161.965,452.001c-5.781-7.333-14.897-11.648-23.923-8.846c-5.737,1.777-11.118,6.402-14.408,12.361
				c-2.313,4.225-3.602,9.693-1.734,13.606c10.272-1.023,20.367,2.579,27.615,9.915c4.892,4.938,14.986,11.12,20.5,0.313
				C174.372,470.812,166.234,457.384,161.965,452.001z"/>
			<path fill="#2D2D2D" d="M161.667,485.957C161.667,485.957,161.667,485.957,161.667,485.957c-5.733,0-11.091-4.958-12.597-6.477
				c-6.309-6.387-14.737-9.901-23.735-9.901c-1.12,0-2.255,0.055-3.375,0.165l-0.437,0.046l-0.188-0.397
				c-2.065-4.323-0.449-10.159,1.75-14.177c3.372-6.104,8.893-10.836,14.771-12.658c1.902-0.59,3.867-0.89,5.839-0.89
				c6.941,0,13.779,3.625,18.761,9.949c5.065,6.384,12.477,19.472,8.114,28.017C168.429,483.831,165.435,485.957,161.667,485.957z
				 M125.335,468.328c9.334,0,18.08,3.647,24.623,10.271c1.419,1.431,6.459,6.106,11.708,6.106c0,0,0,0,0,0
				c3.259,0,5.88-1.897,7.791-5.641c4.081-7.998-3.436-20.944-7.982-26.674c-4.675-5.931-11.322-9.473-17.781-9.473
				c-1.847,0-3.686,0.279-5.468,0.832c-5.578,1.729-10.828,6.239-14.046,12.066c-1.981,3.62-3.475,8.779-1.892,12.644
				C123.302,468.373,124.324,468.328,125.335,468.328z"/>
		</g>
		<g>
			<path fill="#33FFDD" d="M140.309,464.143c-9.293,0.669-18.009,5.783-20.766,14.854c-1.734,5.737-0.934,12.762,2.179,18.855
				c2.224,4.312,6.003,8.404,10.317,9.069c4.936-9.114,13.563-15.428,23.702-17.298c6.848-1.29,17.609-6.183,11.739-16.763
				C162.81,464.411,147.113,463.653,140.309,464.143z"/>
			<path fill="#2D2D2D" d="M132.378,507.605l-0.435-0.065c-4.034-0.626-8.063-4.141-10.777-9.406
				c-3.172-6.205-4.002-13.428-2.222-19.32c2.639-8.679,10.808-14.538,21.32-15.292c1.072-0.079,2.236-0.118,3.458-0.118
				c5.786,0,19.738,0.894,24.303,9.153c1.975,3.56,2.3,6.807,0.966,9.648c-2.112,4.495-8.171,7.095-13.137,8.033
				c-9.935,1.829-18.415,8.02-23.267,16.98L132.378,507.605z M143.723,464.654c-1.176,0-2.341,0.039-3.369,0.111
				c-9.984,0.715-17.729,6.239-20.214,14.412c-1.688,5.586-0.89,12.463,2.138,18.389c1.888,3.662,5.329,7.788,9.43,8.66
				c5.067-9.081,13.76-15.347,23.918-17.217c4.66-0.879,10.323-3.266,12.234-7.337c1.154-2.457,0.842-5.319-0.928-8.509
				C162.57,465.268,148.064,464.654,143.723,464.654z"/>
		</g>
		<g>
			<path fill="#FFFFFF" d="M224.887,573.8c0,5.337-0.044,10.72-0.044,16.053c0,0.801,0,1.646,0.311,2.402
				c0.356,0.846,1.067,1.468,1.823,2.004c2.846,2.089,6.271,3.421,9.784,3.775c0.756,0.091,1.601,0.091,2.269-0.354
				c0.932-0.709,0.977-2.177,0.398-3.202c-0.577-1.021-1.556-1.776-2.401-2.577c-5.247-4.892-5.914-13.917-1.467-19.567"/>
			<path fill="#2D2D2D" d="M237.464,598.708c-0.283,0-0.547-0.023-0.777-0.051c-3.619-0.367-7.108-1.714-10.081-3.897
				c-0.708-0.499-1.587-1.215-2.028-2.264c-0.361-0.872-0.361-1.813-0.361-2.644c0-2.669,0.011-5.349,0.023-8.027
				c0.01-2.676,0.022-5.354,0.022-8.025h1.249c0,2.671-0.011,5.35-0.022,8.031c-0.011,2.679-0.022,5.355-0.022,8.021
				c0,0.75,0,1.522,0.265,2.166c0.315,0.748,1.023,1.317,1.605,1.728c2.761,2.027,6.127,3.327,9.484,3.669
				c0.545,0.063,1.318,0.105,1.858-0.255c0.635-0.484,0.626-1.625,0.203-2.376c-0.407-0.721-1.054-1.308-1.738-1.928
				c-0.185-0.168-0.37-0.333-0.549-0.505c-5.498-5.124-6.2-14.471-1.528-20.403l0.981,0.772c-4.286,5.442-3.644,14.018,1.404,18.72
				c0.175,0.169,0.352,0.328,0.531,0.491c0.728,0.657,1.481,1.341,1.988,2.239c0.694,1.229,0.674,3.064-0.564,4.009
				C238.78,598.597,238.079,598.708,237.464,598.708z"/>
		</g>
		<g>
			<path fill="#FFFFFF" d="M173.839,561.395c0,5.337-0.045,10.716-0.045,16.053c0,0.8,0,1.648,0.312,2.402
				c0.355,0.846,1.067,1.467,1.823,2c2.846,2.09,6.27,3.424,9.783,3.778c0.755,0.091,1.601,0.091,2.268-0.354
				c0.935-0.712,0.979-2.176,0.401-3.201c-0.578-1.022-1.557-1.777-2.402-2.58c-5.248-4.89-5.914-13.915-1.467-19.565"/>
			<path fill="#2D2D2D" d="M186.412,586.299c-0.282,0-0.544-0.021-0.774-0.048c-3.618-0.366-7.106-1.714-10.08-3.896
				c-0.708-0.499-1.588-1.215-2.03-2.265c-0.36-0.872-0.36-1.813-0.36-2.643c0-2.671,0.011-5.35,0.022-8.028
				c0.011-2.678,0.022-5.358,0.022-8.024h1.25c0,2.67-0.011,5.349-0.022,8.027c-0.012,2.68-0.022,5.358-0.022,8.025
				c0,0.749,0,1.521,0.264,2.161c0.315,0.752,1.023,1.321,1.605,1.729c2.762,2.03,6.127,3.328,9.485,3.671
				c0.545,0.063,1.318,0.106,1.858-0.255c0.632-0.484,0.626-1.627,0.203-2.376c-0.408-0.721-1.053-1.304-1.737-1.924
				c-0.186-0.169-0.372-0.337-0.55-0.508c-5.498-5.124-6.2-14.472-1.528-20.404l0.982,0.773c-4.286,5.441-3.644,14.017,1.403,18.72
				c0.176,0.169,0.354,0.331,0.534,0.492c0.727,0.659,1.479,1.342,1.985,2.237c0.695,1.23,0.673,3.061-0.565,4.006
				C187.73,586.19,187.028,586.299,186.412,586.299z"/>
		</g>
		<g>
			<g>
				
					<ellipse transform="matrix(-0.419 -0.908 0.908 -0.419 -19.2039 965.3001)" fill="#FFFCBB" cx="299.251" cy="488.794" rx="8.227" ry="6.137"/>
				<path fill="#2D2D2D" d="M300.698,497.323c-2.967,0-6.017-2.292-7.585-5.695c-0.978-2.117-1.281-4.399-0.851-6.429
					c0.445-2.093,1.608-3.671,3.28-4.441c0.704-0.327,1.466-0.493,2.264-0.493c2.965,0,6.014,2.292,7.585,5.696
					c2.046,4.432,0.954,9.309-2.43,10.871C302.256,497.157,301.494,497.323,300.698,497.323z M297.805,481.517
					c-0.616,0-1.199,0.126-1.74,0.375c-1.304,0.602-2.221,1.87-2.58,3.57c-0.373,1.765-0.104,3.767,0.761,5.641
					c1.373,2.973,3.964,4.97,6.452,4.97c0.613,0,1.2-0.126,1.738-0.376c2.761-1.274,3.575-5.406,1.819-9.213
					C302.885,483.513,300.293,481.517,297.805,481.517z"/>
			</g>
			<g>
				
					<ellipse transform="matrix(-0.4191 -0.9079 0.9079 -0.4191 -6.9019 969.6965)" fill="#FFFCBB" cx="306.754" cy="487.056" rx="8.228" ry="6.138"/>
				<path fill="#2D2D2D" d="M308.199,495.582c-2.967,0-6.012-2.288-7.585-5.692c-0.977-2.116-1.278-4.398-0.848-6.426
					c0.441-2.095,1.607-3.674,3.278-4.446c0.705-0.325,1.466-0.486,2.263-0.486c2.967,0,6.014,2.287,7.586,5.691
					c0.976,2.116,1.278,4.398,0.849,6.428c-0.442,2.093-1.607,3.671-3.281,4.441C309.758,495.42,308.997,495.582,308.199,495.582z
					 M305.307,479.777c-0.616,0-1.199,0.127-1.737,0.377c-1.307,0.602-2.223,1.867-2.582,3.569
					c-0.374,1.764-0.104,3.768,0.761,5.644c1.371,2.97,3.963,4.967,6.45,4.967c0.616,0,1.201-0.127,1.739-0.376
					c1.305-0.602,2.222-1.869,2.58-3.569c0.375-1.765,0.105-3.768-0.762-5.643C310.386,481.775,307.795,479.777,305.307,479.777z"/>
			</g>
			<g>
				
					<ellipse transform="matrix(-0.419 -0.908 0.908 -0.419 2.862 973.1868)" fill="#FFFCBB" cx="312.801" cy="485.678" rx="8.226" ry="6.136"/>
				<path fill="#2D2D2D" d="M314.247,494.205c-2.965,0-6.014-2.288-7.586-5.694c-2.045-4.434-0.953-9.31,2.43-10.87
					c0.705-0.325,1.467-0.49,2.264-0.49c2.967,0,6.015,2.288,7.586,5.694c2.045,4.432,0.956,9.307-2.429,10.869
					C315.805,494.039,315.044,494.205,314.247,494.205z M311.354,478.401c-0.615,0-1.2,0.123-1.737,0.376
					c-2.761,1.272-3.577,5.402-1.821,9.209c1.373,2.971,3.964,4.968,6.451,4.968c0.614,0,1.199-0.126,1.739-0.373
					c2.759-1.275,3.575-5.405,1.817-9.212C316.436,480.397,313.844,478.401,311.354,478.401z"/>
			</g>
			<g>
				<path fill="#FFFCBB" d="M315.869,479.174c-0.934-0.045-1.691,0.667-1.955,1.509c-0.269,0.849-0.135,1.781,0,2.671
					c0.444,2.67,1.644,5.824,4.355,6.536c2.136,0.532,4.048-0.799,5.647-2.089c1.025-0.801,2.045-1.6,3.069-2.447
					c0.71-0.578,1.468-1.156,1.913-2c0.399-0.845,0.399-1.957-0.268-2.712c-0.666-0.713-1.735-0.89-2.713-0.98
					c-3.156-0.31-6.358-0.487-9.516-0.578c-0.355,0-0.802,0.046-0.846,0.358c-0.045,0.311,0.668,0.355,0.49,0.088"/>
				<path fill="#2D2D2D" d="M319.25,490.636c-0.37,0-0.747-0.042-1.132-0.139c-3.321-0.872-4.445-4.783-4.821-7.041
					c-0.14-0.927-0.294-1.964,0.019-2.959c0.357-1.128,1.316-1.903,2.376-1.948c0.189-0.058,0.423-0.087,0.712-0.087
					c3.474,0.095,6.601,0.284,9.578,0.58c1.082,0.097,2.301,0.312,3.105,1.172c0.793,0.896,0.935,2.229,0.376,3.407
					c-0.487,0.926-1.262,1.555-1.944,2.104l-0.138,0.114c-1.033,0.854-2.073,1.665-3.079,2.454
					C322.766,489.529,321.102,490.636,319.25,490.636z M315.135,480.004c-0.306,0.207-0.524,0.545-0.627,0.868
					c-0.229,0.722-0.095,1.605,0.022,2.389c0.323,1.948,1.265,5.333,3.898,6.025c1.86,0.466,3.608-0.773,5.097-1.973
					c1.006-0.788,2.038-1.594,3.062-2.441l0.145-0.118c0.646-0.522,1.256-1.016,1.613-1.692c0.271-0.57,0.326-1.431-0.183-2.008
					c-0.503-0.536-1.404-0.687-2.301-0.768c-2.823-0.279-5.905-0.472-9.169-0.568c-0.021,0.123-0.072,0.241-0.158,0.34
					c-0.279,0.331-0.758,0.321-1.082,0.175C315.326,480.176,315.219,480.097,315.135,480.004z M315.873,479.081l-0.026,0.582
					l0.333-0.222c-0.009-0.163-0.106-0.301-0.215-0.349C315.939,479.081,315.907,479.077,315.873,479.081z"/>
			</g>
		</g>
		<g>
			<path fill="#FC27B5" d="M288.876,481.485c7.072,0.71,13.92,5.025,16.365,12.406c1.556,4.67,1.246,10.317-0.89,15.209
				c-1.513,3.425-4.225,6.672-7.426,7.159c-4.09-7.428-10.939-12.72-18.72-14.408c-5.247-1.155-13.651-5.335-9.605-13.784
				C271.755,481.309,283.674,480.951,288.876,481.485z"/>
			<path fill="#2D2D2D" d="M296.588,516.945l-0.21-0.386c-4.026-7.306-10.697-12.444-18.305-14.099
				c-3.834-0.844-8.576-3.066-10.387-6.783c-1.147-2.351-1.028-5.003,0.35-7.881c2.995-6.414,13.077-7.108,17.274-7.108
				c1.269,0,2.525,0.062,3.632,0.176c7.943,0.799,14.573,5.836,16.892,12.832c1.605,4.816,1.267,10.668-0.909,15.654
				c-1.447,3.276-4.283,6.976-7.904,7.526L296.588,516.945z M285.31,481.94c-3.958,0-13.449,0.622-16.144,6.393
				c-1.209,2.52-1.327,4.807-0.356,6.797c1.616,3.313,5.982,5.329,9.529,6.11c7.82,1.698,14.689,6.907,18.911,14.319
				c2.929-0.694,5.277-3.874,6.531-6.712c2.054-4.708,2.379-10.227,0.869-14.757c-2.165-6.53-8.38-11.234-15.835-11.982
				C287.75,481.997,286.538,481.94,285.31,481.94z"/>
		</g>
	</g>
	<g>
		<g>
			<path fill="#6D533C" d="M563.956,326.174c8.787-0.213,17.672-3.935,23.131-10.828c-7.318,2.407-16-0.126-20.877-6.091
				c8.537,3.171,18.641,1.698,25.92-3.767c-4.588-0.051-8.928-2.47-12.07-5.826c-3.141-3.355-5.197-7.563-6.822-11.86
				c-0.744-1.979-1.455-4.057-2.951-5.546c-1.865-1.859-4.717-2.478-7.324-2.125c-2.609,0.353-5.023,1.566-7.266,2.951
				c-7.072,4.36-12.949,10.622-16.859,17.951c-1.852,3.469-3.279,7.374-3.335,11.341c-0.025,1.8,0.076,4.492,1.139,6.047
				c1.415,2.085,1.461,0.708,3.109,1.075c3.691,0.814,7.309,3.5,11.051,4.687C555.054,325.543,559.501,326.282,563.956,326.174z"/>
			<path fill="#3D3D3D" d="M563.099,326.992L563.099,326.992c-4.088,0-8.307-0.686-12.545-2.039
				c-1.742-0.553-3.453-1.418-5.109-2.254c-2.023-1.022-3.938-1.989-5.869-2.416c-0.367-0.083-0.637-0.036-0.932,0.036
				c-0.185,0.044-0.392,0.095-0.629,0.095c-0.828,0-1.414-0.615-2.043-1.539c-0.901-1.32-1.319-3.451-1.275-6.512
				c0.052-3.6,1.205-7.539,3.431-11.708c3.998-7.491,9.927-13.806,17.146-18.258c1.971-1.215,4.613-2.661,7.582-3.063
				c0.5-0.069,1.01-0.102,1.514-0.102c2.594,0,4.898,0.87,6.486,2.454c1.52,1.514,2.266,3.506,2.986,5.433l0.148,0.399
				c1.939,5.128,4.057,8.812,6.66,11.594c3.271,3.494,7.459,5.525,11.49,5.57l2.371,0.026l-1.896,1.425
				c-4.793,3.598-10.85,5.58-17.053,5.58c-2.25,0-4.449-0.259-6.572-0.771c3.342,2.854,7.771,4.5,12.355,4.5
				c1.902,0,3.75-0.29,5.49-0.861l2.553-0.841l-1.668,2.106c-5.338,6.74-14.213,10.902-23.746,11.133
				C563.683,326.989,563.392,326.992,563.099,326.992z M539.179,318.625c0.244,0,0.488,0.027,0.744,0.084
				c2.129,0.471,4.223,1.529,6.248,2.55c1.598,0.808,3.25,1.644,4.873,2.157c4.078,1.303,8.135,1.964,12.055,1.964l0,0
				c0.279,0,0.557-0.003,0.836-0.012c8.113-0.195,15.713-3.373,20.834-8.612c-1.115,0.199-2.26,0.298-3.424,0.298
				c-6.135,0.001-12.027-2.724-15.76-7.29l-1.881-2.3l2.787,1.034c2.859,1.063,5.91,1.603,9.07,1.603
				c5.1,0,10.088-1.415,14.27-4.018c-3.717-0.639-7.396-2.704-10.359-5.871c-3.615-3.862-5.721-8.771-6.99-12.125l-0.15-0.404
				c-0.662-1.765-1.344-3.59-2.613-4.857c-1.285-1.278-3.186-1.983-5.35-1.983c-0.434,0-0.869,0.03-1.299,0.087
				c-2.668,0.363-5.115,1.707-6.949,2.838c-6.979,4.303-12.709,10.405-16.572,17.644c-2.103,3.942-3.193,7.633-3.241,10.973
				c-0.038,2.679,0.297,4.558,0.997,5.581c0.504,0.74,0.7,0.829,0.722,0.837c0.032-0.001,0.141-0.028,0.237-0.052
				C538.485,318.698,538.788,318.625,539.179,318.625z"/>
		</g>
		<g>
			<path fill="#896E52" d="M530.675,208.821c-4.44-0.815-9.004-1.151-13.476-0.524c-11.179,1.561-21.072,9.351-26.097,19.455
				c-5.024,10.103-5.37,22.234-1.871,32.963c0.291,0.886,0.721,1.876,1.613,2.13c0.517,0.146,1.067,0,1.584-0.146
				c8.931-2.528,17.933-5.295,25.748-10.299c6.824-4.372,12.494-10.3,18.091-16.163c3.923-4.115,10.804-10.962,9.574-17.388
				C544.646,212.65,535.926,209.776,530.675,208.821z"/>
			<path fill="#3D3D3D" d="M491.304,263.712L491.304,263.712c-0.238,0-0.468-0.03-0.681-0.09c-1.258-0.358-1.813-1.607-2.158-2.655
				c-3.721-11.407-3.023-23.642,1.915-33.574c5.328-10.715,15.561-18.338,26.705-19.895c1.577-0.221,3.239-0.333,4.938-0.333
				c2.758,0,5.635,0.282,8.798,0.862c3.342,0.607,14.368,3.173,15.811,10.668c1.258,6.565-5.078,13.185-9.273,17.566l-0.509,0.532
				c-5.56,5.824-11.309,11.845-18.239,16.285c-7.875,5.043-16.774,7.795-25.964,10.397
				C492.293,263.576,491.809,263.712,491.304,263.712z M522.023,208.779c-1.624,0-3.211,0.106-4.714,0.317
				c-10.627,1.484-20.392,8.77-25.486,19.015c-4.75,9.557-5.415,21.35-1.824,32.356c0.219,0.667,0.538,1.454,1.064,1.604
				c0.267,0.076,0.684-0.016,1.147-0.147c9.066-2.566,17.841-5.277,25.532-10.202c6.768-4.336,12.447-10.286,17.941-16.04
				l0.51-0.535c3.965-4.141,9.956-10.399,8.854-16.146c-0.994-5.156-8.151-8.229-14.518-9.387
				C527.463,209.051,524.682,208.779,522.023,208.779z"/>
		</g>
		<g>
			<path fill="#6D533C" d="M509.885,222.488c-8.687,3.671-16.104,10.269-20.769,18.469c-4.663,8.202-6.532,17.952-5.238,27.297
				c0.41,2.976,1.138,5.908,1.965,8.795c2.364,8.203,5.644,16.277,6.149,24.794c0.505,8.519-2.445,17.939-9.802,22.274
				c3.981,2.243,9.062,1.951,13.192,0c4.135-1.953,7.406-5.391,9.973-9.174c-0.784,3.076-1.578,6.19-3.072,8.991
				c-1.491,2.805-3.772,5.313-6.749,6.438c4.393,0.974,8.917,1.954,13.352,1.202c5.543-0.941,10.262-4.456,14.647-7.975
				c2.375-1.909,4.762-3.898,6.38-6.477c2.775-4.436,2.896-9.946,3.452-15.147c0.991-9.319,3.605-18.406,4.801-27.706
				c1.284-10.035,0.866-20.276-1.182-30.177c-1.629-7.893-3.514-21.281-12.562-23.424
				C519.619,219.538,514.369,220.6,509.885,222.488z"/>
			<path fill="#3D3D3D" d="M505.574,332.645L505.574,332.645c-3.509,0-7.07-0.787-10.213-1.485l-2.641-0.586l2.529-0.956
				c2.504-0.944,4.748-3.098,6.322-6.062c0.814-1.527,1.421-3.173,1.931-4.854c-2.388,2.77-4.991,4.829-7.772,6.145
				c-4.568,2.155-10.026,2.174-13.935-0.027l-1.218-0.686l1.204-0.711c7.619-4.49,9.828-14.405,9.404-21.531
				c-0.373-6.314-2.342-12.528-4.247-18.537c-0.629-1.989-1.282-4.046-1.869-6.082c-0.998-3.477-1.631-6.306-1.99-8.909
				c-1.323-9.551,0.571-19.425,5.337-27.805c4.767-8.38,12.278-15.063,21.155-18.813c5.286-2.229,10.627-2.899,15.036-1.861
				c8.816,2.088,11.189,14.083,12.76,22.019c0.139,0.706,0.273,1.385,0.407,2.025c2.085,10.08,2.484,20.323,1.193,30.443
				c-0.563,4.369-1.447,8.748-2.303,12.983c-0.97,4.805-1.974,9.774-2.497,14.706c-0.08,0.749-0.152,1.503-0.223,2.261
				c-0.429,4.557-0.872,9.27-3.348,13.228c-1.645,2.623-4.042,4.655-6.562,6.679c-4.469,3.586-9.31,7.17-15.015,8.139
				C507.919,332.555,506.791,332.645,505.574,332.645z M497.913,330.065c2.472,0.517,5.108,0.968,7.661,0.968l0,0
				c1.126,0,2.165-0.084,3.178-0.256c5.325-0.902,9.973-4.351,14.277-7.806c2.497-2.007,4.69-3.864,6.202-6.277
				c2.271-3.632,2.697-8.151,3.109-12.523c0.07-0.764,0.143-1.526,0.224-2.281c0.532-5.007,1.544-10.012,2.521-14.853
				c0.85-4.207,1.729-8.559,2.282-12.871c1.271-9.942,0.876-20.005-1.174-29.912c-0.132-0.646-0.267-1.327-0.408-2.038
				c-1.578-7.981-3.742-18.914-11.547-20.763c-4.073-0.96-9.07-0.317-14.039,1.776c-8.553,3.614-15.79,10.052-20.381,18.125
				c-4.592,8.073-6.418,17.586-5.142,26.787c0.353,2.559,0.952,5.238,1.942,8.684c0.58,2.015,1.229,4.063,1.855,6.041
				c1.936,6.104,3.936,12.415,4.321,18.929c0.446,7.53-1.715,17.107-8.96,22.216c3.316,1.341,7.577,1.088,11.205-0.625
				c3.529-1.669,6.777-4.662,9.648-8.897l2.586-3.815l-1.139,4.467c-0.787,3.088-1.601,6.281-3.143,9.172
				C501.68,326.79,499.92,328.772,497.913,330.065z"/>
		</g>
		<g>
			<path fill="#6D533C" d="M563.095,221.762c7.846,4.846,13.371,13.022,16.68,21.816c1.012,2.679,1.84,5.447,2.236,8.296
				c0.336,2.42,0.361,4.878,0.514,7.316c0.391,6.295,1.648,12.531,3.715,18.457c1.131,3.248,2.598,6.534,5.193,8.712
				c2.799,2.351,6.609,3.117,10.211,2.838c-2.123,0.17-4.037,1.333-5.914,2.37c-7.412,4.087-16.227,6.689-24.215,4.018
				c-7.018-2.351-12.344-8.473-15.701-15.253c-3.354-6.78-5.033-14.287-7.023-21.616c-2.781-10.261-6.205-20.326-10.25-30.126
				c-0.917-2.212-2.943-6.016-1.274-8.227c1.331-1.77,5.875-2.338,7.853-2.61C551.304,216.915,557.763,218.47,563.095,221.762z"/>
			<path fill="#3D3D3D" d="M578.415,297.48c-2.51,0-4.914-0.38-7.154-1.129c-6.506-2.178-12.248-7.739-16.168-15.659
				c-2.854-5.766-4.523-12.102-6.141-18.23c-0.311-1.179-0.623-2.358-0.939-3.531c-2.764-10.196-6.201-20.3-10.219-30.032
				c-0.108-0.262-0.231-0.549-0.366-0.853c-1.018-2.327-2.555-5.846-0.806-8.167c1.491-1.981,5.85-2.576,8.194-2.896l0.193-0.026
				c6.162-0.835,12.939,0.681,18.51,4.12c9.314,5.752,14.393,15.258,17.012,22.218c1.172,3.106,1.918,5.875,2.281,8.469
				c0.242,1.757,0.324,3.544,0.406,5.272c0.033,0.704,0.066,1.405,0.111,2.106c0.389,6.226,1.621,12.364,3.67,18.24
				c1.025,2.94,2.412,6.231,4.951,8.362c2.662,2.234,5.979,2.703,8.291,2.703c0.441,0,0.893-0.019,1.34-0.053l0.127,1.607
				c-0.002,0-0.002,0-0.004,0l0,0c0,0,0,0-0.002,0c-1.76,0.143-3.451,1.086-5.088,1.997l-0.494,0.274
				C589.855,295.729,583.898,297.48,578.415,297.48z M548.472,218.336c-1.092,0-2.184,0.074-3.244,0.218l-0.195,0.026
				c-1.805,0.247-6.035,0.824-7.124,2.27c-1.182,1.568,0.129,4.567,0.997,6.551c0.137,0.314,0.268,0.609,0.379,0.882
				c4.043,9.795,7.502,19.965,10.283,30.226c0.32,1.177,0.633,2.36,0.945,3.543c1.594,6.049,3.244,12.306,6.025,17.924
				c3.727,7.532,9.139,12.805,15.234,14.846c2.072,0.695,4.307,1.047,6.643,1.047c5.135,0,10.988-1.732,16.924-5.007l0.49-0.272
				c0.473-0.263,0.947-0.528,1.432-0.777c-2.066-0.356-4.354-1.161-6.346-2.834c-2.838-2.381-4.342-5.919-5.436-9.065
				c-2.1-6.017-3.365-12.298-3.762-18.671c-0.043-0.71-0.076-1.421-0.109-2.132c-0.08-1.691-0.162-3.441-0.395-5.125
				c-0.346-2.472-1.063-5.129-2.191-8.123c-2.533-6.726-7.424-15.901-16.35-21.416C558.378,219.797,553.335,218.336,548.472,218.336
				z"/>
		</g>
		<g>
			<path fill="#FF9750" d="M555.198,541.826c-1.555,0.992-3.131,1.996-4.398,3.332c-1.277,1.331-2.244,3.045-2.334,4.883
				c-0.025,0.483,0.031,0.998,0.361,1.354c0.232,0.246,0.568,0.366,0.898,0.441c1.756,0.396,3.541-0.335,5.191-1.055
				c3.064-1.333,6.135-2.668,9.199-4c1.984-0.866,4.158-1.909,4.961-3.917c0.941-2.34-0.367-4.935-1.732-7.046
				c-0.275-0.436-0.654-0.917-1.176-0.891c-1.01,0.052-3.695,2.767-4.895,3.351C559.154,539.313,557.206,540.545,555.198,541.826z"
				/>
			<path fill="#3D3D3D" d="M550.753,552.756c-0.414,0-0.82-0.046-1.205-0.133c-0.367-0.084-0.898-0.246-1.307-0.673
				c-0.434-0.469-0.623-1.106-0.582-1.948c0.09-1.855,0.998-3.773,2.557-5.4c1.338-1.408,2.971-2.447,4.547-3.455
				c1.836-1.17,3.916-2.499,6.156-3.594c0.418-0.203,1.168-0.809,1.889-1.391c1.529-1.236,2.51-1.998,3.322-2.039l0.082-0.004
				c1.012,0,1.592,0.923,1.814,1.27c1.412,2.184,2.896,5.046,1.799,7.775c-0.895,2.24-3.15,3.38-5.387,4.356l-9.199,4
				C553.747,552.172,552.284,552.756,550.753,552.756z M566.208,535.731c-0.385,0.066-1.639,1.079-2.387,1.684
				c-0.83,0.67-1.615,1.306-2.197,1.588c-2.154,1.053-4.195,2.354-5.994,3.503c-1.498,0.956-3.045,1.945-4.248,3.208
				c-1.291,1.348-2.039,2.898-2.111,4.365c-0.018,0.379,0.033,0.645,0.146,0.768c0.074,0.074,0.238,0.147,0.488,0.204
				c0.268,0.06,0.553,0.09,0.848,0.09c1.223,0,2.463-0.496,3.844-1.097l9.197-4.002c2.008-0.876,3.867-1.802,4.533-3.476
				c0.824-2.045-0.455-4.444-1.658-6.31C566.359,535.77,566.214,535.734,566.208,535.731z"/>
		</g>
		<g>
			<path fill="#FF9750" d="M526.101,544.142c-1.556,0.989-3.129,1.996-4.399,3.328c-1.274,1.331-2.241,3.046-2.33,4.886
				c-0.027,0.479,0.03,0.999,0.361,1.351c0.234,0.246,0.568,0.367,0.896,0.441c1.756,0.397,3.545-0.333,5.194-1.055
				c3.065-1.332,6.135-2.665,9.199-4c1.984-0.865,4.159-1.909,4.961-3.917c0.941-2.337-0.367-4.935-1.732-7.045
				c-0.277-0.437-0.655-0.917-1.176-0.89c-1.01,0.051-3.696,2.769-4.897,3.347C530.063,541.634,528.11,542.857,526.101,544.142z"/>
			<path fill="#3D3D3D" d="M521.659,555.067L521.659,555.067c-0.414,0-0.819-0.044-1.208-0.132
				c-0.365-0.084-0.895-0.243-1.302-0.674c-0.435-0.465-0.629-1.118-0.583-1.95c0.09-1.855,0.997-3.774,2.555-5.398
				c1.344-1.412,2.972-2.449,4.547-3.455c2.024-1.292,4.021-2.54,6.153-3.592c0.423-0.205,1.173-0.809,1.897-1.396
				c1.529-1.234,2.507-1.992,3.318-2.035h0.081c1.008,0,1.592,0.917,1.813,1.264c1.414,2.186,2.898,5.052,1.799,7.781
				c-0.895,2.236-3.15,3.379-5.384,4.354l-9.202,3.999C524.657,554.481,523.192,555.067,521.659,555.067z M537.115,538.046
				c-0.384,0.063-1.636,1.074-2.383,1.679c-0.832,0.674-1.619,1.308-2.204,1.59c-2.057,1.014-3.932,2.189-5.994,3.506
				c-1.495,0.951-3.037,1.934-4.248,3.205c-1.29,1.348-2.039,2.899-2.108,4.367c-0.021,0.379,0.028,0.64,0.146,0.766
				c0.072,0.076,0.24,0.147,0.485,0.205c0.269,0.061,0.554,0.093,0.851,0.093c1.222,0,2.515-0.523,3.841-1.101l9.202-4.002
				c2.006-0.874,3.863-1.801,4.532-3.476c0.824-2.045-0.453-4.447-1.659-6.308C537.269,538.092,537.13,538.05,537.115,538.046z"/>
		</g>
		<g>
			<path fill="#548E91" d="M518.064,456.723c0.53,12.664,1.137,25.362,3.316,37.837c1.055,6.014,2.47,11.961,3.885,17.899
				c2.346,9.832,4.689,19.664,7.032,29.496c1.429,1.422,4.039,0.373,4.936-1.461c0.898-1.831,0.612-4.011,0.313-6.04
				c-3.188-21.37-5.858-42.82-8.533-64.268c-0.416-3.361-0.84-6.72-0.935-10.108c-0.232-8.037,1.379-16.132,4.664-23.436
				c0.271-0.607,0.594-1.244,1.162-1.56c0.544-0.298,1.193-0.241,1.807-0.178c7.583,0.803,15.166,1.597,22.753,2.399
				c-3.307,5.902-5.598,12.4-6.748,19.103c-1.158,6.756-1.158,13.652-1.068,20.506c0.246,19.447,1.227,39.268,7.848,57.472
				c0.43,1.176,0.896,2.375,1.725,3.292c1.713,1.888,4.482,2.162,6.98,2.306c0.465,0.024,0.969,0.046,1.354-0.223
				c0.76-0.522,0.582-1.704,0.316-2.609c-5.395-18.682-7.764-38.301-6.975-57.793c0.24-5.869,0.766-11.753,2.174-17.451
				c1.764-7.103,4.871-13.813,6.432-20.966c1.99-9.132,1.346-18.85-1.838-27.606c-0.285-0.791-0.607-1.594-1.195-2.174
				c-1.107-1.095-2.811-1.118-4.348-1.118c-7.119-0.012-14.189-0.986-21.18-2.317c-5.875-1.125-13.085-4.097-19.109-2.927
				c-9.906,1.929-5.949,20.54-5.716,27.392C517.406,440.365,517.722,448.548,518.064,456.723z"/>
			<path fill="#3D3D3D" d="M533.958,543.423L533.958,543.423c-0.869,0-1.639-0.31-2.229-0.896l-0.162-0.161l-7.087-29.72
				c-1.389-5.836-2.827-11.871-3.894-17.947c-2.115-12.106-2.759-24.347-3.328-37.943c-0.347-8.322-0.666-16.579-0.947-24.538
				c-0.041-1.16-0.189-2.673-0.362-4.42c-0.869-8.785-2.182-22.057,6.73-23.79c0.965-0.189,2.015-0.282,3.118-0.282
				c3.649,0,7.456,0.998,11.139,1.967c1.817,0.479,3.534,0.929,5.157,1.238c8.182,1.564,14.865,2.294,21.027,2.308
				c1.498,0,3.549,0,4.916,1.349c0.709,0.704,1.074,1.609,1.385,2.476c3.219,8.848,3.881,18.81,1.869,28.05
				c-0.846,3.87-2.154,7.651-3.414,11.312c-1.088,3.148-2.211,6.407-3.023,9.675c-1.197,4.838-1.861,10.173-2.152,17.293
				c-0.789,19.489,1.549,38.848,6.945,57.537c0.496,1.685,0.283,2.863-0.633,3.497c-0.488,0.337-1.041,0.379-1.412,0.379
				c-0.15,0-0.297-0.009-0.443-0.019c-2.781-0.159-5.648-0.486-7.533-2.567c-0.908-1.004-1.41-2.255-1.887-3.557
				c-6.85-18.832-7.666-39.678-7.895-57.739c-0.094-7.027-0.078-13.892,1.078-20.65c1.105-6.438,3.209-12.587,6.256-18.29
				l-21.55-2.273c-0.507-0.054-1.05-0.075-1.335,0.081c-0.35,0.192-0.604,0.713-0.815,1.185c-3.234,7.189-4.822,15.172-4.593,23.083
				c0.094,3.293,0.509,6.633,0.91,9.865l0.053,0.43c2.616,21,5.325,42.711,8.495,63.984c0.292,1.958,0.656,4.393-0.384,6.513
				C537.218,542.365,535.573,543.423,533.958,543.423z M533.023,541.52c0.258,0.192,0.572,0.291,0.935,0.291
				c0.99,0,2.087-0.718,2.553-1.668c0.818-1.673,0.495-3.834,0.236-5.568c-3.174-21.291-5.881-43.016-8.5-64.023l-0.053-0.43
				c-0.406-3.269-0.827-6.648-0.922-10.02c-0.238-8.151,1.399-16.378,4.734-23.79c0.317-0.706,0.722-1.499,1.506-1.936
				c0.406-0.22,0.875-0.327,1.438-0.327c0.281,0,0.565,0.026,0.845,0.057l23.97,2.529l-0.598,1.067
				c-3.275,5.842-5.516,12.183-6.658,18.843c-1.133,6.624-1.145,13.406-1.055,20.355c0.227,17.93,1.035,38.613,7.799,57.211
				c0.434,1.188,0.852,2.236,1.564,3.023c1.477,1.631,3.986,1.903,6.432,2.043c0.346,0.021,0.715,0.012,0.848-0.079
				c0.26-0.181,0.26-0.838,0.002-1.72c-5.447-18.861-7.807-38.391-7.008-58.055c0.199-4.868,0.629-11.272,2.195-17.613
				c0.83-3.341,1.967-6.631,3.066-9.814c1.246-3.614,2.535-7.353,3.361-11.128c1.949-8.946,1.307-18.591-1.811-27.157
				c-0.248-0.697-0.531-1.413-1-1.877c-0.832-0.82-2.148-0.886-3.783-0.886c-6.27-0.012-13.047-0.752-21.33-2.333
				c-1.678-0.322-3.419-0.779-5.264-1.264c-3.582-0.941-7.286-1.916-10.729-1.916c-1,0-1.946,0.085-2.812,0.253
				c-7.47,1.453-6.245,13.847-5.434,22.049c0.176,1.776,0.328,3.311,0.37,4.522c0.281,7.956,0.601,16.21,0.947,24.529
				c0.566,13.54,1.207,25.723,3.305,37.732c1.058,6.025,2.489,12.035,3.876,17.85L533.023,541.52z"/>
		</g>
		<g>
			<path fill="#FCD2B4" d="M505.769,374.493c-4.967,14.388-3.899,30.026-1.72,45.008c0.216,1.497,0.159,3.398-0.632,4.535
				c-0.511,0.739-1.662,0.511-1.851-0.373c-0.581-2.685-1.157-5.371-1.737-8.056c-0.014-0.068-0.119-0.051-0.107,0.019l1.238,8.714
				c0.081,0.567-0.562,0.956-1.031,0.613c-2.937-2.141-4.346-5.521-4.105-9.472l1.271,9.363c0.057,0.406-0.36,0.722-0.728,0.544
				c-2.425-1.148-3.525-4.215-4.08-6.919c-5.137-24.891,2.974-55.634,15.908-77.472c0.019-0.03,0.063-0.037,0.09-0.013
				c5.699,5.295,10.437,6.339,6.721,14.285C511.967,361.741,508.106,367.707,505.769,374.493z"/>
			<path fill="#3D3D3D" d="M496.585,426.245c-0.196,0-0.389-0.044-0.569-0.132c-2.191-1.038-3.713-3.557-4.52-7.481
				c-4.744-22.986,1.54-53.619,16.005-78.043l0.235-0.396l0.511-0.027c0.217,0,0.424,0.081,0.583,0.229
				c1.136,1.052,2.253,1.951,3.239,2.748c4.006,3.226,6.9,5.557,3.668,12.472c-1.095,2.328-2.309,4.619-3.482,6.832
				c-2.084,3.936-4.242,8.007-5.725,12.309c-5.07,14.686-3.695,30.803-1.683,44.631c0.143,1,0.354,3.497-0.769,5.11
				c-0.345,0.503-0.893,0.791-1.499,0.791c-0.341,0-0.661-0.091-0.937-0.252c-0.055,0.126-0.129,0.24-0.219,0.345
				c-0.482,0.557-1.364,0.665-1.969,0.227c-0.607-0.445-1.155-0.935-1.644-1.474l0.082,0.604c0.051,0.379-0.063,0.763-0.315,1.053
				C497.326,426.081,496.964,426.245,496.585,426.245z M508.425,342.2c-13.942,23.968-19.965,53.74-15.349,76.104
				c0.631,3.066,1.686,5.108,3.143,6.076l-0.513-3.773c-0.569-1.575-0.8-3.315-0.686-5.175l1.603-0.06l0.657,4.841
				c0.588,1.546,1.537,2.842,2.829,3.863l-1.234-8.692l0.237-0.315c0.164-0.199,0.406-0.31,0.665-0.31h0.665l0.18,0.694l1.732,8.037
				c0.038,0.174,0.194,0.182,0.226,0.182c0.109,0,0.158-0.07,0.175-0.095c0.651-0.938,0.685-2.66,0.498-3.963
				c-2.041-14.017-3.428-30.374,1.753-45.384c1.524-4.423,3.71-8.551,5.825-12.541c1.165-2.198,2.368-4.468,3.446-6.763
				c2.695-5.767,0.718-7.36-3.221-10.532C510.249,343.742,509.353,343.024,508.425,342.2z"/>
		</g>
		<g>
			<path fill="#53ADBC" d="M515.219,327.383c-2.105,2.95-4.215,5.894-6.316,8.846c-1.529,2.142-3.141,4.649-2.593,7.24
				c0.285,1.333,1.113,2.463,1.966,3.506c1.82,2.226,3.854,4.267,6.065,6.08c1.743-8.118,6.086-15.37,8.852-23.188
				c0.98-2.76,1.757-5.593,2.338-8.468c0.986-4.928-1.497-4.022-4.271-1.413C518.948,322.164,517.072,324.785,515.219,327.383z"/>
			<path fill="#3D3D3D" d="M514.853,354.516l-1.022-0.839c-2.247-1.843-4.324-3.924-6.178-6.19c-0.919-1.122-1.812-2.363-2.13-3.849
				c-0.614-2.89,1.083-5.581,2.723-7.878l6.317-8.846c1.846-2.589,3.754-5.265,6.145-7.517c1.651-1.554,3-2.343,4.01-2.343
				c0.538,0,0.996,0.211,1.321,0.606c0.582,0.713,0.673,1.95,0.283,3.896c-0.592,2.931-1.389,5.817-2.368,8.58
				c-1.061,2.992-2.364,5.939-3.625,8.789c-2.032,4.592-4.136,9.342-5.199,14.298L514.853,354.516z M524.772,318.675
				c-0.493,0-1.477,0.502-2.961,1.897c-2.273,2.142-4.135,4.754-5.936,7.277l-6.317,8.846c-1.44,2.018-2.935,4.356-2.459,6.605
				c0.259,1.206,1.066,2.267,1.801,3.163c1.508,1.847,3.171,3.563,4.954,5.123c1.161-4.639,3.111-9.044,5.001-13.313
				c1.247-2.823,2.539-5.74,3.579-8.678c0.954-2.691,1.73-5.501,2.307-8.356c0.432-2.152,0.045-2.562,0.04-2.564
				C524.778,318.675,524.775,318.675,524.772,318.675z"/>
		</g>
		<g>
			<path fill="#FCD2B4" d="M573.187,372.334c6.652,13.69,7.461,29.34,7.096,44.479c-0.039,1.513,0.254,3.395,1.168,4.432
				c0.594,0.677,1.711,0.31,1.795-0.589c0.252-2.736,0.506-5.47,0.766-8.202c0.006-0.069,0.115-0.061,0.115,0.008l-0.191,8.795
				c-0.014,0.575,0.678,0.879,1.098,0.487c2.662-2.478,3.654-6.002,2.947-9.896l-0.139,9.447c-0.008,0.41,0.439,0.671,0.789,0.454
				c2.275-1.434,2.994-4.605,3.223-7.354c2.123-25.324-9.611-54.883-25.068-75.017c-0.016-0.024-0.063-0.024-0.086,0
				c-5.029,5.941-9.604,7.547-4.965,14.988C565.507,360.415,570.052,365.882,573.187,372.334z"/>
			<path fill="#3D3D3D" d="M584.591,422.728c-0.393,0-0.779-0.161-1.055-0.445c-0.076-0.077-0.145-0.165-0.201-0.258
				c-0.311,0.237-0.701,0.376-1.123,0.376l0,0c-0.529,0-1.016-0.223-1.367-0.625c-1.346-1.524-1.389-4.199-1.371-4.982
				c0.34-13.976-0.229-30.149-7.014-44.106c-1.982-4.084-4.604-7.86-7.137-11.508c-1.43-2.065-2.912-4.2-4.273-6.383
				c-4.035-6.477-1.441-9.141,2.152-12.824c0.883-0.908,1.885-1.934,2.881-3.112l0.24-0.285l0.424-0.018
				c0.283,0,0.551,0.138,0.707,0.372c17.262,22.481,27.162,52.144,25.201,75.533c-0.332,4.047-1.512,6.657-3.596,7.971
				c-0.529,0.325-1.229,0.232-1.648-0.198c-0.248-0.256-0.385-0.595-0.379-0.952l0.012-0.611c-0.42,0.596-0.91,1.148-1.461,1.663
				C585.312,422.586,584.958,422.728,584.591,422.728z M584.066,411.6c0.479,0,0.867,0.388,0.867,0.862l-0.184,8.438
				c1.164-1.169,1.955-2.577,2.352-4.191l0.072-4.871l1.6-0.132c0.332,1.828,0.311,3.577-0.061,5.204v0.003l-0.057,3.822
				c1.33-1.131,2.137-3.28,2.395-6.404c1.906-22.761-7.631-51.6-24.346-73.727c-0.809,0.914-1.617,1.744-2.348,2.493
				c-3.533,3.623-5.307,5.442-1.939,10.845c1.342,2.15,2.811,4.267,4.234,6.317c2.566,3.702,5.223,7.526,7.26,11.721
				c6.934,14.271,7.52,30.681,7.176,44.855c-0.033,1.308,0.203,3.012,0.967,3.875c0.049,0.054,0.096,0.079,0.158,0.079
				c0.002,0,0.211-0.004,0.23-0.205c0.252-2.739,0.504-5.476,0.766-8.205l0.07-0.731L584.066,411.6z"/>
		</g>
		<g>
			<path fill="#FCD2B4" d="M495.399,263.516c-1.41,14.551,6.028,29.602,18.438,37.322c6.053,3.766,14.044,7.12,14.868,14.205
				c0.518,4.479-1.668,10.442,2.285,12.61c3.539,1.942,7.565-2.324,8.083-6.33c0.523-4.007-0.638-8.252,0.826-12.019
				c2.098-5.376,8.43-7.418,13.371-10.399c11.707-7.071,17.086-22.399,14.07-35.745c-3.012-13.344-13.426-24.319-25.918-29.886
				c-11.651-5.195-21.401-4.777-31.288,3.267C501.996,243.162,496.415,253.032,495.399,263.516z"/>
			<path fill="#3D3D3D" d="M532.836,328.943L532.836,328.943c-0.776,0-1.526-0.195-2.233-0.58c-3.19-1.75-2.958-5.429-2.733-8.985
				c0.091-1.444,0.185-2.94,0.036-4.243c-0.644-5.526-6.11-8.701-11.397-11.772c-1.032-0.6-2.1-1.219-3.097-1.84
				c-12.696-7.897-20.256-23.204-18.814-38.085c1.025-10.554,6.503-20.584,15.03-27.521c5.687-4.626,11.467-6.875,17.67-6.875
				c4.448,0,9.177,1.144,14.457,3.497c13.375,5.961,23.482,17.627,26.377,30.445c3.211,14.222-2.861,29.62-14.443,36.612
				c-1.16,0.702-2.41,1.357-3.617,1.992c-4.068,2.137-7.914,4.157-9.418,8.01c-0.834,2.139-0.756,4.466-0.674,6.932
				c0.055,1.605,0.107,3.267-0.105,4.897C539.411,324.983,536.409,328.943,532.836,328.943z M527.297,230.653
				c-5.817,0-11.266,2.13-16.653,6.514c-8.194,6.667-13.458,16.298-14.441,26.427c-1.385,14.285,5.874,28.978,18.062,36.561
				c0.976,0.607,1.986,1.193,3.056,1.814c5.366,3.118,11.451,6.651,12.186,12.98c0.169,1.446,0.069,3.014-0.026,4.531
				c-0.211,3.333-0.394,6.209,1.899,7.467c0.466,0.255,0.957,0.385,1.458,0.385c2.388,0,5.031-2.971,5.438-6.112
				c0.196-1.502,0.143-3.095,0.092-4.638c-0.082-2.519-0.168-5.122,0.784-7.57c1.723-4.415,6.018-6.672,10.17-8.854
				c1.188-0.623,2.414-1.267,3.533-1.944c11.006-6.644,16.766-21.312,13.703-34.877c-2.783-12.333-12.539-23.569-25.461-29.326
				C536.026,231.751,531.513,230.653,527.297,230.653z"/>
		</g>
		<g>
			<path fill="#7BE6FF" d="M571.81,344.897c-3.311,2.616-6.793,5.03-10.406,7.223c-0.563,0.342-1.182,0.573-1.832,0.637
				c-4.822,0.454-4.271-7.567-8.223-9.861c4.646,11.443,9.295,22.89,13.939,34.334c2.186,5.385,4.387,10.823,5.283,16.555
				c0.941,6.053,0.393,12.238-0.623,18.278c-0.16,0.95-0.355,1.942-0.996,2.661c-0.85,0.959-2.248,1.182-3.521,1.348
				c-14.928,1.905-31.088,3.592-44.156-3.813c-1.455-0.822-2.896-1.799-3.723-3.232c-1.17-2.023-0.901-4.521-0.712-6.844
				c1.503-18.576-4.359-37.109-3.445-55.725c0.514-10.419,3.741-21.514,11.569-28.206c0.949-0.814,3.457-0.316,3.729,0.897
				c0.665,2.971,1.726,5.636,4.699,6.18c3.243,0.596,5.1-2.862,5.822-5.667c0.373-1.447,2.352-1.276,3.822-1.018
				C555.898,320.925,567.64,333.366,571.81,344.897z"/>
			<path fill="#3D3D3D" d="M545.406,418.509c-9.914,0-17.937-1.813-24.527-5.548c-1.458-0.822-3.075-1.888-4.023-3.532
				c-1.247-2.156-1.031-4.739-0.842-7.018l0.023-0.294c0.775-9.587-0.453-19.367-1.641-28.826
				c-1.106-8.79-2.248-17.876-1.805-26.872c0.356-7.271,2.371-20.678,11.85-28.78c0.443-0.381,1.106-0.592,1.863-0.592
				c1.363,0,2.892,0.662,3.175,1.927c0.798,3.57,1.974,5.183,4.06,5.563c2.521,0.462,4.203-2.386,4.895-5.075
				c0.212-0.82,0.89-1.797,2.925-1.797c0.518,0,1.096,0.061,1.818,0.187c13.678,2.425,25.354,15.604,29.391,26.773l0.195,0.547
				l-0.453,0.358c-3.309,2.615-6.838,5.063-10.488,7.279c-0.701,0.427-1.432,0.679-2.174,0.751
				c-1.771,0.166-2.914-0.565-3.783-1.684l10.174,25.053c2.168,5.346,4.414,10.875,5.33,16.733
				c1.074,6.899,0.156,13.885-0.625,18.536c-0.182,1.076-0.422,2.198-1.186,3.061c-1.094,1.23-2.857,1.462-4.025,1.611
				C559.04,417.7,552.136,418.509,545.406,418.509z M526.304,318.66c-0.426,0-0.699,0.104-0.813,0.204
				c-9.021,7.71-10.945,20.624-11.289,27.633c-0.438,8.854,0.695,17.872,1.794,26.592c1.198,9.541,2.438,19.405,1.647,29.16
				l-0.024,0.294c-0.178,2.145-0.36,4.359,0.632,6.077c0.756,1.312,2.154,2.223,3.422,2.937c6.342,3.594,14.104,5.341,23.733,5.341
				c6.639,0,13.482-0.803,19.92-1.627c1.229-0.159,2.387-0.36,3.027-1.082c0.479-0.541,0.652-1.377,0.799-2.259
				c1.232-7.317,1.424-12.874,0.623-18.021c-0.887-5.672-3.096-11.113-5.232-16.375l-14.826-36.521l2.039,1.185
				c1.957,1.137,2.914,3.445,3.758,5.481c1.17,2.82,2,4.45,3.982,4.275c0.494-0.048,0.996-0.222,1.488-0.522
				c3.428-2.081,6.742-4.366,9.865-6.805c-4.061-10.623-15.09-22.908-27.953-25.188c-0.627-0.111-1.115-0.162-1.537-0.162
				c-1.213,0-1.324,0.426-1.363,0.585c-0.383,1.488-1.938,6.342-5.879,6.342c-0.284,0-0.576-0.027-0.868-0.081
				c-3.511-0.644-4.671-3.797-5.343-6.798C527.845,319.057,527.147,318.66,526.304,318.66z"/>
		</g>
		
			<ellipse transform="matrix(0.9995 0.0326 -0.0326 0.9995 8.9289 -16.6407)" fill="#3D3D3D" cx="515.086" cy="265.663" rx="0.487" ry="1.75"/>
		
			<ellipse transform="matrix(0.9995 0.033 -0.033 0.9995 9.0829 -17.3177)" fill="#3D3D3D" cx="528.416" cy="266.107" rx="0.488" ry="1.751"/>
		<path fill="#3D3D3D" d="M521.955,284.066c-0.043,0-0.086,0-0.129,0c-1.994-0.043-3.929-1.098-5.049-2.75l1.335-0.903
			c0.831,1.227,2.268,2.008,3.749,2.04c1.489,0.036,2.95-0.684,3.834-1.868l1.293,0.964
			C525.824,283.11,523.904,284.066,521.955,284.066z"/>
		<circle fill="#FF78E6" cx="540.982" cy="272.33" r="2.925"/>
		<circle fill="#FF78E6" cx="504.1" cy="271.091" r="2.926"/>
		<g>
			<path fill="#896E52" d="M525.348,234.796c-0.252,6.205,2.611,12.119,6.041,17.301c8.239,12.434,19.934,22.176,32.104,30.801
				c6.5,4.612,13.521,9.081,21.445,9.991c-8.176-7.388-13.945-17.401-16.246-28.175c-2.027-9.522-1.564-19.979-6.834-28.162
				c-3.248-5.048-8.322-8.599-13.377-11.846c-4.859-3.128-10.419-5.075-15.892-2.243
				C528.173,224.743,525.546,229.962,525.348,234.796z"/>
			<path fill="#3D3D3D" d="M587.347,293.977l-2.5-0.287c-8.295-0.953-15.613-5.729-21.818-10.133
				c-10.324-7.316-23.324-17.452-32.312-31.015c-4.432-6.696-6.395-12.346-6.173-17.778c0.224-5.532,3.31-10.764,7.678-13.018
				c1.875-0.97,3.874-1.462,5.945-1.462c3.323,0,6.838,1.225,10.752,3.744c5.037,3.237,10.238,6.837,13.617,12.088
				c3.775,5.861,4.689,12.89,5.572,19.69c0.377,2.896,0.768,5.892,1.375,8.739c2.266,10.62,7.947,20.474,15.996,27.746
				L587.347,293.977z M538.167,221.897c-1.809,0-3.563,0.432-5.206,1.283c-3.869,1.996-6.604,6.678-6.806,11.649
				c-0.207,5.077,1.669,10.423,5.905,16.823c8.839,13.339,21.691,23.353,31.898,30.589c5.389,3.821,11.625,7.932,18.523,9.423
				c-7.283-7.281-12.424-16.695-14.578-26.781c-0.619-2.911-1.012-5.939-1.393-8.869c-0.9-6.927-1.752-13.469-5.33-19.025
				c-3.205-4.979-8.246-8.463-13.135-11.605C544.402,223.038,541.169,221.897,538.167,221.897z"/>
		</g>
	</g>
</g>
</svg>
