<?xml version="1.0" encoding="utf-8"?>
<!-- Generator: Adobe Illustrator 16.0.0, SVG Export Plug-In . SVG Version: 6.00 Build 0)  -->
<!DOCTYPE svg PUBLIC "-//W3C//DTD SVG 1.1//EN" "http://www.w3.org/Graphics/SVG/1.1/DTD/svg11.dtd">
<svg version="1.1" id="Calque_1" xmlns="http://www.w3.org/2000/svg" xmlns:xlink="http://www.w3.org/1999/xlink" x="0px" y="0px"
	 width="98.667px" height="96.333px" viewBox="0 0 98.667 96.333" enable-background="new 0 0 98.667 96.333" xml:space="preserve">
<path fill="#EE8274" d="M86.925,2.272H11.743c-4.585,0-8.304,3.719-8.304,8.305v75.181c0,4.586,3.719,8.304,8.304,8.304h75.182
	c4.586,0,8.304-3.718,8.304-8.304V10.577C95.228,5.991,91.511,2.272,86.925,2.272z M31.843,81.528c0,1.336-1.082,2.416-2.417,2.416
	H19.141c-1.335,0-2.417-1.08-2.417-2.416V38.413c0-1.334,1.082-2.416,2.417-2.416h10.285c1.335,0,2.417,1.082,2.417,2.416V81.528z
	 M24.284,31.933c-5.397,0-9.771-4.376-9.771-9.772s4.374-9.771,9.771-9.771s9.771,4.376,9.771,9.771
	C34.055,27.557,29.681,31.933,24.284,31.933z M85.595,81.724c0,1.228-0.995,2.221-2.223,2.221H72.335
	c-1.227,0-2.223-0.993-2.223-2.221V61.5c0-3.019,0.887-13.223-7.884-13.223c-6.802,0-8.183,6.984-8.459,10.119v23.326
	c0,1.227-0.994,2.221-2.222,2.221H40.875c-1.227,0-2.222-0.994-2.222-2.221V38.219c0-1.228,0.995-2.222,2.222-2.222H51.55
	c1.227,0,2.221,0.994,2.221,2.222v3.761c2.521-3.785,6.271-6.707,14.252-6.707c17.674,0,17.572,16.513,17.572,25.584V81.724
	L85.595,81.724z"/>
</svg>
