<?xml version="1.0" encoding="utf-8"?>
<!-- Generator: Adobe Illustrator 16.0.0, SVG Export Plug-In . SVG Version: 6.00 Build 0)  -->
<!DOCTYPE svg PUBLIC "-//W3C//DTD SVG 1.1//EN" "http://www.w3.org/Graphics/SVG/1.1/DTD/svg11.dtd">
<svg version="1.1" id="Calque_1" xmlns="http://www.w3.org/2000/svg" xmlns:xlink="http://www.w3.org/1999/xlink" x="0px" y="0px"
	 width="315px" height="315px" viewBox="0 0 315 315" enable-background="new 0 0 315 315" xml:space="preserve">
<g>
	<g>
		<path fill="#3D3D3D" d="M34.922,121.595l23.691,48.519h-2.211l-8.971-18.068H22.097l-8.845,18.068h-1.958L34.922,121.595z
			 M34.732,125.954l-11.814,24.26h23.754L34.732,125.954z"/>
		<path fill="#3D3D3D" d="M85.905,168.282v1.832H62.087l20.848-45.55H62.087v-1.832h24.007l-20.912,45.55H85.905z"/>
		<path fill="#3D3D3D" d="M106.688,170.998h-0.632c-3.875,0-7.15-1.347-9.824-4.043c-2.675-2.695-4.012-6.086-4.012-10.171v-34.052
			h2.085v33.988c0,3.581,1.158,6.55,3.475,8.908c2.315,2.359,5.18,3.538,8.592,3.538s6.264-1.168,8.561-3.506
			c2.295-2.337,3.443-5.316,3.443-8.939v-33.988h2.085v33.925c0,4.128-1.338,7.55-4.012,10.266
			C113.774,169.64,110.521,170.998,106.688,170.998z"/>
		<path fill="#3D3D3D" d="M129.937,122.732h2.716c4.085,0,7.676,1.506,10.771,4.517c3.096,3.012,4.644,6.549,4.644,10.613
			c0,4.065-1.579,7.592-4.738,10.582c-3.159,2.991-6.549,4.485-10.171,4.485h-0.442l16.299,17.184h-2.717l-14.341-15.036v15.036
			h-2.021V122.732z M131.958,151.098h1.137c3.412,0,6.422-1.305,9.034-3.917c2.611-2.611,3.917-5.707,3.917-9.287
			c0-3.58-1.349-6.697-4.043-9.35c-2.696-2.653-5.771-3.98-9.224-3.98h-0.821V151.098z"/>
		<path fill="#3D3D3D" d="M278.019,122.732v47.382h-2.085v-44.918l-22.363,45.802l-22.239-45.802v44.918h-1.895v-47.382h3.032
			l21.291,43.718l21.353-43.718H278.019z"/>
	</g>
	<g>
		<g>
			<rect x="156.233" y="147.21" fill="#00A79D" width="29.667" height="2"/>
			<path fill="#00A79D" stroke="#000000" stroke-width="2" stroke-miterlimit="10" d="M185.9,148.21"/>
			<path fill="#00A79D" stroke="#000000" stroke-width="2" stroke-miterlimit="10" d="M185.9,123.784"/>
			<path fill="#00A79D" stroke="#000000" stroke-width="2" stroke-miterlimit="10" d="M185.9,169.114"/>
			<polygon fill="#00A79D" points="185.9,170.114 155.233,170.114 155.233,122.784 185.9,122.784 185.9,124.784 157.233,124.784 
				157.233,168.114 185.9,168.114 			"/>
			<rect x="184.692" y="133.171" fill="#00A79D" width="2" height="15.999"/>
		</g>
		<g>
			<rect x="192.067" y="143.687" fill="#00A79D" width="29.667" height="2"/>
			<path fill="#00A79D" stroke="#000000" stroke-width="2" stroke-miterlimit="10" d="M192.067,144.687"/>
			<path fill="#00A79D" stroke="#000000" stroke-width="2" stroke-miterlimit="10" d="M192.067,169.114"/>
			<path fill="#00A79D" stroke="#000000" stroke-width="2" stroke-miterlimit="10" d="M192.067,123.784"/>
			<polygon fill="#00A79D" points="222.733,170.114 192.067,170.114 192.067,168.114 220.733,168.114 220.733,124.784 
				192.067,124.784 192.067,122.784 222.733,122.784 			"/>
			<rect x="191.275" y="143.768" fill="#00A79D" width="2" height="15.959"/>
		</g>
	</g>
</g>
<g>
	<rect x="8.916" y="213.958" width="300.771" height="94"/>
	<g>
		<g>
			<path fill="#CECECE" d="M49.641,238.199l23.691,48.519h-2.211L62.15,268.65H36.816l-8.845,18.068h-1.958L49.641,238.199z
				 M49.451,242.558l-11.813,24.26h23.755L49.451,242.558z"/>
			<path fill="#CECECE" d="M100.624,284.886v1.832H76.807l20.848-45.55H76.807v-1.832h24.007l-20.911,45.55H100.624z"/>
			<path fill="#CECECE" d="M121.408,287.603h-0.633c-3.875,0-7.149-1.348-9.823-4.043c-2.675-2.695-4.012-6.086-4.012-10.172
				v-34.052h2.085v33.988c0,3.581,1.158,6.55,3.475,8.908c2.315,2.358,5.18,3.538,8.592,3.538s6.264-1.169,8.561-3.507
				c2.295-2.337,3.443-5.316,3.443-8.939v-33.988h2.084v33.925c0,4.129-1.338,7.551-4.012,10.267
				C128.493,286.245,125.24,287.603,121.408,287.603z"/>
			<path fill="#CECECE" d="M144.656,239.336h2.716c4.085,0,7.677,1.506,10.771,4.517c3.096,3.012,4.645,6.549,4.645,10.613
				c0,4.065-1.58,7.593-4.738,10.582c-3.158,2.992-6.549,4.486-10.172,4.486h-0.441l16.299,17.184h-2.717l-14.34-15.036v15.036
				h-2.021V239.336z M146.678,267.703h1.137c3.412,0,6.422-1.305,9.033-3.918c2.611-2.61,3.918-5.706,3.918-9.286
				c0-3.579-1.35-6.697-4.043-9.35c-2.696-2.653-5.771-3.98-9.225-3.98h-0.82V267.703z"/>
			<path fill="#CECECE" d="M292.738,239.336v47.382h-2.086V241.8l-22.363,45.803L246.051,241.8v44.918h-1.895v-47.382h3.031
				l21.291,43.718l21.354-43.718H292.738z"/>
		</g>
		<g>
			<g>
				<rect x="170.953" y="263.814" fill="#CECECE" width="29.666" height="2"/>
				<path fill="#CECECE" stroke="#000000" stroke-width="2" stroke-miterlimit="10" d="M200.619,264.814"/>
				<path fill="#CECECE" stroke="#000000" stroke-width="2" stroke-miterlimit="10" d="M200.619,240.389"/>
				<path fill="#CECECE" stroke="#000000" stroke-width="2" stroke-miterlimit="10" d="M200.619,285.718"/>
				<polygon fill="#CECECE" points="200.619,286.718 169.953,286.718 169.953,239.389 200.619,239.389 200.619,241.389 
					171.953,241.389 171.953,284.718 200.619,284.718 				"/>
				<rect x="199.41" y="249.776" fill="#CECECE" width="2" height="15.999"/>
			</g>
			<g>
				<rect x="206.785" y="260.292" fill="#CECECE" width="29.668" height="2"/>
				<path fill="#CECECE" stroke="#000000" stroke-width="2" stroke-miterlimit="10" d="M206.785,261.292"/>
				<path fill="#CECECE" stroke="#000000" stroke-width="2" stroke-miterlimit="10" d="M206.785,285.718"/>
				<path fill="#CECECE" stroke="#000000" stroke-width="2" stroke-miterlimit="10" d="M206.785,240.389"/>
				<polygon fill="#CECECE" points="237.453,286.718 206.785,286.718 206.785,284.718 235.453,284.718 235.453,241.389 
					206.785,241.389 206.785,239.389 237.453,239.389 				"/>
				<rect x="205.994" y="260.373" fill="#CECECE" width="2" height="15.959"/>
			</g>
		</g>
	</g>
</g>
<rect x="19.6" y="12.667" fill="#CECECE" width="76.667" height="76.667"/>
<rect x="106.303" y="12.667" fill="#00A79D" width="76.667" height="76.667"/>
<rect x="193.046" y="12.667" fill="#3D3D3D" width="76.667" height="76.667"/>
</svg>
