<?xml version="1.0" encoding="utf-8"?>
<!-- Generator: Adobe Illustrator 16.0.0, SVG Export Plug-In . SVG Version: 6.00 Build 0)  -->
<!DOCTYPE svg PUBLIC "-//W3C//DTD SVG 1.1//EN" "http://www.w3.org/Graphics/SVG/1.1/DTD/svg11.dtd">
<svg version="1.1" id="Calque_1" xmlns="http://www.w3.org/2000/svg" xmlns:xlink="http://www.w3.org/1999/xlink" x="0px" y="0px"
	 width="98.667px" height="96.333px" viewBox="0 0 98.667 96.333" enable-background="new 0 0 98.667 96.333" xml:space="preserve">
<path fill="#EE8274" d="M49.332,0.654c-26.239,0-47.511,21.271-47.511,47.513c0,26.24,21.271,47.512,47.511,47.512
	c26.24,0,47.514-21.272,47.514-47.512C96.845,21.926,75.572,0.654,49.332,0.654z M37.692,81.361
	c-0.396,0.537-1.014,0.841-1.656,0.841c-0.213,0-0.43-0.033-0.641-0.103c-0.844-0.279-1.415-1.065-1.415-1.955V67.433l11.147,3.81
	L37.692,81.361z M75.755,21.521l-7.537,50.705c-0.09,0.601-0.442,1.135-0.965,1.453c-0.326,0.196-0.695,0.299-1.068,0.299
	c-0.225,0-0.448-0.038-0.662-0.108L36.79,64.047l28.252-34.039l-36.51,31.219l-17.145-5.86c-0.775-0.265-1.32-0.967-1.384-1.789
	c-0.061-0.82,0.37-1.598,1.099-1.979l61.669-32.204c0.686-0.36,1.514-0.299,2.145,0.147C75.544,19.991,75.869,20.754,75.755,21.521z
	"/>
</svg>
