<?xml version="1.0" encoding="utf-8"?>
<!-- Generator: Adobe Illustrator 16.0.0, SVG Export Plug-In . SVG Version: 6.00 Build 0)  -->
<!DOCTYPE svg PUBLIC "-//W3C//DTD SVG 1.1//EN" "http://www.w3.org/Graphics/SVG/1.1/DTD/svg11.dtd">
<svg version="1.1" id="Calque_1" xmlns="http://www.w3.org/2000/svg" xmlns:xlink="http://www.w3.org/1999/xlink" x="0px" y="0px"
	 width="295px" height="357px" viewBox="0 0 295 357" enable-background="new 0 0 295 357" xml:space="preserve">
<g>
	<path fill-rule="evenodd" clip-rule="evenodd" fill="#F8AC85" d="M274.12,101.91c1.838-0.603,1.871-2.214,1.935-3.694
		c1.159-27.577,0.417-55.107-2.231-82.583c-0.103-1.068-0.789-2.082-1.203-3.12c-1.794-0.143-1.836,1.295-2.213,2.438
		c-0.014,3.96-0.814,7.858-1.008,11.807c0,1.189,0.004,2.379,0.09,3.567c0.034,1.16,0.063,2.324,0.121,3.485
		c0.006,0.863,0.027,1.728,0.065,2.59c0.033,1.152,0.061,2.307,0.085,3.46c-0.009,1.173,0.02,2.343,0.053,3.515
		c0.071,1.798,0.101,3.593,0.125,5.393c-0.001,0.92,0.023,1.84,0.043,2.759c0.023,2.794,0.227,5.583,0.193,8.375
		c0.087,2.436,0.213,4.871,0.242,7.305c-0.006,0.583,0.021,1.17,0.053,1.752c0.076,1.681,0.18,3.364,0.249,5.047
		c0.015,0.796,0.073,1.593,0.126,2.387c0,0.515,0.035,1.03,0.07,1.544c0,0.508,0.037,1.019,0.068,1.528
		c0.015,0.765,0.047,1.527,0.063,2.296c-0.023,0.521-0.011,1.041,0.001,1.561c-0.014,0.809-0.005,1.609,0.004,2.419
		c-0.018,0.849,0.017,1.692,0.1,2.539c1.068,4.015,0.882,8.214,1.82,12.246C273.265,101.06,273.65,101.52,274.12,101.91z"/>
	<g>
		<path fill-rule="evenodd" clip-rule="evenodd" fill="#F09F6C" d="M58.154,344.359c13.591-0.391,27.182-0.783,40.772-1.175
			c0.343-2.737-1.611-4.212-3.432-5.404c-8.857-5.813-12.487-14.764-15.12-24.401c-4.129-15.134-4.396-30.439-2.797-45.96
			c2.24-21.722,7.686-42.572,15.862-62.754c1.078-1.523,1-3.433,1.681-5.094c0.716-2.37,1.688-4.613,3.229-6.583
			c8.312-18.732,18.697-36.249,30.864-52.721c0.903-1.223,1.754-2.482,0.974-4.115c-0.415-0.379-0.907-0.532-1.465-0.494
			c-6.104,3.854-9.489,10.279-13.267,15.874c-5.445,8.064-10.876,16.298-15.209,25.115c-14.588,26.523-24.004,55-31.754,84.107
			c-0.709,2.663-0.965,5.593-3.782,7.678c-2.479-3.289-2.513-9.66-9.136-7.662c-3.176,1.658-3.932,4.89-5.125,7.847
			c0.954,16.85,2.06,33.69,3.727,50.482c0.428,4.307,0.468,8.619,0.823,12.919C55.354,336.291,55.365,340.691,58.154,344.359z"/>
		<path fill-rule="evenodd" clip-rule="evenodd" fill="#ED9C6B" d="M93.022,202.809c-5.198,9.652-7.654,20.237-10.69,30.656
			c-5.335,18.298-7.673,37.061-7.214,55.946c0.312,12.832,2.552,25.699,8.672,37.468c2.497,4.796,5.619,8.776,10.334,11.598
			c1.871,1.117,3.216,3.111,4.802,4.708c4.287-0.115,8.649,0.599,12.788-1.157c-8.602-1.033-10.812-7.948-13.366-14.549
			c-9.683-12.113-14.557-25.966-15.208-41.413c-0.3-7.11,0.206-14.267-1.047-21.331c-0.814-2.102-1.063-4.022-0.462-6.447
			c1.893-7.628,2.279-15.532,3.878-23.259c1.794-8.68,4.255-17.078,7.424-25.324C93.769,207.528,95.02,205.127,93.022,202.809z"/>
		<path fill-rule="evenodd" clip-rule="evenodd" fill="#EB9C6C" d="M58.154,344.359c-2.124-22.836-4.481-45.657-5.286-68.6
			c-0.098-2.78-1.62-5.424-1.274-8.322c-0.073-2.234-0.239-4.404-3.208-4.646c-0.911,0.541-1.298,1.418-1.548,2.389
			c-1.46,13.462-1.714,26.896,0.503,40.323c0.549,3.335-1.05,6.651-0.662,10.041c-0.13,7.59,0.704,15.123,1.515,22.652
			c0.259,2.412,0.967,4.784,3.155,6.325C53.617,344.469,55.886,344.414,58.154,344.359z"/>
		<path fill-rule="evenodd" clip-rule="evenodd" fill="#E5996B" d="M51.349,344.522c-3.126-9.176-2.383-18.767-3.017-28.21
			c-0.36-10.888-6.233-21.048-4.242-32.253c0.163-0.912-0.164-1.846-0.571-2.711c-0.821-1.218-1.902-1.866-3.419-1.559
			c-3.143,2.256-1.688,5.608-2.048,8.528c-0.06,16.23,1.977,32.296,3.935,48.362c0.363,2.971,0.966,6.01,3.687,7.976
			C47.566,344.611,49.457,344.567,51.349,344.522z"/>
		<path fill-rule="evenodd" clip-rule="evenodd" fill="#FCCE95" d="M278.729,15.259c0.311-0.729,0.623-1.456,0.935-2.185
			c-2.097-2.036-4.663-0.981-6.933-0.798c-26.59,2.154-52.275,8.143-76.646,19.099c-8.869,3.984-17.988,7.656-25.716,13.828
			c2.381,1.833,4.303,0.022,6.186-0.942c5.187-2.662,10.282-5.504,15.754-7.572c8.604-3.751,17.12-7.729,26.312-9.947
			c13.279-4.472,27.045-6.419,40.857-8.288C265.91,17.583,272.635,18.232,278.729,15.259z"/>
		<path fill-rule="evenodd" clip-rule="evenodd" fill="#C17D56" d="M132.515,225.712c1.803-4.085,4.615-7.746,5.153-12.357
			c0.351-0.799,0.436-1.617,0.187-2.463c-2.988-0.798-3.251,1.891-4.138,3.461c-3.406,6.026-5.846,12.552-9.675,19.371
			c-1.358-3.626-0.315-6.462,0.061-9.272c1.001-7.486,4.282-14.418,5.351-21.9c-0.101-1.253-0.382-2.417-1.539-3.152
			c-2.304,0.479-2.607,2.545-3.168,4.24c-4.787,14.462-8.035,29.216-8.663,44.507c-0.191,4.62,1.818,5.686,5.813,4.704
			c0.576-0.262,0.979-0.696,1.198-1.289c1.966-6.523,4.621-12.828,6.412-19.412C130.424,229.965,131.16,227.694,132.515,225.712z"/>
		<path fill-rule="evenodd" clip-rule="evenodd" fill="#ED9969" d="M97.447,328.646c0.42,1.223,0.89,2.431,1.256,3.671
			c2.164,7.346,5.168,9.599,13.01,9.71c2.083-0.564,1.597-2.29,1.593-3.704c-0.026-7.142-0.111-14.283-0.176-21.426
			c-3.924,0.881-1.822,4.491-3.018,6.606c-0.503,1.197-0.459,3.351-2.689,1.475c-2.064-0.878-4.143-0.82-6.24-0.162
			C99.005,325.183,97.84,326.54,97.447,328.646z"/>
		<path fill-rule="evenodd" clip-rule="evenodd" fill="#FBC18B" d="M191.907,35.691c-5.811,1.274-10.607,4.747-15.838,7.277
			c-1.838,0.892-3.453,2.373-5.697,2.235c-12.596,6.738-24.168,14.899-34.526,24.76c2.076,1.626,3.494,0.011,4.921-1.086
			c3.577-2.752,7.481-4.994,11.293-7.376c4.401-2.083,8.464-4.872,13.195-6.26c4.999-5.014,11.639-6.837,17.984-9.23
			c2.187-1.108,4.712-1.678,6.229-3.865c0.771-2.354,4.375-3.232,3.391-6.491c-0.026-0.086-0.281-0.15-0.423-0.141
			C192.257,35.528,192.084,35.628,191.907,35.691z"/>
		<path fill-rule="evenodd" clip-rule="evenodd" fill="#D89369" d="M36.593,344.809c1.511-0.027,3.026-0.053,4.539-0.081
			c2.659-5.104,0.314-10.318-0.159-15.316c-1.042-10.979-2.702-21.902-2.847-32.965c-0.033-2.421,0.096-4.91-1.453-7.039
			c-1.318-1.03-2.665-1.006-4.038-0.114c-2.539,4.439-0.64,9.199-1,13.798c-0.243,12.659,1.94,25.106,3.318,37.623
			C35.123,342.242,35.399,343.702,36.593,344.809z"/>
		<path fill-rule="evenodd" clip-rule="evenodd" fill="#DF966A" d="M36.281,289.396c-0.246,18.605,2.88,36.919,4.851,55.331
			c1.514-0.023,3.028-0.048,4.542-0.071c-2.478-8.184-3.313-16.636-4.056-25.097c-0.916-10.445-2.149-20.87-1.965-31.385
			c-1.18-1.346-1.042-3.071-1.417-4.662c-0.322-1.369-0.75-3.054-2.791-1.526C34.327,284.614,34.373,287.111,36.281,289.396z"/>
		<path fill-rule="evenodd" clip-rule="evenodd" fill="#E5A277" d="M49.506,193.66c-3.049,6.28-5.466,12.784-7.105,19.576
			c0.271,0.713,0.466,1.46,0.992,2.048c1.036,1.042,1.701,2.176,1.704,3.765c0.003,1.661,0.43,3.258,2.608,3.368
			c3.202-3.647,4.617-8.131,5.968-12.648c0.682-6.023,3.284-11.79,2.403-18.027c-0.222-1.579,0.368-3.441-1.708-4.263
			C50.7,187.927,51.913,192.215,49.506,193.66z"/>
		<path fill-rule="evenodd" clip-rule="evenodd" fill="#DD8E60" d="M114.012,304.459c0.904-6.851,1.811-13.701,2.716-20.554
			c-0.502-0.328-0.996-0.335-1.482,0.03c-0.998,1.375-1.125,3.05-1.588,4.608c-0.663,2.461-0.253,5.193-2.056,7.786
			c-1.906-1.817-1.996-4.38-3.194-6.313c-1.002-1.625-1.246-4.136-4.138-3.638c-4.022,3.88-1.973,8.774-2.251,13.284
			c0.061,0.949,0.254,1.875,0.537,2.78c0.835,2.293,1.679,4.588,3.025,6.643c1.17,1.778,2.535,3.415,4.979,2.883
			c2.316-0.508,2.448-2.555,2.738-4.408C113.465,306.507,112.882,305.287,114.012,304.459z"/>
		<path fill-rule="evenodd" clip-rule="evenodd" fill="#FABA89" d="M151.711,60.571c-6.093,1.773-9.971,7.282-15.863,9.395
			c-11.217,7.861-19.833,18.426-29.167,28.229c-2.3,2.418-5.149,4.507-6.245,7.916c1.842,0.978,2.969-0.537,4.335-1.228
			c4.544-3.566,8.061-8.191,12.373-11.999c4.904-6.471,11.36-11.268,17.588-16.312c5.377-3.437,9.642-8.261,14.89-11.867
			C150.955,63.793,152.399,62.645,151.711,60.571z"/>
		<path fill-rule="evenodd" clip-rule="evenodd" fill="#B17959" d="M156.325,179.751c16.525-24.137,36.708-44.457,62.018-59.425
			c-0.416-0.753-1.112-0.927-1.896-0.931c-0.498,0.06-0.975,0.2-1.434,0.398c-1.307,0.663-2.609,1.339-3.922,1.994
			c-0.867,0.449-1.725,0.925-2.55,1.452c-1.571,1.207-3.263,2.223-5.026,3.132c-0.451,0.26-0.865,0.565-1.269,0.896
			c-9.218,7.065-18.391,14.182-26.246,22.813c-6.78,6.975-13.151,14.3-18.909,22.146c-1.214,1.655-2.535,3.255-3.018,5.334
			c-0.102,0.879,0.068,1.679,0.682,2.35C155.315,180.208,155.836,180.154,156.325,179.751z"/>
		<path fill-rule="evenodd" clip-rule="evenodd" fill="#C58C69" d="M26.142,287.38c-0.044,0.697-0.088,1.394-0.13,2.093
			c-1.357,16.535-2.576,33.081-2.02,49.694c0.093,2.771-0.279,6.072,4.272,5.366c2.907-1.381,2.811-4.074,3-6.701
			c0.407-5.65-1.655-11.048-1.601-16.657c-0.315-9.021-0.297-18.052-0.761-27.069c-0.104-2.056,0.06-4.157-0.949-6.073
			C27.534,287.305,26.928,287.088,26.142,287.38z"/>
		<path fill-rule="evenodd" clip-rule="evenodd" fill="#F2AD7F" d="M78.872,136.215c-6.553,8.991-12.239,18.479-16.523,28.773
			c2.443,0.818,3.096-1.283,4.109-2.627c1.411-1.871,2.406-4.071,4.446-5.427c2.516-1.929,4.632-4.263,6.744-6.606
			c1.181-1.495,1.964-3.205,2.669-4.959c1.693-5.348,5.497-9.974,5.477-15.909C81.001,129.16,81.525,134.317,78.872,136.215z"/>
		<path fill-rule="evenodd" clip-rule="evenodd" fill="#E49263" d="M114.012,304.459c-2.43,1.569-0.384,6.669-4.105,6.458
			c-3.689-0.209-3.92-4.482-5.288-7.252c-0.239-0.481-0.695-0.855-1.052-1.278c-3.359,0.746-2.195,3.442-2.408,5.551
			c0.953,4.212,2.149,8.37,3.476,12.472c0.917,2.832,2.267,5.756,6.324,4.481c2.56-2.166-0.547-5.87,2.171-7.993
			C114.38,312.819,113.989,308.624,114.012,304.459z"/>
		<path fill-rule="evenodd" clip-rule="evenodd" fill="#D39770" d="M26.142,287.38c0.335,0.001,0.67-0.002,1.005-0.012
			c2.179-2.392,1.642-5.764,3.067-8.425c0.897-2.049,2.385-3.781,3.175-5.894c1.005-4.519,0.818-9.305,3.1-13.534
			c0.687-4.266,2.487-8.497,0.391-12.844c-3.61-1.495-3.548,1.922-4.103,3.547c-0.822,2.409-1.005,5.059-1.95,7.486
			C28.306,267.445,26.626,277.318,26.142,287.38z"/>
		<path fill-rule="evenodd" clip-rule="evenodd" fill="#D39067" d="M36.593,344.809c-0.277-13.975-3.898-27.679-3.359-41.717
			c-0.84-0.656-1.688-0.595-2.546-0.037c-2.232,5.253-1.322,10.763-1.325,16.202c1.134,8.556,1.585,17.214,3.875,25.59
			C34.356,344.834,35.473,344.821,36.593,344.809z"/>
		<path fill-rule="evenodd" clip-rule="evenodd" fill="#ECA97E" d="M70.232,155.749c-3.97,1.935-4.044,7.192-7.883,9.239
			c-5.206,9.143-9.577,18.659-12.842,28.672c2.869-0.832,2.433-4.289,4.547-5.719c2.995-2.696,4.02-6.582,5.749-9.985
			c1.468-2.887,3.114-5.37,5.798-7.156C68.338,166.149,72.514,161.938,70.232,155.749z"/>
		<path fill-rule="evenodd" clip-rule="evenodd" fill="#BC8C6D" d="M28.66,344.021c-2.802,0.354-3.47-1.149-3.558-3.65
			c-0.508-13.994-0.473-27.965,1-41.918c0.312-2.957-0.042-5.983-0.09-8.979c-1.975,7.112-1.823,14.484-2.38,21.743
			c-0.646,8.426-0.682,16.908-0.703,25.368c-0.024,8.865,0.122,8.865,9.058,8.27C31.371,342.61,30.038,343.225,28.66,344.021z"/>
		<path fill-rule="evenodd" clip-rule="evenodd" fill="#AB6F4B" d="M215.684,120.161c0.886,0.055,1.771,0.109,2.658,0.164
			c16.506-8.911,34.113-14.485,52.603-17.385c-2.464-2.342-5.456-1.272-8.278-1.301c-0.613,0.056-1.219,0.183-1.809,0.346
			c-2.207,0.946-4.617,0.817-6.925,1.245c-1.968,0.484-3.925,1.022-5.891,1.528c-9.735,2.67-19.226,5.995-28.063,10.941
			C218.163,116.716,215.614,117.239,215.684,120.161z"/>
		<path fill-rule="evenodd" clip-rule="evenodd" fill="#CD8D65" d="M28.66,344.021c1.166,0.056,2.417-0.241,3.327,0.834
			c0.417-0.002,0.834-0.004,1.25-0.008c2.368-3.105,0.204-6.218-0.438-9.058c-1.255-5.543-0.186-11.405-2.55-16.734
			c-1.316,0.223-1.465,1.554-2.207,2.326c-0.128,5.61,2.088,10.981,1.619,16.649C29.492,340.076,29.719,342.14,28.66,344.021z"/>
		<path fill-rule="evenodd" clip-rule="evenodd" fill="#F7B488" d="M78.872,136.215c3.166-1.395,3.336-5.61,6.551-6.961
			c5.411-4.312,8.435-10.59,12.941-15.647c1.83-3.306,7.093-4.628,5.69-9.804c-1.205,0.77-2.409,1.539-3.615,2.308
			C92.019,115.265,84.594,125.131,78.872,136.215z"/>
		<path fill-rule="evenodd" clip-rule="evenodd" fill="#B67C5C" d="M156.325,179.751c-0.5-0.039-1.001-0.078-1.501-0.116
			c-4.441,2.104-5.724,6.809-8.265,10.4c-2.694,3.813-4.93,8.008-6.927,12.279c-0.501,2.854-3.147,5.166-2.156,8.406
			c0.065,0.875,0.129,1.754,0.192,2.633C143.636,202.013,149.535,190.636,156.325,179.751z"/>
		<path fill-rule="evenodd" clip-rule="evenodd" fill="#D89C75" d="M30.828,257.705c3.225-3.138,0.944-8.905,5.46-11.428
			c1.511,0.414,2.375-0.424,3.079-1.582c1.39-4.211,2.444-8.442,0.576-12.806c-4.099-1.245-2.437,3.025-4.015,4.202
			C34.944,243.465,30.683,250.065,30.828,257.705z"/>
		<path fill-rule="evenodd" clip-rule="evenodd" fill="#DBA079" d="M35.928,236.092c1.126-1.549,2.253-3.098,3.376-4.646
			c5.348-4.752,5.103-10.843,4.099-17.115c-0.334-0.366-0.669-0.729-1.003-1.094C39.639,220.683,36.854,228.124,35.928,236.092z"/>
		<path fill-rule="evenodd" clip-rule="evenodd" fill="#CA845A" d="M128.95,231.376c-2.102,6.484-4.201,12.97-6.302,19.453
			c0.435,0.605,0.907,0.639,1.42,0.101c2.107-6.492,4.213-12.986,6.318-19.481C129.936,230.882,129.456,230.857,128.95,231.376z"/>
		<path fill-rule="evenodd" clip-rule="evenodd" fill="#D2875D" d="M124.068,250.93c-0.473-0.034-0.947-0.066-1.42-0.101
			c0.006,0.376,0.008,0.752,0.011,1.126c-2.821,2.742-3.018,6.618-4.338,10.011c-0.436,1.968-1.367,3.93-0.12,5.931
			c0.496,0.457,1.02,0.485,1.563,0.082C121.199,262.295,122.634,256.613,124.068,250.93z"/>
		<path fill-rule="evenodd" clip-rule="evenodd" fill="#D78A5E" d="M119.764,267.979c-0.403-0.008-0.806-0.017-1.211-0.021
			c-1.253,0.985-1.621,2.45-2.087,3.862c-0.218,4.035-3.337,7.866-0.898,12.099c0.387-0.004,0.774-0.008,1.161-0.013
			C117.741,278.597,118.752,273.287,119.764,267.979z"/>
		<path fill-rule="evenodd" clip-rule="evenodd" fill="#A46B49" d="M261.76,103.069c3.063-0.043,6.123-0.086,9.187-0.129
			c3.4-0.155,6.806-0.313,10.21-0.469c-0.006-0.353-0.074-0.696-0.207-1.022c-5.855-2.893-11.831-1.601-17.783-0.459
			C262.203,101.177,261.659,101.988,261.76,103.069z"/>
		<path fill-rule="evenodd" clip-rule="evenodd" fill="#C68158" d="M128.95,231.376c0.478,0.023,0.957,0.049,1.436,0.072
			c1.274-1.702,1.775-3.691,2.128-5.736C130.214,226.9,130.144,229.491,128.95,231.376z"/>
		<path fill-rule="evenodd" clip-rule="evenodd" fill="#F1A06D" d="M55.981,261.647c3.897-0.631,5.381,1.408,5.944,4.965
			c0.271,1.716,0.713,4.178,2.974,4.168c1.785-0.008,2.573-2.123,3.053-3.714c1.683-5.551,3.138-11.173,4.788-16.737
			c7.432-25.053,15.897-49.704,28.518-72.726c0.167-0.306,0.106-0.738,0.152-1.111c-2.748-0.577-3.755,1.823-5.401,3.142
			c-7.385,10.936-12.963,22.88-18.688,34.687c-4.741,9.774-10.383,18.679-18.377,26.055c-2.091,4.614-3.161,9.542-4.265,14.435
			C54.152,257.157,54.028,259.663,55.981,261.647z"/>
		<path fill-rule="evenodd" clip-rule="evenodd" fill="#ED9D6B" d="M93.022,202.809c-1.062,9.003-6.145,16.768-7.717,25.679
			c-1.613,9.153-3.731,18.228-4.45,27.509c-0.213,2.761-4.104,5.713,0.159,8.402c2.603-1.154,2.316-3.634,2.61-5.801
			c4.022-29.545,13.377-57.352,27.249-83.68c11.053-21.344,25.247-40.37,42.203-57.389c2.009-2.016,4.971-3.651,4.672-7.255
			c-0.639-0.602-1.412-0.798-2.264-0.762c-6.884,2.924-11.02,9.014-16.121,13.999c-0.561,0.568-1.082,1.169-1.575,1.798
			c-1.997,4.055-6.335,6.378-7.934,10.725c-4.917,7.656-9.658,15.432-14.79,22.94c-7.192,10.519-12.615,21.937-17.775,33.512
			c-0.909,2.373-1.619,4.842-3.223,6.892C93.718,200.523,93.371,201.665,93.022,202.809z"/>
		<path fill-rule="evenodd" clip-rule="evenodd" fill="#EEA170" d="M55.981,261.647c-1.13-7.67,3.051-14.367,3.971-21.662
			c2.309-3.556,1.755-7.223,0.442-10.924c-2.362-2.269-5.33-2.661-8.415-2.693c-3.079,3.656-2.198,8.24-2.536,12.397
			c-0.413,5.054-0.578,10.086-1.646,15.09c-0.654,3.059-1.05,6.385,1.409,9.104c0.797,1.493,1.593,2.985,2.388,4.479
			C54.429,266.549,53.144,262.535,55.981,261.647z"/>
		<path fill-rule="evenodd" clip-rule="evenodd" fill="#F2A06E" d="M138.66,125.593c0.368-0.389,0.736-0.776,1.104-1.163
			c0.734-1.001,0.933-2.055,0.313-3.188c-2.315-1.337-3.54,0.583-4.693,1.839c-14.659,15.975-27.242,33.479-38.077,52.245
			c-0.824,1.425-1.718,3.02-0.343,4.687c1.482-1.173,2.963-2.346,4.446-3.521c8.631-13.796,16.982-27.779,27.311-40.429
			C132.786,133.288,134.784,128.548,138.66,125.593z"/>
		<path fill-rule="evenodd" clip-rule="evenodd" fill="#F1A06D" d="M138.66,125.593c-5.375,1.534-6.744,6.867-9.939,10.471
			c0.377-0.01,0.756-0.021,1.134-0.029C133.475,133.132,136.861,130.03,138.66,125.593z"/>
		<path fill-rule="evenodd" clip-rule="evenodd" fill="#ED9C6B" d="M94.067,199.378c2.589-1.588,3.264-4.074,3.223-6.892
			C95.456,194.427,94.48,196.772,94.067,199.378z"/>
		<path fill-rule="evenodd" clip-rule="evenodd" fill="#EA9A69" d="M110.423,173.987c-5.175,5.734-7.37,13.091-10.265,19.941
			c-7.479,17.705-13.444,35.936-16.473,55.012c-0.82,5.162-1.777,10.305-2.67,15.458c0.841,11.057-0.889,22.32,1.956,33.188
			c2.923,11.175,5.744,22.532,14.477,31.06c1.248-1.254,2.341-2.799,4.476-2.39c0.186-0.789-0.04-1.478-0.536-2.09
			c-14.293-17.704-15.939-38.708-14.876-60.064c1.446-29.066,10.117-56.283,22.966-82.264
			C110.667,179.435,112.684,176.905,110.423,173.987z"/>
		<path fill-rule="evenodd" clip-rule="evenodd" fill="#EAA072" d="M49.206,262.959c0.658-12.187,1.619-24.345,3.588-36.403
			c3.861-5.237,3.572-11.227,3.115-17.249c-1.248-0.829-2.432-0.696-3.562,0.238c-1.065,4.51-3.503,8.439-5.342,12.623
			c-0.486,0.423-0.83,0.944-1.039,1.554c0.766,12.355-3.232,24.51-1.609,36.913c0.565,1.894,1.043,3.892,3.746,3.49
			C48.472,263.737,48.838,263.348,49.206,262.959z"/>
		<path fill-rule="evenodd" clip-rule="evenodd" fill="#E79B6D" d="M48.103,264.125c-1.521-0.596-2.312-1.708-2.358-3.345
			c-0.383,0.008-0.99-0.027-1.05,0.161c-2.211,6.631-4.976,13.229-1.816,20.339c-2.791,12.396,2.266,23.57,5.455,35.032
			C48.818,298.914,46.198,281.53,48.103,264.125z"/>
		<path fill-rule="evenodd" clip-rule="evenodd" fill="#CF885D" d="M279.084,75.375c-0.049-1.877-0.099-3.755-0.148-5.632
			c-7.102-1.776-14.193-0.54-21.102,0.754c-43.82,8.211-78.902,30.901-106.389,65.563c-26.792,33.784-41.302,72.51-45.128,115.35
			c-0.5,5.587-1.918,11.196,0.522,16.69c2.146,0.681,2.033-0.564,1.894-1.358c0.985,3.257,0.985,3.257,3.82,2.651
			c1.342-10.07,0.602-20.296,2.139-30.343c5.724-37.451,19.692-71.337,43.42-101.107c11.022-13.826,23.714-25.729,38.282-35.674
			c10.045-6.248,20.422-11.89,31.33-16.45c14.31-5.979,29.295-9.373,44.705-10.998C274.719,74.578,276.825,75.729,279.084,75.375z"
			/>
		<path fill-rule="evenodd" clip-rule="evenodd" fill="#F8A571" d="M278.76,60.669c-0.072-3.028-0.143-6.057-0.213-9.085
			c-5.229-2.724-10.826-1.388-16.088-0.803c-30.486,3.39-58.59,13.645-84.563,29.999c-30.153,18.986-54.473,44.012-75.75,72.255
			c-11.923,15.823-22.709,32.432-33.512,49.029c-1.345,2.065-3.268,3.663-4.598,5.741c-0.966,1.854-1.776,3.731-0.699,5.83
			c6.817,1.808,9.902-3.428,13.01-7.55c4.981-6.615,9.324-13.718,13.562-20.855c12.831-21.622,26.908-42.364,44.244-60.672
			c15.835-16.726,33.051-31.883,53.195-43.307c10.633-6.035,21.313-12.124,33.514-14.653c15.668-6.011,32.068-8.721,48.607-10.754
			c2.16-0.268,4.555-0.753,6.197,1.468c0.362,0.769,0.619,1.58,1.031,2.326C277.186,60.374,277.752,60.967,278.76,60.669z"/>
		<path fill-rule="evenodd" clip-rule="evenodd" fill="#D68C60" d="M107.218,268.25c-0.409-28.614,5.815-55.881,16.615-82.236
			c10.559-25.771,25.684-48.469,45.685-67.855c12.069-11.695,25.535-21.258,40.484-29.235c15.109-8.067,30.727-13.836,47.438-16.805
			c7.082-1.259,14.328-1.613,21.498-2.377c0.004-0.381,0.012-0.762,0.016-1.142c-0.49-0.751-0.908-1.571-1.802-1.951
			c-5.341-1.378-10.552,0.456-15.677,1.174c-32.261,4.521-60.541,17.98-85.487,38.838c-24.235,20.267-42.211,45.143-55.084,73.81
			c-11.814,26.307-18.682,53.758-18.824,82.777c-0.034,6.583-1.433,13.207,3.287,18.885c3.228-0.986,2.487-4.079,3.375-6.315
			C108.867,273.168,109.342,270.441,107.218,268.25z"/>
		<path fill-rule="evenodd" clip-rule="evenodd" fill="#F9A774" d="M64.793,208.085c6.184-3.736,7.979-10.781,11.832-16.217
			c13.022-18.362,24.964-37.552,39.668-54.622c11.284-13.099,23.243-25.681,36.71-36.701c20.553-16.818,42.898-30.419,68.141-39.056
			c18.619-6.366,37.664-10.099,57.402-9.905c-0.02-0.755-0.039-1.51-0.059-2.269c-0.453-0.383-0.955-0.683-1.508-0.9
			c-26.96-0.756-52.248,6.395-76.387,17.458c-28.003,12.835-52.808,30.46-73.802,53.192c-19.536,19.277-35.377,41.604-51.917,63.341
			c-2.726,3.578-5.4,7.212-8.208,10.745c-1.99,3.645-2.739,7.629-3.221,11.691C63.502,206.088,63.747,207.255,64.793,208.085z"/>
		<path fill-rule="evenodd" clip-rule="evenodd" fill="#A46B49" d="M215.684,120.161c8.947-6.419,19.207-9.892,29.563-13.13
			c1.055-0.329,2.268-0.201,2.96-1.313c-3.034-2.422-6.087-0.876-9.101,0.013c-3.186,0.938-6.232,2.597-10.034,1.913
			c0.153-2.777,2.249-3.566,3.794-4.641c11.926-8.278,25.4-12.05,39.666-13.45c2.398-0.235,4.963,0.25,6.947-1.682
			c-0.035-0.753-0.068-1.508-0.102-2.259c-4.068-2.571-8.455-1.384-12.65-0.784c-19.271,2.765-37.208,9.391-54.014,19.149
			c-0.535,0.262-1.037,0.583-1.516,0.934c-6.188,5.475-13.783,9.212-19.283,15.556c-1.232,1.421-2.638,2.734-3.371,4.493
			c-0.988,2.378-2.711,4.999-0.182,7.251c2.283,2.033,4.953,1.298,7.311-0.244c2.518-1.646,5.031-3.285,7.711-4.658l0.005-0.001
			c1.653-1.505,3.861-2.138,5.575-3.547c0.936-0.048,1.779-0.266,2.246-1.194c1.209-1.312,2.976-1.581,4.453-2.391L215.684,120.161z
			"/>
		<path fill-rule="evenodd" clip-rule="evenodd" fill="#FAAE78" d="M277.37,49.343c0.375-0.01,0.746-0.019,1.121-0.027
			c-0.051-1.888-0.1-3.776-0.15-5.667c-15.393-1.186-30.379,1.356-45.227,5.017c-22.117,5.449-42.916,14.109-62.389,25.927
			c-19.719,12.168-38.367,25.745-54.837,42.146c-1.848,1.841-3.839,3.648-4.49,6.369c-0.301,1.739-0.268,3.438,0.613,5.032
			c3.121,1.737,4.249-1.198,5.893-2.648c3.783-3.338,6.446-7.911,11.222-10.162c10.637-10.457,22.06-19.919,34.431-28.298
			c26.137-17.71,54.169-30.744,85.558-35.889c7.961-1.304,15.863-3.004,24.002-2.729C274.613,48.462,276.156,48.09,277.37,49.343z"
			/>
		<path fill-rule="evenodd" clip-rule="evenodd" fill="#B47550" d="M140.674,202.696c4.718-7.687,9.433-15.373,14.15-23.062
			c-0.02-0.757-0.04-1.511-0.059-2.267c-2.984-0.439-3.5,2.389-5.017,3.852c-1.716,1.661-3.147,3.644-5.882,4.129
			c14.699-35.676,37.833-64.074,71.785-83.197c0.471-0.242,0.914-0.527,1.342-0.837c1.809-1.605,3.996-2.475,6.26-3.225
			c0.541-0.204,1.045-0.467,1.534-0.772c11.985-6.219,24.954-9.233,38.011-12.152c5.461-1.218,11.337,0.02,16.447-2.951
			c-0.033-0.754-0.065-1.506-0.098-2.261c-10.217-1.322-20.01,1.102-29.831,3.345c-8.265,1.889-16.058,5.159-23.979,8.04
			c-0.571,0.162-1.118,0.396-1.644,0.67c-13.349,7.091-26.189,14.921-37.637,24.936c-16.363,14.317-29.598,31.096-40.258,49.981
			c-6.906,12.231-12.231,25.121-16.256,38.56c-0.653,2.171-1.38,4.345-1.19,6.655c0.125,1.516,0.274,3.182,2.029,3.697
			c1.715,0.505,2.821-0.627,3.747-1.914C136.671,210.391,138.477,206.43,140.674,202.696z"/>
		<path fill-rule="evenodd" clip-rule="evenodd" fill="#A16A49" d="M279.479,87.871c-18.303,0.102-35.201,4.662-50.049,15.746
			c-1.582,1.182-4.268,1.992-3.158,4.532c1.012,2.308,3.658,1.5,5.625,1.326c4.877-0.427,8.977-3.916,14.052-3.716
			c0.751,0.031,1.505-0.027,2.258-0.042c1.994,0.054,3.925-0.165,5.644-1.302c2.048-1.511,4.703,0.155,6.764-1.292
			c0.383-0.019,0.764-0.036,1.146-0.055c6.223-2.604,12.814-0.836,19.189-1.62C281.108,96.853,280.506,92.339,279.479,87.871z"/>
		<path fill-rule="evenodd" clip-rule="evenodd" fill="#FBB67E" d="M278.255,40.244c-0.029-1.133-0.059-2.268-0.087-3.4
			c-12.876-0.989-25.561,0.546-38.194,2.837c-26.846,4.86-51.681,15.082-75.438,28.189c-6.979,5.099-14.074,10.054-20.781,15.526
			c-1.724,1.406-3.931,2.34-4.599,4.767c-0.104,0.889,0.076,1.703,0.65,2.411c2.552,1.234,4.261-0.681,6.129-1.745
			c9.583-5.467,18.335-12.376,28.69-16.518c24.754-14.722,51.367-24.204,79.87-28.329c6.144-0.889,12.396-0.795,18.519-2.003
			C274.856,41.617,276.792,41.694,278.255,40.244z"/>
		<path fill-rule="evenodd" clip-rule="evenodd" fill="#FCBF85" d="M183.075,45.001c-6.493,2.195-13.781,2.901-17.904,9.547
			c1.525,3.264,4.34,3.275,7.235,2.701c4.443-0.875,8.874-1.777,13.429-1.829c11.897-3.58,23.207-8.926,35.268-11.998
			c15.309-3.901,30.598-7.985,46.679-7.08c3.456,0.194,7.229,0.796,10.323-1.771c-0.031-1.132-0.061-2.266-0.092-3.4
			c-2.25-1.871-4.949-1.483-7.563-1.479c-19.485,0.04-38.521,3.46-57.486,7.543C202.886,39.405,192.985,42.207,183.075,45.001z"/>
		<path fill-rule="evenodd" clip-rule="evenodd" fill="#C07D55" d="M128.114,199.623c0.029,1.134,0.059,2.27,0.089,3.402
			c3.004-0.135,3.3-2.691,3.945-4.69c8.35-25.875,22.476-48.414,40.663-68.305c14.465-15.813,31.651-28.303,51.225-37.308l0,0
			c15.994-7.225,32.528-12.299,50.246-12.695c1.693-0.038,3.354-0.347,4.857-1.212c0-0.39,0-0.777,0-1.166
			c-2.002-3.338-5.309-2.4-8.195-2.294c-12.568,0.461-24.609,3.635-36.367,7.798c-15.366,5.441-29.559,13.307-42.672,22.881
			c-13.17,9.613-24.498,21.235-34.205,34.386c-11.344,15.741-21.405,32.197-28.209,50.482
			C128.429,193.756,127.306,196.513,128.114,199.623z"/>
		<path fill-rule="evenodd" clip-rule="evenodd" fill="#FDC68A" d="M278.729,15.259c-18.762,0.792-37.254,3.41-55.406,8.272
			c-1.965,0.526-4.055,0.821-5.572,2.408c6.511,3.773,13.854,2.302,20.811,3.212c3.311,0.434,6.748-0.429,10.061,0.595
			c8.763-0.146,17.48-1.909,26.291-0.668c1.119,0.157,2.148-0.547,3.015-1.311C277.838,23.577,279.543,19.497,278.729,15.259z"/>
		<path fill-rule="evenodd" clip-rule="evenodd" fill="#FCBA80" d="M278.104,34.57c-21.567-1.372-42.445,2.609-62.936,8.688
			c-10.045,2.98-19.736,7.134-29.59,10.756c-7.656,2.072-13.791,7.077-20.609,10.76c-1.729,0.932-3.577,2.209-2.883,4.795
			c0.842,0.51,1.615,0.384,2.335-0.249c23.071-12.044,46.771-22.517,72.471-27.548c11.239-2.197,22.597-3.979,34.147-3.628
			c2.443,0.073,4.941,0.162,7.129-1.3C278.145,36.086,278.125,35.33,278.104,34.57z"/>
		<path fill-rule="evenodd" clip-rule="evenodd" fill="#FDC287" d="M277.927,27.768c-9.874-1.648-19.675-0.563-29.472,0.773
			c-7.119-0.882-14.426-1.102-21.26,0.568c-11.491,2.807-22.785,6.492-34.155,9.832c-1.603,0.472-3.063,1.425-4.386,2.511
			c-1.207,2.206-4.143,1.699-5.58,3.549c11.436-0.048,21.992-4.512,32.979-6.767c20.486-4.207,41.025-7.153,61.959-7.064
			C277.984,30.034,277.956,28.901,277.927,27.768z"/>
		<path fill-rule="evenodd" clip-rule="evenodd" fill="#FAB27A" d="M278.255,40.244c-31.751,1.397-61.991,8.807-90.482,22.983
			c-4.88,2.428-9.487,5.4-14.222,8.121c-1.209,1.46-4.037,1.771-3.283,4.624c9.49-4.442,18.461-9.896,28.162-13.959
			c17.698-7.408,35.822-12.981,54.896-15.667c6.186-0.869,12.317-1.014,18.482-1.375c2.256-0.132,4.531,0,6.531-1.323
			C278.313,42.514,278.284,41.381,278.255,40.244z"/>
		<path fill-rule="evenodd" clip-rule="evenodd" fill="#C78359" d="M158.352,140.962c3.768-4.165,7.589-8.286,11.293-12.508
			c11.553-13.17,25.238-23.475,40.4-32.293c16.405-9.54,33.893-15.521,52.342-18.873c5.416-0.986,11.217-1.672,16.754,0.361
			c-0.019-0.76-0.037-1.516-0.055-2.272c-1.787-2.776-4.612-2.394-7.151-2.006c-10.915,1.66-21.704,3.615-32.41,6.718
			c-12.897,3.74-24.199,10.582-36.265,15.896c-2.723,1.2-4.924,3.581-7.363,5.418c-11.125,8.638-22.353,17.21-31.424,28.081
			c-3.225,3.859-7.818,6.959-8.686,12.521C157.176,142.971,157.697,141.802,158.352,140.962z"/>
		<path fill-rule="evenodd" clip-rule="evenodd" fill="#E69868" d="M277.84,67.486c0.372,0.371,0.743,0.742,1.113,1.113
			c-0.064-2.644-0.129-5.288-0.193-7.931c-0.377-0.372-0.752-0.745-1.127-1.119c-5.943-1.384-11.93-0.386-17.742,0.415
			c-13.971,1.928-27.544,5.616-40.514,11.301c-2.296,1.505-4.908,2.438-7.236,3.863c-1.666,1.018-4.291,1.756-2.836,4.758
			c3.469,0.792,6.152-1.36,8.987-2.608c16.485-7.27,33.646-11.664,51.662-12.581c1.843-0.096,3.771-0.476,5.491,0.618
			C276.284,65.997,277.105,66.694,277.84,67.486z"/>
		<path fill-rule="evenodd" clip-rule="evenodd" fill="#AB6F4B" d="M211.889,105.521c7.717-2.564,14.377-7.325,22.003-10.233
			c14.724-5.616,29.63-9.693,45.485-9.678c-0.039-0.755-0.08-1.512-0.119-2.268c-10.074-1.386-19.557,1.921-29.125,4.003
			c-9.434,2.05-18.484,5.513-27.111,9.941l0,0c-2.269,1.137-4.703,1.96-6.716,3.579h0.001
			C215.074,102.645,211.506,102.209,211.889,105.521z"/>
		<path fill-rule="evenodd" clip-rule="evenodd" fill="#BA7952" d="M279.139,78.815c-18.295-0.222-35.551,4.238-52.207,11.487
			c-1.275,0.555-2.354,1.103-2.896,2.42c7.566-0.91,14.041-5.182,21.387-6.872c9.15-2.104,18.162-4.755,27.688-4.689
			c2.012,0.015,4.026-0.783,6.038-1.208C279.145,79.574,279.143,79.193,279.139,78.815z"/>
		<path fill-rule="evenodd" clip-rule="evenodd" fill="#AE714D" d="M223.022,97.287c9.041-2.367,17.197-7.229,26.465-9.068
			c9.877-1.954,19.621-4.623,29.771-4.876c-0.004-0.377-0.01-0.753-0.014-1.129c-18.309,0.121-35.389,5.628-52.254,12
			C225.495,94.779,224.334,96.24,223.022,97.287z"/>
		<path fill-rule="evenodd" clip-rule="evenodd" fill="#E49C70" d="M42.877,281.28c-0.314-7.012,1.069-13.783,2.867-20.5
			c-1.153-12.546,2.95-24.911,1.289-37.474c-2.98,0.091-2.688,2.544-3.202,4.425c-1.935,7.075-2.524,14.398-4.016,21.562
			c-0.215,7.653,0.085,15.316-0.817,22.953c-0.323,2.733-0.632,5.646,1.582,7.959C41.345,280.563,42.112,280.923,42.877,281.28z"/>
		<path fill-rule="evenodd" clip-rule="evenodd" fill="#DF9A6F" d="M40.58,280.205c-0.273-8.618,0.721-17.172,1.235-25.754
			c0.118-1.983-0.598-4.015-0.932-6.025c-0.126-1.577-0.649-2.877-2.356-3.343c-0.747,0.398-1.493,0.796-2.238,1.194
			c0.847,4.609-1.181,9.054-0.778,13.638c-1.392,7.221-0.873,14.394,0.566,21.541c2.294,1.653,0.062,5.716,3.577,6.719
			C40.027,285.524,38.463,282.651,40.58,280.205z"/>
		<path fill-rule="evenodd" clip-rule="evenodd" fill="#FCC38A" d="M188.655,41.452c10.221-2.82,20.648-4.869,30.615-8.624
			c9.395-3.54,19.229-4.416,29.186-4.287c-6.392-2.384-13.168,0.127-19.69-1.634c-3.504-0.945-7.333-0.685-11.015-0.968
			c-9.317,1.387-17.59,5.545-25.844,9.752C193.083,38.886,188.124,38.618,188.655,41.452z"/>
		<path fill-rule="evenodd" clip-rule="evenodd" fill="#BA7952" d="M224.036,92.723c-7.07,0.742-12.539,5.196-18.13,8.728
			c-21.565,13.629-39.474,31.164-53.213,52.771c-8.932,14.049-17.465,28.294-21.645,44.671c-0.389,1.521-1.87,2.762-2.845,4.133
			c-2.508,9.412-5.653,18.661-6.703,28.438c-0.221,2.066-0.056,3.301,1.888,3.956c2.348,0.788,2.691-0.846,3.348-2.58
			c2.91-7.689,6.397-15.119,10.741-22.119c1.019-2.694,2.911-5.038,3.197-8.024c-3.108,2.168-3.52,6.13-5.856,8.806
			c-1.187,1.358-2.222,3.987-4.097,3.191c-2.205-0.937-1.364-3.697-0.772-5.544c2.407-7.517,4.629-15.132,7.663-22.4
			c8.753-20.968,20.874-40.003,36.356-56.519c13.773-14.688,29.727-26.928,48.195-35.509
			C222.932,94.362,223.418,93.402,224.036,92.723z"/>
		<path fill-rule="evenodd" clip-rule="evenodd" fill="#C68158" d="M158.352,140.962c-0.746,0.4-1.492,0.796-2.238,1.194
			c-5.483,2.697-7.497,8.365-10.366,13.007c-17.625,28.502-29.371,59.141-32.025,92.842c-0.323,4.115-0.476,8.295-0.042,12.396
			c0.434,4.111,2.201,4.556,5.855,1.854c1.042-3.434,2.082-6.867,3.123-10.301c-7.24,1.459-4.911-3.46-4.72-7.028
			c0.836-15.679,4.264-30.77,10.175-45.304c6.298-20.505,16.483-38.972,29.312-56.064
			C157.952,142.856,158.053,141.836,158.352,140.962z"/>
		<path fill-rule="evenodd" clip-rule="evenodd" fill="#E99A69" d="M110.423,173.987c0.335,3.039-1.389,5.435-2.621,7.925
			c-10.065,20.334-17.28,41.592-20.961,64.009c-3.604,21.956-3.329,43.683,4.407,64.836c2.193,5.998,5.315,11.576,10.675,15.5
			c1.847-1.636,3.773-0.282,5.666-0.149c0.186-2.614-2.004-3.972-3.376-5.487c-5.681-6.27-7.419-14.16-9.649-21.879
			c-0.725-2.815-0.96-5.736-1.816-8.523c-0.445-1.228-1.658-2.247-1.482-3.605c1.734-13.412-2.998-26.926,0.658-40.292
			c0.231-0.485,0.388-1,0.486-1.527c-0.507-3.847,0.147-7.502,1.835-10.988c0.145-0.488,0.199-0.989,0.188-1.494
			c-0.599-2.879,0.713-5.281,1.938-7.705c0.178-0.479,0.281-0.973,0.333-1.479c0.082-3.819,0.981-7.436,2.725-10.844
			c0.249-0.477,0.432-0.974,0.586-1.486c4.033-13.602,8.913-26.834,16.608-38.866c5.466-12.06,13.247-22.657,21.175-33.134
			c2.154-2.849,3.908-5.969,6.231-8.679c1.132-1.966,2.561-3.665,4.482-4.918c2.634-1.99,4.913-4.32,6.729-7.09
			c1.065-1.815,2.449-3.331,4.191-4.507c1.762-1.247,3.285-2.81,5.14-3.952c0.985-0.736,1.848-1.606,2.712-2.479
			c1.172-1.271,2.451-2.41,3.982-3.238c1.299-0.779,2.641-1.48,3.999-2.147c4.882-3.134,9.542-6.559,13.99-10.288
			c0.402-0.77,0.507-1.582,0.36-2.435c-0.162-0.547-0.451-1.017-0.858-1.416c-1.573-0.733-2.978-0.133-4.278,0.672
			c-9.502,5.885-18.275,12.71-26.32,20.469c-0.402,0.387-0.528,0.988-0.607,1.559c-5.707,6.206-11.556,12.288-17.09,18.646
			c-11.323,13.014-21.022,27.182-29.294,42.319C110.735,172.103,110.663,173.092,110.423,173.987z"/>
		<path fill-rule="evenodd" clip-rule="evenodd" fill="#E69767" d="M93.275,299.251c2.248,10.298,5.98,19.804,14.314,26.856
			c1.576,0.847,2.77,0.637,3.37-1.217c-3.876-0.215-4.557-3.369-5.445-6.146c-1.12-3.508-1.967-7.102-2.931-10.658
			c-0.886-0.893-1.144-2.271-2.283-2.973C97.076,304.223,97.03,299.506,93.275,299.251z"/>
		<path fill-rule="evenodd" clip-rule="evenodd" fill="#FBBA83" d="M162.153,69.378c3.826-5.424,10.497-6.663,15.432-10.48
			c2.462-1.903,5.781-2.503,7.994-4.884c-4.285-0.239-8.537,0.283-12.565,1.584c-2.968,0.959-5.376,0.39-7.843-1.05
			c-5.422-0.079-9.146,3.629-13.459,6.023c-5.39,5.691-11.9,10.072-17.758,15.218c0.676,3.3,3.686,3.3,5.773,3.156
			C148.235,78.368,155.822,75.25,162.153,69.378z"/>
		<path fill-rule="evenodd" clip-rule="evenodd" fill="#D8966D" d="M36.077,281.456c1.71-7.23,0.198-14.377-0.566-21.541
			c-3.537,4.004-3.062,8.9-3.045,13.695c-2.524,5.36-0.785,10.61,0.416,15.873c1.133-0.029,2.268-0.058,3.401-0.087
			C36.214,286.75,36.145,284.104,36.077,281.456z"/>
		<path fill-rule="evenodd" clip-rule="evenodd" fill="#D2936B" d="M32.88,289.483c2.13-5.351-1.292-10.556-0.416-15.873
			c-2.03,0.878-2.387,2.945-3.283,4.627c-1.473,6.434-0.833,12.932-0.476,19.402c0.109,1.99,0.424,4.123,2.262,5.511
			c0.754-0.019,1.511-0.039,2.266-0.059C33.118,298.556,32.999,294.02,32.88,289.483z"/>
		<path fill-rule="evenodd" clip-rule="evenodd" fill="#EBA578" d="M52.347,209.545c1.134-0.029,2.268-0.057,3.401-0.087
			c2.682-3.354,3.239-7.473,4.139-11.468c0.903-4.587,1.957-9.139,3.042-13.685c-0.055-4.663,4.049-8.718,2.019-13.668
			c-2.895,0.338-4.555,1.988-5.455,4.734c-1.424,4.347-4.702,7.909-5.439,12.569C56.424,195.375,53.167,202.363,52.347,209.545z"/>
		<path fill-rule="evenodd" clip-rule="evenodd" fill="#E09D73" d="M38.527,245.083c0.785,1.114,1.572,2.229,2.356,3.343
			c2.889-6.584,2.417-13.876,4.3-20.696c0.449-1.634,0.525-3.227,1.85-4.423c-0.01-0.381-0.018-0.76-0.028-1.139
			c-1.857-2.313,1.607-7.067-3.601-7.838c-1.245,5.734-1.26,11.764-4.099,17.115C40.069,236.05,38.611,240.527,38.527,245.083z"/>
		<path fill-rule="evenodd" clip-rule="evenodd" fill="#DB9062" d="M277.84,67.486c-0.031-1.128-0.063-2.259-0.092-3.389
			c-8.092-1.28-16.012,0.362-23.867,1.77c-18.221,3.264-35.418,9.571-51.705,18.361c-18.897,11.636-36.34,25.063-51.003,41.849
			c-21.428,24.532-37.114,52.24-46.02,83.666c-6.378,22.505-9.786,45.358-8.248,68.819c0.386,5.865,1.146,11.659,3,17.233
			c0.586,1.758,0.699,4.322,3.602,4.321c0.523-4.571-1.96-9.561,1.912-13.665c1.263-1.545,1.215-3.056-0.118-4.533
			c-4.551-22.46-0.747-44.429,4.714-66.075c7.356-29.152,20.284-55.876,39.034-79.424c25.09-31.515,56.586-53.882,96.002-64.018
			C255.768,69.648,266.778,68.238,277.84,67.486z"/>
		<path fill-rule="evenodd" clip-rule="evenodd" fill="#E19465" d="M103.508,300.117c-3.911-5.251-4.244-11.67-4.832-17.672
			c-2.129-21.732,0.511-43.176,5.673-64.298c6.466-26.459,17.762-50.751,33.546-72.949c13.191-18.551,28.759-34.765,47.409-47.923
			c5.652-3.986,11.319-7.952,16.98-11.927c-0.63-0.663-1.428-0.863-2.307-0.837c-4.326,1.294-8.205,3.323-11.154,6.863
			c-5.684,1.85-9.252,6.938-14.5,9.457c-1.043,1.832-2.576,3.103-4.502,3.919c-0.656,0.434-1.217,0.971-1.742,1.55
			c-1.526,1.798-3.066,3.578-5.305,4.552c-1.395,1.351-2.797,2.692-4.264,3.972c-19.994,20.305-36.246,43.183-47.75,69.33
			c-10.493,23.845-16.692,48.616-18.054,74.78c-0.746,14.333,0.222,28.146,4.493,41.786c0.624,1.994,0.961,4.072,3.054,5.157
			c0.458,1.072,1.235,1.806,2.327,2.209c0.229-1.918-0.869-4.063,0.985-5.7C103.548,301.631,103.528,300.874,103.508,300.117z"/>
		<path fill-rule="evenodd" clip-rule="evenodd" fill="#D2875D" d="M107.218,268.25c0.068,2.646,0.137,5.294,0.206,7.939
			c0.174,3.86,0.154,7.791,1.897,11.34c1.187,2.408,2.827,4.298,5.232,0.957c1.618-1.24,0.89-2.999,1.014-4.568
			c0.009-4.274,2.335-8.189,1.945-12.527c-2.851,1.827-3.478-2.347-5.734-2.123c-2.767,0.285-1.337-2.813-2.946-3.399
			C108.357,266.567,107.789,267.409,107.218,268.25z"/>
		<path fill-rule="evenodd" clip-rule="evenodd" fill="#D78A5E" d="M114.554,288.486c-3.22,1.977-3.972-0.42-4.498-2.703
			c-0.742-3.241-0.891-6.632-2.632-9.594c-1.392,1.656-0.352,4.212-2.122,5.729c0.04,1.512,0.079,3.022,0.118,4.533
			c1.186,3.335,3.209,6.335,3.823,9.913c0.229,1.329,1.137,2.613,2.526,2.708c1.85,0.126,1.612-1.605,1.901-2.829
			C114.27,293.688,114.922,291.147,114.554,288.486z"/>
		<path fill-rule="evenodd" clip-rule="evenodd" fill="#FBB681" d="M162.153,69.378c-5.607,3.531-12.013,5.23-18.025,7.828
			c-3.576,1.544-6.934,0.166-10.174-1.417c-6.521,4.784-12.959,9.658-17.723,16.349c3.786,5.591,4.93,6.072,11.163,4.057
			c4.875-1.571,9.442-3.723,12.555-8.082c8.158-6.265,16.316-12.53,24.473-18.793C163.667,69.339,162.908,69.358,162.153,69.378z"/>
		<path fill-rule="evenodd" clip-rule="evenodd" fill="#FAB380" d="M139.948,88.112c-3.543,1.986-7.048,4.047-10.642,5.938
			c-4.778,2.515-9.227,2.19-13.076-1.912c-4.06,3.887-8.119,7.776-12.177,11.665c-0.502,4.282-5.063,5.682-6.568,9.249
			c3.387,1.969,4.5-2.673,7.242-2.636c1.672,8.513,1.672,8.513,7.019,6.804c8.824-8.188,17.41-16.648,26.977-24.01
			c0.844-0.651,1.804-1.459,1.285-2.829C139.988,89.626,139.968,88.87,139.948,88.112z"/>
		<path fill-rule="evenodd" clip-rule="evenodd" fill="#AE714D" d="M211.889,105.521c1.473-1.552,2.945-3.103,4.418-4.655
			c-11.184,4.099-20.014,11.877-28.734,19.447c-18.969,16.465-33.076,36.708-43.453,59.547c-1.171,2.58-3.985,6.22-1.364,7.935
			c2.095,1.368,4.926-2.36,6.926-4.521c1.763-1.905,3.395-3.933,5.083-5.906c6.806-9.323,14.449-17.957,21.991-26.675
			c-2.506-1.477-3.793,0.625-5.279,1.892c-1.976,1.682-3.765,3.611-6.848,4.47c-0.779-5.187,2.176-8.37,4.727-11.722
			c4.107-5.393,9.025-10.04,13.594-15.01c5.729-6.233,11.303-12.6,18.323-17.439C204.82,110.441,208.051,107.54,211.889,105.521
			L211.889,105.521z"/>
		<path fill-rule="evenodd" clip-rule="evenodd" fill="#AB6F4B" d="M211.889,105.521c-4.615,0.432-7.486,3.99-10.889,6.403
			c-7.469,5.302-13.927,11.751-20.142,18.522c-5.11,5.568-10.356,10.984-14.892,17.046c-0.226,0.3-0.528,0.545-0.733,0.855
			c-1.997,3.036-4.162,7.812-2.071,9.636c3.218,2.811,5.986-1.841,8.648-3.873c1.598-1.224,2.546-3.355,4.946-3.418
			c8.271-8.48,17.968-15.343,26.626-23.385c-3.629-0.563-5.945,1.92-8.531,3.724c-1.877,1.306-4.026,1.82-5.786,0.475
			c-1.921-1.471-0.458-3.586,0.284-5.111c2.107-4.319,5.646-7.479,9.375-10.397C203.141,112.541,208.206,109.899,211.889,105.521z"
			/>
		<path fill-rule="evenodd" clip-rule="evenodd" fill="#AB6F4B" d="M208.963,123.761c-2.328,0.443-4.443,1.222-5.575,3.547
			C205.709,126.854,207.814,126.059,208.963,123.761z"/>
		<path fill-rule="evenodd" clip-rule="evenodd" fill="#AB6F4B" d="M215.663,120.176c-1.941-0.058-3.666,0.294-4.455,2.391
			C212.993,122.324,214.557,121.676,215.663,120.176z"/>
		<path fill-rule="evenodd" clip-rule="evenodd" fill="#CD906A" d="M30.968,303.15c-1.783-8.22-1.528-16.585-1.787-24.913
			c-1.553,2.848-2.163,5.905-2.034,9.131c0.298,11.338,0.598,22.675,0.895,34.013c1.072-0.457,1.807-1.235,2.207-2.326
			C30.489,313.753,30.729,308.451,30.968,303.15z"/>
		<path fill-rule="evenodd" clip-rule="evenodd" fill="#F9AC7A" d="M112.64,128.542c-0.05-1.891-0.099-3.781-0.149-5.669
			c-1.479-0.728-2.676,0.05-3.896,0.718c-5.158,4.082-10.129,8.391-14.844,12.977c-2.087,2.031-4.412,3.414-7.234,4.135
			c-2.938,0.751-5.779,1.781-7.48,4.603c-0.716,1.533-1.434,3.065-2.15,4.596c-3.607,6.659-5.565,13.844-6.771,21.269
			c4.59,2.241,7.39-1.179,10.028-3.673c8.762-8.285,16.449-17.583,24.127-26.864c1.805-2.181,3.778-4.182,5.621-6.305
			C111.295,132.713,113.356,131.233,112.64,128.542z"/>
		<path fill-rule="evenodd" clip-rule="evenodd" fill="#FAAF7E" d="M79.037,145.305c12.503-3.558,21.345-12.308,30.081-21.209
			c1.912-2.35,4.383-4.555,2.062-7.998c-2.534,0.616-7.447,4.4-3.828-3.024c0.885-1.813-0.476-3.83-1.921-4.853
			c-1.692-1.197-2.426,1.006-3.444,1.878c-1.383,1.183-2.361,2.934-4.501,2.953c-4.435,5.093-8.806,10.231-12.063,16.202
			C83.294,134.604,81.167,139.954,79.037,145.305z"/>
		<path fill-rule="evenodd" clip-rule="evenodd" fill="#F2A87A" d="M70.647,171.624c2.348-7.165,4.946-14.255,6.24-21.724
			c-2.218,1.949-4.437,3.898-6.655,5.849c0.172,5.65-3.614,9.894-5.284,14.889c-0.634,4.649-3.469,8.813-3.044,13.695
			c4.141-0.312,4.705-4.647,7.413-6.576C70.46,175.863,71.696,173.989,70.647,171.624z"/>
		<path fill-rule="evenodd" clip-rule="evenodd" fill="#A46B49" d="M260.614,103.124c-2.258,0.407-4.826-0.804-6.764,1.292
			C256.111,104.013,258.674,105.198,260.614,103.124z"/>
		<path fill-rule="evenodd" clip-rule="evenodd" fill="#CA845A" d="M111.778,269.268c0.382,0.613,0.971,1.19,1.103,1.854
			c0.263,1.33,0.376,2.889,1.859,3.198c2.172,0.455,1.306-2.432,2.772-2.929c1.302-0.855,1.028-2.188,1.041-3.434
			c0.33-1.901,0.656-3.802,0.983-5.701c-3.51,2.113-4.551,0.725-4.653-2.94c-0.405-14.341,1.383-28.443,5.162-42.207
			c5.979-21.767,14.832-42.355,26.938-61.465c2.905-4.585,6.08-8.996,9.13-13.487c5.045-8.916,12.23-16.017,19.498-23.058
			c6.455-6.254,14.33-10.873,20.285-17.696c-8.893,4.38-16.023,11.18-22.926,17.948c-32.997,32.352-51.871,72.1-59.509,117.32
			C111.653,247.374,111.426,258.353,111.778,269.268z"/>
		<path fill-rule="evenodd" clip-rule="evenodd" fill="#F4A370" d="M219.924,65.598c-12.67,2.174-23.445,8.844-34.291,15.044
			c-10.893,6.228-21.276,13.439-30.564,21.923c-13.429,12.269-26.228,25.136-37.637,39.417
			c-15.665,19.607-27.474,41.7-41.397,62.423c-3.021,4.498-6.74,8.092-12.226,9.382c-3.024,4.496-4.975,9.289-4.153,14.858
			c0.099,3.781,0.198,7.561,0.296,11.341c7.675-4.111,11.66-11.407,15.342-18.666c7.033-13.873,13.886-27.832,21.67-41.307
			c2.988-8.651,8.614-15.795,13.678-23.189c8.697-12.696,17.588-25.299,29.032-35.797c2.384,0.694,3.098-1.305,4.244-2.613
			c1.423-2.342,3.259-4.283,5.594-5.743c0.425-0.271,0.814-0.584,1.189-0.918c2.62-3.405,5.691-6.297,9.503-8.35
			c0.619-0.473,1.174-1.013,1.701-1.582c3.203-3.869,7.471-6.298,11.772-8.674c2.568-0.997,4.405-3.079,6.706-4.48
			c10.26-7.726,21.68-13.338,33.366-18.493C216.098,69.14,219.629,69.481,219.924,65.598z"/>
		<path fill-rule="evenodd" clip-rule="evenodd" fill="#EE9D6C" d="M157.551,110.348c8.775-6.606,16.717-14.3,26.17-20.036
			c1.603-0.972,3.066-2.146,5.015-2.342c6.165-2.823,12.413-5.498,17.603-10.044c0.5-1.031,0.951-2.069,0.154-3.161
			c-5.709-0.439-9.521,3.745-14.07,6.002c-3.646,1.811-7.217,3.932-10.567,6.329c-2.612,2.146-5.257,4.26-8.236,5.893
			c-0.477,0.183-0.913,0.437-1.313,0.752c-1.131,0.937-2.167,1.995-3.44,2.757c-0.412,0.26-0.793,0.557-1.155,0.878
			c-1.06,0.96-2.114,1.923-3.341,2.677c-0.407,0.257-0.78,0.556-1.137,0.877c-1.363,1.319-2.566,2.822-4.285,3.738
			c-0.414,0.262-0.795,0.562-1.162,0.886c-1.092,1.483-3.355,2.368-2.504,4.854C156.04,110.387,156.795,110.367,157.551,110.348z"/>
		<path fill-rule="evenodd" clip-rule="evenodd" fill="#F1A06D" d="M155.282,110.406c1.096-1.543,2.189-3.084,3.285-4.625
			c-2.344-1.035-3.903,0.143-5.037,1.982c-1.008,1.633-2.338,2.867-3.887,3.924l0,0c-2.505,1.625-4.105,4.275-6.656,5.848
			c-0.698,1.549-1.802,2.713-3.312,3.491c0.029,1.135,0.06,2.269,0.089,3.403C145.16,120.001,149.31,114.194,155.282,110.406z"/>
		<path fill-rule="evenodd" clip-rule="evenodd" fill="#F0A373" d="M59.656,228.645c1.385-4.952,2.767-9.904,4.153-14.858
			c0.328-1.899,0.657-3.8,0.985-5.701c-0.031-1.132-0.062-2.266-0.092-3.4c-2.229-1.972-3.835-4.492-5.847-6.653
			c-0.928,3.837-3.32,7.278-3.107,11.427c-0.984,5.7-1.969,11.398-2.955,17.098C54.349,229.664,57.202,228.497,59.656,228.645z"/>
		<path fill-rule="evenodd" clip-rule="evenodd" fill="#F2A06E" d="M181.933,88.149c8.368-4.072,15.579-10.315,24.619-13.125
			c2.027,0.848,3.636-0.372,5.325-1.103c18.955-8.175,38.582-13.656,59.283-14.905c2.23-0.134,4.533-0.21,6.416-1.734
			c-1.076-3.697-4.145-3.526-6.893-3.165c-16.705,2.214-33.405,4.513-49.246,10.718c-0.524,0.205-1.012,0.507-1.514,0.763
			c-3.863,3.578-9.309,3.614-13.679,6.16c-7.128,4.152-14.497,7.888-21.693,11.93c-1.933,1.085-4.001,2.218-4.888,4.521
			C180.437,88.839,181.194,88.819,181.933,88.149z"/>
		<path fill-rule="evenodd" clip-rule="evenodd" fill="#ED9D6B" d="M277.577,57.282c-24.9,1.011-48.688,6.468-71.024,17.742
			c-0.356,0.767-0.714,1.533-1.071,2.299c5.314,0.631,8.896-3.523,13.487-4.891c10.271-2.62,20.044-6.793,30.448-9.14
			c9.355-2.112,18.953-1.505,28.217-3.743C277.614,58.795,277.594,58.038,277.577,57.282z"/>
		<path fill-rule="evenodd" clip-rule="evenodd" fill="#F9A976" d="M70.647,171.624c-0.706,1.909-1.414,3.819-2.121,5.729
			c-1.495,5.246-4.145,10.437-0.719,15.904c7.69-6.998,12.356-16.349,18.849-24.312c12.884-15.801,24.451-32.682,39.266-46.869
			c0.526-0.503,0.838-1.233,1.25-1.857c0.894-1.804,3.042-3.387,0.986-5.699c-4.975,1.557-6.989,6.438-10.636,9.49
			c-1.701,1.423-3.26,3.016-4.882,4.532c-10.94,13.114-21.731,26.361-33.786,38.5C76.565,169.344,73.578,170.447,70.647,171.624z"/>
		<path fill-rule="evenodd" clip-rule="evenodd" fill="#F9AA75" d="M128.158,114.52c-0.329,1.898-0.658,3.799-0.986,5.699
			c11.197-11.112,22.96-21.498,35.833-30.725c22.078-15.824,45.944-27.702,72.262-34.425c13.781-3.52,27.797-5.822,42.104-5.727
			c-3.064-4.555-7.637-2.144-11.203-1.752c-15.451,1.695-30.69,4.557-45.543,9.478c-23.602,7.818-45.044,19.557-65.252,33.9
			C145.507,97.972,136.716,106.08,128.158,114.52z"/>
		<path fill-rule="evenodd" clip-rule="evenodd" fill="#F2A676" d="M67.808,193.257c-1.166-5.364,1.719-10.547,0.719-15.904
			c-3.231,1.355-3.836,5.204-6.623,6.98c-1.901,4.369-2.913,8.936-3.049,13.698c0.071,3.868,2.28,5.857,5.847,6.653
			C65.736,200.875,66.772,197.066,67.808,193.257z"/>
		<path fill-rule="evenodd" clip-rule="evenodd" fill="#FAB17C" d="M111.18,116.098c0.542,2.983-1.987,5.173-2.062,7.998
			c1.125-0.407,2.249-0.814,3.373-1.223c7.777-10.576,18.65-17.784,28.463-26.144c9.15-7.793,19.776-13.509,29.314-20.757
			c1.094-1.541,2.188-3.083,3.283-4.624C162.502,75.735,153.25,83.23,143,89c-0.955,0.538-1.993,0.925-2.992,1.381
			C129.943,98.443,120.273,106.948,111.18,116.098z"/>
		<path fill-rule="evenodd" clip-rule="evenodd" fill="#AE714D" d="M216.306,100.866c2.581-0.548,4.872-1.645,6.716-3.579
			C220.204,97.395,217.758,98.198,216.306,100.866z"/>
		<path fill-rule="evenodd" clip-rule="evenodd" fill="#E59767" d="M200.018,85.408c0.754-0.02,1.511-0.04,2.268-0.06
			c8.531-3.403,16.033-8.965,24.957-11.6c16.529-4.875,33.095-9.443,50.506-9.651c-5.666-2.013-11.343-0.711-17.045-0.151
			c-18.283,1.797-35.088,8.449-51.766,15.554c-0.453-0.347-0.955-0.464-1.512-0.317C204.901,81.187,200.191,80.602,200.018,85.408z"
			/>
		<path fill-rule="evenodd" clip-rule="evenodd" fill="#E89969" d="M207.806,79.531c0.377-0.01,0.755-0.02,1.132-0.031
			c1.997-4.268,7.764-3.184,10.03-7.067c-4.935,0.422-8.789,3.822-13.487,4.891c-3.536,3.13-8.066,4.552-12.006,6.985
			c-1.708,1.055-3.887,1.497-4.739,3.661c0.01,0.38,0.021,0.759,0.031,1.137c3.503,0.475,5.935-1.944,8.388-3.623
			C200.553,83.154,204.143,81.312,207.806,79.531z"/>
		<path fill-rule="evenodd" clip-rule="evenodd" fill="#E59767" d="M100.255,305.878c-4.471-14.774-6.841-29.535-6.115-45.313
			c1.386-30.116,9.174-58.153,22.258-84.993c9.043-18.549,20.589-35.408,34.5-50.65c3.047-3.338,6.028-6.73,9.039-10.097
			c-0.385-0.347-0.833-0.546-1.353-0.577c-1.771,0.493-2.706,2.18-4.258,2.994c-1.747,2.764-3.955,5.09-6.625,6.98
			c-1.083,1.921-2.555,3.473-4.418,4.653c-8.816,11.636-17.347,23.46-24.878,35.987c-1.273,2.117-2.614,4.104-2.372,6.709
			c-7.562,12.595-12.697,26.224-17.105,40.161c-1.487,3.687-1.749,7.706-3.105,11.429c0.01,0.377,0.02,0.755,0.029,1.134
			c-1.313,2.503-2.147,5.133-2.059,7.997c0.01,0.378,0.02,0.755,0.03,1.133c-1.726,3.614-2.033,7.477-1.972,11.4
			c-0.892,6.991-2.292,13.975-1.655,21.049c0.603,6.699,1.165,13.37,0.533,20.094c-0.142,1.517,0.261,2.972,1.173,4.242
			c-0.192,3.113,0.387,6.108,1.373,9.041C95.823,301.228,95.922,305.783,100.255,305.878z"/>
		<path fill-rule="evenodd" clip-rule="evenodd" fill="#E69767" d="M91.902,290.21c-0.406-15.129-1.038-30.257-0.051-45.385
			c-3.396,4.593-2.278,10.122-2.873,15.213c-0.825,7.05,1.955,14.001,1.427,21.151C90.181,284.251,87.523,287.865,91.902,290.21z"/>
		<path fill-rule="evenodd" clip-rule="evenodd" fill="#E69767" d="M98.928,211.732c5.703-13.388,11.403-26.776,17.105-40.161
			c-5.296,4.219-6.665,10.752-9.214,16.456C103.426,195.616,99.591,203.184,98.928,211.732z"/>
		<path fill-rule="evenodd" clip-rule="evenodd" fill="#E69868" d="M207.806,79.531c-7.433,1.033-12.401,6.964-19.039,9.575
			c0.021,0.756,0.038,1.512,0.058,2.269c3.731-1.99,7.463-3.979,11.193-5.967C201.306,81.718,206.329,82.975,207.806,79.531z"/>
		<path fill-rule="evenodd" clip-rule="evenodd" fill="#E69767" d="M95.823,223.161c2.807-3.327,3.316-7.279,3.105-11.429
			C95.848,214.987,95.326,218.937,95.823,223.161z"/>
		<path fill-rule="evenodd" clip-rule="evenodd" fill="#E69767" d="M91.852,244.825c1.592-3.639,1.669-7.538,1.972-11.4
			C90.628,236.786,89.944,240.58,91.852,244.825z"/>
		<path fill-rule="evenodd" clip-rule="evenodd" fill="#E69767" d="M93.793,232.292c1.464-2.465,1.902-5.195,2.059-7.997
			C93.432,226.515,91.892,228.96,93.793,232.292z"/>
		<path fill-rule="evenodd" clip-rule="evenodd" fill="#E69868" d="M158.803,114.854c0.377-0.011,0.756-0.021,1.134-0.029
			c1.511-0.779,2.615-1.94,3.313-3.491c0.637-0.636,1.768-1.041,1.073-2.299c-2.644-0.049-3.509,2.699-5.58,3.552
			C158.137,113.356,158.08,114.113,158.803,114.854z"/>
		<path fill-rule="evenodd" clip-rule="evenodd" fill="#E59767" d="M164.324,109.034c-0.356,0.767-0.714,1.533-1.073,2.299
			c2.871-0.351,4.193-2.54,5.553-4.683c-0.775-0.71-1.529-0.594-2.27,0.058C165.463,107.165,164.727,107.941,164.324,109.034z"/>
		<path fill-rule="evenodd" clip-rule="evenodd" fill="#E59767" d="M169.907,105.485c2.686-0.397,4.157-1.95,4.418-4.653
			c-1.115,0.785-2.229,1.571-3.346,2.355C170.342,103.824,169.211,104.229,169.907,105.485z"/>
		<path fill-rule="evenodd" clip-rule="evenodd" fill="#E89969" d="M143.284,128.875c2.688-0.396,4.16-1.95,4.418-4.653
			C145.791,125.358,144.319,126.909,143.284,128.875z"/>
		<path fill-rule="evenodd" clip-rule="evenodd" fill="#E89969" d="M158.803,114.854c-0.02-0.757-0.039-1.513-0.06-2.268
			c-1.909,1.136-3.38,2.688-4.417,4.655C156.304,117.356,157.249,115.531,158.803,114.854z"/>
		<path fill-rule="evenodd" clip-rule="evenodd" fill="#E69868" d="M169.907,105.485c0.357-0.765,0.714-1.532,1.072-2.298
			c-2.295,0.146-3.494,1.676-4.445,3.521c0.756-0.021,1.512-0.039,2.27-0.058C169.17,106.262,169.54,105.874,169.907,105.485z"/>
		<path fill-rule="evenodd" clip-rule="evenodd" fill="#F2A06E" d="M172.951,91.789c-4.28,2.868-9.046,5.105-12.235,9.397
			c1.16,0.987,2.289,0.731,3.401-0.089l0,0c1.548-1.092,2.857-2.48,4.446-3.521h0.001c1.548-1.088,2.857-2.48,4.446-3.52
			C173.661,93.284,173.641,92.527,172.951,91.789z"/>
		<path fill-rule="evenodd" clip-rule="evenodd" fill="#F2A06E" d="M149.643,111.688c4.129-0.224,4.499-6.127,8.924-5.906l0,0
			c1.098-0.915,2.459-1.749,1.045-3.431C155.406,104.521,151.845,107.379,149.643,111.688z"/>
		<path fill-rule="evenodd" clip-rule="evenodd" fill="#F1A06D" d="M172.951,91.789c0.021,0.756,0.04,1.513,0.06,2.268
			c3.584-1.048,6.178-3.594,8.923-5.907c-0.756,0.021-1.513,0.04-2.269,0.06C176.733,88.103,175.883,91.896,172.951,91.789z"/>
		<path fill-rule="evenodd" clip-rule="evenodd" fill="#F2A06E" d="M142.987,117.535c3.384-0.624,4.89-3.384,6.656-5.848
			C146.26,112.313,144.754,115.072,142.987,117.535z"/>
		<path fill-rule="evenodd" clip-rule="evenodd" fill="#F1A06D" d="M159.612,102.351c-0.349,1.144-0.697,2.287-1.045,3.431
			c2.871-0.35,4.191-2.539,5.55-4.684c-1.134,0.029-2.269,0.06-3.401,0.089C160.347,101.575,159.979,101.963,159.612,102.351z"/>
		<path fill-rule="evenodd" clip-rule="evenodd" fill="#F1A06D" d="M168.563,97.576c-2.295,0.147-3.494,1.677-4.446,3.521
			C166.413,100.953,167.614,99.424,168.563,97.576z"/>
		<path fill-rule="evenodd" clip-rule="evenodd" fill="#F1A06D" d="M173.01,94.057c-2.295,0.146-3.496,1.676-4.446,3.52
			C170.86,97.431,172.059,95.902,173.01,94.057z"/>
	</g>
</g>
</svg>
