<?xml version="1.0" encoding="utf-8"?>
<!-- Generator: Adobe Illustrator 16.0.0, SVG Export Plug-In . SVG Version: 6.00 Build 0)  -->
<!DOCTYPE svg PUBLIC "-//W3C//DTD SVG 1.1//EN" "http://www.w3.org/Graphics/SVG/1.1/DTD/svg11.dtd">
<svg version="1.1" id="Calque_1" xmlns="http://www.w3.org/2000/svg" xmlns:xlink="http://www.w3.org/1999/xlink" x="0px" y="0px"
	 width="101.333px" height="105.333px" viewBox="0 0 101.333 105.333" enable-background="new 0 0 101.333 105.333"
	 xml:space="preserve">
<g>
	<path fill-rule="evenodd" clip-rule="evenodd" fill="#FCFADC" d="M6.344,8.906C5.907,7.357,5.022,5.625,7.783,5.381
		c4.575-0.011,8.351,2.209,12.162,4.344c10.448,5.304,20.513,11.397,31.526,15.536c7.552,2.836,14.854,6.309,22.554,8.766
		c1.467,0.468,2.909,1.145,3.85,2.506c-0.662,2.622-3.09,2.599-5.003,3.354c-10.063-0.933-18.088-7.007-27.016-10.794
		c-4.817-2.043-9.122-5.116-13.618-7.798c-1.46-0.871-2.948-1.706-4.686-1.903c-4.813-0.979-8.409-4.258-12.501-6.602
		c-1.452-0.832-2.759-1.915-4.376-2.441C9.369,9.454,7.768,9.446,6.344,8.906z"/>
	<path fill-rule="evenodd" clip-rule="evenodd" fill="#FCFBE0" d="M77.646,36.5C60.676,30.101,43.497,24.166,27.79,14.877
		c-2.77-1.639-6.318-1.729-8.515-4.427c0.977-1.035,2.124-0.646,3.14-0.221c11.183,4.676,22.852,8.134,33.754,13.504
		c4.723,2.563,9.62,4.665,14.945,5.625c3.98,2.94,9.229,2.881,13.296,5.62c-1.202,1.661-3.134,1.64-4.853,2.117
		C78.844,37.145,78.2,36.962,77.646,36.5z"/>
	<path fill-rule="evenodd" clip-rule="evenodd" fill="#FAF1BF" d="M6.344,8.906c1.554-0.774,2.976-0.477,4.313,0.525
		c1.255,0.77,2.347,1.747,3.441,2.725c1.978,2.059,4.526,3.514,6.208,5.886c0.215,0.578,0.216,1.145-0.076,1.698
		c-2.354,0.925-3.309-1.504-5.037-2.09c-0.982-0.569-1.953-1.16-2.906-1.781c-1.215-0.904-2.145-2.111-3.29-3.093
		c-0.721-0.616-0.948-1.597-1.647-2.229c0,0-0.311,0.02-0.313,0.02C6.803,10.013,6.573,9.459,6.344,8.906z"/>
	<path fill-rule="evenodd" clip-rule="evenodd" fill="#FDF9D5" d="M91.509,74.654c1.129,0.422,3.08,2.796,3.158,4.019
		c-4.337,1.056-8.266,0.534-11.467-2.917c-3.729-4.02-7.442-8.052-11.18-12.062c-3.326-3.57-4.527-7.615-3.975-12.331
		c0.175-0.417,0.485-0.68,0.926-0.791c2.342,0.943,3.902,2.854,5.625,4.571c0.55,0.617,0.992,1.299,1.273,2.082
		C78.921,65.875,83.196,70.688,91.509,74.654z"/>
	<path fill-rule="evenodd" clip-rule="evenodd" fill="#FEF9D2" d="M68.58,50.897c-0.47,7.727,4.541,12.605,9.186,17.672
		c1.236,1.35,2.693,2.536,3.724,4.023c3.227,4.661,8.086,5.577,13.178,6.08c0.016,0.286,0.031,0.573,0.049,0.857
		c-3.976,1.957-9.16,1.376-12.014-1.58c-6.342-6.568-12.029-13.722-18.085-20.546c-1.136-1.278-2.058-2.724-1.351-4.601
		C64.637,51.05,66.11,49.58,68.58,50.897z"/>
	<path fill-rule="evenodd" clip-rule="evenodd" fill="#FDF6C9" d="M63.638,53.034c0.116,2.681,2.179,4.141,3.729,5.922
		c4.247,4.879,8.81,9.527,12.656,14.704c3.849,5.174,8.603,5.31,14.603,4.504c0.663,1.105,2.048,3.174,2.169,4.626
		c0.001,0-0.146-0.045-0.146-0.045c-6.254,1.275-11.729-0.154-16.317-4.683c-3.384-5.199-8.148-9.199-12.15-13.865
		c-2.37-2.762-4.927-5.366-7.212-8.213c-0.17-0.392-0.238-0.8-0.228-1.226C61.222,53.37,62.07,52.598,63.638,53.034z"/>
	<path fill-rule="evenodd" clip-rule="evenodd" fill="#FCFADC" d="M92.812,76.247c-3.782,1.144-6.061-1.886-7.979-3.826
		c-3.777-3.822-7.707-7.781-9.532-13.117c-0.224-0.653-0.17-1.4-0.246-2.104c2.215-0.746,2.718,2.057,3.583,2.895
		c4.5,4.761,8.153,8.977,12.678,13.715C92.005,74.531,92.71,75.187,92.812,76.247z"/>
	<path fill-rule="evenodd" clip-rule="evenodd" fill="#D7C080" d="M85.105,35.121c0.788,1.95,0.066,3.799-0.376,5.67
		c-0.021,0.437-1.95,3.056-2.396,3.019c-1.221-0.553-0.794-3.226-2.137-3.265c-0.844-0.148-1.552-0.485-1.886-1.348
		c-0.288-1.182,0.394-1.998,1.059-2.822c1.455-1.28,3.295-1.167,5.04-1.396C84.631,35.08,84.862,35.126,85.105,35.121z"/>
	<path fill-rule="evenodd" clip-rule="evenodd" fill="#D3BB7D" d="M31.063,85.457c-1.579-6.491-4.603-12.546-5.779-19.156
		c2.323-0.318,2.046,1.81,2.729,2.973c2.054,3.487,2.215,7.834,4.971,11.002c2.4,1.455,5.291,1.877,7.563,3.596
		c-2.074,2.052-4.744,2.718-7.484,3.223C31.94,87.102,31.285,86.543,31.063,85.457z"/>
	<path fill-rule="evenodd" clip-rule="evenodd" fill="#D0B879" d="M38.067,85.616c-2.984,0.001-2.86-3.53-5.481-4.556
		c-0.735-1.654,0.2-2.846,1.111-4.047c0.525-0.487,1.276-1.168,1.827-0.874c5.788,3.098,10.15-1.259,15.052-2.772
		c1.401,0.346,2.295,1.139,2.357,2.665c-2.394,2.978-3.151,3.438-9.099,6.064C42.477,82.203,39.581,85.796,38.067,85.616z"/>
	<path fill-rule="evenodd" clip-rule="evenodd" fill="#C0AA70" d="M57.383,81.643c-0.732-1.048-1.464-2.097-2.194-3.143
		c0.251-0.32,0.584-0.476,0.988-0.489c0.584,0.111,1.086,0.396,1.558,0.745c2.817,1.981,4.628,5.03,7.439,7.025
		c3.462,3.238,6.956,6.447,9.233,10.712c-0.03,0.415-0.183,0.776-0.475,1.076c-5.717-3.92-9.743-9.575-14.678-14.3
		C58.658,82.699,58.008,82.184,57.383,81.643z"/>
	<path fill-rule="evenodd" clip-rule="evenodd" fill="#BFA86F" d="M73.933,97.57c-0.002-0.346-0.003-0.693-0.006-1.042
		c1.05-0.659,2.018-0.167,2.998,0.199c3.188,2.164,6.732,2.488,10.435,2.014c0.638,0.003,1.25,0.115,1.828,0.392
		c0.275,0.163,0.422,0.373,0.438,0.629c0.02,0.272-0.004,0.411-0.069,0.416c-0.273,0.124-0.548,0.245-0.823,0.367
		c-2.196,0.746-4.446,0.869-6.733,0.579C79.1,100.418,75.923,100.342,73.933,97.57z"/>
	<path fill-rule="evenodd" clip-rule="evenodd" fill="#F2E6A7" d="M97.071,87.013c0.019,1.496,0.669,3.053-0.43,4.441
		c-4.815-3.238-10.729-3.463-15.884-5.775c-3.053-1.311-5.351-3.545-7.604-5.921c-4.94-5.214-9.748-10.555-14.841-15.626
		c-1.257-1.251-2.778-2.463-2.973-4.481c0.479-1.303,1.226-2.252,2.792-2.123c5.857,5.66,11.419,11.619,16.731,17.781
		c4.948,5.74,11.184,8.759,18.413,10.102C94.701,85.675,96.021,85.965,97.071,87.013z"/>
	<path fill-rule="evenodd" clip-rule="evenodd" fill="#F9EFB5" d="M97.071,87.013c-12.62-0.464-21.116-7.871-28.498-17.051
		c-3.396-4.225-8.024-7.387-10.586-12.321c-0.188-1.366,0.352-2.025,1.774-1.831c6.569,7.891,13.427,15.533,20.814,22.668
		c3.129,3.023,7.329,3.923,11.472,4.669c1.653,0.299,3.386,0.194,4.799,1.327C96.92,85.321,96.995,86.166,97.071,87.013z"/>
	<path fill-rule="evenodd" clip-rule="evenodd" fill="#FBF2BF" d="M96.847,84.474c-10.046,0.009-17.647-4.729-23.974-12.135
		c-3.925-4.593-8.026-9.034-12.111-13.485c-0.842-0.915-1.113-1.921-1.213-3.061c-0.243-0.647,0.103-0.997,0.639-1.248
		c0.374-0.06,0.706,0.031,0.999,0.272c0.033,0.305,0.066,0.61,0.1,0.916c6.162,7.508,12.91,14.479,19.63,21.475
		c2.948,3.862,7.36,4.391,11.679,4.967c1.351,0.182,2.762-0.064,4.055,0.569C96.716,83.321,96.78,83.897,96.847,84.474z"/>
	<path fill-rule="evenodd" clip-rule="evenodd" fill="#F1E19C" d="M80.679,84.905c4.505,1.267,8.988,2.628,13.529,3.745
		c1.665,0.41,2.361,1.226,2.433,2.804c0.016,0.525-0.422,0.926-0.406,1.447c-0.303,0.294-0.212,0.576-0.635,0.592
		c-4.427-0.836-8.242-3.213-12.333-4.898C82.382,87.384,80.405,86.93,80.679,84.905z"/>
	<path fill-rule="evenodd" clip-rule="evenodd" fill="#CFB671" d="M94.465,95.88c-0.899,1.129-1.799,2.258-2.702,3.387
		c-0.179,0.289-0.681,0.306-0.859,0.595c-0.558,0.015-0.79,0.302-1.347,0.315c-0.022-0.211-0.044-0.421-0.065-0.633
		c-0.281-1.86-0.262-3.834-2.721-4.447c-0.938-0.234-1.571-1.08-1.625-2.176c0.068-0.434,0.282-0.771,0.643-1.019
		C89.213,92.07,92.623,92.266,94.465,95.88z"/>
	<path fill-rule="evenodd" clip-rule="evenodd" fill="#FEFAD7" d="M27.584,18.317c6.102,1.28,10.438,5.898,15.903,8.41
		c7.136,3.283,14.199,6.735,21.185,10.328c2.546,1.31,5.71,0.235,7.919,2.406c-0.737,3.82-4.255,4.062-6.931,5.388
		c-5.29-1.858-10.348-3.932-14.719-7.786c-4.722-4.165-10.119-7.538-15.727-10.525C31.791,24.714,28.285,22.759,27.584,18.317z"/>
	<path fill-rule="evenodd" clip-rule="evenodd" fill="#FFF9D2" d="M27.584,18.317c3.479,6.384,10.651,7.937,15.859,12.063
		c3.269,2.592,7.025,4.467,10.034,7.526c3.285,3.342,8.317,3.845,12.146,6.434c0.17,2.338-1.662,2.624-3.239,3.175
		c-2.822-0.312-4.745-2.298-6.953-3.753c-8.243-5.429-15.482-12.189-23.617-17.759c-0.7-0.48-1.452-0.864-2.219-1.224
		c-4.728-2.352-8.175-6.39-12.389-9.425c-1.25-0.9-2.319-2.054-3.727-2.744c-1.067-0.946-2.255-1.787-2.823-3.18
		c3.748,0.986,6.464,3.781,9.756,5.57C22.736,16.265,24.775,18.11,27.584,18.317z"/>
	<path fill-rule="evenodd" clip-rule="evenodd" fill="#DAC582" d="M62.181,47.082c0.945-1.168,2.925-1.037,3.441-2.741
		c2.252-1.731,5.082-2.634,6.971-4.879c1.684-0.986,3.369-1.975,5.054-2.961c0.574-0.042,1.149-0.085,1.724-0.126
		c-0.215,0.871-0.432,1.74-0.648,2.609c-0.539,2.157-2.258,3.04-4.104,3.773c-2.11,0.842-3.967,2.034-5.152,4.023
		c-0.774,1.299-2.395,2.684-0.04,4.05l-0.425,0.01l-0.421,0.057c-2.016-0.138-3.431,1.11-4.942,2.136
		c-0.818,0.595-1.635,1.19-2.45,1.785c-0.294,0.013-0.588,0.023-0.882,0.034c-1.477-0.169-3.006-0.105-4.304-1.026
		c-0.542-0.74-0.235-1.42,0.143-2.099c0.646-0.917,1.613-1.481,2.425-2.219c0.387-0.389,0.779-0.772,1.185-1.144
		C60.393,47.614,61.411,47.584,62.181,47.082z"/>
	<path fill-rule="evenodd" clip-rule="evenodd" fill="#C9B375" d="M34.015,77.535c-0.478,1.176-0.953,2.352-1.429,3.525
		c-1.369,1.325-1.497,0.165-1.773-0.854c-1.313-4.844-2.951-9.563-5.529-13.906c-3.282-9.643-6.559-19.29-9.862-28.926
		c-0.217-0.628-0.646-1.182-0.976-1.77c0.339-2.141-1.37-3.829-1.31-5.906c-0.866-1.229-0.556-2.642-0.627-3.994
		c2.093-1.104,2.004,1.026,2.788,1.867c1.377,3.33,2.76,6.66,4.239,9.95c0.563,1.596,1.403,3.062,2.137,4.578
		c1.737,5.638,4.777,10.718,6.915,16.186c1.747,4.687,3.155,9.493,5.166,14.082C34.486,74.042,35.133,75.752,34.015,77.535z"/>
	<path fill-rule="evenodd" clip-rule="evenodd" fill="#CAB579" d="M12.796,25.466c0.113,1.41,0.226,2.821,0.339,4.232
		c-1.291-3.806-3.276-7.391-3.58-11.501c-0.461-0.673-0.094-1.014,0.502-1.263c0.384,0.056,0.703,0.23,0.946,0.537
		c0.661,1.092,1.157,2.297,2.118,3.198c0.383,0.447,0.617,0.952,0.643,1.549C13.699,23.378,13.7,24.559,12.796,25.466z"/>
	<path fill-rule="evenodd" clip-rule="evenodd" fill="#D6C482" d="M10.45,17.093c-0.299,0.367-0.596,0.735-0.895,1.104
		c-1.378-2.365-2.331-4.853-2.207-7.651c0.862,0.228,1.467,0.766,1.866,1.552C9.732,13.737,11.553,15.053,10.45,17.093z"/>
	<path fill-rule="evenodd" clip-rule="evenodd" fill="#F8EFB8" d="M15.509,16.718c1.506,1.019,3.007,2.037,4.512,3.054
		c0.639,0.048,1.145,0.357,1.583,0.8c11.474,10.835,21.516,23.126,33.777,33.164c-0.055,1.597-1.229,2.025-2.476,2.377
		c-5.264-1.102-7.896-5.527-11.291-8.981c-6.902-7.028-12.546-15.223-20.074-21.673c-1.923-1.626-3.527-3.554-5.14-5.469
		C15.624,19.069,14.543,18.15,15.509,16.718z"/>
	<path fill-rule="evenodd" clip-rule="evenodd" fill="#FBF4C5" d="M20.937,20.553c-0.308-0.261-0.611-0.521-0.916-0.781
		c-0.045-0.565-0.09-1.129-0.137-1.694c5.033,1.779,8.418,5.905,12.432,9.057c6.114,4.793,12.25,9.646,17.484,15.475
		c2.672,2.979,6.571,4.419,9.311,7.322c-0.774,0.644-1.551,1.287-2.326,1.931c-1.963,1.323-3.195-0.243-4.413-1.266
		c-8.428-7.071-16.006-15.043-23.786-22.789C26.088,25.321,23.103,23.369,20.937,20.553z"/>
	<path fill-rule="evenodd" clip-rule="evenodd" fill="#FDF6CA" d="M59.11,49.931c-4.597-1.419-8.005-4.606-11.306-7.842
		c-8.79-8.612-18.332-16.337-27.921-24.012c-2.447-1.458-4.588-3.271-6.404-5.467c4.098,1.307,6.812,4.696,10.324,6.895
		c2.116,1.323,3.977,3.061,5.949,4.609c5.975,4.039,11.401,8.769,16.844,13.467c3.32,2.865,6.789,5.521,10.355,8.068
		c1.233,0.881,2.587,1.777,3.043,3.409C59.699,49.35,59.405,49.641,59.11,49.931z"/>
	<path fill-rule="evenodd" clip-rule="evenodd" fill="#F2E7AA" d="M15.509,16.718c1.451,3.293,4.321,5.409,6.613,8.006
		c0.559,0.958,1.83,1.607,1.314,3.032c-3.174,1.003-3.545-2.856-5.848-3.364c-0.324-0.189-0.62-0.417-0.896-0.669
		c-0.244-0.275-0.445-0.584-0.613-0.91c-0.529-1.332-1.257-2.544-2.254-3.591c-0.246-0.277-0.456-0.578-0.651-0.892
		c-0.453-0.996-1.278-1.952-0.347-3.099C13.723,15.728,14.616,16.223,15.509,16.718z"/>
	<path fill-rule="evenodd" clip-rule="evenodd" fill="#EDE19F" d="M12.827,15.232c0.375,1.106,0.747,2.214,1.12,3.32
		c-0.895,0.608-1.702,0.195-2.508-0.212c-0.405-0.352-0.619-0.86-0.992-1.239l0.002-0.008c-0.085-1.746-2.035-3.03-1.235-4.995
		C10.907,12.579,11.524,14.303,12.827,15.232z"/>
	<path fill-rule="evenodd" clip-rule="evenodd" fill="#D7C07E" d="M69.426,50.831c-1.798-0.696-2.399-1.621-1.47-3.661
		c1.147-2.514,3.088-4.173,5.396-5.006c2.073-0.747,3.69-1.942,5.369-3.18c0.419,0.658,1.065,0.753,1.764,0.713
		c0.444,2.479-1.809,2.779-3.111,3.849c-6.526,5.346-5.814,3.543-0.917,8.456c-0.83,1.126-1.659,2.25-2.491,3.377
		C72.44,53.875,69.979,53.306,69.426,50.831z"/>
	<path fill-rule="evenodd" clip-rule="evenodd" fill="#FCF4C5" d="M80.916,77.208C75.113,73.155,71,67.413,66.248,62.324
		c-1.85-1.982-4.57-3.458-4.962-6.59C68.303,62.459,74.928,69.544,80.916,77.208z"/>
	<path fill-rule="evenodd" clip-rule="evenodd" fill="#D4BD7C" d="M83.969,40.917c-1.237,3.834-3.949,6.771-6.112,10.041
		c-0.467,0.348-0.933,0.694-1.399,1.044c-1.929,0.128-3.005-1.31-4.228-2.393c-1.767-1.566-1.751-2.794,0.504-4.173
		c2.733-1.669,5.689-3.128,7.752-5.739C81.755,39.792,83.396,38.832,83.969,40.917z"/>
	<path fill-rule="evenodd" clip-rule="evenodd" fill="#CEB675" d="M34.015,77.535c-1.484-6.618-4.623-12.663-6.645-19.098
		c2.511-0.399,3.03,1.621,3.597,3.226c0.946,2.675,2.397,5.061,3.757,7.505c0.97,1.736,2.199,2.618,3.947,0.83
		c0.397-0.453,0.799-0.899,1.208-1.338c0.874-0.937,1.823-1.76,3.088-2.12c1.666-0.374,3.338-0.603,5.024-0.128
		c1.989,1.544,0.953,4.528,2.895,6.103c0.122,0.396,0.078,0.771-0.134,1.127c-4.565,2.146-8.39,7.506-14.435,3.296
		C35.471,76.349,34.758,77.222,34.015,77.535z"/>
	<path fill-rule="evenodd" clip-rule="evenodd" fill="#BFA766" d="M50.752,73.641c-0.019-0.283-0.038-0.563-0.063-0.846
		c3.473,0.211,5.342,2.036,5.571,5.521c-0.356,0.061-0.713,0.122-1.07,0.184c-0.855-0.773-1.709-1.547-2.563-2.32
		C52.002,75.333,51.376,74.488,50.752,73.641z"/>
	<path fill-rule="evenodd" clip-rule="evenodd" fill="#BBA463" d="M56.26,78.316c-1.267-2.436-3.135-4.266-5.57-5.521
		c-2.989-1.093-2.874-3.327-2.127-5.792c0.254-0.33,0.58-0.563,0.971-0.702c2.52-0.301,4.21,1.103,5.811,2.768
		c4.763,4.952,8.835,10.513,13.627,15.438c1.17,1.204,2.15,2.605,3.772,3.277c0.938,0.334,1.849,0.722,2.702,1.238
		c0.77,0.586,1.81,0.989,1.571,2.27c-3.799,1.664,0.117,3.965-0.482,5.894c-0.868-0.22-1.737-0.439-2.607-0.658
		c-3.118-3.445-6.238-6.894-9.359-10.339c-2.479-2.347-4.168-5.517-7.391-7.088C56.871,78.838,56.566,78.578,56.26,78.316z"/>
	<path fill-rule="evenodd" clip-rule="evenodd" fill="#BFA766" d="M57.177,79.101c3.936,0.828,5.444,4.185,7.391,7.088
		C61.404,84.555,59.712,81.389,57.177,79.101z"/>
	<path fill-rule="evenodd" clip-rule="evenodd" fill="#BCA362" d="M76.534,97.186c-0.52-0.633-1.057-1.252-1.556-1.901
		c-2.527-3.285-2.449-3.446,1.931-4.104c4.506-0.563,7.407,2.571,10.649,4.773c1.229,0.837,1.232,2.399,0.248,3.717
		C83.773,100.089,79.691,100.742,76.534,97.186z"/>
	<path fill-rule="evenodd" clip-rule="evenodd" fill="#C5AC66" d="M87.807,99.67c0.247-5.003-4.564-4.847-7.161-6.911
		c-1.021-0.81-2.477-1.069-3.736-1.579c-0.609-0.521-1.22-1.043-1.829-1.564c0.729-2.12,2.184-0.952,3.192-0.524
		c2.553,1.085,5.025,2.37,7.311,3.974c0.504,0.89,1.268,1.316,2.273,1.536c3.257,0.713,3.502,2.497,1.635,4.943
		C88.929,99.585,88.368,99.628,87.807,99.67z"/>
	<path fill-rule="evenodd" clip-rule="evenodd" fill="#EBDC96" d="M80.679,84.905c0.479,1.467,2.744,1.351,2.816,3.178
		c-2.352,1.548-4.284-0.101-5.725-1.315c-8.956-7.559-16.994-16.031-24.187-25.3c0.19-1.17,0.587-2.109,2.063-1.828
		c6.581,7.048,13.117,14.137,19.779,21.106C76.955,82.345,78.917,83.53,80.679,84.905z"/>
	<path fill-rule="evenodd" clip-rule="evenodd" fill="#D6BF7C" d="M55.647,59.639c-0.811,0.348-1.307,0.974-1.581,1.793
		c-0.263,0.313-0.602,0.454-1.004,0.456c-1.537-0.233-3.077-0.47-4.311-1.55c-0.436-0.809-0.106-1.505,0.308-2.191
		c0.949-1.289,2.328-1.948,3.75-2.541c0.765-0.652,1.528-1.305,2.292-1.956c0.233-0.253,0.497-0.288,0.788-0.103
		c1.634-0.113,3.168,0.113,4.416,1.306c-0.253,0.313-0.506,0.628-0.757,0.941c-0.52,0.615-1.041,1.232-1.562,1.847
		C57.208,58.308,56.427,58.974,55.647,59.639z"/>
	<path fill-rule="evenodd" clip-rule="evenodd" fill="#DFCB81" d="M53.217,61.5c0.281-0.022,0.566-0.045,0.85-0.067
		c6.896,7.321,13.733,14.697,20.72,21.931c2.347,2.432,5.212,4.242,8.709,4.72c4.448,0.983,8.323,3.372,12.466,5.101
		c-0.117,1.112-0.532,2.057-1.497,2.697c-2.591-2.166-5.903-2.584-8.937-3.682c-4.355-1.368-8.475-3.204-12.102-6.033
		c-0.807-1.711-2.083-2.992-3.698-3.955c-0.454-0.333-0.828-0.738-1.132-1.209c-0.598-1.139-1.439-2.051-2.54-2.725
		c-0.447-0.318-0.823-0.703-1.127-1.157c-0.577-1.086-1.328-2.042-2.249-2.861c-0.252-0.246-0.476-0.515-0.688-0.793
		c-0.679-1.038-1.593-1.825-2.636-2.483c-0.441-0.331-0.8-0.737-1.095-1.203c-0.606-1.169-1.509-2.037-2.687-2.628
		c-1.486-0.96-3.078-1.82-3.549-3.742C52.022,62.524,52.349,61.842,53.217,61.5z"/>
	<path fill-rule="evenodd" clip-rule="evenodd" fill="#CDB770" d="M69.245,80.699c0.306,0.263,0.61,0.523,0.916,0.787
		c1.057,1.495,2.642,2.493,3.732,3.957c3.316,3.217,8.182,3.768,11.634,6.756c0.018,0.288,0.038,0.577,0.058,0.866
		c-2.459,0.38-4.039-1.489-6.034-2.307c-1.416-0.579-2.668-2.014-4.471-1.143c-0.867-0.217-1.733-0.434-2.602-0.651
		c-5.604-7.849-12.77-14.328-19.011-21.619c-0.817-0.952-2.012-1.606-2.155-3.03c0.095-0.676,0.349-1.178,1.169-1.044
		c0.955,1.357,2.165,2.414,3.672,3.124c0.861,1.127,1.938,2.064,2.815,3.18c0.305,0.262,0.609,0.523,0.914,0.786
		c0.86,1.131,1.934,2.068,2.825,3.173l0.002,0.006c0.836,1.15,1.928,2.076,2.808,3.187c0.305,0.263,0.611,0.526,0.915,0.788
		C67.281,78.653,68.365,79.586,69.245,80.699z"/>
	<path fill-rule="evenodd" clip-rule="evenodd" fill="#FEF7CE" d="M59.995,49.059c-10.771-7.478-20.531-16.18-30.242-24.944
		c2.841,0.599,5.047,2.363,7.148,4.161c8.002,6.847,16.491,13.025,25.28,18.806C61.856,48.187,60.793,48.476,59.995,49.059z"/>
	<path fill-rule="evenodd" clip-rule="evenodd" fill="#FAF1BF" d="M55.89,53.547c-0.262,0.034-0.525,0.069-0.788,0.103
		c-3.947-0.937-6.378-4.094-9.003-6.685c-7.986-7.887-15.409-16.339-23.678-23.954c-0.747-0.688-1.411-1.384-1.484-2.458
		c6.582,4.384,11.593,10.519,17.443,15.72c5.439,4.837,10.321,10.29,16.091,14.77c0.614,0.476,1.534,0.556,2.313,0.819
		C56.487,52.423,56.188,52.986,55.89,53.547z"/>
	<path fill-rule="evenodd" clip-rule="evenodd" fill="#D0BC77" d="M39.407,70.28c-2.391,3.201-3.492,3.29-5.254-0.03
		c-1.434-2.701-3.441-5.123-4.053-8.273c-0.29-1.505-1.096-2.92-2.73-3.539c-1.609-3.658-3.245-7.308-4.818-10.983
		c-0.762-1.784-1.717-3.527-1.621-5.567c0.185-0.058,0.371-0.117,0.56-0.177c2.153,1.452,2.509,4.396,4.78,5.75
		c2.087,2.019,2.977,4.762,4.236,7.249C33.216,60.053,36.016,65.332,39.407,70.28z"/>
	<path fill-rule="evenodd" clip-rule="evenodd" fill="#D0BC7A" d="M18.897,37.78c-2.039-3.03-3.376-6.358-4.206-9.901
		c0.201-0.058,0.4-0.116,0.602-0.174c2.737,3.075,5.438,6.169,5.617,10.603C19.952,39.232,19.458,38.384,18.897,37.78z"/>
	<path fill-rule="evenodd" clip-rule="evenodd" fill="#D0BC7A" d="M12.796,25.466c0.023-1.178-0.584-2.456,0.54-3.463
		c1.343,0.33,1.78,1.383,2.062,2.567c0.194,1.19,0.145,2.333-0.702,3.304l-0.004,0.004C14.06,27.074,13.427,26.27,12.796,25.466z"/>
	<path fill-rule="evenodd" clip-rule="evenodd" fill="#D0BC77" d="M18.897,37.78c0.587,0.239,1.173,0.478,1.762,0.715
		c0.361,0.252,0.616,0.585,0.77,0.999c0.248,0.882,0.139,1.692-0.496,2.392l-0.002,0.001C19.495,40.892,18.976,39.445,18.897,37.78z
		"/>
	<path fill-rule="evenodd" clip-rule="evenodd" fill="#E5D590" d="M14.427,24.476c-0.365-0.824-0.728-1.647-1.091-2.473
		c-0.289-0.263-0.576-0.524-0.864-0.788c-0.5-1.07-1.342-2.03-1.098-3.345c0.858,0.227,1.714,0.455,2.573,0.682l0,0
		c1.127,1.228,1.707,2.847,2.877,4.042c0.024,0.278,0.048,0.558,0.077,0.839c0.712,0.664,0.851,1.444,0.461,2.329
		c-0.41,0.556-0.961,0.776-1.643,0.682C14.784,26.123,15.108,24.968,14.427,24.476z"/>
	<path fill-rule="evenodd" clip-rule="evenodd" fill="#D6C482" d="M11.374,17.871c0.367,1.113,0.732,2.23,1.098,3.345
		c-1.466-0.98-1.983-2.432-2.026-4.114C10.755,17.357,11.064,17.613,11.374,17.871z"/>
	<path fill-rule="evenodd" clip-rule="evenodd" fill="#F5EBB1" d="M52.81,55.606c-0.583,1.501-2.142,1.911-3.207,2.875
		c-1.551-0.173-2.459-1.279-3.324-2.378c-7.363-9.379-15.298-18.28-22.889-27.469c-0.053-0.194-0.102-0.39-0.149-0.586
		c-0.374-1.107-0.745-2.217-1.118-3.324c6.031,4.135,9.622,10.569,14.703,15.611c4.371,4.341,8.419,9.003,12.717,13.42
		C50.379,54.617,51.706,55,52.81,55.606z"/>
	<path fill-rule="evenodd" clip-rule="evenodd" fill="#EDE19F" d="M17.744,23.37c2.524,0.747,3.271,3.579,5.496,4.679l-0.002,0.002
		c8.891,10.316,16.551,21.587,25.015,32.237c0.081,1.284-0.649,1.964-1.756,2.368c-3.324,0.201-4.581-2.518-6.076-4.6
		c-5.842-8.143-11.16-16.647-17.006-24.792c-1.322-1.843-2.997-3.401-4.148-5.357C18.443,26.512,17.024,25.29,17.744,23.37z"/>
	<path fill-rule="evenodd" clip-rule="evenodd" fill="#EADC98" d="M17.744,23.37c5.095,7.358,10.134,14.753,15.298,22.06
		c3.545,5.016,6.563,10.403,10.632,15.06c0.798,0.912,1.524,1.634,2.789,1.563c0.401,1.956-0.729,2.76-2.381,3.17
		c-1.938-0.325-2.665-2.03-3.556-3.382C32.762,50.083,25.259,38.152,17.2,26.588c-0.035-0.204-0.064-0.41-0.096-0.614
		c-0.068-0.847-0.136-1.694-0.203-2.541C17.181,23.411,17.465,23.388,17.744,23.37z"/>
	<path fill-rule="evenodd" clip-rule="evenodd" fill="#EDE19F" d="M16.824,22.594c-1.767-0.771-2.445-2.32-2.877-4.042
		C15.731,19.312,16.41,20.861,16.824,22.594z"/>
	<path fill-rule="evenodd" clip-rule="evenodd" fill="#D5C17D" d="M14.427,24.476c0.712,0.31,0.91,0.932,0.985,1.626
		c2.827,1.367,3.257,4.544,5.056,6.689c0.233,0.314,0.428,0.648,0.606,0.997c0.936,2.398,2.536,4.456,3.509,6.836
		c3.098,5.963,6.142,11.93,9.884,17.552c2.303,3.463,4.096,7.309,5.718,11.185c-0.259,0.306-0.518,0.613-0.777,0.919
		c-2.792-2.805-5.568-5.402-6.989-9.472c-1.627-4.663-4.464-8.902-6.776-13.324c-2.813-2.007-3.021-5.582-4.914-8.144
		c-0.021-0.282-0.045-0.563-0.068-0.846c-1.246-3.958-3.78-7.19-5.964-10.62C14.606,26.741,14.518,25.609,14.427,24.476z"/>
	<path fill-rule="evenodd" clip-rule="evenodd" fill="#DAC781" d="M40.185,69.361c-2.287-0.86-2.542-3.207-3.544-4.967
		c-4.459-7.824-8.829-15.703-13.229-23.563c0.48-0.524,1.068-0.607,1.725-0.414c2.576,2.489,4.057,5.735,5.741,8.786
		c1.579,2.859,3.318,5.539,5.503,7.945c2.376,2.875,3.144,6.848,6.273,9.216c0.222,0.379,0.188,0.744-0.063,1.097
		C41.787,68.094,40.985,68.728,40.185,69.361z"/>
	<path fill-rule="evenodd" clip-rule="evenodd" fill="#D1B976" d="M42.59,67.461c-0.022-0.283-0.043-0.565-0.066-0.851
		c0.053-1.001,0.886-1.351,1.549-1.839c1.104-0.637,1.88-1.563,2.391-2.721c0.526-0.604,1.05-1.21,1.573-1.815
		c0.233-0.307,0.499-0.339,0.799-0.098c1.523,0.25,3.109,0.298,4.382,1.361c-0.246,0.592-0.491,1.182-0.735,1.771
		c-0.254,0.307-0.508,0.612-0.763,0.921c-0.266,1.352-1.372,1.983-2.343,2.729c-0.272,0.029-0.543,0.057-0.815,0.082
		C46.571,67.157,44.58,67.308,42.59,67.461z"/>
	<path fill-rule="evenodd" clip-rule="evenodd" fill="#C3AB67" d="M49.376,66.921c0.461-1.185,1.237-2.1,2.343-2.729
		c6.271,6.782,12.487,13.617,18.855,20.308c1.287,1.352,1.891,2.712,1.904,4.465c-4.841-3.897-8.62-8.788-12.734-13.384
		C56.757,72.241,54.729,67.51,49.376,66.921z"/>
	<path fill-rule="evenodd" clip-rule="evenodd" fill="#F2E7A9" d="M48.835,60.138c-0.269,0.019-0.535,0.052-0.799,0.098
		c-5.129-2.757-6.923-8.367-10.543-12.434c-4.855-5.449-8.303-12.033-13.254-17.462c-0.531-0.583-0.675-1.519-1.001-2.29
		c5.479,3.881,8.811,9.718,13.189,14.599c4.579,5.106,8.798,10.539,13.173,15.831C49.346,59.034,49.092,59.584,48.835,60.138z"/>
	<path fill-rule="evenodd" clip-rule="evenodd" fill="#D6BF7C" d="M73.894,85.443c-1.667-0.921-3.342-1.833-3.732-3.957
		C71.832,82.402,73.509,83.314,73.894,85.443z"/>
	<path fill-rule="evenodd" clip-rule="evenodd" fill="#D6BF7C" d="M58.969,69.575c-1.409-0.643-2.596-1.483-2.815-3.18
		C57.588,67.015,58.771,67.857,58.969,69.575z"/>
	<path fill-rule="evenodd" clip-rule="evenodd" fill="#D6BF7C" d="M62.708,73.534c-1.427-0.627-2.604-1.474-2.824-3.173
		C61.317,70.979,62.493,71.828,62.708,73.534z"/>
	<path fill-rule="evenodd" clip-rule="evenodd" fill="#D6BF7C" d="M69.245,80.699c-1.416-0.639-2.604-1.479-2.813-3.185
		C67.86,78.143,69.047,78.983,69.245,80.699z"/>
	<path fill-rule="evenodd" clip-rule="evenodd" fill="#D6BF7C" d="M65.518,76.726c-1.417-0.639-2.613-1.47-2.808-3.187
		C64.123,74.181,65.321,75.014,65.518,76.726z"/>
	<path fill-rule="evenodd" clip-rule="evenodd" fill="#D0BC7A" d="M20.728,39.34c2.569,2.152,2.973,5.611,4.914,8.144
		c-3.197-0.496-2.791-4.027-4.709-5.599C20.864,41.036,20.796,40.188,20.728,39.34z"/>
	<path fill-rule="evenodd" clip-rule="evenodd" fill="#DCCA85" d="M20.254,33.406c-2.602-1.779-2.944-5.055-4.842-7.304
		c0.565-0.043,1.129-0.085,1.692-0.128l0.002,0.001C18.11,28.472,21.397,30,20.254,33.406z"/>
	<path fill-rule="evenodd" clip-rule="evenodd" fill="#E5D590" d="M20.254,33.406c0.042-2.939-2.699-4.698-3.147-7.431
		c3.113,2.666,5.224,6.153,7.455,9.487c6.226,9.305,12.261,18.733,18.386,28.103c0.297,0.455,0.746,0.809,1.125,1.207
		c-0.243,0.843-0.782,1.437-1.549,1.839c-2.923-0.025-3.201-2.72-4.372-4.447c-0.922-1.361-1.547-2.926-2.304-4.401
		c-3.664-5.823-6.823-11.966-10.987-17.477C22.468,38.567,21.75,35.727,20.254,33.406L20.254,33.406z"/>
	<path fill-rule="evenodd" clip-rule="evenodd" fill="#DCCA85" d="M20.254,33.406c1.592,2.15,3.187,4.299,4.779,6.447
		c0.26,0.17,0.354,0.353,0.288,0.547c-0.066,0.195-0.142,0.296-0.223,0.303c-0.563,0.043-1.126,0.086-1.689,0.129
		C22.944,38.108,20.222,36.343,20.254,33.406z"/>
	<path fill-rule="evenodd" clip-rule="evenodd" fill="#E0CF89" d="M25.099,40.703c-0.023-0.284-0.045-0.566-0.065-0.85
		c4.226,5.596,8.642,11.075,10.814,17.909C30.797,53.001,28.368,46.586,25.099,40.703z"/>
</g>
</svg>
