<?xml version="1.0" encoding="utf-8"?>
<!-- Generator: Adobe Illustrator 16.0.0, SVG Export Plug-In . SVG Version: 6.00 Build 0)  -->
<!DOCTYPE svg PUBLIC "-//W3C//DTD SVG 1.1//EN" "http://www.w3.org/Graphics/SVG/1.1/DTD/svg11.dtd">
<svg version="1.1" id="Calque_1" xmlns="http://www.w3.org/2000/svg" xmlns:xlink="http://www.w3.org/1999/xlink" x="0px" y="0px"
	 width="206.13px" height="206.131px" viewBox="0 0 206.13 206.131" enable-background="new 0 0 206.13 206.131"
	 xml:space="preserve">
<g>
	<path fill="#F5F6FB" d="M13.018,206.131C5.839,206.131,0,200.291,0,193.115V13.018C0,5.839,5.839,0,13.018,0h180.095
		c7.182,0,13.018,5.839,13.018,13.018v180.098c0,7.176-5.836,13.016-13.018,13.016H13.018z"/>
	<path fill="#9097CB" d="M13.018,206.131h180.095c7.182,0,13.018-5.84,13.018-13.016v-27.269l-45.415-67.714l-28.881,43.062
		l-2.467-3.68L64.679,41.067L0,137.5v55.615C0,200.291,5.839,206.131,13.018,206.131z"/>
	<path fill="#F5D79B" d="M166.095,50.926c0,13.135-10.643,23.78-23.774,23.78c-13.13,0-23.772-10.646-23.772-23.78
		c0-13.128,10.643-23.773,23.772-23.773C155.452,27.152,166.095,37.798,166.095,50.926z"/>
</g>
</svg>
