<?xml version="1.0" encoding="utf-8"?>
<!-- Generator: Adobe Illustrator 16.0.0, SVG Export Plug-In . SVG Version: 6.00 Build 0)  -->
<!DOCTYPE svg PUBLIC "-//W3C//DTD SVG 1.1//EN" "http://www.w3.org/Graphics/SVG/1.1/DTD/svg11.dtd">
<svg version="1.1" id="Calque_1" xmlns="http://www.w3.org/2000/svg" xmlns:xlink="http://www.w3.org/1999/xlink" x="0px" y="0px"
	 width="720.819px" height="188.931px" viewBox="0 0 720.819 188.931" enable-background="new 0 0 720.819 188.931"
	 xml:space="preserve">
<g>
	<path fill="#64B6AA" d="M630.074,188.931H27.898C12.489,188.931,0,176.436,0,161.026V27.905C0,12.493,12.489,0,27.898,0h602.176
		c15.408,0,27.902,12.493,27.902,27.905v133.121C657.977,176.436,645.482,188.931,630.074,188.931z"/>
	<g>
		
			<image overflow="visible" opacity="0.21" width="566" height="566" xlink:href="B05CEE89.png"  transform="matrix(0.24 0 0 0.24 41.1543 28.2183)">
		</image>
		<g>
			<path fill="#FFFFFF" d="M155.163,139.084c-24.637,24.646-64.593,24.646-89.239,0s-24.646-64.594,0-89.24
				c24.646-24.645,64.603-24.645,89.239,0C179.809,74.49,179.809,114.438,155.163,139.084z"/>
		</g>
	</g>
	<g>
		<path fill="#F4FAFB" d="M446.432,81.089H234.055c-5.446,0-9.87-4.416-9.87-9.872c0-5.455,4.424-9.872,9.87-9.872h212.376
			c5.449,0,9.875,4.417,9.875,9.872C456.307,76.673,451.881,81.089,446.432,81.089z"/>
	</g>
	<g>
		<path fill="#F4FAFB" d="M587.828,81.089h-96.566c-5.455,0-9.873-4.416-9.873-9.872c0-5.455,4.418-9.872,9.873-9.872h96.566
			c5.447,0,9.863,4.417,9.863,9.872C597.691,76.673,593.275,81.089,587.828,81.089z"/>
	</g>
	<g>
		<path fill="#F4FAFB" d="M353.358,130.872H234.055c-5.446,0-9.87-4.416-9.87-9.87c0-5.455,4.424-9.874,9.87-9.874h119.303
			c5.457,0,9.871,4.419,9.871,9.874C363.229,126.456,358.815,130.872,353.358,130.872z"/>
	</g>
	<g>
		
			<image overflow="visible" opacity="0.3" width="285" height="324" xlink:href="B05CEE8B.png"  transform="matrix(0.24 0 0 0.24 87.8813 56.5972)">
		</image>
		<g>
			<polygon fill="#64B6AA" points="153.752,93.389 124.035,110.546 94.318,127.701 94.318,93.389 94.318,59.073 124.035,76.231 			
				"/>
		</g>
	</g>
	<path fill="#FFFFFF" d="M703.332,159.127H410.957c-9.658,0-17.492-7.83-17.492-17.488v-22.897c0-9.662,7.834-17.491,17.492-17.491
		h292.375c9.66,0,17.486,7.829,17.486,17.491v22.897C720.818,151.297,712.992,159.127,703.332,159.127z"/>
	<g>
		<g>
			<path fill="#F9C2D0" d="M693.646,133.688H420.643c-1.93,0-3.496-1.568-3.496-3.497c0-1.931,1.566-3.497,3.496-3.497h273.004
				c1.928,0,3.496,1.566,3.496,3.497C697.143,132.119,695.574,133.688,693.646,133.688z"/>
		</g>
		<g>
			<path fill="#9097CB" d="M461.674,126.693h-41.031c-1.93,0-3.496,1.566-3.496,3.497c0,1.929,1.566,3.497,3.496,3.497h41.031
				V126.693z"/>
		</g>
	</g>
	<g>
		
			<image overflow="visible" opacity="0.2" width="111" height="111" xlink:href="B05CEE8E.png"  transform="matrix(0.24 0 0 0.24 448.2207 118.1768)">
		</image>
		<g>
			<path fill="#9097CB" d="M472.242,130.187c0,5.313-4.301,9.615-9.615,9.615c-5.305,0-9.609-4.302-9.609-9.615
				c0-5.307,4.305-9.611,9.609-9.611C467.941,120.575,472.242,124.88,472.242,130.187z"/>
		</g>
	</g>
</g>
</svg>
